<svg width="17" height="18" viewBox="0 0 17 18" fill="none" xmlns="http://www.w3.org/2000/svg">
<g id="Group">
<g id="Group_2">
<path id="Vector" fill-rule="evenodd" clip-rule="evenodd" d="M7.58887 17.1683C8.12632 17.6655 8.95963 17.6593 9.49333 17.1659C9.53098 17.1311 13.45 13.4484 13.8711 13.0274C16.8155 10.0829 16.8155 5.30903 13.8711 2.36458C10.9267 -0.579861 6.15278 -0.579861 3.20833 2.36458C0.263889 5.30903 0.263889 10.0829 3.20833 13.0274C3.62419 13.4432 7.5508 17.1331 7.58887 17.1683ZM4.89193 11.3438C2.87731 9.32914 2.87731 6.0628 4.89193 4.04818C6.90655 2.03356 10.1729 2.03356 12.1875 4.04818C14.2021 6.0628 14.2021 9.32914 12.1875 11.3438C11.7869 11.7444 8.68461 14.6671 8.68461 14.6671C8.6048 14.7423 8.47779 14.7446 8.3953 14.6669C8.3953 14.6669 5.28685 11.7387 4.89193 11.3438ZM8.53972 10.0769C9.85469 10.0769 10.9207 9.01094 10.9207 7.69597C10.9207 6.381 9.85469 5.315 8.53972 5.315C7.22475 5.315 6.15875 6.381 6.15875 7.69597C6.15875 9.01094 7.22475 10.0769 8.53972 10.0769Z" fill="#8A8A8A" stroke="black" stroke-width="0.310399"/>
</g>
</g>
</svg>
