<svg width="27" height="27" viewBox="0 0 27 27" fill="none" xmlns="http://www.w3.org/2000/svg">
<mask id="mask0_1_1348" style="mask-type:alpha" maskUnits="userSpaceOnUse" x="0" y="0" width="27" height="27">
<rect width="26.9295" height="26.9295" fill="#C4C4C4"/>
</mask>
<g mask="url(#mask0_1_1348)">
<path d="M25.9312 25.1754V25.9311H25.1758V25.1754H25.9312Z" fill="#211D1D"/>
<path d="M25.9312 24.4201V25.1757H25.1758V24.4201H25.9312Z" fill="#211D1D"/>
<path d="M25.9312 23.6649V24.4203H25.1758V23.6649H25.9312Z" fill="#211D1D"/>
<path d="M25.176 25.1754V25.9311H24.4204V25.1754H25.176Z" fill="#211D1D"/>
<path d="M25.176 24.4201V25.1757H24.4204V24.4201H25.176Z" fill="#DB9C42"/>
<path d="M25.176 23.6649V24.4203H24.4204V23.6649H25.176Z" fill="#DB9C42"/>
<path d="M25.176 22.9075V23.6631H24.4204V22.9075H25.176Z" fill="#211D1D"/>
<path d="M24.4188 25.1754V25.9311H23.6632V25.1754H24.4188Z" fill="#211D1D"/>
<path d="M24.4188 24.4201V25.1757H23.6632V24.4201H24.4188Z" fill="#DB9C42"/>
<path d="M24.4188 23.6649V24.4203H23.6632V23.6649H24.4188Z" fill="#DB9C42"/>
<path d="M24.4188 22.9075V23.6631H23.6632V22.9075H24.4188Z" fill="#A0642C"/>
<path d="M24.4188 22.1521V22.9077H23.6632V22.1521H24.4188Z" fill="#211D1D"/>
<path d="M24.4188 7.79629V8.55196H23.6632V7.79629H24.4188Z" fill="#211D1D"/>
<path d="M24.4188 7.04113V7.79657H23.6632V7.04113H24.4188Z" fill="#211D1D"/>
<path d="M24.4188 6.28553V7.0412H23.6632V6.28553H24.4188Z" fill="#211D1D"/>
<path d="M24.4188 5.53017V6.28583H23.6632V5.53017H24.4188Z" fill="#211D1D"/>
<path d="M23.6651 25.1754V25.9311H22.9096V25.1754H23.6651Z" fill="#211D1D"/>
<path d="M23.6651 24.4201V25.1757H22.9096V24.4201H23.6651Z" fill="#DB9C42"/>
<path d="M23.6651 23.6649V24.4203H22.9096V23.6649H23.6651Z" fill="#DB9C42"/>
<path d="M23.6651 22.9075V23.6631H22.9096V22.9075H23.6651Z" fill="#A0642C"/>
<path d="M23.6651 22.1521V22.9077H22.9096V22.1521H23.6651Z" fill="#DB9C42"/>
<path d="M23.6651 21.3988V22.1542H22.9096V21.3988H23.6651Z" fill="#211D1D"/>
<path d="M23.6651 20.6429V21.3988H22.9096V20.6429H23.6651Z" fill="#211D1D"/>
<path d="M23.6651 19.1306V19.8863H22.9096V19.1306H23.6651Z" fill="#211D1D"/>
<path d="M23.6651 18.3752V19.1309H22.9096V18.3752H23.6651Z" fill="#211D1D"/>
<path d="M23.6651 17.62V18.3755H22.9096V17.62H23.6651Z" fill="#211D1D"/>
<path d="M23.6651 16.8645V17.6201H22.9096V16.8645H23.6651Z" fill="#211D1D"/>
<path d="M23.6651 16.1075V16.8629H22.9096V16.1075H23.6651Z" fill="#211D1D"/>
<path d="M23.6651 15.3537V16.1094H22.9096V15.3537H23.6651Z" fill="#211D1D"/>
<path d="M23.6651 14.5983V15.354H22.9096V14.5983H23.6651Z" fill="#211D1D"/>
<path d="M23.6651 13.8414V14.5968H22.9096V13.8414H23.6651Z" fill="#211D1D"/>
<path d="M23.6651 13.0858V13.8414H22.9096V13.0858H23.6651Z" fill="#211D1D"/>
<path d="M23.6651 12.3304V13.086H22.9096V12.3304H23.6651Z" fill="#211D1D"/>
<path d="M23.6651 11.5752V12.3307H22.9096V11.5752H23.6651Z" fill="#211D1D"/>
<path d="M23.6651 10.8178V11.5735H22.9096V10.8178H23.6651Z" fill="#211D1D"/>
<path d="M23.6651 10.0624V10.8181H22.9096V10.0624H23.6651Z" fill="#211D1D"/>
<path d="M23.6651 8.5535V9.30916H22.9096V8.5535H23.6651Z" fill="#211D1D"/>
<path d="M23.6651 7.79629V8.55196H22.9096V7.79629H23.6651Z" fill="#DAA645"/>
<path d="M23.6651 7.04113V7.79657H22.9096V7.04113H23.6651Z" fill="#F1C16B"/>
<path d="M23.6651 6.28553V7.0412H22.9096V6.28553H23.6651Z" fill="#DAA645"/>
<path d="M23.6651 5.53017V6.28583H22.9096V5.53017H23.6651Z" fill="#F1C16B"/>
<path d="M23.6651 4.77296V5.52863H22.9096V4.77296H23.6651Z" fill="#211D1D"/>
<path d="M22.9099 25.1754V25.9311H22.1542V25.1754H22.9099Z" fill="#211D1D"/>
<path d="M22.9099 24.4201V25.1757H22.1542V24.4201H22.9099Z" fill="#DB9C42"/>
<path d="M22.9099 23.6649V24.4203H22.1542V23.6649H22.9099Z" fill="#DB9C42"/>
<path d="M22.9099 22.9075V23.6631H22.1542V22.9075H22.9099Z" fill="#A0642C"/>
<path d="M22.9099 22.1521V22.9077H22.1542V22.1521H22.9099Z" fill="#DB9C42"/>
<path d="M22.9099 21.3988V22.1542H22.1542V21.3988H22.9099Z" fill="#A0642C"/>
<path d="M22.9099 20.6429V21.3988H22.1542V20.6429H22.9099Z" fill="#FDDB8F"/>
<path d="M22.9099 19.8862V20.6416H22.1542V19.8862H22.9099Z" fill="#211D1D"/>
<path d="M22.9099 19.1306V19.8863H22.1542V19.1306H22.9099Z" fill="#FDDB8F"/>
<path d="M22.9099 18.3752V19.1309H22.1542V18.3752H22.9099Z" fill="#FDDB8F"/>
<path d="M22.9099 17.62V18.3755H22.1542V17.62H22.9099Z" fill="#FDDB8F"/>
<path d="M22.9099 16.8645V17.6201H22.1542V16.8645H22.9099Z" fill="#FDDB8F"/>
<path d="M22.9099 16.1075V16.8629H22.1542V16.1075H22.9099Z" fill="#FDDB8F"/>
<path d="M22.9099 15.3537V16.1094H22.1542V15.3537H22.9099Z" fill="#FDDB8F"/>
<path d="M22.9099 14.5983V15.354H22.1542V14.5983H22.9099Z" fill="#FDDB8F"/>
<path d="M22.9099 13.8414V14.5968H22.1542V13.8414H22.9099Z" fill="#FDDB8F"/>
<path d="M22.9099 13.0858V13.8414H22.1542V13.0858H22.9099Z" fill="#FDDB8F"/>
<path d="M22.9099 12.3304V13.086H22.1542V12.3304H22.9099Z" fill="#FDDB8F"/>
<path d="M22.9099 11.5752V12.3307H22.1542V11.5752H22.9099Z" fill="#FDDB8F"/>
<path d="M22.9099 10.8178V11.5735H22.1542V10.8178H22.9099Z" fill="#FDDB8F"/>
<path d="M22.9099 10.0624V10.8181H22.1542V10.0624H22.9099Z" fill="#FDDB8F"/>
<path d="M22.9099 9.30726V10.0627H22.1542V9.30726H22.9099Z" fill="#211D1D"/>
<path d="M22.9099 8.5535V9.30916H22.1542V8.5535H22.9099Z" fill="#FDDB8F"/>
<path d="M22.9099 7.79629V8.55196H22.1542V7.79629H22.9099Z" fill="#DAA645"/>
<path d="M22.9099 7.04113V7.79657H22.1542V7.04113H22.9099Z" fill="#F1C16B"/>
<path d="M22.9099 6.28553V7.0412H22.1542V6.28553H22.9099Z" fill="#DAA645"/>
<path d="M22.9099 5.53017V6.28583H22.1542V5.53017H22.9099Z" fill="#F1C16B"/>
<path d="M22.9099 4.77296V5.52863H22.1542V4.77296H22.9099Z" fill="#211D1D"/>
<path d="M22.1545 25.1754V25.9311H21.3989V25.1754H22.1545Z" fill="#211D1D"/>
<path d="M22.1545 24.4201V25.1757H21.3989V24.4201H22.1545Z" fill="#F1C16B"/>
<path d="M22.1545 23.6649V24.4203H21.3989V23.6649H22.1545Z" fill="#F1C16B"/>
<path d="M22.1545 22.9075V23.6631H21.3989V22.9075H22.1545Z" fill="#A0642C"/>
<path d="M22.1545 22.1521V22.9077H21.3989V22.1521H22.1545Z" fill="#DB9C42"/>
<path d="M22.1545 21.3988V22.1542H21.3989V21.3988H22.1545Z" fill="#A0642C"/>
<path d="M22.1545 20.6429V21.3988H21.3989V20.6429H22.1545Z" fill="#FDDB8F"/>
<path d="M22.1545 19.8862V20.6416H21.3989V19.8862H22.1545Z" fill="#B26B23"/>
<path d="M22.1545 19.1306V19.8863H21.3989V19.1306H22.1545Z" fill="#FDDB8F"/>
<path d="M22.1545 18.3752V19.1309H21.3989V18.3752H22.1545Z" fill="#FDDB8F"/>
<path d="M22.1545 17.62V18.3755H21.3989V17.62H22.1545Z" fill="#FDDB8F"/>
<path d="M22.1545 16.8645V17.6201H21.3989V16.8645H22.1545Z" fill="#FDDB8F"/>
<path d="M22.1545 16.1075V16.8629H21.3989V16.1075H22.1545Z" fill="#FDDB8F"/>
<path d="M22.1545 15.3537V16.1094H21.3989V15.3537H22.1545Z" fill="#FDDB8F"/>
<path d="M22.1545 14.5983V15.354H21.3989V14.5983H22.1545Z" fill="#FDDB8F"/>
<path d="M22.1545 13.8414V14.5968H21.3989V13.8414H22.1545Z" fill="#FDDB8F"/>
<path d="M22.1545 13.0858V13.8414H21.3989V13.0858H22.1545Z" fill="#FDDB8F"/>
<path d="M22.1545 12.3304V13.086H21.3989V12.3304H22.1545Z" fill="#FDDB8F"/>
<path d="M22.1545 11.5752V12.3307H21.3989V11.5752H22.1545Z" fill="#FDDB8F"/>
<path d="M22.1545 10.8178V11.5735H21.3989V10.8178H22.1545Z" fill="#FDDB8F"/>
<path d="M22.1545 10.0624V10.8181H21.3989V10.0624H22.1545Z" fill="#FDDB8F"/>
<path d="M22.1545 9.30726V10.0627H21.3989V9.30726H22.1545Z" fill="#9B601D"/>
<path d="M22.1545 8.5535V9.30916H21.3989V8.5535H22.1545Z" fill="#FDDB8F"/>
<path d="M22.1545 7.79629V8.55196H21.3989V7.79629H22.1545Z" fill="#DAA645"/>
<path d="M22.1545 7.04113V7.79657H21.3989V7.04113H22.1545Z" fill="#F1C16B"/>
<path d="M22.1545 6.28553V7.0412H21.3989V6.28553H22.1545Z" fill="#DAA645"/>
<path d="M22.1545 5.53017V6.28583H21.3989V5.53017H22.1545Z" fill="#F1C16B"/>
<path d="M22.1545 4.77296V5.52863H21.3989V4.77296H22.1545Z" fill="#F1C16B"/>
<path d="M22.1545 4.01963V4.77507H21.3989V4.01963H22.1545Z" fill="#211D1D"/>
<path d="M21.3953 25.1754V25.9311H20.6398V25.1754H21.3953Z" fill="#211D1D"/>
<path d="M21.3953 24.4201V25.1757H20.6398V24.4201H21.3953Z" fill="#F1C16B"/>
<path d="M21.3953 23.6649V24.4203H20.6398V23.6649H21.3953Z" fill="#F1C16B"/>
<path d="M21.3953 22.9075V23.6631H20.6398V22.9075H21.3953Z" fill="#DAA645"/>
<path d="M21.3953 22.1521V22.9077H20.6398V22.1521H21.3953Z" fill="#DB9C42"/>
<path d="M21.3953 21.3988V22.1542H20.6398V21.3988H21.3953Z" fill="#A0642C"/>
<path d="M21.3953 20.6429V21.3988H20.6398V20.6429H21.3953Z" fill="#FDDB8F"/>
<path d="M21.3953 19.8862V20.6416H20.6398V19.8862H21.3953Z" fill="#B26B23"/>
<path d="M21.3953 19.1306V19.8863H20.6398V19.1306H21.3953Z" fill="#FDDB8F"/>
<path d="M21.3953 18.3752V19.1309H20.6398V18.3752H21.3953Z" fill="#FDDB8F"/>
<path d="M21.3953 17.62V18.3755H20.6398V17.62H21.3953Z" fill="#FDDB8F"/>
<path d="M21.3953 16.8645V17.6201H20.6398V16.8645H21.3953Z" fill="#FEF2D4"/>
<path d="M21.3953 16.1075V16.8629H20.6398V16.1075H21.3953Z" fill="#FDDB8F"/>
<path d="M21.3953 15.3537V16.1094H20.6398V15.3537H21.3953Z" fill="#FEF2D4"/>
<path d="M21.3953 14.5983V15.354H20.6398V14.5983H21.3953Z" fill="#FEF2D4"/>
<path d="M21.3953 13.8414V14.5968H20.6398V13.8414H21.3953Z" fill="#FEF2D4"/>
<path d="M21.3953 13.0858V13.8414H20.6398V13.0858H21.3953Z" fill="#FEF2D4"/>
<path d="M21.3953 12.3304V13.086H20.6398V12.3304H21.3953Z" fill="#FEF2D4"/>
<path d="M21.3953 11.5752V12.3307H20.6398V11.5752H21.3953Z" fill="#FEF2D4"/>
<path d="M21.3953 10.8178V11.5735H20.6398V10.8178H21.3953Z" fill="#FEF2D4"/>
<path d="M21.3953 10.0624V10.8181H20.6398V10.0624H21.3953Z" fill="#FEF2D4"/>
<path d="M21.3953 9.30726V10.0627H20.6398V9.30726H21.3953Z" fill="#9B601D"/>
<path d="M21.3953 8.5535V9.30916H20.6398V8.5535H21.3953Z" fill="#FEF2D4"/>
<path d="M21.3953 7.79629V8.55196H20.6398V7.79629H21.3953Z" fill="#DAA645"/>
<path d="M21.3953 7.04113V7.79657H20.6398V7.04113H21.3953Z" fill="#F1C16B"/>
<path d="M21.3953 6.28553V7.0412H20.6398V6.28553H21.3953Z" fill="#DAA645"/>
<path d="M21.3953 5.53017V6.28583H20.6398V5.53017H21.3953Z" fill="#F1C16B"/>
<path d="M21.3953 4.77296V5.52863H20.6398V4.77296H21.3953Z" fill="#F1C16B"/>
<path d="M21.3953 4.01963V4.77507H20.6398V4.01963H21.3953Z" fill="#211D1D"/>
<path d="M20.642 25.1754V25.9311H19.8863V25.1754H20.642Z" fill="#211D1D"/>
<path d="M20.642 24.4201V25.1757H19.8863V24.4201H20.642Z" fill="#F1C16B"/>
<path d="M20.642 23.6649V24.4203H19.8863V23.6649H20.642Z" fill="#F1C16B"/>
<path d="M20.642 22.9075V23.6631H19.8863V22.9075H20.642Z" fill="#DAA645"/>
<path d="M20.642 22.1521V22.9077H19.8863V22.1521H20.642Z" fill="#F1C16B"/>
<path d="M20.642 21.3988V22.1542H19.8863V21.3988H20.642Z" fill="#DAA645"/>
<path d="M20.642 20.6429V21.3988H19.8863V20.6429H20.642Z" fill="#B26B23"/>
<path d="M20.642 19.8862V20.6416H19.8863V19.8862H20.642Z" fill="#F0AA3D"/>
<path d="M20.642 19.1306V19.8863H19.8863V19.1306H20.642Z" fill="#B26B23"/>
<path d="M20.642 18.3752V19.1309H19.8863V18.3752H20.642Z" fill="#B26B23"/>
<path d="M20.642 17.62V18.3755H19.8863V17.62H20.642Z" fill="#B26B23"/>
<path d="M20.642 16.8645V17.6201H19.8863V16.8645H20.642Z" fill="#B26B23"/>
<path d="M20.642 16.1075V16.8629H19.8863V16.1075H20.642Z" fill="#B26B23"/>
<path d="M20.642 15.3537V16.1094H19.8863V15.3537H20.642Z" fill="#B26B23"/>
<path d="M20.642 14.5983V15.354H19.8863V14.5983H20.642Z" fill="#B26B23"/>
<path d="M20.642 13.8414V14.5968H19.8863V13.8414H20.642Z" fill="#B26B23"/>
<path d="M20.642 13.0858V13.8414H19.8863V13.0858H20.642Z" fill="#B26B23"/>
<path d="M20.642 12.3304V13.086H19.8863V12.3304H20.642Z" fill="#B26B23"/>
<path d="M20.642 11.5752V12.3307H19.8863V11.5752H20.642Z" fill="#B26B23"/>
<path d="M20.642 10.8178V11.5735H19.8863V10.8178H20.642Z" fill="#9B601D"/>
<path d="M20.642 10.0624V10.8181H19.8863V10.0624H20.642Z" fill="#9B601D"/>
<path d="M20.642 9.30726V10.0627H19.8863V9.30726H20.642Z" fill="#D38C2B"/>
<path d="M20.642 8.5535V9.30916H19.8863V8.5535H20.642Z" fill="#9B601D"/>
<path d="M20.642 7.79629V8.55196H19.8863V7.79629H20.642Z" fill="#DAA645"/>
<path d="M20.642 7.04113V7.79657H19.8863V7.04113H20.642Z" fill="#F1C16B"/>
<path d="M20.642 6.28553V7.0412H19.8863V6.28553H20.642Z" fill="#DAA645"/>
<path d="M20.642 5.53017V6.28583H19.8863V5.53017H20.642Z" fill="#F1C16B"/>
<path d="M20.642 4.77296V5.52863H19.8863V4.77296H20.642Z" fill="#F1C16B"/>
<path d="M20.642 4.01963V4.77507H19.8863V4.01963H20.642Z" fill="#F1C16B"/>
<path d="M20.642 3.26221V4.01787H19.8863V3.26221H20.642Z" fill="#211D1D"/>
<path d="M19.8866 25.1754V25.9311H19.1309V25.1754H19.8866Z" fill="#211D1D"/>
<path d="M19.8866 24.4201V25.1757H19.1309V24.4201H19.8866Z" fill="#F1C16B"/>
<path d="M19.8866 23.6649V24.4203H19.1309V23.6649H19.8866Z" fill="#F1C16B"/>
<path d="M19.8866 22.9075V23.6631H19.1309V22.9075H19.8866Z" fill="#DAA645"/>
<path d="M19.8866 22.1521V22.9077H19.1309V22.1521H19.8866Z" fill="#F1C16B"/>
<path d="M19.8866 21.3988V22.1542H19.1309V21.3988H19.8866Z" fill="#DAA645"/>
<path d="M19.8866 20.6429V21.3988H19.1309V20.6429H19.8866Z" fill="#F0AA3D"/>
<path d="M19.8866 19.8862V20.6416H19.1309V19.8862H19.8866Z" fill="#EDB258"/>
<path d="M19.8866 19.1306V19.8863H19.1309V19.1306H19.8866Z" fill="#EDB258"/>
<path d="M19.8866 18.3752V19.1309H19.1309V18.3752H19.8866Z" fill="#EDB258"/>
<path d="M19.8866 17.62V18.3755H19.1309V17.62H19.8866Z" fill="#EDB258"/>
<path d="M19.8866 16.8645V17.6201H19.1309V16.8645H19.8866Z" fill="#EDB258"/>
<path d="M19.8866 16.1075V16.8629H19.1309V16.1075H19.8866Z" fill="#EDB258"/>
<path d="M19.8866 15.3537V16.1094H19.1309V15.3537H19.8866Z" fill="#EDB258"/>
<path d="M19.8866 14.5983V15.354H19.1309V14.5983H19.8866Z" fill="#EDB258"/>
<path d="M19.8866 13.8414V14.5968H19.1309V13.8414H19.8866Z" fill="#EDB258"/>
<path d="M19.8866 13.0858V13.8414H19.1309V13.0858H19.8866Z" fill="#EDB258"/>
<path d="M19.8866 12.3304V13.086H19.1309V12.3304H19.8866Z" fill="#EDB258"/>
<path d="M19.8866 11.5752V12.3307H19.1309V11.5752H19.8866Z" fill="#EDB258"/>
<path d="M19.8866 10.8178V11.5735H19.1309V10.8178H19.8866Z" fill="#F0AA3D"/>
<path d="M19.8866 10.0624V10.8181H19.1309V10.0624H19.8866Z" fill="#F0AA3D"/>
<path d="M19.8866 9.30726V10.0627H19.1309V9.30726H19.8866Z" fill="#F0AA3D"/>
<path d="M19.8866 8.5535V9.30916H19.1309V8.5535H19.8866Z" fill="#D38C2B"/>
<path d="M19.8866 7.79629V8.55196H19.1309V7.79629H19.8866Z" fill="#DAA645"/>
<path d="M19.8866 7.04113V7.79657H19.1309V7.04113H19.8866Z" fill="#F1C16B"/>
<path d="M19.8866 6.28553V7.0412H19.1309V6.28553H19.8866Z" fill="#DAA645"/>
<path d="M19.8866 5.53017V6.28583H19.1309V5.53017H19.8866Z" fill="#F1C16B"/>
<path d="M19.8866 4.77296V5.52863H19.1309V4.77296H19.8866Z" fill="#EF6E19"/>
<path d="M19.8866 4.01963V4.77507H19.1309V4.01963H19.8866Z" fill="#F1C16B"/>
<path d="M19.8866 3.26221V4.01787H19.1309V3.26221H19.8866Z" fill="#211D1D"/>
<path d="M19.131 25.1754V25.9311H18.3755V25.1754H19.131Z" fill="#211D1D"/>
<path d="M19.131 24.4201V25.1757H18.3755V24.4201H19.131Z" fill="#F1C16B"/>
<path d="M19.131 23.6649V24.4203H18.3755V23.6649H19.131Z" fill="#F1C16B"/>
<path d="M19.131 22.9075V23.6631H18.3755V22.9075H19.131Z" fill="#DAA645"/>
<path d="M19.131 22.1521V22.9077H18.3755V22.1521H19.131Z" fill="#F1C16B"/>
<path d="M19.131 21.3988V22.1542H18.3755V21.3988H19.131Z" fill="#DAA645"/>
<path d="M19.131 20.6429V21.3988H18.3755V20.6429H19.131Z" fill="#F0AA3D"/>
<path d="M19.131 19.8862V20.6416H18.3755V19.8862H19.131Z" fill="#EDB258"/>
<path d="M19.131 19.1306V19.8863H18.3755V19.1306H19.131Z" fill="#EDB258"/>
<path d="M19.131 18.3752V19.1309H18.3755V18.3752H19.131Z" fill="#EDB258"/>
<path d="M19.131 17.62V18.3755H18.3755V17.62H19.131Z" fill="#EDB258"/>
<path d="M19.131 16.8645V17.6201H18.3755V16.8645H19.131Z" fill="#EDB258"/>
<path d="M19.131 16.1075V16.8629H18.3755V16.1075H19.131Z" fill="#EDB258"/>
<path d="M19.131 15.3537V16.1094H18.3755V15.3537H19.131Z" fill="#EDB258"/>
<path d="M19.131 14.5983V15.354H18.3755V14.5983H19.131Z" fill="#EDB258"/>
<path d="M19.131 13.8414V14.5968H18.3755V13.8414H19.131Z" fill="#EDB258"/>
<path d="M19.131 13.0858V13.8414H18.3755V13.0858H19.131Z" fill="#EDB258"/>
<path d="M19.131 12.3304V13.086H18.3755V12.3304H19.131Z" fill="#EDB258"/>
<path d="M19.131 11.5752V12.3307H18.3755V11.5752H19.131Z" fill="#EDB258"/>
<path d="M19.131 10.8178V11.5735H18.3755V10.8178H19.131Z" fill="#F0AA3D"/>
<path d="M19.131 10.0624V10.8181H18.3755V10.0624H19.131Z" fill="#F0AA3D"/>
<path d="M19.131 9.30726V10.0627H18.3755V9.30726H19.131Z" fill="#F0AA3D"/>
<path d="M19.131 8.5535V9.30916H18.3755V8.5535H19.131Z" fill="#D38C2B"/>
<path d="M19.131 7.79629V8.55196H18.3755V7.79629H19.131Z" fill="#DAA645"/>
<path d="M19.131 7.04113V7.79657H18.3755V7.04113H19.131Z" fill="#F1C16B"/>
<path d="M19.131 6.28553V7.0412H18.3755V6.28553H19.131Z" fill="#DAA645"/>
<path d="M19.131 5.53017V6.28583H18.3755V5.53017H19.131Z" fill="#F1C16B"/>
<path d="M19.131 4.77296V5.52863H18.3755V4.77296H19.131Z" fill="#EF6E19"/>
<path d="M19.131 4.01963V4.77507H18.3755V4.01963H19.131Z" fill="#FDDB8F"/>
<path d="M19.131 3.26221V4.01787H18.3755V3.26221H19.131Z" fill="#F1C16B"/>
<path d="M19.131 2.50683V3.2625H18.3755V2.50683H19.131Z" fill="#211D1D"/>
<path d="M18.3721 25.1754V25.9311H17.6165V25.1754H18.3721Z" fill="#211D1D"/>
<path d="M18.3721 24.4201V25.1757H17.6165V24.4201H18.3721Z" fill="#FDDB8F"/>
<path d="M18.3721 23.6649V24.4203H17.6165V23.6649H18.3721Z" fill="#FDDB8F"/>
<path d="M18.3721 22.9075V23.6631H17.6165V22.9075H18.3721Z" fill="#DAA645"/>
<path d="M18.3721 22.1521V22.9077H17.6165V22.1521H18.3721Z" fill="#F1C16B"/>
<path d="M18.3721 21.3988V22.1542H17.6165V21.3988H18.3721Z" fill="#DAA645"/>
<path d="M18.3721 20.6429V21.3988H17.6165V20.6429H18.3721Z" fill="#B26B23"/>
<path d="M18.3721 19.8862V20.6416H17.6165V19.8862H18.3721Z" fill="#EDB258"/>
<path d="M18.3721 19.1306V19.8863H17.6165V19.1306H18.3721Z" fill="#B26B23"/>
<path d="M18.3721 18.3752V19.1309H17.6165V18.3752H18.3721Z" fill="#B26B23"/>
<path d="M18.3721 17.62V18.3755H17.6165V17.62H18.3721Z" fill="#B26B23"/>
<path d="M18.3721 16.8645V17.6201H17.6165V16.8645H18.3721Z" fill="#B26B23"/>
<path d="M18.3721 16.1075V16.8629H17.6165V16.1075H18.3721Z" fill="#B26B23"/>
<path d="M18.3721 15.3537V16.1094H17.6165V15.3537H18.3721Z" fill="#B26B23"/>
<path d="M18.3721 14.5983V15.354H17.6165V14.5983H18.3721Z" fill="#B26B23"/>
<path d="M18.3721 13.8414V14.5968H17.6165V13.8414H18.3721Z" fill="#B26B23"/>
<path d="M18.3721 13.0858V13.8414H17.6165V13.0858H18.3721Z" fill="#B26B23"/>
<path d="M18.3721 12.3304V13.086H17.6165V12.3304H18.3721Z" fill="#B26B23"/>
<path d="M18.3721 11.5752V12.3307H17.6165V11.5752H18.3721Z" fill="#B26B23"/>
<path d="M18.3721 10.8178V11.5735H17.6165V10.8178H18.3721Z" fill="#9B601D"/>
<path d="M18.3721 10.0624V10.8181H17.6165V10.0624H18.3721Z" fill="#9B601D"/>
<path d="M18.3721 9.30726V10.0627H17.6165V9.30726H18.3721Z" fill="#D38C2B"/>
<path d="M18.3721 8.5535V9.30916H17.6165V8.5535H18.3721Z" fill="#9B601D"/>
<path d="M18.3721 7.79629V8.55196H17.6165V7.79629H18.3721Z" fill="#DAA645"/>
<path d="M18.3721 7.04113V7.79657H17.6165V7.04113H18.3721Z" fill="#F1C16B"/>
<path d="M18.3721 6.28553V7.0412H17.6165V6.28553H18.3721Z" fill="#DAA645"/>
<path d="M18.3721 5.53017V6.28583H17.6165V5.53017H18.3721Z" fill="#F1C16B"/>
<path d="M18.3721 4.77296V5.52863H17.6165V4.77296H18.3721Z" fill="#F9E1D1"/>
<path d="M18.3721 4.01963V4.77507H17.6165V4.01963H18.3721Z" fill="#EF6E19"/>
<path d="M18.3721 3.26221V4.01787H17.6165V3.26221H18.3721Z" fill="#F1C16B"/>
<path d="M18.3721 2.50683V3.2625H17.6165V2.50683H18.3721Z" fill="#211D1D"/>
<path d="M17.6186 25.1754V25.9311H16.8629V25.1754H17.6186Z" fill="#211D1D"/>
<path d="M17.6186 24.4201V25.1757H16.8629V24.4201H17.6186Z" fill="#FDDB8F"/>
<path d="M17.6186 23.6649V24.4203H16.8629V23.6649H17.6186Z" fill="#FDDB8F"/>
<path d="M17.6186 22.9075V23.6631H16.8629V22.9075H17.6186Z" fill="#DAA645"/>
<path d="M17.6186 22.1521V22.9077H16.8629V22.1521H17.6186Z" fill="#F1C16B"/>
<path d="M17.6186 21.3988V22.1542H16.8629V21.3988H17.6186Z" fill="#DAA645"/>
<path d="M17.6186 20.6429V21.3988H16.8629V20.6429H17.6186Z" fill="#FDDB8F"/>
<path d="M17.6186 19.8862V20.6416H16.8629V19.8862H17.6186Z" fill="#B26B23"/>
<path d="M17.6186 19.1306V19.8863H16.8629V19.1306H17.6186Z" fill="#FDDB8F"/>
<path d="M17.6186 18.3752V19.1309H16.8629V18.3752H17.6186Z" fill="#FDDB8F"/>
<path d="M17.6186 17.62V18.3755H16.8629V17.62H17.6186Z" fill="#FDDB8F"/>
<path d="M17.6186 16.8645V17.6201H16.8629V16.8645H17.6186Z" fill="#FDDB8F"/>
<path d="M17.6186 16.1075V16.8629H16.8629V16.1075H17.6186Z" fill="#FDDB8F"/>
<path d="M17.6186 15.3537V16.1094H16.8629V15.3537H17.6186Z" fill="#FDDB8F"/>
<path d="M17.6186 14.5983V15.354H16.8629V14.5983H17.6186Z" fill="#FDDB8F"/>
<path d="M17.6186 13.8414V14.5968H16.8629V13.8414H17.6186Z" fill="#FDDB8F"/>
<path d="M17.6186 13.0858V13.8414H16.8629V13.0858H17.6186Z" fill="#FDDB8F"/>
<path d="M17.6186 12.3304V13.086H16.8629V12.3304H17.6186Z" fill="#FDDB8F"/>
<path d="M17.6186 11.5752V12.3307H16.8629V11.5752H17.6186Z" fill="#FDDB8F"/>
<path d="M17.6186 10.8178V11.5735H16.8629V10.8178H17.6186Z" fill="#FDDB8F"/>
<path d="M17.6186 10.0624V10.8181H16.8629V10.0624H17.6186Z" fill="#FDDB8F"/>
<path d="M17.6186 9.30726V10.0627H16.8629V9.30726H17.6186Z" fill="#9B601D"/>
<path d="M17.6186 8.5535V9.30916H16.8629V8.5535H17.6186Z" fill="#FDDB8F"/>
<path d="M17.6186 7.79629V8.55196H16.8629V7.79629H17.6186Z" fill="#DAA645"/>
<path d="M17.6186 7.04113V7.79657H16.8629V7.04113H17.6186Z" fill="#F1C16B"/>
<path d="M17.6186 6.28553V7.0412H16.8629V6.28553H17.6186Z" fill="#DAA645"/>
<path d="M17.6186 5.53017V6.28583H16.8629V5.53017H17.6186Z" fill="#F1C16B"/>
<path d="M17.6186 4.77296V5.52863H16.8629V4.77296H17.6186Z" fill="#F9E1D1"/>
<path d="M17.6186 4.01963V4.77507H16.8629V4.01963H17.6186Z" fill="#EF6E19"/>
<path d="M17.6186 3.26221V4.01787H16.8629V3.26221H17.6186Z" fill="#FDDB8F"/>
<path d="M17.6186 2.50683V3.2625H16.8629V2.50683H17.6186Z" fill="#F1C16B"/>
<path d="M17.6186 1.74984V2.50528H16.8629V1.74984H17.6186Z" fill="#211D1D"/>
<path d="M16.863 25.1754V25.9311H16.1076V25.1754H16.863Z" fill="#211D1D"/>
<path d="M16.863 24.4201V25.1757H16.1076V24.4201H16.863Z" fill="#FDDB8F"/>
<path d="M16.863 23.6649V24.4203H16.1076V23.6649H16.863Z" fill="#FDDB8F"/>
<path d="M16.863 22.9075V23.6631H16.1076V22.9075H16.863Z" fill="#DAA645"/>
<path d="M16.863 22.1521V22.9077H16.1076V22.1521H16.863Z" fill="#FDDB8F"/>
<path d="M16.863 21.3988V22.1542H16.1076V21.3988H16.863Z" fill="#DAA645"/>
<path d="M16.863 20.6429V21.3988H16.1076V20.6429H16.863Z" fill="#FDDB8F"/>
<path d="M16.863 19.8862V20.6416H16.1076V19.8862H16.863Z" fill="#B26B23"/>
<path d="M16.863 19.1306V19.8863H16.1076V19.1306H16.863Z" fill="#FDDB8F"/>
<path d="M16.863 18.3752V19.1309H16.1076V18.3752H16.863Z" fill="#FDDB8F"/>
<path d="M16.863 17.62V18.3755H16.1076V17.62H16.863Z" fill="#FDDB8F"/>
<path d="M16.863 16.8645V17.6201H16.1076V16.8645H16.863Z" fill="#FDDB8F"/>
<path d="M16.863 16.1075V16.8629H16.1076V16.1075H16.863Z" fill="#FDDB8F"/>
<path d="M16.863 15.3537V16.1094H16.1076V15.3537H16.863Z" fill="#FDDB8F"/>
<path d="M16.863 14.5983V15.354H16.1076V14.5983H16.863Z" fill="#FDDB8F"/>
<path d="M16.863 13.8414V14.5968H16.1076V13.8414H16.863Z" fill="#FDDB8F"/>
<path d="M16.863 13.0858V13.8414H16.1076V13.0858H16.863Z" fill="#FDDB8F"/>
<path d="M16.863 12.3304V13.086H16.1076V12.3304H16.863Z" fill="#FDDB8F"/>
<path d="M16.863 11.5752V12.3307H16.1076V11.5752H16.863Z" fill="#FDDB8F"/>
<path d="M16.863 10.8178V11.5735H16.1076V10.8178H16.863Z" fill="#FDDB8F"/>
<path d="M16.863 10.0624V10.8181H16.1076V10.0624H16.863Z" fill="#FDDB8F"/>
<path d="M16.863 9.30726V10.0627H16.1076V9.30726H16.863Z" fill="#9B601D"/>
<path d="M16.863 8.5535V9.30916H16.1076V8.5535H16.863Z" fill="#FDDB8F"/>
<path d="M16.863 7.79629V8.55196H16.1076V7.79629H16.863Z" fill="#DAA645"/>
<path d="M16.863 7.04113V7.79657H16.1076V7.04113H16.863Z" fill="#F1C16B"/>
<path d="M16.863 6.28553V7.0412H16.1076V6.28553H16.863Z" fill="#DAA645"/>
<path d="M16.863 5.53017V6.28583H16.1076V5.53017H16.863Z" fill="#FDDB8F"/>
<path d="M16.863 4.77296V5.52863H16.1076V4.77296H16.863Z" fill="#FFF9F5"/>
<path d="M16.863 4.01963V4.77507H16.1076V4.01963H16.863Z" fill="#F9E1D1"/>
<path d="M16.863 3.26221V4.01787H16.1076V3.26221H16.863Z" fill="#EF6E19"/>
<path d="M16.863 2.50683V3.2625H16.1076V2.50683H16.863Z" fill="#F1C16B"/>
<path d="M16.863 1.74984V2.50528H16.1076V1.74984H16.863Z" fill="#211D1D"/>
<path d="M16.1079 25.1754V25.9311H15.3522V25.1754H16.1079Z" fill="#211D1D"/>
<path d="M16.1079 24.4201V25.1757H15.3522V24.4201H16.1079Z" fill="#FDDB8F"/>
<path d="M16.1079 23.6649V24.4203H15.3522V23.6649H16.1079Z" fill="#FDDB8F"/>
<path d="M16.1079 22.9075V23.6631H15.3522V22.9075H16.1079Z" fill="#DAA645"/>
<path d="M16.1079 22.1521V22.9077H15.3522V22.1521H16.1079Z" fill="#FDDB8F"/>
<path d="M16.1079 21.3988V22.1542H15.3522V21.3988H16.1079Z" fill="#DAA645"/>
<path d="M16.1079 20.6429V21.3988H15.3522V20.6429H16.1079Z" fill="#FDDB8F"/>
<path d="M16.1079 19.8862V20.6416H15.3522V19.8862H16.1079Z" fill="#B26B23"/>
<path d="M16.1079 19.1306V19.8863H15.3522V19.1306H16.1079Z" fill="#FDDB8F"/>
<path d="M16.1079 18.3752V19.1309H15.3522V18.3752H16.1079Z" fill="#FDDB8F"/>
<path d="M16.1079 17.62V18.3755H15.3522V17.62H16.1079Z" fill="#FDDB8F"/>
<path d="M16.1079 16.8645V17.6201H15.3522V16.8645H16.1079Z" fill="#FEF2D4"/>
<path d="M16.1079 16.1075V16.8629H15.3522V16.1075H16.1079Z" fill="#FDDB8F"/>
<path d="M16.1079 15.3537V16.1094H15.3522V15.3537H16.1079Z" fill="#FEF2D4"/>
<path d="M16.1079 14.5983V15.354H15.3522V14.5983H16.1079Z" fill="#FEF2D4"/>
<path d="M16.1079 13.8414V14.5968H15.3522V13.8414H16.1079Z" fill="#FEF2D4"/>
<path d="M16.1079 13.0858V13.8414H15.3522V13.0858H16.1079Z" fill="#FEF2D4"/>
<path d="M16.1079 12.3304V13.086H15.3522V12.3304H16.1079Z" fill="#FEF2D4"/>
<path d="M16.1079 11.5752V12.3307H15.3522V11.5752H16.1079Z" fill="#FEF2D4"/>
<path d="M16.1079 10.8178V11.5735H15.3522V10.8178H16.1079Z" fill="#FEF2D4"/>
<path d="M16.1079 10.0624V10.8181H15.3522V10.0624H16.1079Z" fill="#FEF2D4"/>
<path d="M16.1079 9.30726V10.0627H15.3522V9.30726H16.1079Z" fill="#9B601D"/>
<path d="M16.1079 8.5535V9.30916H15.3522V8.5535H16.1079Z" fill="#FEF2D4"/>
<path d="M16.1079 7.79629V8.55196H15.3522V7.79629H16.1079Z" fill="#DAA645"/>
<path d="M16.1079 7.04113V7.79657H15.3522V7.04113H16.1079Z" fill="#FDDB8F"/>
<path d="M16.1079 6.28553V7.0412H15.3522V6.28553H16.1079Z" fill="#DAA645"/>
<path d="M16.1079 5.53017V6.28583H15.3522V5.53017H16.1079Z" fill="#FDDB8F"/>
<path d="M16.1079 4.77296V5.52863H15.3522V4.77296H16.1079Z" fill="#FFF9F5"/>
<path d="M16.1079 4.01963V4.77507H15.3522V4.01963H16.1079Z" fill="#F9E1D1"/>
<path d="M16.1079 3.26221V4.01787H15.3522V3.26221H16.1079Z" fill="#EF6E19"/>
<path d="M16.1079 2.50683V3.2625H15.3522V2.50683H16.1079Z" fill="#FDDB8F"/>
<path d="M16.1079 1.74984V2.50528H15.3522V1.74984H16.1079Z" fill="#FDDB8F"/>
<path d="M16.1079 0.996075V1.75174H15.3522V0.996075H16.1079Z" fill="#211D1D"/>
<path d="M15.3507 25.1754V25.9311H14.595V25.1754H15.3507Z" fill="#211D1D"/>
<path d="M15.3507 24.4201V25.1757H14.595V24.4201H15.3507Z" fill="#FDDB8F"/>
<path d="M15.3507 23.6649V24.4203H14.595V23.6649H15.3507Z" fill="#FDDB8F"/>
<path d="M15.3507 22.9075V23.6631H14.595V22.9075H15.3507Z" fill="#DAA645"/>
<path d="M15.3507 22.1521V22.9077H14.595V22.1521H15.3507Z" fill="#FDDB8F"/>
<path d="M15.3507 21.3988V22.1542H14.595V21.3988H15.3507Z" fill="#DAA645"/>
<path d="M15.3507 20.6429V21.3988H14.595V20.6429H15.3507Z" fill="#B26B23"/>
<path d="M15.3507 19.8862V20.6416H14.595V19.8862H15.3507Z" fill="#EDB258"/>
<path d="M15.3507 19.1306V19.8863H14.595V19.1306H15.3507Z" fill="#B26B23"/>
<path d="M15.3507 18.3752V19.1309H14.595V18.3752H15.3507Z" fill="#B26B23"/>
<path d="M15.3507 17.62V18.3755H14.595V17.62H15.3507Z" fill="#B26B23"/>
<path d="M15.3507 16.8645V17.6201H14.595V16.8645H15.3507Z" fill="#B26B23"/>
<path d="M15.3507 16.1075V16.8629H14.595V16.1075H15.3507Z" fill="#B26B23"/>
<path d="M15.3507 15.3537V16.1094H14.595V15.3537H15.3507Z" fill="#B26B23"/>
<path d="M15.3507 14.5983V15.354H14.595V14.5983H15.3507Z" fill="#B26B23"/>
<path d="M15.3507 13.8414V14.5968H14.595V13.8414H15.3507Z" fill="#B26B23"/>
<path d="M15.3507 13.0858V13.8414H14.595V13.0858H15.3507Z" fill="#B26B23"/>
<path d="M15.3507 12.3304V13.086H14.595V12.3304H15.3507Z" fill="#B26B23"/>
<path d="M15.3507 11.5752V12.3307H14.595V11.5752H15.3507Z" fill="#B26B23"/>
<path d="M15.3507 10.8178V11.5735H14.595V10.8178H15.3507Z" fill="#9B601D"/>
<path d="M15.3507 10.0624V10.8181H14.595V10.0624H15.3507Z" fill="#9B601D"/>
<path d="M15.3507 9.30726V10.0627H14.595V9.30726H15.3507Z" fill="#D38C2B"/>
<path d="M15.3507 8.5535V9.30916H14.595V8.5535H15.3507Z" fill="#9B601D"/>
<path d="M15.3507 7.79629V8.55196H14.595V7.79629H15.3507Z" fill="#DAA645"/>
<path d="M15.3507 7.04113V7.79657H14.595V7.04113H15.3507Z" fill="#FDDB8F"/>
<path d="M15.3507 6.28553V7.0412H14.595V6.28553H15.3507Z" fill="#DAA645"/>
<path d="M15.3507 5.53017V6.28583H14.595V5.53017H15.3507Z" fill="#FDDB8F"/>
<path d="M15.3507 4.77296V5.52863H14.595V4.77296H15.3507Z" fill="#FFF9F5"/>
<path d="M15.3507 4.01963V4.77507H14.595V4.01963H15.3507Z" fill="#FFF9F5"/>
<path d="M15.3507 3.26221V4.01787H14.595V3.26221H15.3507Z" fill="#F9E1D1"/>
<path d="M15.3507 2.50683V3.2625H14.595V2.50683H15.3507Z" fill="#EF6E19"/>
<path d="M15.3507 1.74984V2.50528H14.595V1.74984H15.3507Z" fill="#FDDB8F"/>
<path d="M15.3507 0.996075V1.75174H14.595V0.996075H15.3507Z" fill="#211D1D"/>
<path d="M14.5971 25.1754V25.9311H13.8415V25.1754H14.5971Z" fill="#211D1D"/>
<path d="M14.5971 24.4201V25.1757H13.8415V24.4201H14.5971Z" fill="#FDDB8F"/>
<path d="M14.5971 23.6649V24.4203H13.8415V23.6649H14.5971Z" fill="#FDDB8F"/>
<path d="M14.5971 22.9075V23.6631H13.8415V22.9075H14.5971Z" fill="#DAA645"/>
<path d="M14.5971 22.1521V22.9077H13.8415V22.1521H14.5971Z" fill="#FDDB8F"/>
<path d="M14.5971 21.3988V22.1542H13.8415V21.3988H14.5971Z" fill="#DAA645"/>
<path d="M14.5971 20.6429V21.3988H13.8415V20.6429H14.5971Z" fill="#EDB258"/>
<path d="M14.5971 19.8862V20.6416H13.8415V19.8862H14.5971Z" fill="#EDB258"/>
<path d="M14.5971 19.1306V19.8863H13.8415V19.1306H14.5971Z" fill="#EDB258"/>
<path d="M14.5971 18.3752V19.1309H13.8415V18.3752H14.5971Z" fill="#EDB258"/>
<path d="M14.5971 17.62V18.3755H13.8415L13.8417 17.62H14.5971Z" fill="#EDB258"/>
<path d="M14.5969 16.8645V17.6201H13.8415V16.8645H14.5969Z" fill="#EDB258"/>
<path d="M14.5969 16.1075V16.8629H13.8415V16.1075H14.5969Z" fill="#EDB258"/>
<path d="M14.5969 15.3537V16.1094H13.8415V15.3537H14.5969Z" fill="#EDB258"/>
<path d="M14.5969 14.5983V15.354H13.8415V14.5983H14.5969Z" fill="#EDB258"/>
<path d="M14.5969 13.8414V14.5968H13.8415V13.8414H14.5969Z" fill="#EDB258"/>
<path d="M14.5969 13.0858V13.8414H13.8415V13.0858H14.5969Z" fill="#EDB258"/>
<path d="M14.5969 12.3304V13.086H13.8415V12.3304H14.5969Z" fill="#EDB258"/>
<path d="M14.5969 11.5752V12.3307H13.8415V11.5752H14.5969Z" fill="#EDB258"/>
<path d="M14.5969 10.8178V11.5735H13.8415V10.8178H14.5969Z" fill="#F0AA3D"/>
<path d="M14.5969 10.0624V10.8181H13.8415V10.0624H14.5969Z" fill="#F0AA3D"/>
<path d="M14.5969 9.30726V10.0627H13.8415V9.30726H14.5969Z" fill="#F0AA3D"/>
<path d="M14.5969 8.5535V9.30916H13.8415V8.5535H14.5969Z" fill="#D38C2B"/>
<path d="M14.5969 7.79629V8.55196H13.8415V7.79629H14.5969Z" fill="#DAA645"/>
<path d="M14.5969 7.04113V7.79657H13.8415V7.04113H14.5969Z" fill="#FDDB8F"/>
<path d="M14.5969 6.28553V7.0412H13.8415V6.28553H14.5969Z" fill="#DAA645"/>
<path d="M14.5969 5.53017V6.28583H13.8415V5.53017H14.5969Z" fill="#FDDB8F"/>
<path d="M14.5969 4.77296V5.52863H13.8415V4.77296H14.5969Z" fill="#FFF9F5"/>
<path d="M14.5969 4.01963V4.77507H13.8415V4.01963H14.5969Z" fill="#FFF9F5"/>
<path d="M14.5969 3.26221V4.01787H13.8415V3.26221H14.5969Z" fill="#F9E1D1"/>
<path d="M14.5969 2.50683V3.2625H13.8415V2.50683H14.5969Z" fill="#EF6E19"/>
<path d="M14.5969 1.74984V2.50528H13.8415V1.74984H14.5969Z" fill="#FEF2D4"/>
<path d="M14.5969 0.996075V1.75174H13.8415V0.996075H14.5969Z" fill="#211D1D"/>
<path d="M13.8415 25.1754V25.9311H13.0861V25.1754H13.8415Z" fill="#211D1D"/>
<path d="M13.8415 24.4201V25.1757H13.0861V24.4201H13.8415Z" fill="#FDDB8F"/>
<path d="M13.8415 23.6649V24.4203H13.0861V23.6649H13.8415Z" fill="#FDDB8F"/>
<path d="M13.8415 22.9075V23.6631H13.0861V22.9075H13.8415Z" fill="#DAA645"/>
<path d="M13.8415 22.1521V22.9077H13.0861V22.1521H13.8415Z" fill="#FDDB8F"/>
<path d="M13.8415 21.3988V22.1542H13.0861V21.3988H13.8415Z" fill="#DAA645"/>
<path d="M13.8415 20.6429V21.3988H13.0861V20.6429H13.8415Z" fill="#F0AA3D"/>
<path d="M13.8415 19.8862V20.6416H13.0861V19.8862H13.8415Z" fill="#EDB258"/>
<path d="M13.8415 19.1306V19.8863H13.0861V19.1306H13.8415Z" fill="#EDB258"/>
<path d="M13.8415 18.3752V19.1309H13.0861V18.3752H13.8415Z" fill="#EDB258"/>
<path d="M13.8417 17.62L13.8415 18.3755H13.0861V17.62H13.8417Z" fill="#EDB258"/>
<path d="M13.8417 16.8645V17.6201H13.0861V16.8645H13.8417Z" fill="#EDB258"/>
<path d="M13.8417 16.1075V16.8629H13.0861V16.1075H13.8417Z" fill="#EDB258"/>
<path d="M13.8417 15.3537V16.1094H13.0861V15.3537H13.8417Z" fill="#EDB258"/>
<path d="M13.8417 14.5983V15.354H13.0861V14.5983H13.8417Z" fill="#EDB258"/>
<path d="M13.8417 13.8414V14.5968H13.0861V13.8414H13.8417Z" fill="#EDB258"/>
<path d="M13.8417 13.0858V13.8414H13.0861V13.0858H13.8417Z" fill="#EDB258"/>
<path d="M13.8417 12.3304V13.086H13.0861V12.3304H13.8417Z" fill="#EDB258"/>
<path d="M13.8417 11.5752V12.3307H13.0861V11.5752H13.8417Z" fill="#EDB258"/>
<path d="M13.8417 10.8178V11.5735H13.0861V10.8178H13.8417Z" fill="#F0AA3D"/>
<path d="M13.8417 10.0624V10.8181H13.0861V10.0624H13.8417Z" fill="#F0AA3D"/>
<path d="M13.8417 9.30726V10.0627H13.0861V9.30726H13.8417Z" fill="#F0AA3D"/>
<path d="M13.8417 8.5535V9.30916H13.0861V8.5535H13.8417Z" fill="#D38C2B"/>
<path d="M13.8417 7.79629V8.55196H13.0861V7.79629H13.8417Z" fill="#DAA645"/>
<path d="M13.8417 7.04113V7.79657H13.0861V7.04113H13.8417Z" fill="#FDDB8F"/>
<path d="M13.8417 6.28553V7.0412H13.0861V6.28553H13.8417Z" fill="#DAA645"/>
<path d="M13.8417 5.53017V6.28583H13.0861V5.53017H13.8417Z" fill="#FDDB8F"/>
<path d="M13.8417 4.77296V5.52863H13.0861V4.77296H13.8417Z" fill="#FFF9F5"/>
<path d="M13.8417 4.01963V4.77507H13.0861V4.01963H13.8417Z" fill="#FFF9F5"/>
<path d="M13.8417 3.26221V4.01787H13.0861V3.26221H13.8417Z" fill="#F9E1D1"/>
<path d="M13.8417 2.50683V3.2625H13.0861V2.50683H13.8417Z" fill="#EF6E19"/>
<path d="M13.8417 1.74984V2.50528H13.0861V1.74984H13.8417Z" fill="#FEF2D4"/>
<path d="M13.8417 0.996075V1.75174H13.0861V0.996075H13.8417Z" fill="#211D1D"/>
<path d="M13.0881 25.1754V25.9311H12.3325L12.3325 25.1754H13.0881Z" fill="#211D1D"/>
<path d="M13.088 24.4201V25.1757H12.3325V24.4201H13.088Z" fill="#FDDB8F"/>
<path d="M13.088 23.6649V24.4203H12.3325V23.6649H13.088Z" fill="#FDDB8F"/>
<path d="M13.088 22.9075V23.6631H12.3325V22.9075H13.088Z" fill="#DAA645"/>
<path d="M13.088 22.1521V22.9077H12.3325V22.1521H13.088Z" fill="#FDDB8F"/>
<path d="M13.088 21.3988V22.1542H12.3325V21.3988H13.088Z" fill="#DAA645"/>
<path d="M13.088 20.6429V21.3988H12.3325V20.6429H13.088Z" fill="#F0AA3D"/>
<path d="M13.088 19.8862V20.6416H12.3325V19.8862H13.088Z" fill="#EDB258"/>
<path d="M13.088 19.1306V19.8863H12.3325V19.1306H13.088Z" fill="#EDB258"/>
<path d="M13.088 18.3752V19.1309H12.3325V18.3752H13.088Z" fill="#EDB258"/>
<path d="M13.088 17.62V18.3755H12.3325V17.62H13.088Z" fill="#EDB258"/>
<path d="M13.088 16.8645V17.6201H12.3325V16.8645H13.088Z" fill="#EDB258"/>
<path d="M13.088 16.1075V16.8629H12.3325V16.1075H13.088Z" fill="#EDB258"/>
<path d="M13.088 15.3537V16.1094H12.3325V15.3537H13.088Z" fill="#EDB258"/>
<path d="M13.088 14.5983V15.354H12.3325V14.5983H13.088Z" fill="#EDB258"/>
<path d="M13.088 13.8414V14.5968H12.3325V13.8414H13.088Z" fill="#EDB258"/>
<path d="M13.088 13.0858V13.8414H12.3325V13.0858H13.088Z" fill="#EDB258"/>
<path d="M13.088 12.3304V13.086H12.3325V12.3304H13.088Z" fill="#EDB258"/>
<path d="M13.088 11.5752V12.3307H12.3325V11.5752H13.088Z" fill="#EDB258"/>
<path d="M13.088 10.8178V11.5735H12.3325V10.8178H13.088Z" fill="#F0AA3D"/>
<path d="M13.088 10.0624V10.8181H12.3325V10.0624H13.088Z" fill="#F0AA3D"/>
<path d="M13.088 9.30726V10.0627H12.3325V9.30726H13.088Z" fill="#F0AA3D"/>
<path d="M13.088 8.5535V9.30916H12.3325V8.5535H13.088Z" fill="#D38C2B"/>
<path d="M13.088 7.79629V8.55196H12.3325V7.79629H13.088Z" fill="#DAA645"/>
<path d="M13.088 7.04113V7.79657H12.3325V7.04113H13.088Z" fill="#FDDB8F"/>
<path d="M13.088 6.28553V7.0412H12.3325V6.28553H13.088Z" fill="#DAA645"/>
<path d="M13.088 5.53017V6.28583H12.3325V5.53017H13.088Z" fill="#FDDB8F"/>
<path d="M13.088 4.77296V5.52863H12.3325V4.77296H13.088Z" fill="#FFF9F5"/>
<path d="M13.088 4.01963V4.77507H12.3325V4.01963H13.088Z" fill="#FFF9F5"/>
<path d="M13.088 3.26221V4.01787H12.3325V3.26221H13.088Z" fill="#F9E1D1"/>
<path d="M13.088 2.50683V3.2625H12.3325V2.50683H13.088Z" fill="#EF6E19"/>
<path d="M13.088 1.74984V2.50528H12.3325V1.74984H13.088Z" fill="#FEF2D4"/>
<path d="M13.088 0.996075V1.75174H12.3325V0.996075H13.088Z" fill="#211D1D"/>
<path d="M12.3292 25.1754L12.3292 25.9311H11.5735V25.1754H12.3292Z" fill="#211D1D"/>
<path d="M12.3292 24.4201V25.1757H11.5735V24.4201H12.3292Z" fill="#FDDB8F"/>
<path d="M12.3292 23.6649V24.4203H11.5735V23.6649H12.3292Z" fill="#FDDB8F"/>
<path d="M12.3292 22.9075V23.6631H11.5735V22.9075H12.3292Z" fill="#DAA645"/>
<path d="M12.3292 22.1521V22.9077H11.5735V22.1521H12.3292Z" fill="#FDDB8F"/>
<path d="M12.3292 21.3988V22.1542H11.5735V21.3988H12.3292Z" fill="#DAA645"/>
<path d="M12.3292 20.6429V21.3988H11.5735V20.6429H12.3292Z" fill="#B26B23"/>
<path d="M12.3292 19.8862V20.6416H11.5735V19.8862H12.3292Z" fill="#F0AA3D"/>
<path d="M12.3292 19.1306V19.8863H11.5735V19.1306H12.3292Z" fill="#B26B23"/>
<path d="M12.3292 18.3752V19.1309H11.5735V18.3752H12.3292Z" fill="#B26B23"/>
<path d="M12.3292 17.62V18.3755H11.5735V17.62H12.3292Z" fill="#B26B23"/>
<path d="M12.3292 16.8645V17.6201H11.5735V16.8645H12.3292Z" fill="#B26B23"/>
<path d="M12.3292 16.1075V16.8629H11.5735V16.1075H12.3292Z" fill="#B26B23"/>
<path d="M12.3292 15.3537V16.1094H11.5735V15.3537H12.3292Z" fill="#B26B23"/>
<path d="M12.3292 14.5983V15.354H11.5735V14.5983H12.3292Z" fill="#B26B23"/>
<path d="M12.3292 13.8414V14.5968H11.5735V13.8414H12.3292Z" fill="#B26B23"/>
<path d="M12.3292 13.0858V13.8414H11.5735V13.0858H12.3292Z" fill="#B26B23"/>
<path d="M12.3292 12.3304V13.086H11.5735V12.3304H12.3292Z" fill="#B26B23"/>
<path d="M12.3292 11.5752V12.3307H11.5735V11.5752H12.3292Z" fill="#B26B23"/>
<path d="M12.3292 10.8178V11.5735H11.5735V10.8178H12.3292Z" fill="#9B601D"/>
<path d="M12.3292 10.0624V10.8181H11.5735V10.0624H12.3292Z" fill="#9B601D"/>
<path d="M12.3292 9.30726V10.0627H11.5735V9.30726H12.3292Z" fill="#D38C2B"/>
<path d="M12.3292 8.5535V9.30916H11.5735V8.5535H12.3292Z" fill="#9B601D"/>
<path d="M12.3292 7.79629V8.55196H11.5735V7.79629H12.3292Z" fill="#DAA645"/>
<path d="M12.3292 7.04113V7.79657H11.5735V7.04113H12.3292Z" fill="#FDDB8F"/>
<path d="M12.3292 6.28553V7.0412H11.5735V6.28553H12.3292Z" fill="#DAA645"/>
<path d="M12.3292 5.53017V6.28583H11.5735V5.53017H12.3292Z" fill="#FDDB8F"/>
<path d="M12.3292 4.77296V5.52863H11.5735V4.77296H12.3292Z" fill="#FFF9F5"/>
<path d="M12.3292 4.01963V4.77507H11.5735V4.01963H12.3292Z" fill="#FFF9F5"/>
<path d="M12.3292 3.26221V4.01787H11.5735V3.26221H12.3292Z" fill="#F9E1D1"/>
<path d="M12.3292 2.50683V3.2625H11.5735V2.50683H12.3292Z" fill="#EF6E19"/>
<path d="M12.3292 1.74984V2.50528H11.5735V1.74984H12.3292Z" fill="#FEF2D4"/>
<path d="M12.3292 0.996075V1.75174H11.5735V0.996075H12.3292Z" fill="#211D1D"/>
<path d="M11.5755 25.1754V25.9311H10.8199V25.1754H11.5755Z" fill="#211D1D"/>
<path d="M11.5755 24.4201V25.1757H10.8199V24.4201H11.5755Z" fill="#FDDB8F"/>
<path d="M11.5755 23.6649V24.4203H10.8199V23.6649H11.5755Z" fill="#FDDB8F"/>
<path d="M11.5755 22.9075V23.6631H10.8199V22.9075H11.5755Z" fill="#DAA645"/>
<path d="M11.5755 22.1521V22.9077H10.8199V22.1521H11.5755Z" fill="#FDDB8F"/>
<path d="M11.5755 21.3988V22.1542H10.8199V21.3988H11.5755Z" fill="#DAA645"/>
<path d="M11.5755 20.6429V21.3988H10.8199V20.6429H11.5755Z" fill="#FDDB8F"/>
<path d="M11.5755 19.8862V20.6416H10.8199V19.8862H11.5755Z" fill="#B26B23"/>
<path d="M11.5755 19.1306V19.8863H10.8199V19.1306H11.5755Z" fill="#FDDB8F"/>
<path d="M11.5755 18.3752V19.1309H10.8199V18.3752H11.5755Z" fill="#FDDB8F"/>
<path d="M11.5755 17.62V18.3755H10.8199V17.62H11.5755Z" fill="#FDDB8F"/>
<path d="M11.5755 16.8645V17.6201H10.8199V16.8645H11.5755Z" fill="#FDDB8F"/>
<path d="M11.5755 16.1075V16.8629H10.8199V16.1075H11.5755Z" fill="#FDDB8F"/>
<path d="M11.5755 15.3537V16.1094H10.8199L10.82 15.3537H11.5755Z" fill="#FDDB8F"/>
<path d="M11.5755 14.5983V15.354H10.8199V14.5983H11.5755Z" fill="#FDDB8F"/>
<path d="M11.5755 13.8414V14.5968H10.8199V13.8414H11.5755Z" fill="#FDDB8F"/>
<path d="M11.5755 13.0858V13.8414H10.8199V13.0858H11.5755Z" fill="#FDDB8F"/>
<path d="M11.5755 12.3304V13.086H10.8199V12.3304H11.5755Z" fill="#FDDB8F"/>
<path d="M11.5755 11.5752V12.3307H10.8199V11.5752H11.5755Z" fill="#FDDB8F"/>
<path d="M11.5755 10.8178V11.5735H10.8199V10.8176L11.5755 10.8178Z" fill="#FDDB8F"/>
<path d="M11.5755 10.0624V10.8181L10.8199 10.8179V10.0624H11.5755Z" fill="#FDDB8F"/>
<path d="M11.5755 9.30726V10.0627H10.8199V9.30726H11.5755Z" fill="#9B601D"/>
<path d="M11.5755 8.5535V9.30916H10.8199V8.5535H11.5755Z" fill="#FDDB8F"/>
<path d="M11.5755 7.79629V8.55196H10.8199V7.79629H11.5755Z" fill="#DAA645"/>
<path d="M11.5755 7.04113V7.79657H10.8199V7.04113H11.5755Z" fill="#FDDB8F"/>
<path d="M11.5755 6.28553V7.0412H10.8199V6.28553H11.5755Z" fill="#DAA645"/>
<path d="M11.5755 5.53017V6.28583H10.8199V5.53017H11.5755Z" fill="#FDDB8F"/>
<path d="M11.5755 4.77296V5.52863H10.8199V4.77296H11.5755Z" fill="#FFF9F5"/>
<path d="M11.5755 4.01963V4.77507H10.8199V4.01963H11.5755Z" fill="#F9E1D1"/>
<path d="M11.5755 3.26221V4.01787H10.8199V3.26221H11.5755Z" fill="#EF6E19"/>
<path d="M11.5755 2.50683V3.2625H10.8199V2.50683H11.5755Z" fill="#FDDB8F"/>
<path d="M11.5755 1.74984V2.50528H10.8199V1.74984H11.5755Z" fill="#FEF2D4"/>
<path d="M11.5755 0.996075V1.75174H10.8199V0.996075H11.5755Z" fill="#211D1D"/>
<path d="M10.8201 25.1754V25.9311H10.0646V25.1754H10.8201Z" fill="#211D1D"/>
<path d="M10.8201 24.4201V25.1757H10.0646V24.4201H10.8201Z" fill="#FDDB8F"/>
<path d="M10.8201 23.6649V24.4203H10.0646V23.6649H10.8201Z" fill="#FDDB8F"/>
<path d="M10.8201 22.9075V23.6631H10.0646V22.9075H10.8201Z" fill="#DAA645"/>
<path d="M10.8201 22.1521V22.9077H10.0646V22.1521H10.8201Z" fill="#FDDB8F"/>
<path d="M10.8201 21.3988V22.1542H10.0646V21.3988H10.8201Z" fill="#DAA645"/>
<path d="M10.8201 20.6429V21.3988H10.0646V20.6429H10.8201Z" fill="#FDDB8F"/>
<path d="M10.8201 19.8862V20.6416H10.0646V19.8862H10.8201Z" fill="#B26B23"/>
<path d="M10.8201 19.1306V19.8863H10.0646V19.1306H10.8201Z" fill="#FDDB8F"/>
<path d="M10.8201 18.3752V19.1309H10.0646V18.3752H10.8201Z" fill="#FDDB8F"/>
<path d="M10.8201 17.62V18.3755H10.0646V17.62H10.8201Z" fill="#FDDB8F"/>
<path d="M10.8201 16.8645V17.6201H10.0646V16.8645H10.8201Z" fill="#FDDB8F"/>
<path d="M10.8201 16.1075V16.8629H10.0646V16.1075H10.8201Z" fill="#FDDB8F"/>
<path d="M10.8201 15.3537L10.8201 16.1094H10.0646V15.3537H10.8201Z" fill="#FDDB8F"/>
<path d="M10.8201 14.5983V15.354H10.0646V14.5983H10.8201Z" fill="#FDDB8F"/>
<path d="M10.8201 13.8414V14.5968H10.0646V13.8414H10.8201Z" fill="#FDDB8F"/>
<path d="M10.8201 13.0858V13.8414H10.0646V13.0858H10.8201Z" fill="#FDDB8F"/>
<path d="M10.8201 12.3304V13.086H10.0646V12.3304H10.8201Z" fill="#FDDB8F"/>
<path d="M10.8201 11.5752V12.3307H10.0646V11.5752H10.8201Z" fill="#FDDB8F"/>
<path d="M10.8201 10.8176V11.5735H10.0646V10.8176H10.8201Z" fill="#FDDB8F"/>
<path d="M10.8201 10.0626V10.8181H10.0646V10.0626H10.8201Z" fill="#FDDB8F"/>
<path d="M10.8201 9.30726V10.0627H10.0646V9.30726H10.8201Z" fill="#9B601D"/>
<path d="M10.8201 8.5535V9.30916H10.0646V8.5535H10.8201Z" fill="#FDDB8F"/>
<path d="M10.8201 7.79629V8.55196H10.0646V7.79629H10.8201Z" fill="#DAA645"/>
<path d="M10.8201 7.04113V7.79657H10.0646V7.04113H10.8201Z" fill="#FDDB8F"/>
<path d="M10.8201 6.28553V7.0412H10.0646V6.28553H10.8201Z" fill="#DAA645"/>
<path d="M10.8201 5.53017V6.28583H10.0646V5.53017H10.8201Z" fill="#FDDB8F"/>
<path d="M10.8201 4.77296V5.52863H10.0646V4.77296H10.8201Z" fill="#FFF9F5"/>
<path d="M10.8201 4.01963V4.77507H10.0646V4.01963H10.8201Z" fill="#F9E1D1"/>
<path d="M10.8201 3.26221V4.01787H10.0646V3.26221H10.8201Z" fill="#EF6E19"/>
<path d="M10.8201 2.50683V3.2625H10.0646V2.50683H10.8201Z" fill="#FEF2D4"/>
<path d="M10.8201 1.74984V2.50528H10.0646V1.74984H10.8201Z" fill="#211D1D"/>
<path d="M10.0649 25.1754V25.9311H9.3092V25.1754H10.0649Z" fill="#211D1D"/>
<path d="M10.0649 24.4201V25.1757H9.3092V24.4201H10.0649Z" fill="#FDDB8F"/>
<path d="M10.0649 23.6649V24.4203H9.3092V23.6649H10.0649Z" fill="#FDDB8F"/>
<path d="M10.0649 22.9075V23.6631H9.3092V22.9075H10.0649Z" fill="#DAA645"/>
<path d="M10.0649 22.1521V22.9077H9.3092V22.1521H10.0649Z" fill="#FDDB8F"/>
<path d="M10.0649 21.3988V22.1542H9.3092V21.3988H10.0649Z" fill="#DAA645"/>
<path d="M10.0649 20.6429V21.3988H9.3092V20.6429H10.0649Z" fill="#FDDB8F"/>
<path d="M10.0649 19.8862V20.6416H9.3092V19.8862H10.0649Z" fill="#B26B23"/>
<path d="M10.0649 19.1306V19.8863H9.3092V19.1306H10.0649Z" fill="#FDDB8F"/>
<path d="M10.0649 18.3752V19.1309H9.3092V18.3752H10.0649Z" fill="#FDDB8F"/>
<path d="M10.0649 17.62V18.3755H9.3092V17.62H10.0649Z" fill="#FDDB8F"/>
<path d="M10.0649 16.8645V17.6201H9.3092V16.8645H10.0649Z" fill="#FEF2D4"/>
<path d="M10.0649 16.1075V16.8629H9.3092V16.1075H10.0649Z" fill="#FDDB8F"/>
<path d="M10.0649 15.3537V16.1094H9.3092V15.3537H10.0649Z" fill="#FEF2D4"/>
<path d="M10.0649 14.5983V15.354H9.3092V14.5983H10.0649Z" fill="#FEF2D4"/>
<path d="M10.0649 13.8414V14.5968H9.3092V13.8414H10.0649Z" fill="#FEF2D4"/>
<path d="M10.0649 13.0858V13.8414H9.3092V13.0858H10.0649Z" fill="#FEF2D4"/>
<path d="M10.0649 12.3304V13.086H9.3092V12.3304H10.0649Z" fill="#FEF2D4"/>
<path d="M10.0649 11.5752V12.3307H9.3092V11.5752H10.0649Z" fill="#FEF2D4"/>
<path d="M10.0649 10.8176V11.5735H9.3092V10.8176H10.0649Z" fill="#FEF2D4"/>
<path d="M10.0649 10.0626V10.8181H9.3092V10.0626H10.0649Z" fill="#FEF2D4"/>
<path d="M10.0649 9.30726V10.0627H9.3092V9.30726H10.0649Z" fill="#9B601D"/>
<path d="M10.0649 8.5535V9.30916H9.3092V8.5535H10.0649Z" fill="#FEF2D4"/>
<path d="M10.0649 7.79629V8.55196H9.3092V7.79629H10.0649Z" fill="#DAA645"/>
<path d="M10.0649 7.04113V7.79657H9.3092V7.04113H10.0649Z" fill="#FDDB8F"/>
<path d="M10.0649 6.28553V7.0412H9.3092V6.28553H10.0649Z" fill="#DAA645"/>
<path d="M10.0649 5.53017V6.28583H9.3092L9.30923 5.53017H10.0649Z" fill="#FDDB8F"/>
<path d="M10.0649 4.77296V5.52863H9.3092V4.77296H10.0649Z" fill="#F9E1D1"/>
<path d="M10.0649 4.01963V4.77507H9.3092V4.01963H10.0649Z" fill="#EF6E19"/>
<path d="M10.0649 3.26221V4.01787H9.3092V3.26221H10.0649Z" fill="#FDDB8F"/>
<path d="M10.0649 2.50683V3.2625H9.3092V2.50683H10.0649Z" fill="#FEF2D4"/>
<path d="M10.0649 1.74984V2.50528H9.3092V1.74984H10.0649Z" fill="#211D1D"/>
<path d="M9.30569 25.1754V25.9311H8.55014V25.1754H9.30569Z" fill="#211D1D"/>
<path d="M9.30569 24.4201V25.1757H8.55014V24.4201H9.30569Z" fill="#FDDB8F"/>
<path d="M9.30569 23.6649V24.4203H8.55014V23.6649H9.30569Z" fill="#FDDB8F"/>
<path d="M9.30569 22.9075V23.6631H8.55014L8.55016 22.9075H9.30569Z" fill="#DAA645"/>
<path d="M9.30567 22.1521V22.9077H8.55014V22.1521H9.30567Z" fill="#FDDB8F"/>
<path d="M9.30567 21.3988V22.1542H8.55014V21.3988H9.30567Z" fill="#DAA645"/>
<path d="M9.30567 20.6429V21.3988H8.55014V20.6429H9.30567Z" fill="#B26B23"/>
<path d="M9.30567 19.8862V20.6416H8.55014V19.8862H9.30567Z" fill="#EDB258"/>
<path d="M9.30567 19.1306V19.8863H8.55014V19.1306H9.30567Z" fill="#B26B23"/>
<path d="M9.30567 18.3752V19.1309H8.55014V18.3752H9.30567Z" fill="#B26B23"/>
<path d="M9.30567 17.62V18.3755H8.55014V17.62H9.30567Z" fill="#B26B23"/>
<path d="M9.30567 16.8645V17.6201H8.55014V16.8645H9.30567Z" fill="#B26B23"/>
<path d="M9.30567 16.1075V16.8629H8.55014V16.1075H9.30567Z" fill="#B26B23"/>
<path d="M9.30567 15.3537V16.1094H8.55014V15.3537H9.30567Z" fill="#B26B23"/>
<path d="M9.30567 14.5983V15.354H8.55014V14.5983H9.30567Z" fill="#B26B23"/>
<path d="M9.30567 13.8414V14.5968H8.55014V13.8414H9.30567Z" fill="#B26B23"/>
<path d="M9.30567 13.0858V13.8414H8.55014V13.0858H9.30567Z" fill="#B26B23"/>
<path d="M9.30567 12.3304V13.086H8.55014V12.3304H9.30567Z" fill="#B26B23"/>
<path d="M9.30567 11.5752V12.3307H8.55014V11.5752H9.30567Z" fill="#B26B23"/>
<path d="M9.30567 10.8176V11.5735H8.55014V10.8176H9.30567Z" fill="#9B601D"/>
<path d="M9.30567 10.0626V10.8181H8.55014V10.0626H9.30567Z" fill="#9B601D"/>
<path d="M9.30567 9.30726V10.0627H8.55014V9.30726H9.30567Z" fill="#D38C2B"/>
<path d="M9.30567 8.5535V9.30916H8.55014V8.5535H9.30567Z" fill="#9B601D"/>
<path d="M9.30567 7.79629V8.55196H8.55014V7.79629H9.30567Z" fill="#DAA645"/>
<path d="M9.30567 7.04113V7.79657H8.55014V7.04113H9.30567Z" fill="#FDDB8F"/>
<path d="M9.30567 6.28553V7.0412H8.55014V6.28553H9.30567Z" fill="#DAA645"/>
<path d="M9.30569 5.53017L9.30567 6.28583H8.55014V5.53017H9.30569Z" fill="#FDDB8F"/>
<path d="M9.30569 4.77296V5.52863H8.55014V4.77296H9.30569Z" fill="#F9E1D1"/>
<path d="M9.30569 4.01963V4.77507H8.55014V4.01963H9.30569Z" fill="#EF6E19"/>
<path d="M9.30569 3.26221V4.01787H8.55014V3.26221H9.30569Z" fill="#FEF2D4"/>
<path d="M9.30569 2.50683V3.2625H8.55014V2.50683H9.30569Z" fill="#211D1D"/>
<path d="M8.55213 25.1754V25.9311H7.7966V25.1754H8.55213Z" fill="#211D1D"/>
<path d="M8.55213 24.4201V25.1757H7.7966V24.4201H8.55213Z" fill="#FDDB8F"/>
<path d="M8.55213 23.6649V24.4203H7.7966V23.6649H8.55213Z" fill="#FDDB8F"/>
<path d="M8.55215 22.9075L8.55213 23.6631H7.7966V22.9075H8.55215Z" fill="#DAA645"/>
<path d="M8.55215 22.1521V22.9077H7.7966V22.1521H8.55215Z" fill="#FDDB8F"/>
<path d="M8.55215 21.3988V22.1542H7.7966V21.3988H8.55215Z" fill="#DAA645"/>
<path d="M8.55215 20.6429V21.3988H7.7966V20.6429H8.55215Z" fill="#F0AA3D"/>
<path d="M8.55215 19.8862V20.6416H7.7966V19.8862H8.55215Z" fill="#EDB258"/>
<path d="M8.55215 19.1306V19.8863H7.7966V19.1306H8.55215Z" fill="#EDB258"/>
<path d="M8.55215 18.3752V19.1309H7.7966V18.3752H8.55215Z" fill="#EDB258"/>
<path d="M8.55215 17.62V18.3755H7.7966V17.62H8.55215Z" fill="#EDB258"/>
<path d="M8.55215 16.8645V17.6201H7.7966V16.8645H8.55215Z" fill="#EDB258"/>
<path d="M8.55215 16.1075V16.8629H7.7966V16.1075H8.55215Z" fill="#EDB258"/>
<path d="M8.55215 15.3537V16.1094H7.7966V15.3537H8.55215Z" fill="#EDB258"/>
<path d="M8.55215 14.5983V15.354H7.7966V14.5983H8.55215Z" fill="#EDB258"/>
<path d="M8.55215 13.8414V14.5968H7.7966V13.8414H8.55215Z" fill="#EDB258"/>
<path d="M8.55215 13.0858V13.8414H7.7966V13.0858H8.55215Z" fill="#EDB258"/>
<path d="M8.55215 12.3304V13.086H7.7966V12.3304H8.55215Z" fill="#EDB258"/>
<path d="M8.55215 11.5752V12.3307H7.7966V11.5752H8.55215Z" fill="#EDB258"/>
<path d="M8.55215 10.8176V11.5735H7.7966V10.8176H8.55215Z" fill="#F0AA3D"/>
<path d="M8.55215 10.0626V10.8181H7.7966V10.0626H8.55215Z" fill="#F0AA3D"/>
<path d="M8.55215 9.30726V10.0627H7.7966V9.30726H8.55215Z" fill="#F0AA3D"/>
<path d="M8.55215 8.5535V9.30916H7.7966V8.5535H8.55215Z" fill="#D38C2B"/>
<path d="M8.55215 7.79629V8.55196H7.7966V7.79629H8.55215Z" fill="#DAA645"/>
<path d="M8.55215 7.04113V7.79657H7.7966V7.04113H8.55215Z" fill="#FDDB8F"/>
<path d="M8.55215 6.28553V7.0412H7.7966V6.28553H8.55215Z" fill="#DAA645"/>
<path d="M8.55215 5.53017V6.28583H7.7966V5.53017H8.55215Z" fill="#FDDB8F"/>
<path d="M8.55215 4.77296V5.52863H7.7966V4.77296H8.55215Z" fill="#EF6E19"/>
<path d="M8.55215 4.01963V4.77507H7.7966V4.01963H8.55215Z" fill="#FDDB8F"/>
<path d="M8.55215 3.26221V4.01787H7.7966L7.79662 3.26221H8.55215Z" fill="#FEF2D4"/>
<path d="M8.55213 2.50683V3.2625H7.7966V2.50683H8.55213Z" fill="#211D1D"/>
<path d="M7.79694 25.1754V25.9311H7.04123V25.1754H7.79694Z" fill="#211D1D"/>
<path d="M7.79694 24.4201V25.1757H7.04123V24.4201H7.79694Z" fill="#FDDB8F"/>
<path d="M7.79694 23.6649V24.4203H7.04123V23.6649H7.79694Z" fill="#FDDB8F"/>
<path d="M7.79694 22.9075V23.6631H7.04123V22.9075H7.79694Z" fill="#DAA645"/>
<path d="M7.79694 22.1521V22.9077H7.04123V22.1521H7.79694Z" fill="#FDDB8F"/>
<path d="M7.79694 21.3988V22.1542H7.04123V21.3988H7.79694Z" fill="#DAA645"/>
<path d="M7.79694 20.6429V21.3988H7.04123V20.6429H7.79694Z" fill="#F0AA3D"/>
<path d="M7.79694 19.8862V20.6416H7.04123V19.8862H7.79694Z" fill="#EDB258"/>
<path d="M7.79694 19.1306V19.8863H7.04123V19.1306H7.79694Z" fill="#EDB258"/>
<path d="M7.79694 18.3752V19.1309H7.04123V18.3752H7.79694Z" fill="#EDB258"/>
<path d="M7.79694 17.62V18.3755H7.04123V17.62H7.79694Z" fill="#EDB258"/>
<path d="M7.79694 16.8645V17.6201H7.04123V16.8645H7.79694Z" fill="#EDB258"/>
<path d="M7.79694 16.1075V16.8629H7.04123V16.1075H7.79694Z" fill="#EDB258"/>
<path d="M7.79694 15.3537V16.1094H7.04123V15.3537H7.79694Z" fill="#EDB258"/>
<path d="M7.79694 14.5983V15.354H7.04123V14.5983H7.79694Z" fill="#EDB258"/>
<path d="M7.79694 13.8414V14.5968H7.04123V13.8414H7.79694Z" fill="#EDB258"/>
<path d="M7.79694 13.0858V13.8414H7.04123L7.04125 13.0858H7.79694Z" fill="#EDB258"/>
<path d="M7.79691 12.3304V13.086H7.04123V12.3304H7.79691Z" fill="#EDB258"/>
<path d="M7.79691 11.5752V12.3307H7.04123V11.5752H7.79691Z" fill="#EDB258"/>
<path d="M7.79691 10.8176V11.5735H7.04123V10.8176H7.79691Z" fill="#F0AA3D"/>
<path d="M7.79691 10.0626V10.8181H7.04123V10.0626H7.79691Z" fill="#F0AA3D"/>
<path d="M7.79691 9.30726V10.0627H7.04123V9.30726H7.79691Z" fill="#F0AA3D"/>
<path d="M7.79691 8.5535V9.30916H7.04123V8.5535H7.79691Z" fill="#D38C2B"/>
<path d="M7.79691 7.79629V8.55196H7.04123V7.79629H7.79691Z" fill="#DAA645"/>
<path d="M7.79691 7.04113V7.79657H7.04123V7.04113H7.79691Z" fill="#FDDB8F"/>
<path d="M7.79691 6.28553V7.0412H7.04123V6.28553H7.79691Z" fill="#DAA645"/>
<path d="M7.79691 5.53017V6.28583H7.04123V5.53017H7.79691Z" fill="#FDDB8F"/>
<path d="M7.79691 4.77296V5.52863H7.04123V4.77296H7.79691Z" fill="#EF6E19"/>
<path d="M7.79691 4.01963V4.77507H7.04123V4.01963H7.79691Z" fill="#FEF2D4"/>
<path d="M7.79694 3.26221L7.79691 4.01787H7.04123V3.26221H7.79694Z" fill="#211D1D"/>
<path d="M7.04139 25.1754V25.9311H6.28586V25.1754H7.04139Z" fill="#211D1D"/>
<path d="M7.04139 24.4201V25.1757H6.28586V24.4201H7.04139Z" fill="#FDDB8F"/>
<path d="M7.04139 23.6649V24.4203H6.28586V23.6649H7.04139Z" fill="#FDDB8F"/>
<path d="M7.04139 22.9075V23.6631H6.28586V22.9075H7.04139Z" fill="#DAA645"/>
<path d="M7.04139 22.1521V22.9077H6.28586V22.1521H7.04139Z" fill="#FDDB8F"/>
<path d="M7.04139 21.3988V22.1542H6.28586V21.3988H7.04139Z" fill="#DAA645"/>
<path d="M7.04139 20.6429V21.3988H6.28586V20.6429H7.04139Z" fill="#B26B23"/>
<path d="M7.04139 19.8862V20.6416H6.28586V19.8862H7.04139Z" fill="#F0AA3D"/>
<path d="M7.04139 19.1306V19.8863H6.28586V19.1306H7.04139Z" fill="#B26B23"/>
<path d="M7.04139 18.3752V19.1309H6.28586V18.3752H7.04139Z" fill="#B26B23"/>
<path d="M7.04139 17.62V18.3755H6.28586V17.62H7.04139Z" fill="#B26B23"/>
<path d="M7.04139 16.8645V17.6201H6.28586V16.8645H7.04139Z" fill="#B26B23"/>
<path d="M7.04139 16.1075V16.8629H6.28586V16.1075H7.04139Z" fill="#B26B23"/>
<path d="M7.04139 15.3537V16.1094H6.28586V15.3537H7.04139Z" fill="#B26B23"/>
<path d="M7.04139 14.5983V15.354H6.28586V14.5983H7.04139Z" fill="#B26B23"/>
<path d="M7.04139 13.8414V14.5968H6.28586V13.8414H7.04139Z" fill="#B26B23"/>
<path d="M7.04141 13.0858L7.04139 13.8414H6.28586V13.0858H7.04141Z" fill="#B26B23"/>
<path d="M7.04141 12.3304V13.086H6.28586V12.3304H7.04141Z" fill="#B26B23"/>
<path d="M7.04141 11.5752V12.3307H6.28586V11.5752H7.04141Z" fill="#B26B23"/>
<path d="M7.04141 10.8176V11.5735H6.28586V10.8176H7.04141Z" fill="#9B601D"/>
<path d="M7.04141 10.0626V10.8181H6.28586V10.0626H7.04141Z" fill="#9B601D"/>
<path d="M7.04141 9.30726V10.0627H6.28586V9.30726H7.04141Z" fill="#D38C2B"/>
<path d="M7.04141 8.5535V9.30916H6.28586V8.5535H7.04141Z" fill="#9B601D"/>
<path d="M7.04141 7.79629V8.55196H6.28586V7.79629H7.04141Z" fill="#DAA645"/>
<path d="M7.04141 7.04113V7.79657H6.28586V7.04113H7.04141Z" fill="#FDDB8F"/>
<path d="M7.04141 6.28553V7.0412H6.28586V6.28553H7.04141Z" fill="#DAA645"/>
<path d="M7.04141 5.53017V6.28583H6.28586V5.53017H7.04141Z" fill="#FDDB8F"/>
<path d="M7.04141 4.77296V5.52863H6.28586V4.77296H7.04141Z" fill="#FDDB8F"/>
<path d="M7.04141 4.01963V4.77507H6.28586V4.01963H7.04141Z" fill="#FEF2D4"/>
<path d="M7.04141 3.26221V4.01787H6.28586V3.26221H7.04141Z" fill="#211D1D"/>
<path d="M6.28421 25.1754V25.9311H5.52866V25.1754H6.28421Z" fill="#211D1D"/>
<path d="M6.28421 24.4201V25.1757H5.52866V24.4201H6.28421Z" fill="#FDDB8F"/>
<path d="M6.28421 23.6649V24.4203H5.52866V23.6649H6.28421Z" fill="#FDDB8F"/>
<path d="M6.28421 22.9075V23.6631H5.52866V22.9075H6.28421Z" fill="#DAA645"/>
<path d="M6.28421 22.1521V22.9077H5.52866V22.1521H6.28421Z" fill="#FDDB8F"/>
<path d="M6.28421 21.3988V22.1542H5.52866V21.3988H6.28421Z" fill="#DAA645"/>
<path d="M6.28421 20.6429V21.3988H5.52866V20.6429H6.28421Z" fill="#FDDB8F"/>
<path d="M6.28421 19.8862V20.6416H5.52866V19.8862H6.28421Z" fill="#B26B23"/>
<path d="M6.28421 19.1306V19.8863H5.52866V19.1306H6.28421Z" fill="#FDDB8F"/>
<path d="M6.28421 18.3752V19.1309H5.52866V18.3752H6.28421Z" fill="#FDDB8F"/>
<path d="M6.28421 17.62V18.3755H5.52866V17.62H6.28421Z" fill="#FDDB8F"/>
<path d="M6.28421 16.8645V17.6201H5.52866V16.8645H6.28421Z" fill="#FDDB8F"/>
<path d="M6.28421 16.1075V16.8629H5.52866V16.1075H6.28421Z" fill="#FDDB8F"/>
<path d="M6.28421 15.3537V16.1094H5.52866V15.3537H6.28421Z" fill="#FDDB8F"/>
<path d="M6.28421 14.5983V15.354H5.52866V14.5983H6.28421Z" fill="#FDDB8F"/>
<path d="M6.28421 13.8414V14.5968H5.52866V13.8414H6.28421Z" fill="#FDDB8F"/>
<path d="M6.28421 13.0858V13.8414H5.52866V13.0858H6.28421Z" fill="#FDDB8F"/>
<path d="M6.28421 12.3304V13.086H5.52866V12.3304H6.28421Z" fill="#FDDB8F"/>
<path d="M6.28421 11.5752V12.3307H5.52866L5.52868 11.5752H6.28421Z" fill="#FDDB8F"/>
<path d="M6.28418 10.8176V11.5735H5.52866V10.8176H6.28418Z" fill="#FDDB8F"/>
<path d="M6.28418 10.0626V10.8181H5.52866V10.0626H6.28418Z" fill="#FDDB8F"/>
<path d="M6.28418 9.30726V10.0627H5.52866V9.30726H6.28418Z" fill="#9B601D"/>
<path d="M6.28418 8.5535V9.30916H5.52866V8.5535H6.28418Z" fill="#FDDB8F"/>
<path d="M6.28418 7.79629V8.55196H5.52866V7.79629H6.28418Z" fill="#DAA645"/>
<path d="M6.28418 7.04113V7.79657H5.52866V7.04113H6.28418Z" fill="#FDDB8F"/>
<path d="M6.28418 6.28553V7.0412H5.52866V6.28553H6.28418Z" fill="#DAA645"/>
<path d="M6.28418 5.53017V6.28583H5.52866V5.53017H6.28418Z" fill="#FDDB8F"/>
<path d="M6.28418 4.77296V5.52863H5.52866V4.77296H6.28418Z" fill="#FEF2D4"/>
<path d="M6.28418 4.01963V4.77507H5.52866V4.01963H6.28418Z" fill="#211D1D"/>
<path d="M5.53067 25.1754V25.9311H4.77512V25.1754H5.53067Z" fill="#211D1D"/>
<path d="M5.53067 24.4201V25.1757H4.77512V24.4201H5.53067Z" fill="#FDDB8F"/>
<path d="M5.53067 23.6649V24.4203H4.77512V23.6649H5.53067Z" fill="#FDDB8F"/>
<path d="M5.53067 22.9075V23.6631H4.77512V22.9075H5.53067Z" fill="#DAA645"/>
<path d="M5.53067 22.1521V22.9077H4.77512V22.1521H5.53067Z" fill="#FDDB8F"/>
<path d="M5.53067 21.3988V22.1542H4.77512V21.3988H5.53067Z" fill="#DAA645"/>
<path d="M5.53067 20.6429V21.3988H4.77512V20.6429H5.53067Z" fill="#FDDB8F"/>
<path d="M5.53067 19.8862V20.6416H4.77512V19.8862H5.53067Z" fill="#B26B23"/>
<path d="M5.53067 19.1306V19.8863H4.77512V19.1306H5.53067Z" fill="#FDDB8F"/>
<path d="M5.53067 18.3752V19.1309H4.77512V18.3752H5.53067Z" fill="#FDDB8F"/>
<path d="M5.53067 17.62V18.3755H4.77512V17.62H5.53067Z" fill="#FDDB8F"/>
<path d="M5.53067 16.8645V17.6201H4.77512V16.8645H5.53067Z" fill="#FDDB8F"/>
<path d="M5.53067 16.1075V16.8629H4.77512V16.1075H5.53067Z" fill="#FDDB8F"/>
<path d="M5.53067 15.3537V16.1094H4.77512V15.3537H5.53067Z" fill="#FDDB8F"/>
<path d="M5.53067 14.5983V15.354H4.77512V14.5983H5.53067Z" fill="#FDDB8F"/>
<path d="M5.53067 13.8414V14.5968H4.77512V13.8414H5.53067Z" fill="#FDDB8F"/>
<path d="M5.53067 13.0858V13.8414H4.77512V13.0858H5.53067Z" fill="#FDDB8F"/>
<path d="M5.53067 12.3304V13.086H4.77512V12.3304H5.53067Z" fill="#FDDB8F"/>
<path d="M5.53069 11.5752L5.53067 12.3307H4.77512V11.5752H5.53069Z" fill="#FDDB8F"/>
<path d="M5.53069 10.8176V11.5735H4.77512V10.8176H5.53069Z" fill="#FDDB8F"/>
<path d="M5.53069 10.0626V10.8181H4.77512L4.77514 10.0626H5.53069Z" fill="#FDDB8F"/>
<path d="M5.53067 9.30726V10.0627H4.77512V9.30726H5.53067Z" fill="#9B601D"/>
<path d="M5.53067 8.5535V9.30916H4.77512V8.5535H5.53067Z" fill="#FDDB8F"/>
<path d="M5.53067 7.79629V8.55196H4.77512V7.79629H5.53067Z" fill="#DAA645"/>
<path d="M5.53067 7.04113V7.79657H4.77512V7.04091L5.53067 7.04113Z" fill="#FDDB8F"/>
<path d="M5.53067 6.28553V7.0412L4.77512 7.04097V6.28553H5.53067Z" fill="#DAA645"/>
<path d="M5.53067 5.53017V6.28583H4.77512V5.53017H5.53067Z" fill="#FDDB8F"/>
<path d="M5.53067 4.77296V5.52863H4.77512V4.77296H5.53067Z" fill="#FEF2D4"/>
<path d="M5.53067 4.01963V4.77507H4.77512V4.01963H5.53067Z" fill="#211D1D"/>
<path d="M4.77543 25.1754V25.9311H4.01974V25.1754H4.77543Z" fill="#211D1D"/>
<path d="M4.77543 24.4201V25.1757H4.01974V24.4201H4.77543Z" fill="#FDDB8F"/>
<path d="M4.77543 23.6649V24.4203H4.01974V23.6649H4.77543Z" fill="#FDDB8F"/>
<path d="M4.77543 22.9075V23.6631H4.01974V22.9075H4.77543Z" fill="#DAA645"/>
<path d="M4.77543 22.1521V22.9077H4.01974V22.1521H4.77543Z" fill="#FEF2D4"/>
<path d="M4.77543 21.3988V22.1542H4.01974V21.3985L4.77543 21.3988Z" fill="#DAA645"/>
<path d="M4.77543 20.6429V21.3988L4.01974 21.3986V20.6429H4.77543Z" fill="#FDDB8F"/>
<path d="M4.77543 19.8862V20.6416H4.01974V19.8862H4.77543Z" fill="#211D1D"/>
<path d="M4.77543 19.1306V19.8863H4.01974V19.1306H4.77543Z" fill="#FDDB8F"/>
<path d="M4.77543 18.3752V19.1309H4.01974V18.3752H4.77543Z" fill="#FDDB8F"/>
<path d="M4.77543 17.62V18.3755H4.01974V17.62H4.77543Z" fill="#FDDB8F"/>
<path d="M4.77543 16.8645V17.6201H4.01974V16.8645H4.77543Z" fill="#FEF2D4"/>
<path d="M4.77543 16.1075V16.8629H4.01974V16.1075H4.77543Z" fill="#FDDB8F"/>
<path d="M4.77543 15.3537V16.1094H4.01974V15.3537H4.77543Z" fill="#FDDB8F"/>
<path d="M4.77543 14.5983V15.354H4.01974V14.5983H4.77543Z" fill="#FEF2D4"/>
<path d="M4.77543 13.8414V14.5968H4.01974V13.8414H4.77543Z" fill="#FEF2D4"/>
<path d="M4.77543 13.0858V13.8414H4.01974V13.0858H4.77543Z" fill="#FEF2D4"/>
<path d="M4.77543 12.3304V13.086H4.01974V12.3304H4.77543Z" fill="#FEF2D4"/>
<path d="M4.77543 11.5752V12.3307H4.01974V11.5752H4.77543Z" fill="#FEF2D4"/>
<path d="M4.77543 10.8176V11.5735H4.01974V10.8176H4.77543Z" fill="#FEF2D4"/>
<path d="M4.77545 10.0626L4.77543 10.8181H4.01974V10.0626H4.77545Z" fill="#FEF2D4"/>
<path d="M4.77545 9.30726V10.0627H4.01974V9.30726H4.77545Z" fill="#211D1D"/>
<path d="M4.77545 8.5535V9.30916H4.01974V8.5535H4.77545Z" fill="#FEF2D4"/>
<path d="M4.77545 7.79629V8.55196H4.01974V7.79629H4.77545Z" fill="#DAA645"/>
<path d="M4.77545 7.04091V7.79657H4.01974V7.04091H4.77545Z" fill="#FDDB8F"/>
<path d="M4.77545 6.28576V7.0412H4.01974V6.28576H4.77545Z" fill="#DAA645"/>
<path d="M4.77545 5.53017V6.28583H4.01974V5.53017H4.77545Z" fill="#FEF2D4"/>
<path d="M4.77545 4.77296V5.52863H4.01974V4.77296H4.77545Z" fill="#211D1D"/>
<path d="M4.01993 25.1754V25.9311H3.26437V25.1754H4.01993Z" fill="#211D1D"/>
<path d="M4.01993 24.4201V25.1757H3.26437V24.4201H4.01993Z" fill="#FDDB8F"/>
<path d="M4.01993 23.6649V24.4203H3.26437V23.6649H4.01993Z" fill="#FDDB8F"/>
<path d="M4.01993 22.9075V23.6631H3.26437V22.9075H4.01993Z" fill="#DAA645"/>
<path d="M4.01993 22.1521V22.9077H3.26437V22.1521H4.01993Z" fill="#FEF2D4"/>
<path d="M4.01993 21.3985V22.1542H3.26437V21.3985H4.01993Z" fill="#211D1D"/>
<path d="M4.01993 20.6432V21.3988H3.26437V20.6432H4.01993Z" fill="#211D1D"/>
<path d="M4.01993 19.1306V19.8863H3.26437V19.1306H4.01993Z" fill="#211D1D"/>
<path d="M4.01993 18.3752V19.1309H3.26437V18.3752H4.01993Z" fill="#211D1D"/>
<path d="M4.01993 17.62V18.3755H3.26437V17.62H4.01993Z" fill="#211D1D"/>
<path d="M4.01993 16.8645V17.6201H3.26437V16.8645H4.01993Z" fill="#211D1D"/>
<path d="M4.01993 16.1075V16.8629H3.26437V16.1075H4.01993Z" fill="#211D1D"/>
<path d="M4.01993 15.3537V16.1094H3.26437V15.3537H4.01993Z" fill="#211D1D"/>
<path d="M4.01993 14.5983V15.354H3.26437V14.5983H4.01993Z" fill="#211D1D"/>
<path d="M4.01993 13.8414V14.5968H3.26437V13.8414H4.01993Z" fill="#211D1D"/>
<path d="M4.01993 13.0858V13.8414H3.26437V13.0858H4.01993Z" fill="#211D1D"/>
<path d="M4.01993 12.3304V13.086H3.26437V12.3304H4.01993Z" fill="#211D1D"/>
<path d="M4.01993 11.5752V12.3307H3.26437V11.5752H4.01993Z" fill="#211D1D"/>
<path d="M4.01993 10.8176V11.5735H3.26437V10.8176H4.01993Z" fill="#211D1D"/>
<path d="M4.01993 10.0626V10.8181H3.26437V10.0626H4.01993Z" fill="#211D1D"/>
<path d="M4.01993 8.5535V9.30916H3.26437V8.5535H4.01993Z" fill="#211D1D"/>
<path d="M4.01993 7.79629V8.55196H3.26437V7.79629H4.01993Z" fill="#DAA645"/>
<path d="M4.01993 7.04091V7.79657H3.26437V7.04091H4.01993Z" fill="#FDDB8F"/>
<path d="M4.01993 6.28576V7.0412H3.26437V6.28576H4.01993Z" fill="#DAA645"/>
<path d="M4.01993 5.53017V6.28583H3.26437V5.53017H4.01993Z" fill="#FEF2D4"/>
<path d="M4.01993 4.77296V5.52863H3.26437V4.77296H4.01993Z" fill="#211D1D"/>
<path d="M3.26086 25.1754V25.9311H2.50531V25.1754H3.26086Z" fill="#211D1D"/>
<path d="M3.26086 24.4201V25.1757H2.50531V24.4201H3.26086Z" fill="#FEF2D4"/>
<path d="M3.26086 23.6649V24.4203H2.50531V23.6649H3.26086Z" fill="#FEF2D4"/>
<path d="M3.26086 22.9075V23.6631H2.50531V22.9072L3.26086 22.9075Z" fill="#DAA645"/>
<path d="M3.26086 22.1521V22.9077L2.50531 22.9075V22.1521H3.26086Z" fill="#211D1D"/>
<path d="M3.26084 7.79629V8.55196H2.50531V7.79629H3.26084Z" fill="#211D1D"/>
<path d="M3.26084 7.04091V7.79657H2.50531V7.04091H3.26084Z" fill="#211D1D"/>
<path d="M3.26084 6.28576V7.0412H2.50531V6.28576H3.26084Z" fill="#211D1D"/>
<path d="M3.26084 5.53017V6.28583H2.50531V5.53017H3.26084Z" fill="#211D1D"/>
<path d="M2.50746 25.1754V25.9311H1.75177V25.1754H2.50746Z" fill="#211D1D"/>
<path d="M2.50746 24.4201V25.1757H1.75177V24.4201H2.50746Z" fill="#FEF2D4"/>
<path d="M2.50746 23.6649V24.4203H1.75177V23.6649H2.50746Z" fill="#FEF2D4"/>
<path d="M2.50746 22.9072V23.6631H1.75177V22.9072H2.50746Z" fill="#211D1D"/>
<path d="M1.75195 25.1754V25.9311H0.996399V25.1754H1.75195Z" fill="#211D1D"/>
<path d="M1.75195 24.4201V25.1757H0.996399V24.4201H1.75195Z" fill="#211D1D"/>
<path d="M1.75195 23.6649V24.4203H0.996399V23.6649H1.75195Z" fill="#211D1D"/>
</g>
</svg>
