<svg width="21" height="19" viewBox="0 0 21 19" fill="none" xmlns="http://www.w3.org/2000/svg">
<path d="M21 11C21 17.0751 16.299 19 10.5 19C4.70101 19 0 17.0751 0 11C0 4.92487 4.70101 0 10.5 0C16.299 0 21 4.92487 21 11Z" fill="#F8F8F8"/>
<path fill-rule="evenodd" clip-rule="evenodd" d="M6.50002 8.39118C5.66006 8.46654 5 9.22471 5 10.1487V15.2361C5 16.2096 5.73404 17 6.63796 17H14.362C15.2661 17 16 16.2095 16 15.2361V10.1487C16 9.22471 15.3399 8.46654 14.5 8.39118V7.33904C14.5 4.94183 12.708 3 10.4999 3C8.29189 3 6.4999 4.94168 6.4999 7.33904L6.50002 8.39118ZM13.5001 8.38469V7.33904C13.5001 5.53844 12.1581 4.07692 10.5001 4.07692C8.84201 4.07692 7.50003 5.53832 7.50003 7.33904V8.38469H13.5001Z" fill="black"/>
</svg>
