<svg width="18" height="18" viewBox="0 0 18 18" fill="none" xmlns="http://www.w3.org/2000/svg">
<path d="M3.4782 17.6171L11.0045 17.6072C11.2116 17.6064 11.4013 17.5782 11.5798 17.5343C11.9845 17.4331 12.2306 17.0229 12.1295 16.6179C12.0283 16.213 11.6181 15.9672 11.2132 16.0683L11.0036 16.0961L3.4773 16.106C2.93469 16.1051 2.51457 15.6623 2.51187 15.152L2.51959 14.983L2.7379 12.85C2.84389 11.9637 3.59475 11.3016 4.49606 11.3004H9.9663C10.2703 11.3003 10.5617 11.3791 10.8046 11.5111C11.1713 11.7101 11.6299 11.5743 11.8292 11.2076C12.0282 10.8409 11.8923 10.3823 11.5256 10.1832C11.0633 9.9324 10.5286 9.78968 9.9663 9.78955H4.49572C2.83816 9.78839 1.43366 11.0198 1.23685 12.6721L1.23556 12.6845L1.01378 14.8505L1.01069 14.8931L1.00077 15.1149L1 15.149C1.00052 16.4909 2.08858 17.6147 3.47811 17.6171L3.4782 17.6171Z" fill="black" stroke="black" stroke-width="0.474654"/>

<path d="M7.25027 8.61041C9.35205 8.61002 11.0548 6.90712 11.0555 4.8052C11.055 2.70329 9.35192 1.00033 7.25027 1C5.14836 1.00052 3.44573 2.70329 3.44507 4.8052C3.44545 6.90699 5.14836 8.60975 7.25027 8.61041ZM7.25027 2.51107C8.51683 2.51352 9.54203 3.53845 9.54421 4.80514C9.54202 6.07169 8.51683 7.0969 7.25027 7.09921C5.98372 7.09676 4.95851 6.07183 4.9562 4.80514C4.95852 3.53858 5.98359 2.51338 7.25027 2.51107Z" fill="black" stroke="black" stroke-width="0.474654"/>
<path d="M11.4906 14.1031L12.8915 15.5983C13.0333 15.7497 13.2352 15.8372 13.443 15.8372C13.6505 15.8372 13.8526 15.7496 13.9944 15.5983L16.7959 12.6078C17.0812 12.3033 17.0656 11.8251 16.7611 11.5398C16.4567 11.2546 15.9785 11.2702 15.6932 11.5748L13.4427 13.9764L12.5933 13.0698C12.3081 12.7653 11.8299 12.7496 11.5254 13.035C11.2208 13.3204 11.2053 13.7986 11.4906 14.1031L11.4906 14.1031Z" fill="black" stroke="black" stroke-width="0.474654"/>

</svg>
