<svg width="19" height="14" viewBox="0 0 19 14" fill="none" xmlns="http://www.w3.org/2000/svg">
<path d="M12.2419 2.57736C12.2419 2.57736 13.0851 5.10756 11.3311 6.96304C14.6292 8.38031 15.4426 11.8571 15.4507 13.6369C15.4513 13.7696 15.557 13.8787 15.6897 13.8787H17.7628C18.2606 13.8787 18.6811 13.4861 18.6305 12.9908C18.35 10.241 16.083 8.97583 14.6032 8.3126C17.1334 6.45675 16.0587 3.94909 14.7719 3.08321C13.658 2.33376 12.2419 2.57736 12.2419 2.57736Z" fill="#6C6C6C"/>
<ellipse cx="7.23593" cy="4.04832" rx="4.13266" ry="4.04832" fill="#6C6C6C"/>
<path d="M7.25324 6.91577C3.47213 6.91577 0.494936 9.45619 0.0558855 13.0676C-0.00638327 13.5798 0.418271 14.0003 0.934234 14.0003H13.5722C14.0882 14.0003 14.5129 13.5798 14.4506 13.0676C14.0115 9.45619 11.0344 6.91577 7.25324 6.91577Z" fill="#6C6C6C"/>
</svg>
