<svg width="16" height="22" viewBox="0 0 16 22" fill="none" xmlns="http://www.w3.org/2000/svg">
<g id="Group">
<g id="Group_2">
<g id="Group_3">
<g id="Group 22907">
<g id="Vector">
<path fill-rule="evenodd" clip-rule="evenodd" d="M11.7499 2L14.7493 4.99947L11.7499 2Z" fill="white"/>
<path d="M11.7499 2L14.7493 4.99947" stroke="white" stroke-width="2.25" stroke-linecap="round" stroke-linejoin="round"/>
</g>
<g id="Vector_2">
<path fill-rule="evenodd" clip-rule="evenodd" d="M14.7493 4.99622L11.7499 7.99568L14.7493 4.99622Z" fill="white"/>
<path d="M14.7493 4.99622L11.7499 7.99568" stroke="white" stroke-width="2.25" stroke-linecap="round" stroke-linejoin="round"/>
</g>
<g id="Vector_3">
<path fill-rule="evenodd" clip-rule="evenodd" d="M1.25061 9.49542C1.25061 7.00886 3.26325 4.99622 5.74981 4.99622H14.7482" fill="#D1891C"/>
<path d="M1.25061 9.49542C1.25061 7.00886 3.26325 4.99622 5.74981 4.99622H14.7482" stroke="white" stroke-width="2.25" stroke-linecap="round" stroke-linejoin="round"/>
</g>
<g id="Vector_4">
<path fill-rule="evenodd" clip-rule="evenodd" d="M4.25008 19.9917L1.25061 16.9922L4.25008 19.9917Z" fill="white"/>
<path d="M4.25008 19.9917L1.25061 16.9922" stroke="white" stroke-width="2.25" stroke-linecap="round" stroke-linejoin="round"/>
</g>
<g id="Vector_5">
<path fill-rule="evenodd" clip-rule="evenodd" d="M1.25061 16.9974L4.25008 13.9979L1.25061 16.9974Z" fill="white"/>
<path d="M1.25061 16.9974L4.25008 13.9979" stroke="white" stroke-width="2.25" stroke-linecap="round" stroke-linejoin="round"/>
</g>
<g id="Vector_6">
<path fill-rule="evenodd" clip-rule="evenodd" d="M14.7482 12.4989C14.7482 14.9855 12.7356 16.9981 10.249 16.9981H1.25061" fill="#D1891C"/>
<path d="M14.7482 12.4989C14.7482 14.9855 12.7356 16.9981 10.249 16.9981H1.25061" stroke="white" stroke-width="2.25" stroke-linecap="round" stroke-linejoin="round"/>
</g>
</g>
</g>
</g>
</g>
</svg>
