<svg width="28" height="30" viewBox="0 0 28 30" fill="none" xmlns="http://www.w3.org/2000/svg">
<path d="M11.9021 27.1532C11.6043 27.6298 11.6638 28.2255 12.0213 28.6426C12.3191 28.8809 12.617 29 12.9149 29C13.2128 29 13.5106 28.8809 13.7489 28.6426L15.5362 26.8553C16.0128 26.3787 16.0128 25.6638 15.5362 25.1872L13.7489 23.4C13.2723 22.9234 12.5574 22.9234 12.0809 23.4C11.7234 23.7574 11.6638 24.2936 11.8426 24.7702C6.54043 24.3532 3.38298 22.8043 3.38298 21.8511C3.38298 21.1957 5.34894 19.766 9.99574 19.1106C11.4851 20.8383 13.0936 21.9702 14.1064 21.9702C15.1191 21.9702 16.7277 20.8383 18.217 19.1106C22.8638 19.766 24.8298 21.1957 24.8298 21.8511C24.8298 22.4468 23.0426 23.817 18.6936 24.4723C18.0383 24.5915 17.6213 25.1872 17.6809 25.8426C17.8 26.4383 18.2766 26.8553 18.8723 26.8553C18.9319 26.8553 18.9915 26.8553 19.0511 26.8553C24.1745 26.0809 27.2128 24.1745 27.2128 21.8511C27.2128 19.5872 24.4723 17.8596 19.8255 16.966C21.3149 14.7021 22.4468 11.9617 22.4468 9.34043C22.4468 4.75319 18.6936 1 14.1064 1C9.51915 1 5.76596 4.75319 5.76596 9.34043C5.76596 11.9617 6.89787 14.7021 8.38723 16.966C3.74043 17.8596 1 19.5872 1 21.8511C1 24.9489 6.18298 26.7957 11.9021 27.1532ZM14.1064 3.38298C17.383 3.38298 20.0638 6.06383 20.0638 9.34043C20.0638 14.2255 15.2979 19.0511 14.1064 19.5872C12.9149 19.0511 8.14894 14.2851 8.14894 9.34043C8.14894 6.06383 10.8298 3.38298 14.1064 3.38298Z" fill="white" stroke="black" stroke-width="0.75"/>
<path d="M18.2766 9.34062C18.2766 7.01722 16.4298 5.17041 14.1064 5.17041C11.783 5.17041 9.93616 7.01722 9.93616 9.34062C9.93616 11.664 11.783 13.5108 14.1064 13.5108C16.4298 13.5108 18.2766 11.664 18.2766 9.34062ZM12.3191 9.34062C12.3191 8.32786 13.0936 7.55339 14.1064 7.55339C15.1191 7.55339 15.8936 8.32786 15.8936 9.34062C15.8936 10.3534 15.1191 11.1279 14.1064 11.1279C13.0936 11.1279 12.3191 10.3534 12.3191 9.34062Z" fill="white" stroke="black" stroke-width="0.75"/>
</svg>
