<svg width="77" height="38" viewBox="0 0 77 38" fill="none" xmlns="http://www.w3.org/2000/svg">
<path fill-rule="evenodd" clip-rule="evenodd" d="M14.25 16V17.7499H63.7503V16H14.25ZM63.7503 17.7499V19.5H65.5002V17.7499H63.7503ZM65.5002 19.5V21.25H67.2501V19.5H65.5002ZM67.2501 21.25V32.7499H69.0002V21.25H67.2501ZM67.2501 32.7499H65.5002V34.5H67.2501V32.7499ZM65.5002 34.5H63.7503V36.2499H65.5002V34.5ZM63.7503 36.2499H14.25V38H63.7503V36.2499ZM14.25 36.2499V34.5H12.5V36.2499H14.25ZM12.5 34.5V32.7499H10.7501V34.5H12.5ZM10.7501 32.7499V21.25H9V32.7499H10.7501ZM10.7501 21.25H12.5V19.5H10.7501V21.25ZM12.5 19.5H14.25V17.7499H12.5V19.5Z" fill="url(#paint0_linear_1404_2)"/>
<path d="M1.26363 11V10.3469H0.610504V8.3875H2.56988V9.04063H5.8355V7.08125H1.26363V6.42813H0.610504V1.85625H1.26363V1.20313H7.14175V1.85625H7.79488V3.81563H5.8355V3.1625H2.56988V5.12188H7.14175V5.775H7.79488V10.3469H7.14175V11H1.26363ZM14.4045 5.12188V3.1625H11.1389V5.12188H14.4045ZM9.1795 11V1.20313H15.7108V1.85625H16.3639V6.42813H15.7108V7.08125H11.1389V11H9.1795ZM22.9735 9.04063V3.1625H19.7079V9.04063H22.9735ZM18.4016 11V10.3469H17.7485V1.85625H18.4016V1.20313H24.2798V1.85625H24.9329V10.3469H24.2798V11H18.4016ZM28.93 11V3.1625H26.3175V1.20313H33.5019V3.1625H30.8894V11H28.93ZM35.5396 11V10.3469H34.8865V8.3875H36.8459V9.04063H40.1115V7.08125H35.5396V6.42813H34.8865V1.85625H35.5396V1.20313H41.4178V1.85625H42.0709V3.81563H40.1115V3.1625H36.8459V5.12188H41.4178V5.775H42.0709V10.3469H41.4178V11H35.5396ZM44.1086 11V10.3469H43.4555V1.85625H44.1086V1.20313H49.9868V1.85625H50.6399V3.81563H48.6805V3.1625H45.4149V9.04063H48.6805V8.3875H50.6399V10.3469H49.9868V11H44.1086ZM57.2495 9.04063V3.1625H53.9839V9.04063H57.2495ZM52.6776 11V10.3469H52.0245V1.85625H52.6776V1.20313H58.5558V1.85625H59.2089V10.3469H58.5558V11H52.6776ZM65.8185 5.12188V3.1625H62.5529V5.12188H65.8185ZM60.5935 11V1.20313H67.1248V1.85625H67.7779V5.775H67.1248V6.42813H67.7779V11H65.8185V7.08125H62.5529V11H60.5935ZM69.8156 11V10.3469H69.1625V1.85625H69.8156V1.20313H76.3469V3.1625H71.1219V5.12188H74.3875V7.08125H71.1219V9.04063H76.3469V11H69.8156Z" fill="url(#paint1_linear_1404_2)"/>
<path d="M19.082 2.06299L22.4986 9.31419" stroke="url(#paint2_linear_1404_2)" stroke-width="1.1"/>
<path d="M54.3105 2.47559L57.346 10.4139" stroke="url(#paint3_linear_1404_2)" stroke-width="1.1"/>
<defs>
<linearGradient id="paint0_linear_1404_2" x1="39.0001" y1="16" x2="39.0001" y2="36" gradientUnits="userSpaceOnUse">
<stop stop-color="#3AEDE7"/>
<stop offset="1" stop-color="#3AFC8F"/>
</linearGradient>
<linearGradient id="paint1_linear_1404_2" x1="38.5" y1="0" x2="38.5" y2="12" gradientUnits="userSpaceOnUse">
<stop stop-color="#3AC7FD"/>
<stop offset="1" stop-color="#3BEFE6"/>
</linearGradient>
<linearGradient id="paint2_linear_1404_2" x1="20.7903" y1="2.06299" x2="20.7903" y2="9.31419" gradientUnits="userSpaceOnUse">
<stop stop-color="#3AC9FD"/>
<stop offset="1" stop-color="#3AE9EA"/>
</linearGradient>
<linearGradient id="paint3_linear_1404_2" x1="55.8283" y1="2.47559" x2="55.8283" y2="10.4139" gradientUnits="userSpaceOnUse">
<stop stop-color="#3AC8FD"/>
<stop offset="1" stop-color="#3AECE7"/>
</linearGradient>
</defs>
</svg>
