<svg width="47" height="20" viewBox="0 0 47 20" fill="none" xmlns="http://www.w3.org/2000/svg">
<rect y="1" width="46" height="17" rx="8.5" fill="#1B1B1B"/>
<path fill-rule="evenodd" clip-rule="evenodd" d="M4.05679 0V1.35222H42.307V0H4.05679ZM42.307 1.35222V2.70457H43.6592V1.35222H42.307ZM43.6592 2.70457V4.05679H45.0115V2.70457H43.6592ZM45.0115 4.05679V15.9431H46.3638V4.05679H45.0115ZM45.0115 15.9431H43.6592V17.2954H45.0115V15.9431ZM43.6592 17.2954H42.307V18.6477H43.6592V17.2954ZM42.307 18.6477H4.05679V20H42.307V18.6477ZM4.05679 18.6477V17.2954H2.70457V18.6477H4.05679ZM2.70457 17.2954V15.9431H1.35234V17.2954H2.70457ZM1.35234 15.9431V4.05679H0V15.9431H1.35234ZM1.35234 4.05679H2.70457V2.70457H1.35234V4.05679ZM2.70457 2.70457H4.05679V1.35222H2.70457V2.70457Z" fill="url(#paint0_linear_557_6)"/>
<defs>
<linearGradient id="paint0_linear_557_6" x1="23.1819" y1="2" x2="23.1819" y2="17.4545" gradientUnits="userSpaceOnUse">
<stop stop-color="#3AEDE7"/>
<stop offset="1" stop-color="#3AFC8F"/>
</linearGradient>
</defs>
</svg>
