<svg width="88" height="47" viewBox="0 0 88 47" fill="none" xmlns="http://www.w3.org/2000/svg">
<g filter="url(#filter0_d_980_13)">
<path d="M15 5V5C9.47715 5 5 9.47715 5 15V27C5 33.0751 9.92487 38 16 38H72C78.0751 38 83 33.0751 83 27V22V15C83 9.47715 78.5228 5 73 5V5" stroke="url(#paint0_linear_980_13)" stroke-width="1.25"/>
</g>
<path d="M17 15.625H71C74.5208 15.625 77.375 18.4792 77.375 22V26.25C77.375 29.7708 74.5208 32.625 71 32.625H17C13.4792 32.625 10.625 29.7708 10.625 26.25V22C10.625 18.4792 13.4792 15.625 17 15.625Z" stroke="url(#paint1_linear_980_13)" stroke-width="1.25"/>
<path d="M17.4861 11V10.3333H17V8.33333H18.4583V9H20.8887V7H17.4861V6.33333H17V1.66667H17.4861V1H21.8609V1.66667H22.3469V3.66667H20.8887V3H18.4583V5H21.8609V5.66667H22.3469V10.3333H21.8609V11H17.4861Z" fill="url(#paint2_linear_980_13)"/>
<path d="M27.0328 5V3H24.6024V5H27.0328ZM23.1441 11V1H28.005V1.66667H28.4911V6.33333H28.005V7H24.6024V11H23.1441Z" fill="url(#paint3_linear_980_13)"/>
<path d="M33.177 9V3H30.7465V9H33.177ZM29.7743 11V10.3333H29.2883V1.66667H29.7743V1H34.1491V1.66667H34.6352V10.3333H34.1491V11H29.7743Z" fill="url(#paint4_linear_980_13)"/>
<path d="M37.3767 11V3H35.4324V1H40.7793V3H38.835V11H37.3767Z" fill="url(#paint5_linear_980_13)"/>
<path d="M42.0626 11V10.3333H41.5765V8.33333H43.0348V9H45.4652V7H42.0626V6.33333H41.5765V1.66667H42.0626V1H46.4374V1.66667H46.9235V3.66667H45.4652V3H43.0348V5H46.4374V5.66667H46.9235V10.3333H46.4374V11H42.0626Z" fill="url(#paint6_linear_980_13)"/>
<path d="M48.2067 11V10.3333H47.7207V1.66667H48.2067V1H52.5815V1.66667H53.0676V3.66667H51.6093V3H49.1789V9H51.6093V8.33333H53.0676V10.3333H52.5815V11H48.2067Z" fill="url(#paint7_linear_980_13)"/>
<path d="M57.7535 9V3H55.323V9H57.7535ZM54.3509 11V10.3333H53.8648V1.66667H54.3509V1H58.7256V1.66667H59.2117V10.3333H58.7256V11H54.3509Z" fill="url(#paint8_linear_980_13)"/>
<path d="M63.8976 5V3H61.4672V5H63.8976ZM60.0089 11V1H64.8698V1.66667H65.3559V5.66667H64.8698V6.33333H65.3559V11H63.8976V7H61.4672V11H60.0089Z" fill="url(#paint9_linear_980_13)"/>
<path d="M66.6391 11V10.3333H66.153V1.66667H66.6391V1H71.5V3H67.6113V5H70.0417V7H67.6113V9H71.5V11H66.6391Z" fill="url(#paint10_linear_980_13)"/>
<path d="M17.4861 11V10.3333H17V8.33333H18.4583V9H20.8887V7H17.4861V6.33333H17V1.66667H17.4861V1H21.8609V1.66667H22.3469V3.66667H20.8887V3H18.4583V5H21.8609V5.66667H22.3469V10.3333H21.8609V11H17.4861Z" stroke="black" stroke-width="0.15"/>
<path d="M27.0328 5V3H24.6024V5H27.0328ZM23.1441 11V1H28.005V1.66667H28.4911V6.33333H28.005V7H24.6024V11H23.1441Z" stroke="black" stroke-width="0.15"/>
<path d="M33.177 9V3H30.7465V9H33.177ZM29.7743 11V10.3333H29.2883V1.66667H29.7743V1H34.1491V1.66667H34.6352V10.3333H34.1491V11H29.7743Z" stroke="black" stroke-width="0.15"/>
<path d="M37.3767 11V3H35.4324V1H40.7793V3H38.835V11H37.3767Z" stroke="black" stroke-width="0.15"/>
<path d="M42.0626 11V10.3333H41.5765V8.33333H43.0348V9H45.4652V7H42.0626V6.33333H41.5765V1.66667H42.0626V1H46.4374V1.66667H46.9235V3.66667H45.4652V3H43.0348V5H46.4374V5.66667H46.9235V10.3333H46.4374V11H42.0626Z" stroke="black" stroke-width="0.15"/>
<path d="M48.2067 11V10.3333H47.7207V1.66667H48.2067V1H52.5815V1.66667H53.0676V3.66667H51.6093V3H49.1789V9H51.6093V8.33333H53.0676V10.3333H52.5815V11H48.2067Z" stroke="black" stroke-width="0.15"/>
<path d="M57.7535 9V3H55.323V9H57.7535ZM54.3509 11V10.3333H53.8648V1.66667H54.3509V1H58.7256V1.66667H59.2117V10.3333H58.7256V11H54.3509Z" stroke="black" stroke-width="0.15"/>
<path d="M63.8976 5V3H61.4672V5H63.8976ZM60.0089 11V1H64.8698V1.66667H65.3559V5.66667H64.8698V6.33333H65.3559V11H63.8976V7H61.4672V11H60.0089Z" stroke="black" stroke-width="0.15"/>
<path d="M66.6391 11V10.3333H66.153V1.66667H66.6391V1H71.5V3H67.6113V5H70.0417V7H67.6113V9H71.5V11H66.6391Z" stroke="black" stroke-width="0.15"/>
<path d="M30.3469 2.87549L33.4529 9.46749" stroke="url(#paint11_linear_980_13)"/>
<path d="M55.3726 2.25049L58.1321 9.46716" stroke="url(#paint12_linear_980_13)"/>
<defs>
<filter id="filter0_d_980_13" x="0.375" y="4.375" width="87.25" height="42.25" filterUnits="userSpaceOnUse" color-interpolation-filters="sRGB">
<feFlood flood-opacity="0" result="BackgroundImageFix"/>
<feColorMatrix in="SourceAlpha" type="matrix" values="0 0 0 0 0 0 0 0 0 0 0 0 0 0 0 0 0 0 127 0" result="hardAlpha"/>
<feOffset dy="4"/>
<feGaussianBlur stdDeviation="2"/>
<feComposite in2="hardAlpha" operator="out"/>
<feColorMatrix type="matrix" values="0 0 0 0 0 0 0 0 0 0 0 0 0 0 0 0 0 0 0.25 0"/>
<feBlend mode="normal" in2="BackgroundImageFix" result="effect1_dropShadow_980_13"/>
<feBlend mode="normal" in="SourceGraphic" in2="effect1_dropShadow_980_13" result="shape"/>
</filter>
<linearGradient id="paint0_linear_980_13" x1="44" y1="3" x2="44" y2="40" gradientUnits="userSpaceOnUse">
<stop stop-color="#3AC9FC"/>
<stop offset="1" stop-color="#39FF88"/>
</linearGradient>
<linearGradient id="paint1_linear_980_13" x1="44" y1="14" x2="44" y2="34" gradientUnits="userSpaceOnUse">
<stop stop-color="#3ACAFC"/>
<stop offset="1" stop-color="#39FF88"/>
</linearGradient>
<linearGradient id="paint2_linear_980_13" x1="44.4932" y1="0.333333" x2="44.4932" y2="12.5238" gradientUnits="userSpaceOnUse">
<stop stop-color="#39C4FF"/>
<stop offset="1" stop-color="#3AF6E1"/>
</linearGradient>
<linearGradient id="paint3_linear_980_13" x1="44.4932" y1="0.333333" x2="44.4932" y2="12.5238" gradientUnits="userSpaceOnUse">
<stop stop-color="#39C4FF"/>
<stop offset="1" stop-color="#3AF6E1"/>
</linearGradient>
<linearGradient id="paint4_linear_980_13" x1="44.4932" y1="0.333333" x2="44.4932" y2="12.5238" gradientUnits="userSpaceOnUse">
<stop stop-color="#39C4FF"/>
<stop offset="1" stop-color="#3AF6E1"/>
</linearGradient>
<linearGradient id="paint5_linear_980_13" x1="44.4932" y1="0.333333" x2="44.4932" y2="12.5238" gradientUnits="userSpaceOnUse">
<stop stop-color="#39C4FF"/>
<stop offset="1" stop-color="#3AF6E1"/>
</linearGradient>
<linearGradient id="paint6_linear_980_13" x1="44.4932" y1="0.333333" x2="44.4932" y2="12.5238" gradientUnits="userSpaceOnUse">
<stop stop-color="#39C4FF"/>
<stop offset="1" stop-color="#3AF6E1"/>
</linearGradient>
<linearGradient id="paint7_linear_980_13" x1="44.4932" y1="0.333333" x2="44.4932" y2="12.5238" gradientUnits="userSpaceOnUse">
<stop stop-color="#39C4FF"/>
<stop offset="1" stop-color="#3AF6E1"/>
</linearGradient>
<linearGradient id="paint8_linear_980_13" x1="44.4932" y1="0.333333" x2="44.4932" y2="12.5238" gradientUnits="userSpaceOnUse">
<stop stop-color="#39C4FF"/>
<stop offset="1" stop-color="#3AF6E1"/>
</linearGradient>
<linearGradient id="paint9_linear_980_13" x1="44.4932" y1="0.333333" x2="44.4932" y2="12.5238" gradientUnits="userSpaceOnUse">
<stop stop-color="#39C4FF"/>
<stop offset="1" stop-color="#3AF6E1"/>
</linearGradient>
<linearGradient id="paint10_linear_980_13" x1="44.4932" y1="0.333333" x2="44.4932" y2="12.5238" gradientUnits="userSpaceOnUse">
<stop stop-color="#39C4FF"/>
<stop offset="1" stop-color="#3AF6E1"/>
</linearGradient>
<linearGradient id="paint11_linear_980_13" x1="31.8999" y1="2.87549" x2="31.8999" y2="9.46749" gradientUnits="userSpaceOnUse">
<stop stop-color="#3AC9FD"/>
<stop offset="1" stop-color="#3AE9EA"/>
</linearGradient>
<linearGradient id="paint12_linear_980_13" x1="56.7523" y1="2.25049" x2="56.7523" y2="9.46716" gradientUnits="userSpaceOnUse">
<stop stop-color="#3AC8FD"/>
<stop offset="1" stop-color="#3AECE7"/>
</linearGradient>
</defs>
</svg>
