<svg width="15" height="3" viewBox="0 0 15 3" fill="none" xmlns="http://www.w3.org/2000/svg">
<path d="M0 1.5C0 0.671573 0.671573 0 1.5 0C2.32843 0 3 0.671573 3 1.5C3 2.32843 2.32843 3 1.5 3C0.671573 3 0 2.32843 0 1.5Z" fill="#4F4F4F"/>
<path d="M5.8667 1.5C5.8667 0.671573 6.53827 0 7.3667 0C8.19513 0 8.8667 0.671573 8.8667 1.5C8.8667 2.32843 8.19513 3 7.3667 3C6.53827 3 5.8667 2.32843 5.8667 1.5Z" fill="#4F4F4F"/>
<path d="M11.7334 1.5C11.7334 0.671573 12.405 0 13.2334 0C14.0618 0 14.7334 0.671573 14.7334 1.5C14.7334 2.32843 14.0618 3 13.2334 3C12.405 3 11.7334 2.32843 11.7334 1.5Z" fill="#4F4F4F"/>
</svg>
