<svg width="130" height="48" viewBox="0 0 130 48" fill="none" xmlns="http://www.w3.org/2000/svg">
<rect y="2" width="130" height="44" rx="20" fill="#7CF7FF"/>
<path d="M20.5938 26.9531C20.6562 28.625 21.8672 30.1953 24.8828 30.1953C27.7578 30.1953 29.2656 28.7734 29.2656 26.75C29.2656 24.8047 27.9688 24 26.3438 23.6797L24.7969 23.3594C23.8906 23.1875 23.3672 22.8359 23.3672 22.2656C23.3672 21.5859 23.9297 21.0703 24.9609 21.0703C26.0234 21.0703 26.6172 21.6484 26.7031 22.2812H29.0781C29.0156 20.6328 27.6328 19.1328 24.9688 19.1328C22.5 19.1328 20.8125 20.4062 20.8125 22.4531C20.8125 24.2188 21.9531 25.1328 23.6484 25.4844L25.1562 25.8125C26.2031 26.0391 26.7344 26.3438 26.7344 27.0078C26.7344 27.7109 26.1719 28.2344 24.9844 28.2344C23.8203 28.2344 23.125 27.6562 23.0391 26.9531H20.5938ZM31.1562 30H33.6406V25.3906C33.6406 24.2578 34.2578 23.5938 35.1172 23.5938C35.8047 23.5938 36.4453 23.9766 36.4453 25.1484V30H38.9375V24.4922C38.9375 22.5156 37.8125 21.5312 36.1875 21.5312C34.6406 21.5312 33.9453 22.4922 33.7656 23.1016H33.6406V18.7734H31.1562V30ZM43.4609 30.125C44.6875 30.125 45.3594 29.5469 45.6406 28.9766H45.7578V30H48.0938V24.4531C48.0938 22.2969 46.5 21.5312 44.5234 21.5312C41.9609 21.5312 41.0703 22.8359 41.0078 24.1797H43.3438C43.4062 23.7031 43.7734 23.3516 44.4844 23.3516C45.1875 23.3516 45.6406 23.6953 45.6406 24.375V25.0703H43.6953C41.7578 25.0703 40.7031 26.0625 40.7031 27.5781C40.7031 29.1719 41.8281 30.125 43.4609 30.125ZM44.3203 28.3828C43.7188 28.3828 43.1562 28.0469 43.1562 27.3906C43.1562 26.8281 43.5703 26.4375 44.3516 26.4375H45.6406V27.25C45.6406 27.9141 45.0234 28.3828 44.3203 28.3828ZM50.3125 30H52.875V25.4766C52.875 24.3594 53.4531 23.625 54.7344 23.625C55.1016 23.625 55.4766 23.6641 55.6484 23.7266V21.6094C55.4922 21.5625 55.25 21.5391 54.8984 21.5391C53.6875 21.5391 53.0703 22.4062 52.9219 22.9766H52.8047V21.6562H50.3125V30ZM60.625 30.1562C63.1797 30.1562 64.2266 28.5547 64.2812 27.4219H62C61.9375 27.9453 61.3672 28.3125 60.6172 28.3125C59.7344 28.3125 59.0859 27.6953 59.0859 26.7266V26.3438H64.3359V25.4219C64.3359 22.9922 62.7734 21.5078 60.5156 21.5078C58.3906 21.5078 56.6641 22.8125 56.6641 25.4219V26.2188C56.6641 28.8203 58.2578 30.1562 60.625 30.1562ZM59.0859 24.9453V24.8906C59.0859 23.9297 59.6797 23.2891 60.5391 23.2891C61.3984 23.2891 61.9531 23.9297 61.9531 24.8906V24.9453H59.0859ZM74.3516 30V21.4375H77.2578V19.3359H68.8828V21.4375H71.7891V30H74.3516ZM81.375 21.5078C78.9453 21.5078 77.4141 23.0938 77.4141 25.4453V26.1719C77.4141 28.7266 78.9375 30.1562 81.375 30.1562C83.7969 30.1562 85.3281 28.7188 85.3281 26.1641V25.4297C85.3281 23.0469 83.7969 21.5078 81.375 21.5078ZM81.375 23.3672C82.3984 23.3672 82.8047 24.3438 82.8047 25.4375V26.2109C82.8047 27.2656 82.4375 28.2891 81.375 28.2891C80.3125 28.2891 79.9297 27.2578 79.9297 26.2109V25.4375C79.9297 24.3516 80.3516 23.3672 81.375 23.3672Z" fill="black"/>
<path d="M95.9576 18.3112L98.3056 24L104.386 24.7462L104.39 24.7803L98.3056 25.5L95.8046 30.429C95.5857 30.8766 95.6935 31.4202 96.0226 31.7943C96.0809 31.8388 96.105 31.8878 96.1632 31.9323C96.5127 32.1991 96.9569 32.2616 97.3689 32.0843L112.9 25.7135C113.346 25.5317 113.653 25.0896 113.657 24.601C113.661 24.1123 113.392 23.6603 112.929 23.4609L97.5742 16.7173C97.1117 16.5179 96.583 16.6061 96.2135 16.9694C95.8587 17.3133 95.7563 17.8502 95.9576 18.3112Z" fill="black"/>
</svg>
