<svg width="15" height="15" viewBox="0 0 15 15" fill="none" xmlns="http://www.w3.org/2000/svg">
<path fill-rule="evenodd" clip-rule="evenodd" d="M7.48839 0C11.6281 0 15 3.3489 15 7.48839C15 11.6281 11.6279 15 7.48839 15C3.3489 15 0 11.6279 0 7.48839C0 3.3489 3.3489 0 7.48839 0ZM3.81402 5.16298L5.16291 3.81409C5.30251 3.67449 5.53499 3.67449 5.6746 3.81409L7.48857 5.62806L9.32576 3.81409C9.46536 3.67449 9.69783 3.67449 9.83744 3.81409L11.1863 5.16298C11.3259 5.30258 11.3259 5.53506 11.1863 5.67467L9.34915 7.48864L11.1863 9.32583C11.3259 9.46543 11.3259 9.69791 11.1863 9.83752L9.83744 11.1864C9.69784 11.326 9.46536 11.326 9.32576 11.1864L7.48857 9.34922L5.6746 11.1864C5.53499 11.326 5.30252 11.326 5.16291 11.1864L3.81402 9.83752C3.67442 9.69791 3.67442 9.46544 3.81402 9.32583L5.62799 7.48864L3.81402 5.67467C3.67442 5.53507 3.67442 5.30259 3.81402 5.16298Z" fill="#FF606B"/>
</svg>
