<svg width="24" height="30" viewBox="0 0 24 30" fill="none" xmlns="http://www.w3.org/2000/svg">
<path d="M12.6406 29.2082C10.3697 29.2653 5.90789 28.9115 4.45138 28.5651C3.45452 28.3581 2.52162 27.7773 1.81757 26.9722C1.11352 26.1671 0.669475 25.172 0.566392 24.1666C0.566392 24.1564 0.566392 24.146 0.563539 24.1358H0.563336C0.487328 23.3847 0.463895 22.6291 0.493233 21.8747C0.493233 21.8747 0.436173 21.2093 0.563336 20.0016L0.5668 19.9714V19.9712C0.672151 18.9796 1.11539 18.0545 1.82205 17.351C2.53199 16.6398 3.46286 16.1915 4.4616 16.0799C5.92389 15.9252 10.3742 15.8402 12.6362 15.8408C14.8979 15.8414 18.529 15.9248 19.9918 16.0799H19.9915C20.9904 16.1915 21.9213 16.64 22.6311 17.3516C23.3376 18.0555 23.7808 18.9807 23.8863 19.9722C23.8863 19.9824 23.8863 19.9922 23.8892 20.0024C24.0153 21.2108 23.9982 21.8732 23.9988 21.8739V21.8741C24.0023 22.6303 23.9658 23.3863 23.8898 24.1386L23.8864 24.1694C23.783 25.1752 23.3392 26.1693 22.6352 26.9754C21.9311 27.7818 20.9998 28.3581 20.0058 28.5679C18.547 28.8985 14.9096 29.2237 12.6409 29.2082L12.6406 29.2082Z" fill="black"/>
<path d="M19.163 7.07073C19.163 10.9757 15.9974 14.1415 12.0922 14.1415C8.18725 14.1415 5.02148 10.976 5.02148 7.07073C5.02148 3.16576 8.1872 0 12.0922 0C15.9972 0 19.163 3.16571 19.163 7.07073Z" fill="black"/>
</svg>
