<svg width="28" height="27" viewBox="0 0 28 27" fill="none" xmlns="http://www.w3.org/2000/svg">
<mask id="mask0_4_1904" style="mask-type:alpha" maskUnits="userSpaceOnUse" x="0" y="0" width="28" height="27">
<rect x="0.439941" width="27" height="27" fill="#D9D9D9"/>
</mask>
<g mask="url(#mask0_4_1904)">
<path d="M13.9374 2.92496C15.9216 2.92972 17.285 3.18079 18.142 3.37152C18.6355 3.49296 19.1824 3.83844 19.6438 4.32174C20.1143 4.81415 20.4491 5.3989 20.5617 5.92484C20.5643 5.93816 20.5676 5.95091 20.5708 5.96424C20.7589 6.88361 21.0904 13.7677 21.0307 16.3826V16.406C21.0227 17.1228 21.272 17.8172 21.7331 18.3614C22.4831 19.2473 23.1567 20.0445 23.7883 20.7939C20.519 20.8936 17.2045 20.9443 13.9357 20.9443C10.667 20.9443 7.35237 20.8936 4.08312 20.7939C4.70939 20.0504 5.38303 19.2524 6.13774 18.3614C6.59877 17.8172 6.84812 17.1228 6.84071 16.406V16.3826C6.78152 13.7677 7.1131 6.88327 7.3006 5.96424C7.30383 5.95148 7.3065 5.93816 7.30916 5.92541C7.42166 5.39889 7.75629 4.81413 8.22742 4.32173C8.68901 3.83881 9.23587 3.49294 9.72925 3.3715C10.5879 3.18077 11.9535 2.92915 13.9374 2.92496ZM13.9354 1C11.8849 1.00419 10.3804 1.15164 9.27033 1.39948C7.44546 1.83537 5.72279 3.65817 5.32837 5.50224C5.07197 6.5735 4.75868 13.9266 4.8152 16.4293C4.81787 16.659 4.73906 16.8802 4.59193 17.0535C3.86021 17.9174 3.13536 18.7756 2.42006 19.625C1.39675 20.8361 2.36791 22.7631 3.9891 22.8181C7.30478 22.9194 10.6197 22.9706 13.9357 22.9706C17.2514 22.9706 20.5663 22.92 23.8823 22.8181C25.5037 22.7627 26.4747 20.836 25.4514 19.625C24.736 18.775 24.0108 17.9174 23.2795 17.0535C23.1329 16.8802 23.0541 16.6591 23.0562 16.4293C23.1133 13.9264 22.7993 6.57331 22.5431 5.50224C22.1487 3.65813 20.426 1.83536 18.6011 1.39948C17.4906 1.15107 15.9862 1.00419 13.9354 1Z" fill="white" stroke="white" stroke-width="0.9"/>
<path d="M13.9251 26.0032H13.9088C13.7053 26.0021 12.2972 25.9864 11.9874 25.9425C11.3537 25.8505 10.8139 25.4593 10.6756 24.9909C10.6745 24.9878 10.6735 24.9846 10.673 24.9811C10.6186 24.7849 10.5919 24.584 10.5913 23.2759C10.5913 23.0566 10.6186 22.8561 10.673 22.6596C10.6741 22.6565 10.675 22.6533 10.6756 22.6498C10.8142 22.1814 11.3537 21.7902 11.9878 21.6982C12.2971 21.6542 13.7055 21.6383 13.9092 21.6375H13.9202H13.9312C14.1347 21.6386 15.5434 21.6542 15.8526 21.6982C16.4863 21.7902 17.0262 22.1814 17.1648 22.6498C17.166 22.6528 17.1669 22.6561 17.1675 22.6596C17.2218 22.8558 17.2486 23.0566 17.2491 23.2733C17.2491 24.584 17.2218 24.7846 17.1675 24.9811C17.1663 24.9842 17.1654 24.9874 17.1648 24.9909C17.0262 25.4593 16.4867 25.8505 15.8526 25.9425C15.5428 25.9864 14.1349 26.0024 13.9312 26.0032H13.9251ZM13.9198 24.5151H13.9309C14.1349 24.5171 14.8497 24.5018 15.2546 24.4881C15.2578 24.4518 15.2599 23.3192 15.2604 23.2733C15.2604 23.2287 15.2584 23.1883 15.2546 23.1527C14.8497 23.139 14.1349 23.1245 13.9309 23.1258H13.9088C13.7032 23.1242 12.99 23.139 12.585 23.1527C12.5818 23.1891 12.5798 23.2302 12.5792 23.2761C12.5792 23.3207 12.5813 24.4522 12.585 24.4881C12.99 24.5018 13.7036 24.5171 13.9088 24.5151H13.9198Z" fill="white"/>
<rect x="11" y="21" width="6" height="4" fill="white"/>
</g>
</svg>
