<svg width="15" height="17" viewBox="0 0 15 17" fill="none" xmlns="http://www.w3.org/2000/svg">
<path d="M6.25 7.26996V14H8.75V7.26996C10.2037 6.75378 11.25 5.38004 11.25 3.75C11.25 1.67871 9.57129 0 7.5 0C5.42871 0 3.75 1.67871 3.75 3.75C3.75 5.38004 4.79632 6.75375 6.25 7.26996Z" fill="#6C6C6C"/>
<path d="M10 10.4573V11.6811C12.3213 12.0286 12.75 12.8098 12.75 13.3748C12.75 14.1223 11.2575 15.2498 7.5 15.2498C3.74246 15.2498 2.25 14.1223 2.25 13.3748C2.25 12.8098 2.67996 12.0286 5 11.6811V10.4573C2.2475 10.8161 1 11.7873 1 13.3748C1 15.4273 3.77357 16.4998 7.5 16.4998C11.2264 16.4998 14 15.4273 14 13.3748C14 11.7873 12.7525 10.8161 10 10.4573Z" fill="#6C6C6C" stroke="#6C6C6C" stroke-width="0.35"/>
</svg>
