<svg width="18" height="18" viewBox="0 0 18 18" fill="none" xmlns="http://www.w3.org/2000/svg">
<path id="Vector" d="M12.9355 9.80005L9.94965 16.4116C9.78788 16.7698 9.42527 17.0177 9.04555 16.9163C8.63835 16.8076 8.26303 16.5958 7.95949 16.2971C7.50215 15.847 7.24521 15.2365 7.24521 14.6V12.4C7.24521 11.8478 6.7975 11.4 6.24522 11.4H2.64421C2.40854 11.4027 2.17511 11.3548 1.9601 11.2599C1.74508 11.1649 1.55361 11.0251 1.39896 10.85C1.24431 10.675 1.13018 10.469 1.06447 10.2462C0.998759 10.0235 0.983043 9.78936 1.01841 9.56005L2.14021 2.36009C2.199 1.97857 2.39592 1.63081 2.69468 1.3809C2.99345 1.13098 3.37392 0.99574 3.76601 1.0001H12.9355M12.9355 9.80005V1.0001M12.9355 9.80005H15.3742C15.8054 9.80005 16.2189 9.63148 16.5238 9.33142C16.8287 9.03136 17 8.6244 17 8.20006V2.60009C17 2.17575 16.8287 1.76879 16.5238 1.46873C16.2189 1.16867 15.8054 1.0001 15.3742 1.0001H12.9355" stroke="#777777" stroke-width="1.25" stroke-linecap="round" stroke-linejoin="round"/>
</svg>
