<svg width="28" height="33" viewBox="0 0 28 33" fill="none" xmlns="http://www.w3.org/2000/svg">
<path d="M23.6549 3.95158C20.9756 1.47354 17.5801 -0.00502467 14.0003 1.28308e-05H13.9025C6.63772 0.107095 0.183266 6.28576 0.00190271 12.8773C-0.0259828 14.3306 0.252871 15.7756 0.823373 17.1331L0.832417 17.1549C0.866835 17.3677 3.8114 23.3762 12.9683 32.3131V32.3133C12.9999 32.3533 13.0344 32.3915 13.071 32.4279C13.3014 32.6618 13.628 32.7981 13.9727 32.805C14.3176 32.8119 14.6503 32.6883 14.8917 32.4639C19.3162 28.4276 22.4941 24.4138 24.2917 21.8599C26.2698 19.0538 27.1237 17.2535 27.1589 17.1748C27.1652 17.1606 27.1714 17.1473 27.1772 17.1332V17.1329C27.743 15.7866 28.0216 14.3545 27.9987 12.913C27.9515 9.62495 26.3527 6.46263 23.6551 3.9509L23.6549 3.95158ZM14.0401 17.9763C10.981 17.9724 8.4901 15.7134 8.50567 12.9477C8.52099 10.1819 11.0174 7.88001 14.0394 7.88001C17.0613 7.88001 19.5534 10.1864 19.5738 12.9503C19.5944 15.7141 17.0958 17.9724 14.0401 17.9763Z" fill="#B1B1B1"/>
</svg>
