<svg width="32" height="32" viewBox="0 0 32 32" fill="none" xmlns="http://www.w3.org/2000/svg">
<path fill-rule="evenodd" clip-rule="evenodd" d="M12.6881 6.06318C17.4461 6.06318 19.9649 11.4743 17.166 15.1127C14.8339 18.1911 10.3553 18.0048 8.11642 14.9259C5.50426 11.2875 8.11656 6.06318 12.6881 6.06318ZM19.685 19.2175C21.1776 19.2175 21.9239 20.8032 21.1776 21.9228C20.5244 22.856 19.2186 22.9491 18.4723 22.2028C17.3528 21.1765 18.1923 19.2175 19.685 19.2175ZM15.9534 2.79841C23.2303 2.79841 29.2009 8.76889 29.2009 16.0459C29.2009 23.3227 23.2304 29.2002 15.9534 29.2002C8.67661 29.2002 2.79912 23.3228 2.79912 16.0459C2.79912 8.76903 8.67646 2.79841 15.9534 2.79841ZM15.9534 0C24.8162 0 32 7.1837 32 16.0466C32 24.816 24.8163 32 15.9534 32C7.18399 32 0 24.8163 0 16.0466C0 7.18384 7.18371 0 15.9534 0Z" fill="#F1B642"/>
</svg>
