<svg width="39" height="26" viewBox="0 0 39 26" fill="none" xmlns="http://www.w3.org/2000/svg">
<path d="M15.8088 11.5989L11.762 12.6772C11.6476 12.7077 11.5262 12.699 11.4174 12.6524L7.10278 10.8066C6.84098 10.6946 6.53749 10.8096 6.41575 11.067L2.23162 19.9135C2.10456 20.1821 2.22338 20.5027 2.49484 20.6237L10.0797 24.0028C10.1969 24.055 10.329 24.0629 10.4516 24.025L20.3041 20.9797C20.4031 20.9491 20.5089 20.9482 20.6084 20.9771L30.0158 23.7124C30.1349 23.7471 30.2624 23.7388 30.3761 23.689L37.3246 20.646C37.6181 20.5175 37.7311 20.1597 37.5647 19.8859L32.287 11.2017C32.1524 10.9803 31.8773 10.8887 31.6368 10.9855L27.4986 12.65C27.3795 12.6979 27.2472 12.7009 27.1261 12.6586L24.0967 11.5989" stroke="black" stroke-width="2.6479"/>
<path d="M10.3145 23.3418L11.7443 12.0088" stroke="black" stroke-width="1.85353"/>
<path d="M29.3739 22.7542L27.6901 12.0675" stroke="black" stroke-width="1.85353"/>
<path d="M21.4886 15.4776C21.4886 14.8926 21.0144 14.4184 20.4294 14.4184C19.8445 14.4184 19.3703 14.8926 19.3703 15.4776H21.4886ZM21.4886 20.8264V15.4776H19.3703V20.8264H21.4886Z" fill="black"/>
<circle cx="20" cy="8" r="8" fill="#39F3FF"/>
<rect x="18.75" y="3" width="2.5" height="10" rx="1.16508" fill="black"/>
<rect x="25" y="6.74756" width="2.5" height="10" rx="1.16508" transform="rotate(90 25 6.74756)" fill="black"/>
</svg>
