<svg width="55" height="41" viewBox="0 0 55 41" fill="none" xmlns="http://www.w3.org/2000/svg">
<path d="M23.8088 11.5989L19.762 12.6772C19.6476 12.7077 19.5262 12.699 19.4174 12.6524L15.1028 10.8066C14.841 10.6946 14.5375 10.8096 14.4157 11.067L10.2316 19.9135C10.1046 20.1821 10.2234 20.5027 10.4948 20.6237L18.0797 24.0028C18.1969 24.055 18.329 24.0629 18.4516 24.025L28.3041 20.9797C28.4031 20.9491 28.5089 20.9482 28.6084 20.9771L38.0158 23.7124C38.1349 23.7471 38.2624 23.7388 38.3761 23.689L45.3246 20.646C45.6181 20.5175 45.7311 20.1597 45.5647 19.8859L40.287 11.2017C40.1524 10.9803 39.8773 10.8887 39.6368 10.9855L35.4986 12.65C35.3795 12.6979 35.2472 12.7009 35.1261 12.6586L32.0967 11.5989" stroke="black" stroke-width="2.6479"/>
<path d="M18.3145 23.3418L19.7443 12.0088" stroke="black" stroke-width="1.85353"/>
<path d="M37.3736 22.7542L35.6899 12.0675" stroke="black" stroke-width="1.85353"/>
<path d="M29.4888 15.4776C29.4888 14.8926 29.0146 14.4184 28.4297 14.4184C27.8447 14.4184 27.3705 14.8926 27.3705 15.4776H29.4888ZM29.4888 20.8264V15.4776H27.3705V20.8264H29.4888Z" fill="black"/>
<circle cx="28" cy="8" r="8" fill="#39F3FF"/>
<rect x="26.75" y="3" width="2.5" height="10" rx="1.16508" fill="black"/>
<rect x="33" y="6.74756" width="2.5" height="10" rx="1.16508" transform="rotate(90 33 6.74756)" fill="black"/>
<path d="M2.98242 38V33.8281H3.07031L5.94141 38H7.68164V30.002H5.55469V34.1094H5.46094L2.60742 30.002H0.849609V38H2.98242ZM12.1348 38.123C14.2148 38.123 15.0176 36.8105 15.0352 35.8789H13.0371C13.0195 36.2773 12.6211 36.5176 12.1289 36.5176C11.6309 36.5176 11.1797 36.1836 11.1797 35.5625V35.2871H15.0645V34.6191C15.0645 32.7207 13.8398 31.5781 12.0527 31.5781C10.4062 31.5781 9.00586 32.5391 9.00586 34.6191V35.0645C9.00586 37.1445 10.3066 38.123 12.1348 38.123ZM11.1797 34.1035V34.0977C11.1797 33.5176 11.5488 33.125 12.0703 33.125C12.5977 33.125 12.9316 33.5176 12.9316 34.0977V34.1035H11.1797ZM25.5996 31.7012H23.3672L22.7168 35.9258H22.6289L21.7266 31.7012H19.6289L18.7441 35.9258H18.6562L18.0059 31.7012H15.7324L17.3086 38H19.7109L20.6309 33.9922H20.707L21.6328 38H24.0117L25.5996 31.7012ZM29.1328 38H31.3711V34.3965C31.3711 33.6348 31.7285 33.3887 32.1328 33.3887C32.4844 33.3887 32.8945 33.5703 32.8945 34.3848V38H35.0156V34.4082C35.0156 33.6816 35.3496 33.3887 35.7832 33.3887C36.1523 33.3887 36.5449 33.5879 36.5449 34.3848V38H38.7773V33.6523C38.7773 32.4512 38.0742 31.6133 36.8203 31.6133C35.7188 31.6133 35.0859 32.2637 34.9219 32.791H34.834C34.6582 32.1113 34.0898 31.6133 33.1406 31.6133C32.0273 31.6133 31.5293 32.2988 31.4062 32.791H31.2949V31.7012H29.1328V38ZM42.041 38.0879C42.9727 38.0879 43.4473 37.6543 43.6172 37.2559H43.7285V38H45.8145V33.8633C45.8145 32.1934 44.5547 31.6133 42.9785 31.6133C40.8047 31.6133 40.207 32.7676 40.1777 33.7578H42.2637C42.2812 33.4297 42.5273 33.1895 42.9492 33.1895C43.3535 33.1895 43.6172 33.4004 43.6172 33.7812V34.2617H42.2344C40.7637 34.2617 39.9551 35.0059 39.9551 36.1777C39.9551 37.3906 40.8105 38.0879 42.041 38.0879ZM42.8496 36.5879C42.4863 36.5879 42.1406 36.377 42.1406 35.9844C42.1406 35.6211 42.4395 35.3809 42.9141 35.3809H43.6172V35.9609C43.6172 36.3418 43.2422 36.5879 42.8496 36.5879ZM51.3516 38.0586C52.7871 38.0586 53.6133 36.9805 53.6133 35.1113V34.5781C53.6133 32.709 52.793 31.6426 51.3574 31.6426C50.502 31.6426 49.8457 32.0293 49.5938 32.6973H49.4824V31.7012H47.2383V40.0918H49.4824V36.998H49.5938C49.8574 37.666 50.502 38.0586 51.3516 38.0586ZM50.3906 36.3652C49.834 36.3652 49.4824 35.873 49.4824 35.0703V34.6484C49.4824 33.834 49.8281 33.3418 50.3906 33.3418C50.9648 33.3418 51.293 33.8281 51.293 34.666V35.041C51.293 35.8789 50.9648 36.3652 50.3906 36.3652Z" fill="black"/>
</svg>
