<svg width="69" height="28" viewBox="0 0 69 28" fill="none" xmlns="http://www.w3.org/2000/svg">
<path d="M14 0.75H55C62.3178 0.75 68.25 6.68223 68.25 14C68.25 21.3178 62.3178 27.25 55 27.25H14C6.68223 27.25 0.75 21.3178 0.75 14C0.75 6.68223 6.68223 0.75 14 0.75Z" fill="#39F3FF" fill-opacity="0.1" stroke="#39F3FF" stroke-width="1.5"/>
<rect x="51.999" y="7.99902" width="2" height="12" rx="0.777778" fill="#39F3FF" stroke="#39F3FF" stroke-width="0.75"/>
<rect x="59" y="13.002" width="2" height="12" rx="0.777778" transform="rotate(90 59 13.002)" fill="#39F3FF" stroke="#39F3FF" stroke-width="0.75"/>
<path d="M12.1126 18.5H14.8126L15.4741 16.5425H19.3756L20.0506 18.5H23.1016L19.2541 8.753H15.9601L12.1126 18.5ZM16.1086 14.747L17.4586 10.6565H17.4991L18.7546 14.747H16.1086ZM28.5891 8.753V12.5195C28.4811 12.4025 28.3641 12.29 28.2381 12.182C28.1121 12.065 27.9681 11.9615 27.8061 11.8715C27.6531 11.7815 27.4686 11.7095 27.2526 11.6555C27.0456 11.6015 26.8026 11.5745 26.5236 11.5745C26.0916 11.5745 25.6911 11.6465 25.3221 11.7905C24.9531 11.9255 24.6111 12.1595 24.2961 12.4925C24.1791 12.6185 24.0666 12.758 23.9586 12.911C23.8596 13.064 23.7696 13.244 23.6886 13.451C23.6166 13.658 23.5581 13.8965 23.5131 14.1665C23.4681 14.4365 23.4456 14.7515 23.4456 15.1115C23.4456 15.5255 23.4906 15.944 23.5806 16.367C23.6796 16.79 23.8416 17.1725 24.0666 17.5145C24.3006 17.8475 24.6066 18.122 24.9846 18.338C25.3716 18.554 25.8576 18.662 26.4426 18.662C26.8206 18.662 27.1401 18.617 27.4011 18.527C27.6621 18.446 27.8781 18.347 28.0491 18.23C28.2291 18.104 28.3686 17.978 28.4676 17.852C28.5756 17.717 28.6656 17.6 28.7376 17.501L28.7916 18.5H31.1946C31.1766 18.212 31.1586 17.933 31.1406 17.663C31.1316 17.384 31.1271 17.1005 31.1271 16.8125V8.753H28.5891ZM27.3336 17.1635C27.0546 17.1635 26.8296 17.087 26.6586 16.934C26.4966 16.781 26.3706 16.601 26.2806 16.394C26.1996 16.178 26.1456 15.953 26.1186 15.719C26.0916 15.485 26.0781 15.287 26.0781 15.125C26.0781 14.963 26.0916 14.765 26.1186 14.531C26.1456 14.297 26.2041 14.072 26.2941 13.856C26.3841 13.64 26.5101 13.4555 26.6721 13.3025C26.8431 13.1405 27.0726 13.0595 27.3606 13.0595C27.5856 13.0595 27.7746 13.1135 27.9276 13.2215C28.0896 13.3205 28.2201 13.4645 28.3191 13.6535C28.4181 13.8335 28.4901 14.0495 28.5351 14.3015C28.5891 14.5445 28.6161 14.8055 28.6161 15.0845C28.6161 15.3725 28.5891 15.6425 28.5351 15.8945C28.4901 16.1465 28.4181 16.367 28.3191 16.556C28.2201 16.745 28.0851 16.8935 27.9141 17.0015C27.7521 17.1095 27.5586 17.1635 27.3336 17.1635ZM37.5935 8.753V12.5195C37.4855 12.4025 37.3685 12.29 37.2425 12.182C37.1165 12.065 36.9725 11.9615 36.8105 11.8715C36.6575 11.7815 36.473 11.7095 36.257 11.6555C36.05 11.6015 35.807 11.5745 35.528 11.5745C35.096 11.5745 34.6955 11.6465 34.3265 11.7905C33.9575 11.9255 33.6155 12.1595 33.3005 12.4925C33.1835 12.6185 33.071 12.758 32.963 12.911C32.864 13.064 32.774 13.244 32.693 13.451C32.621 13.658 32.5625 13.8965 32.5175 14.1665C32.4725 14.4365 32.45 14.7515 32.45 15.1115C32.45 15.5255 32.495 15.944 32.585 16.367C32.684 16.79 32.846 17.1725 33.071 17.5145C33.305 17.8475 33.611 18.122 33.989 18.338C34.376 18.554 34.862 18.662 35.447 18.662C35.825 18.662 36.1445 18.617 36.4055 18.527C36.6665 18.446 36.8825 18.347 37.0535 18.23C37.2335 18.104 37.373 17.978 37.472 17.852C37.58 17.717 37.67 17.6 37.742 17.501L37.796 18.5H40.199C40.181 18.212 40.163 17.933 40.145 17.663C40.136 17.384 40.1315 17.1005 40.1315 16.8125V8.753H37.5935ZM36.338 17.1635C36.059 17.1635 35.834 17.087 35.663 16.934C35.501 16.781 35.375 16.601 35.285 16.394C35.204 16.178 35.15 15.953 35.123 15.719C35.096 15.485 35.0825 15.287 35.0825 15.125C35.0825 14.963 35.096 14.765 35.123 14.531C35.15 14.297 35.2085 14.072 35.2985 13.856C35.3885 13.64 35.5145 13.4555 35.6765 13.3025C35.8475 13.1405 36.077 13.0595 36.365 13.0595C36.59 13.0595 36.779 13.1135 36.932 13.2215C37.094 13.3205 37.2245 13.4645 37.3235 13.6535C37.4225 13.8335 37.4945 14.0495 37.5395 14.3015C37.5935 14.5445 37.6205 14.8055 37.6205 15.0845C37.6205 15.3725 37.5935 15.6425 37.5395 15.8945C37.4945 16.1465 37.4225 16.367 37.3235 16.556C37.2245 16.745 37.0895 16.8935 36.9185 17.0015C36.7565 17.1095 36.563 17.1635 36.338 17.1635Z" fill="#39F3FF"/>
</svg>
