<svg width="59" height="29" viewBox="0 0 59 29" fill="none" xmlns="http://www.w3.org/2000/svg">
<path d="M11 1H48C53.5228 1 58 5.47715 58 11V18C58 23.5228 53.5228 28 48 28H11C5.47715 28 1 23.5228 1 18V11C1 5.47715 5.47715 1 11 1Z" fill="#39F3FF" fill-opacity="0.15" stroke="#39F3FF" stroke-width="2"/>
<g filter="url(#filter0_d_1055_18)">
<path d="M14.1888 15.8815C14.1888 16.0075 14.1888 16.1515 14.1888 16.3135C14.1978 16.4755 14.2158 16.651 14.2428 16.84C14.2698 17.02 14.3148 17.2 14.3778 17.38C14.4408 17.56 14.5263 17.731 14.6343 17.893C14.8143 18.154 15.0258 18.37 15.2688 18.541C15.5118 18.712 15.7683 18.847 16.0383 18.946C16.3173 19.045 16.6053 19.1125 16.9023 19.1485C17.1993 19.1935 17.4918 19.216 17.7798 19.216C18.0048 19.216 18.2523 19.198 18.5223 19.162C18.7923 19.135 19.0623 19.081 19.3323 19C19.6023 18.919 19.8678 18.802 20.1288 18.649C20.3898 18.496 20.6283 18.298 20.8443 18.055C20.9973 17.875 21.1188 17.6725 21.2088 17.4475C21.2988 17.2135 21.3663 16.984 21.4113 16.759C21.4563 16.534 21.4833 16.327 21.4923 16.138C21.5013 15.949 21.5058 15.805 21.5058 15.706V9.253H18.7653V15.8005C18.7653 15.9265 18.7608 16.075 18.7518 16.246C18.7428 16.417 18.7068 16.579 18.6438 16.732C18.5808 16.876 18.4818 17.002 18.3468 17.11C18.2118 17.209 18.0228 17.2585 17.7798 17.2585C17.5458 17.2585 17.3658 17.209 17.2398 17.11C17.1228 17.002 17.0373 16.876 16.9833 16.732C16.9293 16.579 16.8978 16.426 16.8888 16.273C16.8798 16.111 16.8753 15.9805 16.8753 15.8815H14.1888ZM22.8873 15.5845C22.8873 15.7915 22.9008 16.0075 22.9278 16.2325C22.9548 16.4575 23.0043 16.6825 23.0763 16.9075C23.1483 17.1325 23.2473 17.353 23.3733 17.569C23.4993 17.776 23.6613 17.974 23.8593 18.163C24.1923 18.478 24.6063 18.7255 25.1013 18.9055C25.6053 19.0765 26.2353 19.162 26.9913 19.162C27.6933 19.162 28.2603 19.072 28.6923 18.892C29.1333 18.703 29.4978 18.469 29.7858 18.19C30.1368 17.839 30.3888 17.4295 30.5418 16.9615C30.6948 16.4845 30.7713 15.9985 30.7713 15.5035C30.7713 14.9005 30.6678 14.3785 30.4608 13.9375C30.2628 13.4965 29.9883 13.132 29.6373 12.844C29.2863 12.556 28.8723 12.3445 28.3953 12.2095C27.9183 12.0655 27.4053 11.9935 26.8563 11.9935C26.1813 11.9935 25.5963 12.0835 25.1013 12.2635C24.6063 12.4435 24.1923 12.6955 23.8593 13.0195C23.5353 13.3345 23.2923 13.7125 23.1303 14.1535C22.9683 14.5855 22.8873 15.0625 22.8873 15.5845ZM25.5198 15.598C25.5198 15.346 25.5378 15.094 25.5738 14.842C25.6098 14.581 25.6728 14.347 25.7628 14.14C25.8618 13.933 25.9968 13.7665 26.1678 13.6405C26.3478 13.5055 26.5773 13.438 26.8563 13.438C27.1083 13.438 27.3153 13.4965 27.4773 13.6135C27.6483 13.7305 27.7833 13.888 27.8823 14.086C27.9813 14.275 28.0488 14.5 28.0848 14.761C28.1298 15.022 28.1523 15.301 28.1523 15.598C28.1523 15.832 28.1343 16.0795 28.0983 16.3405C28.0623 16.5925 27.9948 16.822 27.8958 17.029C27.8058 17.236 27.6753 17.407 27.5043 17.542C27.3333 17.677 27.1083 17.7445 26.8293 17.7445C26.7753 17.7445 26.7033 17.74 26.6133 17.731C26.5323 17.722 26.4468 17.6995 26.3568 17.6635C26.2668 17.6275 26.1768 17.5735 26.0868 17.5015C25.9968 17.4295 25.9158 17.3305 25.8438 17.2045C25.6998 16.9525 25.6098 16.678 25.5738 16.381C25.5378 16.084 25.5198 15.823 25.5198 15.598ZM32.2832 11.089H34.8752V9.28H32.2832V11.089ZM32.3102 19H34.8482V12.223H32.3102V19ZM36.7383 19H39.2628V15.112C39.2628 15.049 39.2673 14.941 39.2763 14.788C39.2943 14.626 39.3348 14.464 39.3978 14.302C39.4698 14.14 39.5823 13.996 39.7353 13.87C39.8883 13.744 40.1088 13.681 40.3968 13.681C40.6578 13.681 40.8558 13.735 40.9908 13.843C41.1348 13.942 41.2383 14.068 41.3013 14.221C41.3733 14.365 41.4138 14.5225 41.4228 14.6935C41.4318 14.8555 41.4363 14.995 41.4363 15.112V19H43.9743V14.896C43.9743 14.662 43.9608 14.383 43.9338 14.059C43.9068 13.735 43.8168 13.429 43.6638 13.141C43.5108 12.844 43.2633 12.592 42.9213 12.385C42.5883 12.178 42.1113 12.0745 41.4903 12.0745C41.1393 12.0745 40.8378 12.115 40.5858 12.196C40.3428 12.268 40.1313 12.3625 39.9513 12.4795C39.7803 12.5965 39.6363 12.727 39.5193 12.871C39.4113 13.006 39.3168 13.1365 39.2358 13.2625L39.2088 12.223H36.6708L36.7383 13.6675V19Z" fill="#39F3FF"/>
</g>
<defs>
<filter id="filter0_d_1055_18" x="11.1885" y="6.75293" width="35.7861" height="15.9629" filterUnits="userSpaceOnUse" color-interpolation-filters="sRGB">
<feFlood flood-opacity="0" result="BackgroundImageFix"/>
<feColorMatrix in="SourceAlpha" type="matrix" values="0 0 0 0 0 0 0 0 0 0 0 0 0 0 0 0 0 0 127 0" result="hardAlpha"/>
<feOffset dy="0.5"/>
<feGaussianBlur stdDeviation="1.5"/>
<feComposite in2="hardAlpha" operator="out"/>
<feColorMatrix type="matrix" values="0 0 0 0 0 0 0 0 0 0 0 0 0 0 0 0 0 0 0.2 0"/>
<feBlend mode="normal" in2="BackgroundImageFix" result="effect1_dropShadow_1055_18"/>
<feBlend mode="normal" in="SourceGraphic" in2="effect1_dropShadow_1055_18" result="shape"/>
</filter>
</defs>
</svg>
