<svg width="14" height="16" viewBox="0 0 14 16" fill="none" xmlns="http://www.w3.org/2000/svg">
<g id="Group">
<g id="Group_2">
<path id="Vector" fill-rule="evenodd" clip-rule="evenodd" d="M6.04115 14.7017C6.47401 15.1022 7.14517 15.0972 7.57503 14.6998C7.60535 14.6718 10.7618 11.7057 11.1009 11.3666C13.4724 8.99507 13.4724 5.15012 11.1009 2.77862C8.72945 0.407126 4.88449 0.407126 2.513 2.77862C0.141501 5.15012 0.141501 8.99507 2.513 11.3666C2.84793 11.7015 6.01048 14.6734 6.04115 14.7017ZM3.86899 10.0106C2.24639 8.38797 2.24639 5.75722 3.86899 4.13461C5.49159 2.51201 8.12235 2.51201 9.74495 4.13461C11.3676 5.75722 11.3676 8.38797 9.74495 10.0106C9.42229 10.3332 6.92367 12.6872 6.92367 12.6872C6.85939 12.7478 6.7571 12.7497 6.69065 12.687C6.69065 12.687 4.18706 10.3287 3.86899 10.0106ZM6.80697 8.99026C7.86607 8.99026 8.72463 8.13169 8.72463 7.0726C8.72463 6.0135 7.86607 5.15493 6.80697 5.15493C5.74788 5.15493 4.88931 6.0135 4.88931 7.0726C4.88931 8.13169 5.74788 8.99026 6.80697 8.99026Z" fill="#8A8A8A" stroke="black" stroke-width="0.25"/>
</g>
</g>
</svg>
