<svg width="30" height="35" viewBox="0 0 30 35" fill="none" xmlns="http://www.w3.org/2000/svg">
<path d="M9.48592 19.8813C9.48592 21.9456 7.81245 23.6191 5.74815 23.6191C3.68384 23.6191 2.01038 21.9456 2.01038 19.8813C2.01038 17.817 3.68384 16.1436 5.74815 16.1436C7.81245 16.1436 9.48592 17.817 9.48592 19.8813Z" fill="#FF72D7"/>
<path d="M10.2473 26.1458C9.52043 25.2113 8.37858 24.6577 7.13266 24.6577H4.32939C2.32207 24.6577 0.626107 26.1458 0.383968 28.1532L0.00325634 31.3717C-0.0312655 31.7869 0.210873 32.2024 0.626095 32.2714C2.25272 32.6176 3.94868 32.7905 5.71362 32.7905C6.44053 32.7905 7.13265 32.756 7.82476 32.6867L8.17095 29.8141C8.41309 28.3263 9.17449 27.0111 10.2474 26.1459L10.2473 26.1458Z" fill="#FF72D7"/>
<path d="M28.1352 19.5222C28.1352 21.533 26.5051 23.1631 24.4943 23.1631C22.4835 23.1631 20.8534 21.533 20.8534 19.5222C20.8534 17.5114 22.4835 15.8813 24.4943 15.8813C26.5051 15.8813 28.1352 17.5114 28.1352 19.5222Z" fill="#FF72D7"/>
<path d="M29.6861 27.5797C29.45 25.6244 27.7983 24.1748 25.8429 24.1748H23.1123C21.8987 24.1748 20.7861 24.7479 20.0784 25.6243C21.1573 26.5007 21.8651 27.7482 22.0337 29.1977L22.3709 31.9958C23.0451 32.0633 23.7531 32.0969 24.4273 32.0969C26.1466 32.0969 27.8322 31.9283 29.383 31.5913C29.7874 31.4902 30.0571 31.1194 29.9897 30.7149L29.6861 27.5797Z" fill="#FF72D7"/>
<path d="M16.6466 26.1665H13.7189C11.5963 26.1665 9.80293 27.74 9.54689 29.8627L9.14431 33.3028C9.10781 33.7419 9.36385 34.1812 9.80291 34.2542C11.4865 34.6203 13.3163 34.8031 15.1826 34.8031C17.0488 34.8031 18.8787 34.62 20.5622 34.2542C21.0013 34.1444 21.2941 33.7419 21.2208 33.3028L20.8185 29.8627C20.5625 27.7403 18.7692 26.1665 16.6465 26.1665H16.6466Z" fill="#FF72D7"/>
<path d="M19.135 21.116C19.135 23.2988 17.3655 25.0684 15.1826 25.0684C12.9998 25.0684 11.2302 23.2988 11.2302 21.116C11.2302 18.9331 12.9998 17.1636 15.1826 17.1636C17.3655 17.1636 19.135 18.9331 19.135 21.116Z" fill="#FF72D7"/>
<path d="M10.828 14.529H19.5379C20.343 14.529 21.0384 13.8704 21.0384 13.0285V6.8437C21.0384 6.03858 20.3798 5.34318 19.5379 5.34318H19.1353V3.33032C19.1353 1.50051 17.6348 0 15.805 0H14.5973C12.7675 0 11.267 1.50051 11.267 3.33032V5.34318H10.8644C10.0593 5.34318 9.36392 6.00179 9.36392 6.8437V13.0285C9.32742 13.8702 10.0228 14.529 10.8279 14.529H10.828ZM16.1712 11.8941C16.2077 12.0404 16.0979 12.2234 15.9149 12.2234H14.4512C14.2681 12.2234 14.1584 12.0771 14.1949 11.8941L14.6707 9.99104C14.2681 9.80801 13.9753 9.40544 13.9753 8.92988C13.9753 8.27128 14.4876 7.75867 15.1465 7.75867C15.8051 7.75867 16.3177 8.271 16.3177 8.92988C16.3177 9.40571 16.0249 9.80825 15.6223 9.99104L16.1712 11.8941ZM13.2434 3.36718C13.2434 2.63532 13.829 2.04972 14.5609 2.04972H15.7686C16.5004 2.04972 17.086 2.63532 17.086 3.36718V5.38004H13.2434L13.2434 3.36718Z" fill="#FF72D7"/>
</svg>
