<svg width="12" height="16" viewBox="0 0 12 16" fill="none" xmlns="http://www.w3.org/2000/svg">
<path d="M11.5 9.48863C11.5 7.55738 10.6297 5.63764 9.17211 4.35328L8.98246 4.1919C8.75908 4.00195 8.42093 4.0744 8.29764 4.34791C8.23781 4.48093 8.00816 6.14407 8.00816 6.37101C8.00816 6.41682 7.99909 6.49195 8 6.5C8 6.69148 7.83809 6.84347 7.65133 6.81088C7.50447 6.78539 7.4042 6.63819 7.40348 6.48083C7.39405 4.17757 6.91548 2.25491 5.69343 1.05545C4.94606 0.321939 4.06251 -0.326088 3.79199 0.179722C3.72309 0.308714 3.83714 0.598515 3.95209 0.969967C4.20757 1.79605 3.42774 3.11549 2.32553 4.43397C1.2895 5.67329 0 7.21583 0 9.48863C0 12.5473 2.74074 15.3333 5.74982 15.3333C8.75926 15.3333 11.5 12.5473 11.5 9.48863Z" fill="white"/>
</svg>
