<svg width="45" height="34" viewBox="0 0 45 34" fill="none" xmlns="http://www.w3.org/2000/svg">
<path d="M15.0652 16.4161C15.2376 16.2784 15.4444 16.1747 15.6512 16.0713C13.6517 15.2439 10.5491 15.175 9.51481 15.175C8.34276 15.175 4.41273 15.2785 2.58555 16.5195C0.275792 18.1055 0.0344124 23.0696 0 24.0693C0 24.3795 0.103403 24.6554 0.31021 24.8968C0.517017 25.1036 0.792833 25.2416 1.10305 25.2416H11.4797C11.6521 22.7938 12.2728 18.3123 15.0651 16.4163L15.0652 16.4161Z" fill="black"/>
<path d="M15.306 7.58943C15.306 10.7689 12.7287 13.3466 9.5489 13.3466C6.36942 13.3466 3.79175 10.769 3.79175 7.58943C3.79175 4.40994 6.36935 1.83228 9.5489 1.83228C12.7286 1.83228 15.306 4.40988 15.306 7.58943Z" fill="black"/>
<path d="M36.4539 26.7454C36.4121 25.2386 36.0352 19.5881 33.3148 17.7886C31.0965 16.2818 26.3252 16.1562 24.9021 16.1562C23.4791 16.1562 18.7078 16.2818 16.4894 17.7886C13.6852 19.714 13.3921 25.7409 13.3503 26.9546C13.3503 27.3313 13.4759 27.6661 13.727 27.9592C13.978 28.2103 14.3547 28.3779 14.6895 28.3779H35.0725C35.8258 28.3779 36.4537 27.7502 36.4537 26.9967V26.7453L36.4539 26.7454Z" fill="black"/>
<path d="M31.8918 6.98966C31.8918 10.8498 28.7624 13.9793 24.9021 13.9793C21.0417 13.9793 17.9125 10.8499 17.9125 6.98966C17.9125 3.1292 21.0416 0 24.9021 0C28.7623 0 31.8918 3.12913 31.8918 6.98966Z" fill="black"/>
<circle cx="35.9926" cy="25.0431" r="6.65935" fill="white"/>
<path d="M36.0568 15.865C31.0883 15.865 27.1135 19.8894 27.1135 24.8082C27.1135 29.7271 31.1379 33.7515 36.0568 33.7515C41.0252 33.7515 45 29.7271 45 24.8082C45 19.8894 41.0252 15.865 36.0568 15.865V15.865ZM39.9817 26.3485H37.5969V28.7332C37.5969 29.5778 36.9013 30.2734 36.0568 30.2734C35.2122 30.2734 34.5166 29.5778 34.5166 28.7332V26.3485H32.1815C31.3369 26.3485 30.6413 25.6529 30.6413 24.8083C30.6413 23.9638 31.3369 23.2682 32.1815 23.2682H34.5662V20.8834C34.5662 20.0388 35.2618 19.3433 36.1064 19.3433C36.951 19.3433 37.6465 20.0388 37.6465 20.8834V23.2682H40.0313C40.8759 23.2682 41.5714 23.9638 41.5714 24.8083C41.5718 25.6529 40.8263 26.3485 39.9817 26.3485V26.3485Z" fill="#3BF763"/>
</svg>
