<svg width="34" height="27" viewBox="0 0 34 27" fill="none" xmlns="http://www.w3.org/2000/svg">
<path d="M16.3723 16.1363C18.4473 14.8248 19.8483 12.6747 20.2101 10.2467C20.5715 7.81874 19.8579 5.354 18.2551 3.49458C16.6525 1.63545 14.3193 0.566589 11.8647 0.566589C9.41007 0.566589 7.0769 1.63545 5.47435 3.49458C3.87142 5.3541 3.15782 7.81874 3.51933 10.2467C3.88116 12.6747 5.28206 14.8248 7.35706 16.1363C5.46316 17 3.85715 18.3893 2.73024 20.1393C1.60333 21.8896 1.00267 22.5767 1 24.6582V24.8441C1 25.4822 1.51779 26 2.15594 26C2.79408 26 3.31188 25.4822 3.31188 24.8441V24.6582C3.31188 21.6025 4.94186 20.1288 7.58809 18.6009C10.2347 17.0731 13.4947 17.0731 16.1413 18.6009C18.7875 20.1288 20.4175 21.6025 20.4175 24.6582V24.8441C20.4175 25.4822 20.9353 26 21.5735 26C22.2116 26 22.7294 25.4822 22.7294 24.8441V24.6582C22.7267 22.5766 22.1261 21.8896 20.9992 20.1393C19.8723 18.3893 18.2662 17 16.3723 16.1363ZM5.73927 9.01767C5.73927 7.39314 6.38437 5.83508 7.53331 4.68608C8.68224 3.53708 10.2403 2.89204 11.8649 2.89204C13.4895 2.89204 15.0475 3.53714 16.1965 4.68608C17.3455 5.83501 17.9905 7.39304 17.9905 9.01767C17.9905 10.6423 17.3454 12.2003 16.1965 13.3493C15.0476 14.4983 13.4895 15.1433 11.8649 15.1433C10.2407 15.1414 8.6839 14.4951 7.53569 13.3469C6.38747 12.1987 5.74125 10.6418 5.73927 9.01767Z" fill="black" stroke="black" stroke-width="0.55"/>
<path d="M29.1463 8.52354C29.1463 7.84807 28.5983 7.29999 27.9228 7.29999C27.2473 7.29999 26.6992 7.84807 26.6992 8.52354V11.1538H24.069C23.3935 11.1538 22.8455 11.7018 22.8455 12.3773C22.8455 13.0528 23.3935 13.6009 24.069 13.6009H26.6992V16.2311C26.6992 16.9065 27.2473 17.4546 27.9228 17.4546C28.5983 17.4546 29.1463 16.9065 29.1463 16.2311V13.6009H31.7765C32.452 13.6009 33.0001 13.0528 33.0001 12.3773C33.0001 11.7018 32.452 11.1538 31.7765 11.1538H29.1463V8.52354Z" fill="black" stroke="black" stroke-width="0.529249"/>
</svg>
