<svg width="30" height="30" viewBox="0 0 30 30" fill="none" xmlns="http://www.w3.org/2000/svg">
<circle cx="15" cy="15" r="15" fill="black" fill-opacity="0.8"/>
<path fill-rule="evenodd" clip-rule="evenodd" d="M20.5659 9.25089C20.2317 8.9167 19.6899 8.9167 19.3557 9.25089L14.2677 14.3389C14.2093 14.3973 14.1611 14.462 14.1232 14.5308C13.8616 14.866 13.885 15.3515 14.1934 15.6598L19.2832 20.7496C19.6169 21.0833 20.1579 21.0833 20.4916 20.7496C20.8253 20.4159 20.8253 19.8749 20.4916 19.5412L15.9887 15.0383L20.5659 10.4611C20.9001 10.1269 20.9001 9.58508 20.5659 9.25089Z" fill="white"/>
<path fill-rule="evenodd" clip-rule="evenodd" d="M9.41089 9.25089C9.74508 8.9167 10.2869 8.9167 10.6211 9.25089L15.7091 14.3389C15.7682 14.398 15.8168 14.4635 15.855 14.5333C16.1146 14.8685 16.0906 15.3523 15.7829 15.66L10.6931 20.7497C10.3594 21.0834 9.81841 21.0834 9.48471 20.7497C9.15101 20.416 9.151 19.875 9.4847 19.5413L13.9879 15.0381L9.41089 10.4611C9.07669 10.1269 9.0767 9.58508 9.41089 9.25089Z" fill="white"/>
</svg>
