<svg width="25" height="25" viewBox="0 0 25 25" fill="none" xmlns="http://www.w3.org/2000/svg">
<path fill-rule="evenodd" clip-rule="evenodd" d="M12.5 2.64262C7.05599 2.64262 2.64262 7.05599 2.64262 12.5C2.64262 17.944 7.05599 22.3574 12.5 22.3574C17.944 22.3574 22.3574 17.944 22.3574 12.5C22.3574 7.05599 17.944 2.64262 12.5 2.64262ZM1 12.5C1 6.14865 6.14865 1 12.5 1C18.8513 1 24 6.14865 24 12.5C24 18.8513 18.8513 24 12.5 24C6.14865 24 1 18.8513 1 12.5ZM18.8309 8.4584C19.152 8.77898 19.1523 9.29908 18.8318 9.62015L11.2848 17.1775C11.1307 17.3318 10.9216 17.4185 10.7035 17.4185C10.4855 17.4185 10.2763 17.3318 10.1222 17.1775L6.169 13.219C5.84842 12.898 5.84875 12.3778 6.16982 12.0574C6.49072 11.7366 7.01096 11.7371 7.33156 12.058L10.7035 15.4347L17.6693 8.4593C17.9899 8.13823 18.5102 8.13791 18.8311 8.45849L18.8309 8.4584Z" fill="#0097A0" stroke="#0097A0"/>
</svg>
