<svg width="20" height="20" viewBox="0 0 20 20" fill="none" xmlns="http://www.w3.org/2000/svg">
<path d="M1.6754 11.0183C1.62574 11.0765 1.57663 11.1355 1.52892 11.1917C1.52892 11.1917 0.245692 13.9934 0.00197591 18.5425V18.5427C-0.0189507 18.932 0.127116 19.3119 0.403479 19.587C0.67985 19.8623 1.06031 20.0067 1.44967 19.9841C5.76256 19.7395 8.39401 18.6446 8.75723 18.4852C7.22668 13.3137 3.1929 11.5201 1.67538 11.0183L1.6754 11.0183Z" fill="black"/>
<path d="M19.6425 2.99633C18.853 0.910772 16.9471 0.333088 16.9471 0.333088C15.0535 -0.346739 12.9414 0.0293751 11.3992 1.32138C10.1351 2.38 8.46951 3.89955 6.28703 6.07964C4.96712 7.39997 3.89051 8.53127 3.0105 9.49959C5.05544 10.3347 8.61662 12.4152 10.3123 17.1482C11.3202 16.2389 12.5105 15.1107 13.9138 13.7068C16.0935 11.5267 17.6135 9.85856 18.6717 8.59498C20.0068 7.00122 20.3447 4.85173 19.6424 2.99636L19.6425 2.99633Z" fill="black"/>
</svg>
