<svg width="15" height="15" viewBox="0 0 15 15" fill="none" xmlns="http://www.w3.org/2000/svg">
<path d="M7.5 0C3.35812 0 0 3.35812 0 7.5C0 11.6419 3.35812 15 7.5 15C11.6419 15 15 11.6419 15 7.5C15 3.35812 11.6419 0 7.5 0ZM13.4285 6.73821H11.1562C11.0701 5.58654 10.7874 4.47209 10.3131 3.41571C10.0637 2.86053 9.76698 2.33435 9.42568 1.83924C10.2826 2.12992 11.0678 2.6153 11.7263 3.27394C12.6734 4.22105 13.2636 5.43051 13.4288 6.7384L13.4285 6.73821ZM7.5 13.1456C6.91489 12.4952 6.43736 11.7631 6.07679 10.9598C5.69092 10.1011 5.45569 9.1961 5.37305 8.26165H9.6277C9.54483 9.19653 9.30951 10.1012 8.92396 10.9598C8.56329 11.7628 8.08575 12.4952 7.50075 13.1456H7.5ZM5.37273 6.73821C5.45592 5.79747 5.69384 4.88727 6.08403 4.02348C6.44405 3.22629 6.91867 2.49943 7.49971 1.85373C8.08503 2.50412 8.56235 3.23654 8.92323 4.03958C9.30911 4.8983 9.54434 5.80326 9.62697 6.73771H5.37287L5.37273 6.73821ZM3.27394 3.27375C3.93228 2.61541 4.71745 2.13003 5.57405 1.83935C5.23682 2.32862 4.94333 2.84831 4.69578 3.39648C4.21594 4.45848 3.93051 5.57973 3.84386 6.73854H1.57146C1.73668 5.43075 2.32669 4.22129 3.27394 3.27407V3.27375ZM1.57146 8.26152H3.84375C3.92986 9.4132 4.21259 10.5276 4.68688 11.584C4.93622 12.1392 5.23296 12.6654 5.57427 13.1605C4.71734 12.8698 3.93217 12.3844 3.27362 11.7258C2.3265 10.7787 1.73636 9.56922 1.57114 8.26133L1.57146 8.26152ZM11.7262 11.726C11.0676 12.3845 10.2825 12.87 9.42554 13.1607C9.76685 12.6656 10.0636 12.1394 10.3129 11.5842C10.7875 10.5278 11.0699 9.4133 11.1561 8.26171H13.4283C13.2631 9.56949 12.6731 10.7789 11.7259 11.7262L11.7262 11.726Z" fill="#929292"/>
</svg>
