<svg width="49" height="39" viewBox="0 0 49 39" fill="none" xmlns="http://www.w3.org/2000/svg">
<path d="M0 13C0 5.8203 5.8203 0 13 0H36C43.1797 0 49 5.8203 49 13V26C49 33.1797 43.1797 39 36 39H13C5.8203 39 0 33.1797 0 26V13Z" fill="#7CF7FF"/>
<path d="M17.9006 29.4513L26.7097 29.4397C26.9521 29.4388 27.1742 29.4058 27.3831 29.3544C27.8567 29.2359 28.1448 28.7557 28.0265 28.2818C27.908 27.8079 27.4279 27.5201 26.954 27.6384L26.7087 27.671L17.8995 27.6826C17.2644 27.6815 16.7727 27.1633 16.7696 26.566L16.7786 26.3682L17.0341 23.8716C17.1582 22.8343 18.037 22.0593 19.0919 22.058H25.4946C25.8503 22.0578 26.1915 22.1501 26.4758 22.3046C26.9049 22.5375 27.4417 22.3784 27.6749 21.9493C27.9078 21.5201 27.7488 20.9833 27.3196 20.7503C26.7785 20.4567 26.1527 20.2897 25.4946 20.2896H19.0916C17.1515 20.2882 15.5076 21.7295 15.2772 23.6634L15.2757 23.6779L15.0161 26.2131L15.0125 26.263L15.0009 26.5226L15 26.5625C15.0006 28.1332 16.2741 29.4484 17.9005 29.4513L17.9006 29.4513Z" fill="black" stroke="black" stroke-width="0.555556"/>
<path d="M22.3157 18.9076C24.7757 18.9071 26.7687 16.914 26.7694 14.4538C26.7688 11.9936 24.7755 10.0004 22.3157 10C19.8555 10.0006 17.8626 11.9936 17.8619 14.4538C17.8623 16.9138 19.8555 18.9068 22.3157 18.9076ZM22.3157 11.7686C23.7981 11.7715 24.998 12.9711 25.0006 14.4537C24.998 15.9361 23.7981 17.1361 22.3157 17.1388C20.8332 17.1359 19.6333 15.9363 19.6306 14.4537C19.6333 12.9713 20.8331 11.7713 22.3157 11.7686Z" fill="black" stroke="black" stroke-width="0.555556"/>
<rect x="30.5561" y="21.1992" width="2.22222" height="6.66667" rx="1.11111" fill="black"/>
<rect x="35" y="23.4189" width="2.22222" height="6.66667" rx="1.11111" transform="rotate(90 35 23.4189)" fill="black"/>
</svg>
