<svg width="27" height="27" viewBox="0 0 27 27" fill="none" xmlns="http://www.w3.org/2000/svg">
<mask id="mask0_4_1893" style="mask-type:alpha" maskUnits="userSpaceOnUse" x="0" y="0" width="27" height="27">
<rect width="27" height="27" fill="#D9D9D9"/>
</mask>
<g mask="url(#mask0_4_1893)">
<path d="M2.5 10V25L10 25.5V20L11 18L13 17H15L17 19.5V25H24.5V10L13.5 1.5L2.5 10Z" fill="white"/>
<path d="M13.0753 1.14172L2.27226 9.47504C2.10283 9.60462 1.99928 9.81558 2 10.0285V25.3056C2 25.6692 2.33206 26 2.69692 26H10.0151C10.38 26 10.712 25.6692 10.712 25.3056V20.4444C10.712 18.8935 11.9433 17.6666 13.5 17.6666C15.0565 17.6666 16.288 18.8933 16.288 20.4444V25.3056C16.288 25.6692 16.62 26 16.9849 26H24.3031C24.668 26 25 25.6692 25 25.3056V10.0285C25 9.81558 24.8972 9.60486 24.7277 9.47504L13.9247 1.14172C13.6643 0.93851 13.3009 0.967571 13.0751 1.14172H13.0753ZM13.5 2.56322L23.6061 10.3645V24.6112H17.6819V20.4446C17.6819 18.1483 15.8048 16.278 13.5001 16.278C11.1955 16.278 9.31836 18.1483 9.31836 20.4446V24.6112H3.39415V10.3645L13.5 2.56322Z" fill="white" stroke="white" stroke-width="0.25"/>
</g>
</svg>
