<svg width="44" height="44" viewBox="0 0 44 44" fill="none" xmlns="http://www.w3.org/2000/svg">
<path d="M0 22C0 34.1503 9.84974 44 22 44V44C34.1503 44 44 34.1503 44 22V22C44 9.84974 34.1503 2.38419e-07 22 2.38419e-07V2.38419e-07C9.84974 2.38419e-07 0 9.84974 0 22V22Z" fill="url(#paint0_linear_224_16)"/>
<path fill-rule="evenodd" clip-rule="evenodd" d="M8.90179 29.6484V17.64C8.90179 15.8311 10.3679 14.365 12.1768 14.365H14.9693C15.4398 14.365 15.8568 14.0648 16.0053 13.6183L16.1013 13.329C16.5478 11.9917 17.7989 11.09 19.2093 11.09H24.7943C26.2047 11.09 27.4558 11.9917 27.9023 13.329L27.9983 13.6183C28.1468 14.0648 28.5638 14.365 29.0343 14.365H31.8268C33.6357 14.365 35.1018 15.8311 35.1018 17.64V29.6484C35.1018 30.5173 34.7568 31.3503 34.1422 31.9638C33.5287 32.5784 32.6958 32.9234 31.8268 32.9234H12.1768C11.3078 32.9234 10.4749 32.5784 9.86137 31.9638C9.24676 31.3503 8.90179 30.5173 8.90179 29.6484ZM29.6435 18.1859C29.0409 18.1859 28.5518 18.6749 28.5518 19.2775C28.5518 19.8801 29.0409 20.3692 29.6435 20.3692C30.2461 20.3692 30.7351 19.8801 30.7351 19.2775C30.7351 18.6749 30.2461 18.1859 29.6435 18.1859ZM22.0018 17.64C18.9888 17.64 16.5435 20.0854 16.5435 23.0984C16.5435 26.1114 18.9888 28.5567 22.0018 28.5567C25.0148 28.5567 27.4601 26.1114 27.4601 23.0984C27.4601 20.0854 25.0148 17.64 22.0018 17.64ZM22.0018 19.8234C23.8096 19.8234 25.2768 21.2906 25.2768 23.0984C25.2768 24.9062 23.8096 26.3734 22.0018 26.3734C20.194 26.3734 18.7268 24.9062 18.7268 23.0984C18.7268 21.2906 20.194 19.8234 22.0018 19.8234Z" fill="black"/>
<defs>
<linearGradient id="paint0_linear_224_16" x1="21.3333" y1="44" x2="21.3333" y2="8.23226" gradientUnits="userSpaceOnUse">
<stop stop-color="#39B8FF"/>
<stop offset="0.527909" stop-color="#24E5FF"/>
<stop offset="1" stop-color="#61ECFF"/>
</linearGradient>
</defs>
</svg>
