<svg width="31" height="27" viewBox="0 0 31 27" fill="none" xmlns="http://www.w3.org/2000/svg">
<path fill-rule="evenodd" clip-rule="evenodd" d="M0 22.2324V8.11211C0 5.98509 1.72396 4.26114 3.85098 4.26114H7.13458C7.68784 4.26114 8.1782 3.90813 8.35278 3.38311L8.46574 3.04294C8.99076 1.47046 10.4618 0.410156 12.1203 0.410156H18.6875C20.346 0.410156 21.8171 1.47046 22.3421 3.04294L22.4551 3.38311C22.6296 3.90813 23.12 4.26114 23.6733 4.26114H26.9569C29.0839 4.26114 30.8078 5.98509 30.8078 8.11211V22.2324C30.8078 23.2542 30.4022 24.2336 29.6795 24.955C28.9581 25.6777 27.9786 26.0834 26.9569 26.0834H3.85098C2.82919 26.0834 1.84975 25.6777 1.12833 24.955C0.405634 24.2336 0 23.2542 0 22.2324ZM24.3895 8.75395C23.681 8.75395 23.1059 9.32902 23.1059 10.0376C23.1059 10.7462 23.681 11.3213 24.3895 11.3213C25.0981 11.3213 25.6732 10.7462 25.6732 10.0376C25.6732 9.32902 25.0981 8.75395 24.3895 8.75395ZM15.4039 8.11211C11.861 8.11211 8.98562 10.9875 8.98562 14.5304C8.98562 18.0733 11.861 20.9487 15.4039 20.9487C18.9468 20.9487 21.8222 18.0733 21.8222 14.5304C21.8222 10.9875 18.9468 8.11211 15.4039 8.11211ZM15.4039 10.6794C17.5297 10.6794 19.2549 12.4047 19.2549 14.5304C19.2549 16.6562 17.5297 18.3814 15.4039 18.3814C13.2782 18.3814 11.5529 16.6562 11.5529 14.5304C11.5529 12.4047 13.2782 10.6794 15.4039 10.6794Z" fill="white"/>
</svg>
