<svg width="46" height="41" viewBox="0 0 46 41" fill="none" xmlns="http://www.w3.org/2000/svg">
<path d="M45.7268 18.1307L25.8327 34.9881C25.5378 35.2262 25.1141 35.1741 24.8838 34.8689C24.7872 34.7401 24.7409 34.5876 24.7409 34.435H24.7364L24.7361 25.3531H24.2343C19.5636 25.3531 15.2102 26.8212 11.5805 29.3338C7.83539 31.9228 4.85989 35.6268 3.10956 39.9742C2.90697 40.4798 2.534 40.7895 2.11474 40.9229C1.85181 41.0084 1.5666 41.0229 1.29921 40.9658C1.03628 40.9133 0.778839 40.7895 0.562192 40.599C0.225563 40.3084 0 39.8745 0 39.3309V32.008C0 25.896 2.41368 20.3422 6.30581 16.314C10.1983 12.2854 15.5651 9.78729 21.4703 9.78729H24.7358V0.705325C24.7358 0.314343 25.0395 0 25.4173 0C25.5969 0 25.7583 0.071668 25.878 0.185914L45.7406 17.0198C46.0354 17.2578 46.0861 17.6967 45.8558 18.0018C45.8184 18.0547 45.7772 18.0973 45.7268 18.1307Z" fill="black"/>
</svg>
