<svg width="17" height="13" viewBox="0 0 17 13" fill="none" xmlns="http://www.w3.org/2000/svg">
<path d="M1.70709 8.36627C1.31658 7.97576 1.31658 7.3426 1.70709 6.95209C2.09761 6.56157 2.73076 6.56157 3.12128 6.95209L6.58372 10.4145C6.97423 10.805 6.97423 11.4382 6.58372 11.8287C6.1932 12.2192 5.56005 12.2192 5.16953 11.8287L1.70709 8.36627Z" fill="#6F6F6F" stroke="#6F6F6F"/>
<path d="M13.8788 1.70709C14.2694 1.31658 14.9025 1.31658 15.293 1.70709C15.6835 2.09761 15.6835 2.73076 15.293 3.12128L6.93766 11.4767C6.54714 11.8672 5.91399 11.8672 5.52347 11.4767C5.13295 11.0861 5.13295 10.453 5.52347 10.0625L13.8788 1.70709Z" fill="#6F6F6F" stroke="#6F6F6F"/>
</svg>
