<svg width="28" height="28" viewBox="0 0 28 28" fill="none" xmlns="http://www.w3.org/2000/svg">
<path d="M7.70709 15.8306C7.31658 15.4401 7.31658 14.807 7.70709 14.4164V14.4164C8.09761 14.0259 8.73076 14.0259 9.12128 14.4164L12.5837 17.8789C12.9742 18.2694 12.9742 18.9025 12.5837 19.2931V19.2931C12.1932 19.6836 11.56 19.6836 11.1695 19.2931L7.70709 15.8306Z" fill="#6F6F6F" stroke="#6F6F6F"/>
<path d="M19.8532 9.5235C20.2437 9.13298 20.8769 9.13298 21.2674 9.5235V9.5235C21.6579 9.91402 21.6579 10.5472 21.2674 10.9377L12.912 19.2931C12.5215 19.6836 11.8884 19.6836 11.4978 19.2931V19.2931C11.1073 18.9025 11.1073 18.2694 11.4978 17.8789L19.8532 9.5235Z" fill="#6F6F6F" stroke="#6F6F6F"/>
</svg>
