<svg width="37" height="37" viewBox="0 0 37 37" fill="none" xmlns="http://www.w3.org/2000/svg">
<path d="M35.6004 7.32795C34.9163 4.23872 31.9215 1.40862 28.8237 0.80715C26.9358 0.43007 21.6708 -0.0360457 18.1889 0.00221643C14.7067 -0.0361002 9.65096 0.430044 7.55478 0.80715C4.45692 1.40855 1.46214 4.2384 0.778039 7.32795C0.388779 9.20448 0.00558666 11.756 0 15.2389C0.00634384 18.7225 0.388753 21.2739 0.778039 23.1499C1.43681 26.1233 4.23547 28.8553 7.20666 29.5922C7.76441 29.7932 8.11689 30.371 8.01308 30.9769C7.97553 31.1987 7.87809 31.406 7.73243 31.5773C7.17468 32.2302 6.57229 32.8435 5.92976 33.4132C5.22916 34.0299 5.15965 35.0992 5.77497 35.802C6.09673 36.1695 6.56009 36.3783 7.04399 36.3783C7.08154 36.3783 7.12012 36.3768 7.15843 36.3748C11.9252 36.1773 16.557 34.7284 20.5891 32.1728C22.3476 30.9749 24.3493 30.312 26.4374 30.0093C27.4349 29.8992 28.2733 29.7812 28.8239 29.671C31.9218 29.0699 34.9166 26.24 35.6007 23.1502C35.9899 21.2745 36.3731 18.723 36.3787 15.2393C36.3731 11.7557 35.99 9.20426 35.6007 7.32831L35.6004 7.32795ZM11.4881 16.9428C11.3937 17.4757 10.9098 17.9604 10.3769 18.054C10.0536 18.1081 9.61309 18.1586 9.01194 18.1591C8.4108 18.1591 7.97029 18.1078 7.64698 18.054C7.1141 17.9596 6.62943 17.4757 6.53582 16.9428C6.48177 16.6196 6.43127 16.179 6.43077 15.5779C6.43077 14.9767 6.48202 14.5362 6.53582 14.2129C6.63022 13.68 7.11412 13.1954 7.64698 13.1018C7.97027 13.0477 8.41079 12.9972 9.01194 12.9967C9.61309 12.9967 10.0536 13.048 10.3769 13.1018C10.9098 13.1961 11.3945 13.6801 11.4881 14.2129C11.5421 14.5362 11.5926 14.9767 11.5931 15.5779C11.5931 16.179 11.5419 16.6195 11.4881 16.9428ZM20.6646 16.9428C20.5702 17.4757 20.0863 17.9604 19.5534 18.054C19.2301 18.1081 18.7896 18.1586 18.1885 18.1591C17.5873 18.1591 17.1468 18.1078 16.8235 18.054C16.2906 17.9596 15.8059 17.4757 15.7123 16.9428C15.6583 16.6196 15.6078 16.179 15.6073 15.5779C15.6073 14.9767 15.6585 14.5362 15.7123 14.2129C15.8067 13.68 16.2906 13.1954 16.8235 13.1018C17.1468 13.0477 17.5873 12.9972 18.1885 12.9967C18.7896 12.9967 19.2301 13.048 19.5534 13.1018C20.0863 13.1961 20.571 13.6801 20.6646 14.2129C20.7186 14.5362 20.7691 14.9767 20.7696 15.5779C20.7696 16.179 20.7184 16.6195 20.6646 16.9428ZM29.8301 16.9428C29.7357 17.4757 29.2518 17.9604 28.7189 18.054C28.3956 18.1081 27.9551 18.1586 27.3539 18.1591C26.7528 18.1591 26.3123 18.1078 25.989 18.054C25.4561 17.9596 24.9714 17.4757 24.8778 16.9428C24.8238 16.6196 24.7733 16.179 24.7728 15.5779C24.7728 14.9767 24.824 14.5362 24.8778 14.2129C24.9722 13.68 25.4561 13.1954 25.989 13.1018C26.3123 13.0477 26.7528 12.9972 27.3539 12.9967C27.9551 12.9967 28.3956 13.048 28.7189 13.1018C29.2518 13.1961 29.7365 13.6801 29.8301 14.2129C29.8841 14.5362 29.9346 14.9767 29.9351 15.5779C29.9351 16.179 29.8839 16.6195 29.8301 16.9428Z" fill="white"/>
</svg>
