<svg width="28" height="27" viewBox="0 0 28 27" fill="none" xmlns="http://www.w3.org/2000/svg">
<path d="M14.1493 1C7.18764 1 1.49158 6.34013 1.49158 12.8666C1.49158 15.0817 2.16398 17.2573 3.39017 19.1164C3.15288 19.6307 2.87586 20.1448 2.55936 20.6196L2.04506 21.4106C1.05617 22.8741 1.45184 24.8124 2.91528 25.8013C3.42958 26.1572 4.06225 26.3551 4.6952 26.3551C6.95001 26.3551 9.12535 25.6826 10.9845 24.3773C12.0525 24.6543 13.1203 24.773 14.1884 24.773C21.1501 24.773 26.8461 19.4328 26.8461 12.9063C26.8467 6.3795 21.1109 1.0001 14.1495 1.0001L14.1493 1ZM14.1493 21.5689C12.8045 21.5689 11.4991 21.2918 10.273 20.8172C8.76979 22.3204 6.75253 23.1509 4.65609 23.1509L5.17039 22.3599C5.96143 21.1732 6.55498 19.9075 6.99009 18.5624C5.48691 17.0198 4.65638 15.0026 4.65638 12.8664C4.65638 8.04059 8.92838 4.16416 14.1497 4.16416C19.3712 4.16416 23.643 8.04052 23.643 12.8664C23.6427 17.6924 19.371 21.5686 14.1497 21.5686L14.1493 21.5689Z" fill="white" stroke="black"/>
<path d="M18.8961 11.2846H20.4782C20.9134 11.2846 21.2693 11.6405 21.2693 12.0757V13.6579C21.2693 14.093 20.9134 14.4489 20.4782 14.4489H18.8961C18.4609 14.4489 18.105 14.093 18.105 13.6579V12.0757C18.105 11.6408 18.4609 11.2846 18.8961 11.2846Z" fill="white"/>
<path d="M13.3587 11.2846H14.9409C15.376 11.2846 15.732 11.6405 15.732 12.0757V13.6579C15.732 14.093 15.376 14.4489 14.9409 14.4489H13.3587C12.9236 14.4489 12.5676 14.093 12.5676 13.6579V12.0757C12.5676 11.6408 12.9236 11.2846 13.3587 11.2846Z" fill="white"/>
<path d="M7.82075 11.2846H9.40292C9.83807 11.2846 10.194 11.6405 10.194 12.0757V13.6579C10.194 14.093 9.83805 14.4489 9.40292 14.4489H7.82075C7.3856 14.4489 7.02966 14.093 7.02966 13.6579V12.0757C7.02966 11.6408 7.38562 11.2846 7.82075 11.2846Z" fill="white"/>
</svg>
