<svg width="29" height="29" viewBox="0 0 29 29" fill="none" xmlns="http://www.w3.org/2000/svg">
<circle cx="14.4999" cy="14.5001" r="13.4259" fill="white"/>
<path d="M24.7529 4.24706C19.0902 -1.41569 9.91009 -1.41569 4.24714 4.24706C-1.41581 9.90981 -1.41561 19.0899 4.24714 24.7529C9.90989 30.4158 19.09 30.4156 24.7529 24.7529C30.4159 19.0901 30.4157 9.91002 24.7529 4.24706ZM21.6053 11.8626L16.4013 17.0667C15.5136 17.9506 14.6296 18.8383 13.7456 19.7224C13.1797 20.2883 12.218 20.2883 11.6521 19.7224C11.4783 19.5485 11.3045 19.3747 11.1343 19.2008C9.91001 17.9729 8.68578 16.7486 7.46147 15.5206C6.87708 14.9362 6.91776 14.019 7.46147 13.4272C8.00149 12.8391 9.00751 12.8798 9.55493 13.4272C9.72877 13.601 9.90261 13.7748 10.0728 13.9487C10.9493 14.8253 11.8259 15.7056 12.6988 16.5822L19.5115 9.76947C20.0959 9.18508 21.0132 9.22576 21.605 9.76947C22.1931 10.3132 22.1524 11.3155 21.605 11.8629L21.6053 11.8626Z" fill="#7CF7FF"/>
<circle cx="14.5" cy="14.5" r="13.75" stroke="#4EE8F2" stroke-width="1.5"/>
</svg>
