<svg width="33" height="33" viewBox="0 0 33 33" fill="none" xmlns="http://www.w3.org/2000/svg">
<circle cx="16.4999" cy="16.4999" r="15.2778" fill="black"/>
<path d="M28.1671 4.83286C21.7233 -1.61095 11.277 -1.61095 4.83295 4.83286C-1.6111 11.2767 -1.61087 21.723 4.83295 28.1671C11.2768 34.6111 21.7231 34.6109 28.1671 28.1671C34.6112 21.7232 34.611 11.2769 28.1671 4.83286ZM24.5854 13.4988L18.6635 19.4207C17.6534 20.4266 16.6475 21.4367 15.6415 22.4427C14.9976 23.0866 13.9033 23.0866 13.2593 22.4427C13.0615 22.2449 12.8637 22.047 12.6701 21.8492C11.2769 20.4519 9.88381 19.0587 8.49064 17.6614C7.82564 16.9964 7.87194 15.9526 8.49064 15.2792C9.10514 14.61 10.2499 14.6563 10.8729 15.2792C11.0707 15.477 11.2685 15.6748 11.4621 15.8726C12.4596 16.8701 13.4571 17.8719 14.4504 18.8694L22.2028 11.117C22.8678 10.452 23.9116 10.4983 24.585 11.117C25.2542 11.7357 25.2079 12.8763 24.585 13.4992L24.5854 13.4988Z" fill="#39F3FF"/>
</svg>
