<svg width="22" height="18" viewBox="0 0 22 18" fill="none" xmlns="http://www.w3.org/2000/svg">
<path d="M15.7263 2.8573C17.4248 2.8573 18.7981 4.23065 18.7981 5.92916C18.7981 7.62767 17.4248 9.00103 15.7263 9.00103C14.0321 9.00103 12.6544 7.62767 12.6544 5.92916C12.6544 4.23065 14.0321 2.8573 15.7263 2.8573Z" fill="#9F9F9F" stroke="#202020" stroke-width="0.5"/>
<path d="M21.1082 13.1464C21.1082 13.8655 20.6419 14.5026 19.9531 14.7165C18.5327 15.1572 17.0523 15.3754 15.5677 15.3583C15.679 14.9942 15.7346 14.6143 15.7346 14.2331C15.7346 12.7314 15.2426 11.2724 14.3313 10.0745C15.7303 10.5023 17.2449 10.267 18.4471 9.43701C19.1359 9.61242 19.752 10.006 20.1969 10.5622C20.7873 11.2938 21.1082 12.2055 21.1082 13.1464Z" fill="#9F9F9F" stroke="#202020" stroke-width="0.5"/>
<path d="M7.72576 9.21446C9.99412 9.21446 11.833 7.37559 11.833 5.10723C11.833 2.83887 9.99412 1 7.72576 1C5.4574 1 3.61853 2.83887 3.61853 5.10723C3.61853 7.37559 5.4574 9.21446 7.72576 9.21446Z" fill="#9F9F9F" stroke="#202020" stroke-width="0.5"/>
<path d="M13.3131 11.0074C14.049 11.923 14.4512 13.061 14.4512 14.2375C14.4512 15.136 13.8693 15.9322 13.0094 16.2013C9.56956 17.2666 5.88589 17.2666 2.44609 16.2013C1.58614 15.9322 1 15.136 1 14.2375C1 13.061 1.40217 11.923 2.13804 11.0074C2.74557 10.2544 3.59269 9.73671 4.54248 9.54846C6.4763 10.8149 8.97487 10.8149 10.9087 9.54846C11.8585 9.73714 12.7099 10.2548 13.3131 11.0074Z" fill="#9F9F9F" stroke="#202020" stroke-width="0.5"/>
</svg>
