<svg width="42" height="42" viewBox="0 0 42 42" fill="none" xmlns="http://www.w3.org/2000/svg">
<circle cx="21" cy="21" r="21" fill="white" fill-opacity="0.15"/>
<path d="M21.1229 31.4555C21.3495 31.5169 21.5884 31.5169 21.8152 31.4555C25.3542 30.4651 28.3751 28.1632 30.2541 25.0248C31.3811 23.2002 31.9741 21.0999 31.9667 18.9594C31.9667 15.7279 29.5091 12.9492 26.3692 12.6397C24.5728 12.4611 22.786 13.0606 21.4672 14.2849C20.021 12.9288 18.0083 12.3427 16.0535 12.7081C14.6018 12.9922 13.297 13.7741 12.3671 14.9168C11.4374 16.0596 10.9421 17.4906 10.9677 18.9594C10.9604 21.0999 11.5534 23.2002 12.6804 25.0249C14.5601 28.1638 17.5823 30.4656 21.1228 31.4556L21.1229 31.4555ZM16.5295 15.2754H16.5292C16.7512 15.235 16.9762 15.2143 17.2019 15.2134C17.8381 15.2111 18.4636 15.3768 19.0141 15.6933C19.5647 16.0098 20.0207 16.4659 20.3354 17.0149C20.4896 17.2805 20.7332 17.4834 21.0231 17.5884C21.3133 17.6932 21.6312 17.6932 21.9214 17.5884C22.2114 17.4834 22.4549 17.2805 22.6092 17.0149C22.9541 16.4104 23.4698 15.9192 24.0922 15.602C24.715 15.2848 25.4176 15.1555 26.1134 15.2298C27.9212 15.4122 29.3419 17.0508 29.3419 18.9597C29.352 20.616 28.8977 22.2425 28.0296 23.657C26.5547 26.1245 24.22 27.9696 21.4674 28.843C18.7147 27.9695 16.38 26.1245 14.9051 23.657C14.0371 22.2425 13.5827 20.616 13.5928 18.9597C13.5928 17.168 14.8528 15.5718 16.5228 15.2754L16.5295 15.2754Z" fill="white" stroke="white" stroke-width="0.840301"/>
<path d="M23.9843 14.0269L21.4634 16.1276L19.7828 14.447L16.4216 14.0269L13.9007 15.2873L12.2201 17.3881V20.3291L14.3208 25.3709L17.2619 28.312L21.4634 30.4127L24.8246 28.7321L29.4463 24.1105L30.7067 19.4888L29.8664 16.1276L27.3455 14.0269H23.9843Z" fill="white"/>
</svg>
