<svg width="19" height="17" viewBox="0 0 19 17" fill="none" xmlns="http://www.w3.org/2000/svg">
<path d="M17.5 5.9997C17.5 9.42891 13.2818 13.0281 10.7727 14.8683C10.4018 15.1389 9.95665 15.2846 9.5 15.2846C9.04335 15.2846 8.59818 15.1389 8.22727 14.8683C5.71818 13.0281 1.5 9.42891 1.5 5.9997C1.50103 5.04754 1.80364 4.12099 2.36307 3.35715C2.92249 2.59332 3.70901 2.03275 4.60627 1.75839C5.50352 1.48402 6.46385 1.51044 7.34519 1.83372C8.22655 2.157 8.98204 2.75998 9.5 3.55346C10.018 2.75998 10.7735 2.157 11.6548 1.83372C12.5361 1.51044 13.4965 1.48402 14.3937 1.75839C15.291 2.03275 16.0775 2.59332 16.6369 3.35715C17.1964 4.12099 17.499 5.04754 17.5 5.9997Z" stroke="#8A8A8A" stroke-width="1.60714"/>
</svg>
