<svg width="27" height="24" viewBox="0 0 27 24" fill="none" xmlns="http://www.w3.org/2000/svg">
<path d="M13.0952 23.0733C13.3648 23.1463 13.6492 23.1463 13.9191 23.0733C18.1307 21.8946 21.7257 19.1553 23.9618 15.4204C25.3029 13.249 26.0086 10.7495 25.9999 8.20222C25.9999 4.35666 23.0752 1.04982 19.3386 0.681535C17.2008 0.468991 15.0744 1.18234 13.505 2.63931C11.7838 1.02552 9.38866 0.328068 7.06237 0.762944C5.33475 1.10096 3.78194 2.03144 2.67531 3.39138C1.56896 4.75132 0.979566 6.45434 1.01004 8.20229C1.00132 10.7496 1.70703 13.249 3.04814 15.4205C5.28511 19.156 8.88174 21.8952 13.095 23.0734L13.0952 23.0733ZM7.62876 3.81815H7.62849C7.89269 3.77002 8.16042 3.74541 8.42895 3.74433C9.18611 3.74163 9.93051 3.93876 10.5856 4.31544C11.2409 4.69213 11.7835 5.23483 12.158 5.88818C12.3416 6.2043 12.6314 6.44578 12.9764 6.57071C13.3218 6.69537 13.7001 6.69537 14.0455 6.57071C14.3906 6.44578 14.6804 6.2043 14.8639 5.88818C15.2744 5.16886 15.8881 4.58425 16.6289 4.20676C17.37 3.82927 18.2061 3.6754 19.0341 3.76383C21.1856 3.98097 22.8762 5.93094 22.8762 8.20265C22.8882 10.1737 22.3475 12.1093 21.3145 13.7926C19.5593 16.7291 16.7809 18.9248 13.5051 19.9642C10.2294 18.9248 7.45089 16.7291 5.69574 13.7926C4.66267 12.1093 4.12201 10.1737 4.134 8.20265C4.134 6.07043 5.6334 4.1708 7.62089 3.81817L7.62876 3.81815Z" fill="white" stroke="black"/>
</svg>
