<svg width="14" height="18" viewBox="0 0 14 18" fill="none" xmlns="http://www.w3.org/2000/svg">
<path d="M10.7167 7.28885C10.6994 7.93883 10.1175 8.48096 9.41878 8.36379L10.7167 7.28885ZM10.7167 7.28885L10.7167 7.28859L10.7187 7.26542C10.7203 7.24817 10.7222 7.22504 10.7238 7.20038C10.7252 7.17719 10.727 7.14384 10.727 7.10771C10.727 6.99295 10.7392 6.54547 10.761 6.10135C10.7667 5.98536 10.7729 5.87228 10.7796 5.76776C12.3316 7.13627 13.25 9.14077 13.25 11.1388C13.25 14.3011 10.2635 17.25 6.99978 17.25C3.73656 17.25 0.75 14.3011 0.75 11.1388C0.75 8.78453 2.11979 7.17054 3.39777 5.69638C4.08658 4.90185 4.70136 4.07748 5.10592 3.30202C5.46462 2.61446 5.73818 1.81495 5.56981 1.07228C5.82987 1.25818 6.12171 1.50559 6.4156 1.78374C7.73035 3.02809 8.48009 4.7052 8.49086 7.23981L8.49086 7.24021C8.49311 7.71249 8.80842 8.26129 9.41815 8.36369L10.7167 7.28885Z" stroke="#8A8A8A" stroke-width="1.5"/>
</svg>
