<svg width="18" height="16" viewBox="0 0 18 16" fill="none" xmlns="http://www.w3.org/2000/svg">
<path d="M6.78972 2.41382C6.78972 2.41382 4.62503 8.38334 0 9.15009C4.62503 9.91577 6.78972 15.8856 6.78972 15.8856C6.78972 15.8856 8.95442 9.91577 13.5784 9.15009C8.95442 8.38334 6.78972 2.41382 6.78972 2.41382Z" fill="#FF72D7"/>
<path d="M14.3094 0C14.3094 0 13.1551 3.18412 10.6895 3.59202C13.1551 4.00027 14.3094 7.18298 14.3094 7.18298C14.3094 7.18298 15.4641 4.00027 17.9297 3.59202C15.4641 3.18412 14.3094 0 14.3094 0Z" fill="#FF72D7"/>
<path d="M12.8081 13.0208C12.8081 13.0208 12.3287 14.3411 11.3066 14.5098C12.3287 14.6795 12.8081 15.9999 12.8081 15.9999C12.8081 15.9999 13.2865 14.6795 14.3096 14.5098C13.2865 14.3411 12.8081 13.0208 12.8081 13.0208Z" fill="#FF72D7"/>
</svg>
