<svg width="24" height="18" viewBox="0 0 24 18" fill="none" xmlns="http://www.w3.org/2000/svg">
<path d="M4.54736 3.90547C4.54736 1.7521 6.29153 0 8.43514 0C10.5788 0 12.3227 1.7521 12.3227 3.90547C12.3227 6.05884 10.5788 7.81076 8.43514 7.81076C6.29153 7.81076 4.54736 6.05902 4.54736 3.90547ZM8.43514 8.81274C3.68436 8.81274 0 11.6519 0 14.0942C0 16.8585 4.05433 17.2396 8.43514 17.2396C12.8161 17.2396 16.8703 16.8585 16.8703 14.0942C16.8703 11.6517 13.1856 8.81274 8.43514 8.81274Z" fill="black"/>
<rect x="18" y="1" width="2" height="8" rx="1" fill="black" stroke="black"/>
<rect x="23" y="4" width="2" height="8" rx="1" transform="rotate(90 23 4)" fill="black" stroke="black"/>
</svg>
