<svg width="23" height="31" viewBox="0 0 23 31" fill="none" xmlns="http://www.w3.org/2000/svg">
<path d="M18.7335 8.89598C19.793 8.89293 20.7464 9.36687 21.384 10.0741L21.384 10.0741C22.0221 10.7774 22.3862 11.704 22.3879 12.6853M18.7335 8.89598L22 12.686M18.7335 8.89598L14.1946 8.87215L14.1225 8.84056L14.1012 8.78781L14.9658 5.34294L14.9659 5.34253C15.0452 5.02515 15.0842 4.7042 15.084 4.38828L15.084 4.38793C15.0806 2.36784 13.5113 0.619455 11.4292 0.612069H11.4279H7.9027H7.90266C5.77665 0.612315 3.93396 2.09926 3.39982 4.20993L3.39976 4.20992L0.733454 14.6309L0.732835 14.6332L0.732155 14.6358L0.732139 14.6358L0.73125 14.6393C0.651017 14.9569 0.612069 15.2787 0.612068 15.5959L0.61207 15.5965C0.615422 17.6156 2.18377 19.3652 4.26749 19.3726H4.26887H7.85073L7.92296 19.4039L7.94453 19.4572L6.05642 26.9481C6.05641 26.9481 6.05641 26.9482 6.0564 26.9482C6.05639 26.9482 6.05638 26.9483 6.05637 26.9483C5.99842 27.1778 5.96674 27.4175 5.96712 27.6593M18.7335 8.89598L8.6377 30.3876M22.3879 12.6853L22 12.686M22.3879 12.6853C22.3879 12.6851 22.3879 12.6848 22.3879 12.6845L22 12.686M22.3879 12.6853C22.3906 13.471 22.1409 14.2935 21.6272 14.9812L21.6248 14.9844L21.6248 14.9844L21.6161 14.9957L21.3073 14.761M22 12.686C22.0026 13.3908 21.7781 14.131 21.3164 14.7491L21.3073 14.761M21.3073 14.761L21.6157 14.9963L21.3073 14.761ZM5.96712 27.6593C5.96712 27.6589 5.96712 27.6584 5.96712 27.6579L6.35505 27.6599L5.96712 27.6607C5.96712 27.6602 5.96712 27.6598 5.96712 27.6593ZM5.96712 27.6593C5.9635 28.4615 6.31832 29.1842 6.81655 29.6502M6.81655 29.6502C7.30925 30.1142 7.94349 30.3835 8.6377 30.3876M6.81655 29.6502C6.81639 29.6501 6.81624 29.6499 6.81608 29.6498L7.08211 29.3674L6.81723 29.6509C6.817 29.6506 6.81677 29.6504 6.81655 29.6502ZM8.6377 30.3876C8.63681 30.3876 8.63592 30.3876 8.63503 30.3876L8.64229 29.9997L8.64041 30.3876C8.63951 30.3876 8.6386 30.3876 8.6377 30.3876ZM10.0566 24.6654L11.1613 20.2823L11.1615 20.2818C11.234 19.9923 11.2703 19.6985 11.2698 19.4078C11.2667 17.5646 9.83546 15.968 7.93269 15.9608H7.93124L4.27165 15.9606C4.27124 15.9606 4.27084 15.9606 4.27043 15.9606C4.17012 15.9596 4.10132 15.9275 4.03102 15.8558C3.96885 15.789 3.93221 15.702 3.92741 15.6159L3.94523 15.4747L6.60482 5.07886L6.60486 5.07887L6.60614 5.07351L6.60697 5.07008C6.76472 4.44522 7.30322 4.02405 7.90196 4.02405H11.4255C11.5256 4.02504 11.5945 4.05709 11.6649 4.12878C11.727 4.19544 11.7634 4.28183 11.7679 4.36749L11.7495 4.51252L10.8829 7.96549L10.883 7.96552C10.8092 8.25738 10.7746 8.55076 10.7751 8.83644L11.163 8.83578M10.0566 24.6654L11.2576 8.06661C11.1929 8.32455 11.1626 8.58367 11.163 8.83578M10.0566 24.6654L18.9942 12.9086C19.0591 12.8183 19.0722 12.7581 19.0735 12.681C19.0741 12.5926 19.0324 12.4822 18.9697 12.4128M10.0566 24.6654L18.9697 12.4128M11.163 8.83578C11.1624 10.4795 12.4347 11.8809 14.0992 11.896L18.7229 11.9202H18.7293M11.163 8.83578L10.7751 8.83563C10.7744 10.6742 12.2007 12.2667 14.0957 12.2839L14.0972 12.2839L18.7208 12.3082H18.7229H18.7255M18.7293 11.9202L18.7229 12.2856L18.7225 12.3081C18.7226 12.3081 18.7227 12.3081 18.7229 12.3081C18.7237 12.3081 18.7246 12.3082 18.7255 12.3082M18.7293 11.9202C18.9696 11.9245 19.1172 12.0063 19.2523 12.147L18.7293 11.9202ZM18.7255 12.3082C18.7995 12.3098 18.8413 12.3225 18.8681 12.3349C18.8955 12.3475 18.9269 12.3687 18.9697 12.4128M18.7255 12.3082L18.9697 12.4128M11.2618 8.04941L10.8878 7.94775L10.8865 7.95225L11.1176 8.01902L11.2618 8.04941ZM11.2618 8.04941L12.1314 4.58441L12.1563 4.38818C12.157 4.19264 12.0791 4.00226 11.9451 3.86044C11.8085 3.71996 11.6425 3.6377 11.4271 3.63612H7.90196C7.11577 3.63612 6.42856 4.18793 6.23029 4.97732L11.2618 8.04941ZM10.7336 29.3111C10.7345 29.3098 10.7355 29.3085 10.7364 29.3073L10.4222 29.0797L10.731 29.3145L10.7336 29.3111ZM21.1209 10.3617L21.4279 10.1328L21.4278 10.1325L21.0979 10.334L21.1209 10.3617Z" fill="white" stroke="white" stroke-width="0.775862"/>
</svg>
