<svg width="40" height="40" viewBox="0 0 40 40" fill="none" xmlns="http://www.w3.org/2000/svg">
<mask id="mask0_788_1807" style="mask-type:alpha" maskUnits="userSpaceOnUse" x="0" y="0" width="40" height="40">
<rect width="40" height="40" fill="#D9D9D9"/>
</mask>
<g mask="url(#mask0_788_1807)">
<g filter="url(#filter0_d_788_1807)">
<path d="M29.5968 14.8349C29.0271 14.2025 28.1743 13.7797 27.2295 13.7839H27.2357L22.6125 13.7597L22.3218 13.6324L22.2023 13.3358L22.2157 13.2294L22.217 13.2249L23.0896 9.7485C23.1612 9.4617 23.1963 9.17242 23.1961 8.88857C23.193 7.06261 21.7776 5.50656 19.9279 5.5H16.4027C14.4611 5.50022 12.765 6.8607 12.2743 8.81147L12.2756 8.80607L9.60866 19.2294L9.60736 19.2343C9.53506 19.5205 9.5 19.8104 9.5 20.0959C9.50303 21.921 10.9176 23.4781 12.7689 23.4847H16.431L16.723 23.611L16.8432 23.9084L16.8282 24.0221L14.9325 31.5431C14.8819 31.7436 14.8546 31.9517 14.8551 32.1599C14.8516 32.849 15.1579 33.4709 15.5821 33.8674C16.0074 34.2682 16.5497 34.4968 17.1423 34.4997C17.778 34.5116 18.4865 34.1814 18.9222 33.5797L29.8073 19.261L29.8164 19.2491C30.2781 18.631 30.5026 17.8908 30.5 17.186C30.4985 16.3006 30.1701 15.4667 29.5967 14.8347L29.5968 14.8349ZM17.7165 30.9116L19.2852 24.6875C19.3501 24.4283 19.3823 24.1665 19.3819 23.9084C19.3791 22.2594 18.1018 20.855 16.4312 20.8487L12.7688 20.8485C12.5532 20.8469 12.3872 20.7647 12.2506 20.624C12.1166 20.4819 12.0387 20.2911 12.0389 20.0958L12.0634 19.902L14.729 9.48271L14.7303 9.47732C14.9286 8.68793 15.6158 8.13612 16.402 8.13612H19.9271C20.1425 8.1377 20.3085 8.21996 20.4451 8.36044C20.5791 8.50226 20.657 8.69264 20.6563 8.88818L20.6314 9.08441L19.7592 12.5599L19.7604 12.5554C19.6938 12.8171 19.6626 13.08 19.663 13.3358C19.6624 14.9795 20.9347 16.3809 22.5992 16.396L27.2229 16.4202H27.2293C27.4696 16.4245 27.6172 16.5063 27.7523 16.647C27.883 16.7884 27.9633 16.9963 27.9614 17.1858C27.959 17.3391 27.9229 17.4784 27.806 17.6396L17.7165 30.9116Z" fill="white"/>
<path d="M12.0819 8.75651C12.5959 6.7247 14.3669 5.30024 16.4027 5.3H16.4027H19.9279H19.9286C21.8981 5.30699 23.3929 6.96219 23.3961 8.88824V8.88842C23.3963 9.1888 23.3592 9.49441 23.2836 9.79698L23.2835 9.79719L22.4125 13.2678L22.4073 13.3092L22.4768 13.482L22.6548 13.5599L27.2332 13.5839C28.2365 13.5808 29.1404 14.0298 29.7448 14.7004L29.7448 14.7003C30.3515 15.369 30.6983 16.2505 30.7 17.1852C30.7 17.1854 30.7 17.1855 30.7 17.1856L30.5 17.186C30.5026 17.8908 30.2781 18.631 29.8164 19.2491L12.0819 8.75651ZM12.0819 8.75651L12.0818 8.7565L9.41522 19.1786M14.8551 32.1599L14.6551 32.1589C14.6551 32.1591 14.6551 32.1594 14.655 32.1596C14.655 32.1598 14.6551 32.1601 14.6551 32.1603L14.8551 32.1599Z" stroke="white" stroke-width="0.4"/>
</g>
</g>
<defs>
<filter id="filter0_d_788_1807" x="7.1001" y="3.59961" width="25.7998" height="33.8008" filterUnits="userSpaceOnUse" color-interpolation-filters="sRGB">
<feFlood flood-opacity="0" result="BackgroundImageFix"/>
<feColorMatrix in="SourceAlpha" type="matrix" values="0 0 0 0 0 0 0 0 0 0 0 0 0 0 0 0 0 0 127 0" result="hardAlpha"/>
<feOffset dy="0.5"/>
<feGaussianBlur stdDeviation="1"/>
<feComposite in2="hardAlpha" operator="out"/>
<feColorMatrix type="matrix" values="0 0 0 0 0 0 0 0 0 0 0 0 0 0 0 0 0 0 0.25 0"/>
<feBlend mode="normal" in2="BackgroundImageFix" result="effect1_dropShadow_788_1807"/>
<feBlend mode="normal" in="SourceGraphic" in2="effect1_dropShadow_788_1807" result="shape"/>
</filter>
</defs>
</svg>
