<svg width="22" height="25" viewBox="0 0 22 25" fill="none" xmlns="http://www.w3.org/2000/svg">
<g id="Group">
<path id="Vector" d="M18.6316 6.99451H14.8344L15.9443 4.89418C15.9486 4.89418 15.953 4.89418 15.9574 4.89418C16.9974 4.89418 17.8451 4.01979 17.8451 2.94709C17.8451 1.87439 16.9974 1.00451 15.9574 1.00451C14.9174 1.00451 14.0697 1.87439 14.0697 2.94709C14.0697 3.48344 14.2794 3.96571 14.6203 4.31726L13.2089 6.99001H8.79549L7.38409 4.31726C7.72492 3.96571 7.93467 3.47893 7.93467 2.94709C7.93467 1.87439 7.08695 1 6.04697 1C5.00699 1 4.16364 1.87439 4.16364 2.94709C4.16364 4.01979 5.01136 4.89418 6.05134 4.89418C6.05571 4.89418 6.06008 4.89418 6.06445 4.89418L7.17435 6.99451H3.37273C2.0662 6.99451 1 8.09426 1 9.4419V18.8078C1 20.1554 2.0662 21.2551 3.37273 21.2551H12.9511V22.5667C12.9511 23.1707 13.305 23.698 13.8556 23.9099C14.0173 23.973 14.1833 24 14.345 24C14.7382 24 15.1228 23.8242 15.3937 23.4997L17.2727 21.2506H18.6273C19.9338 21.2506 21 20.1509 21 18.8033V9.4419C21.0044 8.08975 19.9382 6.99451 18.6316 6.99451ZM15.9574 2.47384C16.2108 2.47384 16.4162 2.68568 16.4162 2.94709C16.4162 3.2085 16.2108 3.42034 15.9574 3.42034C15.7039 3.42034 15.4986 3.2085 15.4986 2.94709C15.4986 2.68568 15.7039 2.47384 15.9574 2.47384ZM5.58816 2.94709C5.58816 2.68568 5.79353 2.47384 6.04697 2.47384C6.30041 2.47384 6.50579 2.68568 6.50579 2.94709C6.50579 3.2085 6.30041 3.42034 6.04697 3.42034C5.79353 3.42034 5.58816 3.2085 5.58816 2.94709ZM19.5755 18.8078C19.5755 19.3441 19.1516 19.7858 18.6273 19.7858H16.9449C16.7352 19.7858 16.5386 19.8805 16.4031 20.0427L14.3799 22.4631V20.516C14.3799 20.1103 14.0609 19.7813 13.6677 19.7813H3.37273C2.85274 19.7813 2.42451 19.3441 2.42451 18.8033V9.4419C2.42451 8.90555 2.84837 8.46384 3.37273 8.46384H18.6273C19.1472 8.46384 19.5755 8.90104 19.5755 9.4419V18.8078Z" fill="white" stroke="white" stroke-width="0.5"/>
<g id="Vector_2">
<path d="M7.41665 13.3338C7.57082 13.4438 7.75208 13.5025 7.9375 13.5025C8.18614 13.5025 8.4246 13.397 8.60041 13.2093C8.77623 13.0215 8.875 12.7668 8.875 12.5013C8.875 12.3032 8.82002 12.1096 8.717 11.945C8.61399 11.7803 8.46757 11.652 8.29627 11.5762C8.12496 11.5004 7.93646 11.4806 7.7546 11.5192C7.57275 11.5579 7.4057 11.6532 7.27459 11.7933C7.14348 11.9333 7.05419 12.1117 7.01801 12.3059C6.98184 12.5001 7.00041 12.7015 7.07136 12.8844C7.14232 13.0674 7.26248 13.2238 7.41665 13.3338Z" fill="white"/>
<path d="M14.342 13.0575C14.445 12.8929 14.5 12.6993 14.5 12.5013C14.5 12.2357 14.4012 11.981 14.2254 11.7933C14.0496 11.6055 13.8111 11.5 13.5625 11.5C13.3771 11.5 13.1958 11.5587 13.0417 11.6687C12.8875 11.7788 12.7673 11.9351 12.6964 12.1181C12.6254 12.301 12.6068 12.5024 12.643 12.6966C12.6792 12.8908 12.7685 13.0692 12.8996 13.2093C13.0307 13.3493 13.1977 13.4446 13.3796 13.4833C13.5615 13.5219 13.75 13.5021 13.9213 13.4263C14.0926 13.3505 14.239 13.2222 14.342 13.0575Z" fill="white"/>
<path d="M13.5485 16.0491C13.5786 15.9202 13.5596 15.7839 13.4957 15.6701C13.464 15.6137 13.4223 15.5645 13.3728 15.5254C13.3233 15.4862 13.2671 15.4578 13.2074 15.4419C13.1477 15.426 13.0856 15.4227 13.0247 15.4325C12.9638 15.4422 12.9053 15.4646 12.8525 15.4984C12.2157 15.9003 11.4896 16.1123 10.75 16.1123C10.0104 16.1123 9.28428 15.9003 8.64749 15.4984C8.59471 15.4646 8.5362 15.4422 8.47532 15.4325C8.41443 15.4228 8.35236 15.4261 8.29263 15.442C8.23291 15.4579 8.17671 15.4863 8.12725 15.5254C8.07778 15.5645 8.03601 15.6137 8.00433 15.6701C7.97265 15.7264 7.95168 15.7889 7.94261 15.8539C7.93354 15.919 7.93655 15.9853 7.95147 16.049C7.96639 16.1128 7.99293 16.1728 8.02957 16.2257C8.06621 16.2785 8.11223 16.3231 8.16501 16.3569C8.94517 16.8594 9.83895 17.125 10.75 17.125C11.6611 17.125 12.5548 16.8594 13.335 16.3569C13.4416 16.2886 13.5184 16.1779 13.5485 16.0491Z" fill="white"/>
<path d="M7.41665 13.3338C7.57082 13.4438 7.75208 13.5025 7.9375 13.5025C8.18614 13.5025 8.4246 13.397 8.60041 13.2093C8.77623 13.0215 8.875 12.7668 8.875 12.5013C8.875 12.3032 8.82002 12.1096 8.717 11.945C8.61399 11.7803 8.46757 11.652 8.29627 11.5762C8.12496 11.5004 7.93646 11.4806 7.7546 11.5192C7.57275 11.5579 7.4057 11.6532 7.27459 11.7933C7.14348 11.9333 7.05419 12.1117 7.01801 12.3059C6.98184 12.5001 7.00041 12.7015 7.07136 12.8844C7.14232 13.0674 7.26248 13.2238 7.41665 13.3338Z" stroke="white" stroke-width="0.5"/>
<path d="M14.342 13.0575C14.445 12.8929 14.5 12.6993 14.5 12.5013C14.5 12.2357 14.4012 11.981 14.2254 11.7933C14.0496 11.6055 13.8111 11.5 13.5625 11.5C13.3771 11.5 13.1958 11.5587 13.0417 11.6687C12.8875 11.7788 12.7673 11.9351 12.6964 12.1181C12.6254 12.301 12.6068 12.5024 12.643 12.6966C12.6792 12.8908 12.7685 13.0692 12.8996 13.2093C13.0307 13.3493 13.1977 13.4446 13.3796 13.4833C13.5615 13.5219 13.75 13.5021 13.9213 13.4263C14.0926 13.3505 14.239 13.2222 14.342 13.0575Z" stroke="white" stroke-width="0.5"/>
<path d="M13.5485 16.0491C13.5786 15.9202 13.5596 15.7839 13.4957 15.6701C13.464 15.6137 13.4223 15.5645 13.3728 15.5254C13.3233 15.4862 13.2671 15.4578 13.2074 15.4419C13.1477 15.426 13.0856 15.4227 13.0247 15.4325C12.9638 15.4422 12.9053 15.4646 12.8525 15.4984C12.2157 15.9003 11.4896 16.1123 10.75 16.1123C10.0104 16.1123 9.28428 15.9003 8.64749 15.4984C8.59471 15.4646 8.5362 15.4422 8.47532 15.4325C8.41443 15.4228 8.35236 15.4261 8.29263 15.442C8.23291 15.4579 8.17671 15.4863 8.12725 15.5254C8.07778 15.5645 8.03601 15.6137 8.00433 15.6701C7.97265 15.7264 7.95168 15.7889 7.94261 15.8539C7.93354 15.919 7.93655 15.9853 7.95147 16.049C7.96639 16.1128 7.99293 16.1728 8.02957 16.2257C8.06621 16.2785 8.11223 16.3231 8.16501 16.3569C8.94517 16.8594 9.83895 17.125 10.75 17.125C11.6611 17.125 12.5548 16.8594 13.335 16.3569C13.4416 16.2886 13.5184 16.1779 13.5485 16.0491Z" stroke="white" stroke-width="0.5"/>
</g>
</g>
</svg>
