<svg width="20" height="21" viewBox="0 0 20 21" fill="none" xmlns="http://www.w3.org/2000/svg">
<path d="M9.55488 21.0009C5.99691 21.0009 0 20.2479 0 17.3563C0 16.1515 1.03296 15.2178 3.07019 14.5551C3.58667 14.4045 4.13184 14.7057 4.27531 15.2479C4.41877 15.79 4.13184 16.3623 3.61536 16.5129C2.46763 16.8744 2.06592 17.2057 1.95115 17.3563C2.38155 17.8985 4.87787 18.9527 9.52619 18.9527C14.1745 18.9527 16.6708 17.8684 17.1012 17.3563C16.9578 17.2057 16.5274 16.8443 15.2936 16.4527C14.7771 16.3021 14.4901 15.7298 14.6336 15.1876C14.7771 14.6455 15.3222 14.3443 15.8387 14.4949C18.0194 15.1575 19.1098 16.0913 19.1098 17.3563C19.1098 20.2479 13.1129 21.0009 9.55488 21.0009Z" fill="#58FF58"/>
<path d="M4.82469 13.0805C5.35995 13.1597 5.89521 13.2191 6.45864 13.2784L6.85304 16.1756C6.88121 16.5516 7.33196 16.8485 7.86722 16.8485H10.9661C11.5014 16.8485 11.9521 16.5516 11.9803 16.1756L12.3747 13.2784C12.9381 13.2191 13.4734 13.1597 14.0086 13.0805C14.3749 13.0211 14.6284 12.7638 14.5721 12.5065L14.234 11.2645C14.0086 9.99778 12.4874 9.04773 10.6844 9.04773H8.17711C6.37412 9.04773 4.85286 9.99778 4.62749 11.2645L4.26126 12.5065C4.20491 12.7638 4.45846 13.0211 4.82469 13.0805Z" fill="#58FF58" stroke="#1B1B1B" stroke-width="0.5"/>
<path d="M9.50715 7.91518C11.4167 7.91518 12.9647 6.36716 12.9647 4.45759C12.9647 2.54801 11.4167 1 9.50715 1C7.59758 1 6.04956 2.54801 6.04956 4.45759C6.04956 6.36716 7.59758 7.91518 9.50715 7.91518Z" fill="#58FF58" stroke="#1B1B1B" stroke-width="0.5"/>
</svg>
