<svg width="27" height="27" viewBox="0 0 27 27" fill="none" xmlns="http://www.w3.org/2000/svg">
<mask id="mask0_1_3986" style="mask-type:alpha" maskUnits="userSpaceOnUse" x="0" y="0" width="27" height="27">
<rect width="26.9295" height="26.9295" fill="#C4C4C4"/>
</mask>
<g mask="url(#mask0_1_3986)">
<path d="M1.69833 22.7275V23.5304H2.50139V22.7275H1.69833Z" fill="#100F0D"/>
<path d="M1.69833 21.9224V22.7255H2.50139V21.9224H1.69833Z" fill="#100F0D"/>
<path d="M1.69833 21.1214V21.9243H2.50139V21.1214H1.69833Z" fill="#100F0D"/>
<path d="M1.69833 20.3166V21.1194H2.50139V20.3166H1.69833Z" fill="#100F0D"/>
<path d="M1.69833 19.5114V20.3145H2.50139V19.5114H1.69833Z" fill="#100F0D"/>
<path d="M2.5032 23.5269V24.3298H3.30609V23.5269H2.5032Z" fill="#100F0D"/>
<path d="M2.5032 22.7275V23.5304H3.30609V22.7275H2.5032Z" fill="#E21D25"/>
<path d="M2.5032 21.9224V22.7255H3.30609V21.9224H2.5032Z" fill="#E21D25"/>
<path d="M2.5032 21.1214V21.9243H3.30609V21.1214H2.5032Z" fill="#E21D25"/>
<path d="M2.5032 20.3166V21.1194H3.30609V20.3166H2.5032Z" fill="#E21D25"/>
<path d="M2.5032 19.5114V20.3145H3.30609V19.5114H2.5032Z" fill="#E21D25"/>
<path d="M2.5032 18.7123V19.5152H3.30609V18.7123H2.5032Z" fill="#100F0D"/>
<path d="M3.30811 24.3316V25.1347H4.111V24.3316H3.30811Z" fill="#100F0D"/>
<path d="M3.30811 23.5269V24.3298H4.111V23.5269H3.30811Z" fill="#E21D25"/>
<path d="M3.30811 22.7275V23.5304H4.111V22.7275H3.30811Z" fill="#E21D25"/>
<path d="M3.30811 21.9224V22.7255H4.111V21.9224H3.30811Z" fill="#E21D25"/>
<path d="M3.30811 21.1214V21.9243H4.111V21.1214H3.30811Z" fill="#E21D25"/>
<path d="M3.30811 20.3166V21.1194H4.111V20.3166H3.30811Z" fill="#E21D25"/>
<path d="M3.30811 19.5114V20.3145H4.111V19.5114H3.30811Z" fill="#E21D25"/>
<path d="M3.30811 18.7123V19.5152H4.111V18.7123H3.30811Z" fill="#E21D25"/>
<path d="M3.30811 17.9074V18.7103H4.111V17.9074H3.30811Z" fill="#100F0D"/>
<path d="M4.11298 24.3316V25.1347H4.91584V24.3316H4.11298Z" fill="#100F0D"/>
<path d="M4.11298 23.5269V24.3298H4.91584V23.5269H4.11298Z" fill="#E21D25"/>
<path d="M4.11298 22.7275V23.5304H4.91584V22.7275H4.11298Z" fill="#8C191E"/>
<path d="M4.11298 21.9224V22.7255H4.91584V21.9224H4.11298Z" fill="#8C191E"/>
<path d="M4.11298 21.1214V21.9243H4.91584V21.1214H4.11298Z" fill="#8C191E"/>
<path d="M4.11298 20.3166V21.1194H4.91584V20.3166H4.11298Z" fill="#8C191E"/>
<path d="M4.11298 19.5114V20.3145H4.91584V19.5114H4.11298Z" fill="#8C191E"/>
<path d="M4.11298 18.7123V19.5152H4.91584V18.7123H4.11298Z" fill="#E21D25"/>
<path d="M4.11298 17.9074V18.7103H4.91584V17.9074H4.11298Z" fill="#E21D25"/>
<path d="M4.11298 17.1062V17.9091H4.91584V17.1062H4.11298Z" fill="#100F0D"/>
<path d="M4.91785 24.3316V25.1347H5.72092L5.7209 24.3316H4.91785Z" fill="#100F0D"/>
<path d="M4.91785 23.5269V24.3298H5.7209V23.5269H4.91785Z" fill="#8C191E"/>
<path d="M4.91785 22.7275V23.5304H5.7209V22.7275H4.91785Z" fill="#8C191E"/>
<path d="M4.91785 21.9224V22.7255H5.7209V21.9224H4.91785Z" fill="#8C191E"/>
<path d="M4.91785 21.1214V21.9243H5.7209V21.1214H4.91785Z" fill="#8C191E"/>
<path d="M4.91785 20.3166V21.1194H5.7209V20.3166H4.91785Z" fill="#8C191E"/>
<path d="M4.91785 19.5114V20.3145H5.7209V19.5114H4.91785Z" fill="#8C191E"/>
<path d="M4.91785 18.7123V19.5152H5.7209V18.7123H4.91785Z" fill="#8C191E"/>
<path d="M4.91785 17.9074V18.7103H5.7209V17.9074H4.91785Z" fill="#E21D25"/>
<path d="M4.91785 17.1062V17.9091H5.7209V17.1062H4.91785Z" fill="#100F0D"/>
<path d="M5.72089 24.3316L5.72091 25.1347H6.52378V24.3316H5.72089Z" fill="#100F0D"/>
<path d="M5.72089 23.5269V24.3298H6.52378V23.5269H5.72089Z" fill="#8C191E"/>
<path d="M5.72089 22.7275V23.5304H6.52378V22.7275H5.72089Z" fill="#8C191E"/>
<path d="M5.72089 21.9224V22.7255H6.52378V21.9224H5.72089Z" fill="#8C191E"/>
<path d="M5.72089 21.1214V21.9243H6.52378V21.1214H5.72089Z" fill="#8C191E"/>
<path d="M5.72089 20.3166V21.1194H6.52378V20.3166H5.72089Z" fill="#8C191E"/>
<path d="M5.72089 19.5114V20.3145H6.52378V19.5114H5.72089Z" fill="#8C191E"/>
<path d="M5.72089 18.7123V19.5152H6.52378V18.7123H5.72089Z" fill="#8C191E"/>
<path d="M5.72089 17.9074V18.7103H6.52378V17.9074H5.72089Z" fill="#8C191E"/>
<path d="M5.72089 17.1062V17.9091H6.52378V17.1062H5.72089Z" fill="#100F0D"/>
<path d="M6.52209 24.3316V25.1347H7.32499V24.3316H6.52209Z" fill="#100F0D"/>
<path d="M6.52209 23.5269V24.3298H7.32499V23.5269H6.52209Z" fill="#8C191E"/>
<path d="M6.52209 22.7275V23.5304H7.32499V22.7275H6.52209Z" fill="#E21D25"/>
<path d="M6.52209 21.9224V22.7255H7.32499V21.9224H6.52209Z" fill="#E21D25"/>
<path d="M6.52209 21.1214V21.9243H7.32499V21.1214H6.52209Z" fill="#E21D25"/>
<path d="M6.52209 20.3166V21.1194H7.32499V20.3166H6.52209Z" fill="#E21D25"/>
<path d="M6.52209 19.5114V20.3145H7.32499V19.5114H6.52209Z" fill="#E21D25"/>
<path d="M6.52209 18.7123V19.5152H7.32499V18.7123H6.52209Z" fill="#8C191E"/>
<path d="M6.52209 17.9074V18.7103H7.32499V17.9074H6.52209Z" fill="#8C191E"/>
<path d="M6.52209 17.1062V17.9091H7.32499V17.1062H6.52209Z" fill="#100F0D"/>
<path d="M7.327 24.3316V25.1347H8.13005V24.3316H7.327Z" fill="#100F0D"/>
<path d="M7.327 23.5269V24.3298H8.13005V23.5269H7.327Z" fill="#E21D25"/>
<path d="M7.327 22.7275V23.5304H8.13005V22.7275H7.327Z" fill="#E21D25"/>
<path d="M7.327 21.9224V22.7255H8.13005V21.9224H7.327Z" fill="#E21D25"/>
<path d="M7.327 21.1214V21.9243H8.13005V21.1214H7.327Z" fill="#E21D25"/>
<path d="M7.327 20.3166V21.1194H8.13005V20.3166H7.327Z" fill="#E21D25"/>
<path d="M7.327 19.5114V20.3145H8.13005V19.5114H7.327Z" fill="#E21D25"/>
<path d="M7.327 18.7123V19.5152H8.13005V18.7123H7.327Z" fill="#E21D25"/>
<path d="M7.327 17.9074V18.7103H8.13005V17.9074H7.327Z" fill="#8C191E"/>
<path d="M7.327 17.1062V17.9091H8.13005V17.1062H7.327Z" fill="#100F0D"/>
<path d="M8.12637 24.3316V25.1347H8.92926V24.3316H8.12637Z" fill="#100F0D"/>
<path d="M8.12637 23.5269V24.3298H8.92926V23.5269H8.12637Z" fill="#E21D25"/>
<path d="M8.12637 22.7275V23.5304H8.92926V22.7275H8.12637Z" fill="#8C191E"/>
<path d="M8.12637 21.9224V22.7255H8.92926V21.9224H8.12637Z" fill="#8C191E"/>
<path d="M8.12637 21.1214V21.9243H8.92926V21.1214H8.12637Z" fill="#8C191E"/>
<path d="M8.12637 20.3166V21.1194H8.92926V20.3166H8.12637Z" fill="#8C191E"/>
<path d="M8.12637 19.5114V20.3145H8.92926V19.5114H8.12637Z" fill="#8C191E"/>
<path d="M8.12637 18.7123V19.5152H8.92926L8.92924 18.7123H8.12637Z" fill="#E21D25"/>
<path d="M8.12637 17.9074V18.7103H8.92924V17.9074H8.12637Z" fill="#E21D25"/>
<path d="M8.12637 17.1062V17.9091H8.92924V17.1062H8.12637Z" fill="#100F0D"/>
<path d="M8.92941 24.3316V25.1347H9.73228V24.3316H8.92941Z" fill="#100F0D"/>
<path d="M8.92941 23.5269V24.3298H9.73228V23.5269H8.92941Z" fill="#8C191E"/>
<path d="M8.92941 22.7275V23.5304H9.73228V22.7275H8.92941Z" fill="#8C191E"/>
<path d="M8.92941 21.9224V22.7255H9.73228V21.9224H8.92941Z" fill="#8C191E"/>
<path d="M8.92941 21.1214V21.9243H9.73228V21.1214H8.92941Z" fill="#8C191E"/>
<path d="M8.92941 20.3166V21.1194H9.73228V20.3166H8.92941Z" fill="#8C191E"/>
<path d="M8.92941 19.5114V20.3145H9.73228V19.5114H8.92941Z" fill="#8C191E"/>
<path d="M8.92941 18.7123L8.92944 19.5152H9.7323V18.7123H8.92941Z" fill="#8C191E"/>
<path d="M8.92941 17.9074V18.7103H9.7323V17.9074H8.92941Z" fill="#E21D25"/>
<path d="M8.92941 17.1062V17.9091H9.7323V17.1062H8.92941Z" fill="#100F0D"/>
<path d="M9.73428 24.3316V25.1347H10.5373V24.3316H9.73428Z" fill="#100F0D"/>
<path d="M9.73428 23.5269V24.3298H10.5373V23.5269H9.73428Z" fill="#8C191E"/>
<path d="M9.73428 22.7275V23.5304H10.5373V22.7275H9.73428Z" fill="#8C191E"/>
<path d="M9.73428 21.9224V22.7255H10.5373V21.9224H9.73428Z" fill="#E21D25"/>
<path d="M9.73428 21.1214V21.9243H10.5373V21.1214H9.73428Z" fill="#E21D25"/>
<path d="M9.73428 20.3166V21.1194H10.5373V20.3166H9.73428Z" fill="#E21D25"/>
<path d="M9.73428 19.5114V20.3145H10.5373V19.5114H9.73428Z" fill="#E21D25"/>
<path d="M9.73428 18.7123V19.5152H10.5373V18.7123H9.73428Z" fill="#8C191E"/>
<path d="M9.73428 17.9074V18.7103H10.5373V17.9074H9.73428Z" fill="#8C191E"/>
<path d="M9.73428 17.1062V17.9091H10.5373V17.1062H9.73428Z" fill="#100F0D"/>
<path d="M10.5355 24.3316V25.1347H11.3384V24.3316H10.5355Z" fill="#100F0D"/>
<path d="M10.5355 23.5269V24.3298H11.3384V23.5269H10.5355Z" fill="#E21D25"/>
<path d="M10.5355 22.7275V23.5304H11.3384V22.7275H10.5355Z" fill="#E21D25"/>
<path d="M10.5355 21.9224V22.7255H11.3384V21.9224H10.5355Z" fill="#E21D25"/>
<path d="M10.5355 21.1214V21.9243H11.3384V21.1214H10.5355Z" fill="#E21D25"/>
<path d="M10.5355 20.3166V21.1194H11.3384V20.3166H10.5355Z" fill="#E21D25"/>
<path d="M10.5355 19.5114V20.3145H11.3384V19.5114H10.5355Z" fill="#E21D25"/>
<path d="M10.5355 18.7123V19.5152H11.3384V18.7123H10.5355Z" fill="#E21D25"/>
<path d="M10.5355 17.9074V18.7103H11.3384V17.9074H10.5355Z" fill="#8C191E"/>
<path d="M10.5355 17.1062V17.9091H11.3384V17.1062H10.5355Z" fill="#100F0D"/>
<path d="M11.3385 24.3316V25.1347H12.1414V24.3316H11.3385Z" fill="#100F0D"/>
<path d="M11.3385 23.5269V24.3298H12.1414V23.5269H11.3385Z" fill="#E21D25"/>
<path d="M11.3385 22.7275V23.5304H12.1414V22.7275H11.3385Z" fill="#E21D25"/>
<path d="M11.3385 21.9224V22.7255H12.1414V21.9224H11.3385Z" fill="#E21D25"/>
<path d="M11.3385 21.1214V21.9243H12.1414V21.1214H11.3385Z" fill="#E21D25"/>
<path d="M11.3385 20.3166V21.1194H12.1414V20.3166H11.3385Z" fill="#E21D25"/>
<path d="M11.3385 19.5114V20.3145H12.1414V19.5114H11.3385Z" fill="#E21D25"/>
<path d="M11.3385 18.7123V19.5152H12.1414V18.7123H11.3385Z" fill="#E21D25"/>
<path d="M11.3385 17.9074V18.7103H12.1414V17.9074H11.3385Z" fill="#E21D25"/>
<path d="M11.3385 17.1062V17.9091H12.1414V17.1062H11.3385Z" fill="#100F0D"/>
<path d="M12.1416 24.3316V25.1347H12.9446V24.3316H12.1416Z" fill="#100F0D"/>
<path d="M12.1416 23.5269V24.3298H12.9446V23.5269H12.1416Z" fill="#E21D25"/>
<path d="M12.1416 22.7275V23.5304H12.9446V22.7275H12.1416Z" fill="#E21D25"/>
<path d="M12.1416 21.9224V22.7255H12.9446V21.9224H12.1416Z" fill="#E21D25"/>
<path d="M12.1416 21.1214V21.9243H12.9446V21.1214H12.1416Z" fill="#E21D25"/>
<path d="M12.1416 20.3166V21.1194H12.9446V20.3166H12.1416Z" fill="#E21D25"/>
<path d="M12.1416 19.5114V20.3145H12.9446V19.5114H12.1416Z" fill="#E21D25"/>
<path d="M12.1416 18.7123V19.5152H12.9446V18.7123H12.1416Z" fill="#E21D25"/>
<path d="M12.1416 17.9074V18.7103H12.9446V17.9074H12.1416Z" fill="#E21D25"/>
<path d="M12.1416 17.1062V17.9091H12.9446V17.1062H12.1416Z" fill="#100F0D"/>
<path d="M12.9446 24.3316V25.1347H13.7475V24.3316H12.9446Z" fill="#100F0D"/>
<path d="M12.9446 23.5269V24.3298H13.7475V23.5269H12.9446Z" fill="#E21D25"/>
<path d="M12.9446 22.7275V23.5304H13.7475V22.7275H12.9446Z" fill="#E21D25"/>
<path d="M12.9446 21.9224V22.7255H13.7475L13.7475 21.9224H12.9446Z" fill="#E21D25"/>
<path d="M12.9446 21.1214V21.9243H13.7475V21.1214H12.9446Z" fill="#8C191E"/>
<path d="M12.9446 20.3166V21.1194H13.7475V20.3166H12.9446Z" fill="#8C191E"/>
<path d="M12.9446 19.5114V20.3145H13.7475V19.5114H12.9446Z" fill="#E21D25"/>
<path d="M12.9446 18.7123V19.5152H13.7475V18.7123H12.9446Z" fill="#E21D25"/>
<path d="M12.9446 17.9074V18.7103H13.7475V17.9074H12.9446Z" fill="#E21D25"/>
<path d="M12.9446 17.1062V17.9091H13.7475V17.1062H12.9446Z" fill="#100F0D"/>
<path d="M13.7458 24.3316V25.1347H14.5487V24.3316H13.7458Z" fill="#100F0D"/>
<path d="M13.7458 23.5269V24.3298H14.5487V23.5269H13.7458Z" fill="#E21D25"/>
<path d="M13.7458 22.7275V23.5304H14.5487V22.7275H13.7458Z" fill="#E21D25"/>
<path d="M13.7458 21.9224L13.7459 22.7255H14.5487V21.9224H13.7458Z" fill="#8C191E"/>
<path d="M13.7458 21.1214V21.9243H14.5487V21.1214H13.7458Z" fill="#FEF0CD"/>
<path d="M13.7458 20.3166V21.1194H14.5487V20.3166H13.7458Z" fill="#FEF0CD"/>
<path d="M13.7458 19.5114V20.3145H14.5487V19.5114H13.7458Z" fill="#8C191E"/>
<path d="M13.7458 18.7123V19.5152H14.5487V18.7123H13.7458Z" fill="#E21D25"/>
<path d="M13.7458 17.9074V18.7103H14.5487V17.9074H13.7458Z" fill="#E21D25"/>
<path d="M13.7458 17.1062V17.9091H14.5487V17.1062H13.7458Z" fill="#100F0D"/>
<path d="M14.5526 24.3316V25.1347H15.3555V24.3316H14.5526Z" fill="#100F0D"/>
<path d="M14.5526 23.5269V24.3298H15.3555V23.5269H14.5526Z" fill="#E21D25"/>
<path d="M14.5526 22.7275V23.5304H15.3555V22.7275H14.5526Z" fill="#E21D25"/>
<path d="M14.5526 21.9224V22.7255H15.3555V21.9224H14.5526Z" fill="#8C191E"/>
<path d="M14.5526 21.1214V21.9243H15.3555V21.1214H14.5526Z" fill="#FEF0CD"/>
<path d="M14.5526 20.3166V21.1194H15.3555V20.3166H14.5526Z" fill="#FEF0CD"/>
<path d="M14.5526 19.5114V20.3145H15.3555V19.5114H14.5526Z" fill="#8C191E"/>
<path d="M14.5526 18.7123V19.5152H15.3555V18.7123H14.5526Z" fill="#E21D25"/>
<path d="M14.5526 17.9074V18.7103H15.3555V17.9074H14.5526Z" fill="#E21D25"/>
<path d="M14.5526 17.1062V17.9091H15.3555V17.1062H14.5526Z" fill="#100F0D"/>
<path d="M15.3556 24.3316V25.1347H16.1585V24.3316H15.3556Z" fill="#100F0D"/>
<path d="M15.3556 23.5269V24.3298H16.1585V23.5269H15.3556Z" fill="#E21D25"/>
<path d="M15.3556 22.7275V23.5304H16.1585V22.7275H15.3556Z" fill="#E21D25"/>
<path d="M15.3556 21.9224V22.7255H16.1585V21.9224H15.3556Z" fill="#8C191E"/>
<path d="M15.3556 21.1214V21.9243H16.1585V21.1214H15.3556Z" fill="#FEF0CD"/>
<path d="M15.3556 20.3166V21.1194H16.1585V20.3166H15.3556Z" fill="#FEF0CD"/>
<path d="M15.3556 19.5114V20.3145H16.1585V19.5114H15.3556Z" fill="#8C191E"/>
<path d="M15.3556 18.7123V19.5152H16.1585V18.7123H15.3556Z" fill="#E21D25"/>
<path d="M15.3556 17.9074V18.7103H16.1585V17.9074H15.3556Z" fill="#E21D25"/>
<path d="M15.3556 17.1062V17.9091H16.1585V17.1062H15.3556Z" fill="#100F0D"/>
<path d="M16.1568 24.3316V25.1347H16.9599V24.3316H16.1568Z" fill="#100F0D"/>
<path d="M16.1568 23.5269V24.3298H16.9599V23.5269H16.1568Z" fill="#E21D25"/>
<path d="M16.1568 22.7275V23.5304H16.9599V22.7275H16.1568Z" fill="#E21D25"/>
<path d="M16.1568 21.9224V22.7255H16.9599V21.9224H16.1568Z" fill="#8C191E"/>
<path d="M16.1568 21.1214V21.9243H16.9599V21.1214H16.1568Z" fill="#FEF0CD"/>
<path d="M16.1568 20.3166V21.1194H16.9599V20.3166H16.1568Z" fill="#FEF0CD"/>
<path d="M16.1568 19.5114V20.3145H16.9599V19.5114H16.1568Z" fill="#8C191E"/>
<path d="M16.1568 18.7123V19.5152H16.9599V18.7123H16.1568Z" fill="#E21D25"/>
<path d="M16.1568 17.9074V18.7103H16.9599V17.9074H16.1568Z" fill="#E21D25"/>
<path d="M16.1568 17.1062V17.9091H16.9599V17.1062H16.1568Z" fill="#100F0D"/>
<path d="M16.9598 24.3316V25.1347H17.7627V24.3316H16.9598Z" fill="#100F0D"/>
<path d="M16.9598 23.5269V24.3298H17.7627V23.5269H16.9598Z" fill="#E21D25"/>
<path d="M16.9598 22.7275V23.5304H17.7627V22.7275H16.9598Z" fill="#E21D25"/>
<path d="M16.9598 21.9224V22.7255H17.7627V21.9224H16.9598Z" fill="#8C191E"/>
<path d="M16.9598 21.1214V21.9243H17.7627V21.1214H16.9598Z" fill="#FEF0CD"/>
<path d="M16.9598 20.3166V21.1194H17.7627V20.3166H16.9598Z" fill="#FEF0CD"/>
<path d="M16.9598 19.5114V20.3145H17.7627V19.5114H16.9598Z" fill="#8C191E"/>
<path d="M16.9598 18.7123V19.5152H17.7627V18.7123H16.9598Z" fill="#E21D25"/>
<path d="M16.9598 17.9074V18.7103H17.7627V17.9074H16.9598Z" fill="#E21D25"/>
<path d="M16.9598 17.1062V17.9091H17.7627V17.1062H16.9598Z" fill="#100F0D"/>
<path d="M17.7611 24.3316V25.1347H18.5639V24.3316H17.7611Z" fill="#100F0D"/>
<path d="M17.7611 23.5269V24.3298H18.5639V23.5269H17.7611Z" fill="#E21D25"/>
<path d="M17.7611 22.7275V23.5304H18.5639V22.7275H17.7611Z" fill="#E21D25"/>
<path d="M17.7611 21.9224V22.7255H18.5639V21.9224H17.7611Z" fill="#8C191E"/>
<path d="M17.7611 21.1214V21.9243H18.5639V21.1214H17.7611Z" fill="#FEF0CD"/>
<path d="M17.7611 20.3166V21.1194H18.5639V20.3166H17.7611Z" fill="#FEF0CD"/>
<path d="M17.7611 19.5114V20.3145H18.5639V19.5114H17.7611Z" fill="#8C191E"/>
<path d="M17.7611 18.7123V19.5152H18.5639V18.7123H17.7611Z" fill="#E21D25"/>
<path d="M17.7611 17.9074V18.7103H18.5639V17.9074H17.7611Z" fill="#E21D25"/>
<path d="M17.7611 17.1062V17.9091H18.5639V17.1062H17.7611Z" fill="#100F0D"/>
<path d="M18.5641 24.3316V25.1347H19.367V24.3316H18.5641Z" fill="#100F0D"/>
<path d="M18.5641 23.5269V24.3298H19.367V23.5269H18.5641Z" fill="#E21D25"/>
<path d="M18.5641 22.7275V23.5304H19.367V22.7275H18.5641Z" fill="#E21D25"/>
<path d="M18.5641 21.9224V22.7255H19.367V21.9224H18.5641Z" fill="#8C191E"/>
<path d="M18.5641 21.1214V21.9243H19.367V21.1214H18.5641Z" fill="#FEF0CD"/>
<path d="M18.5641 20.3166V21.1194H19.367V20.3166H18.5641Z" fill="#FEF0CD"/>
<path d="M18.5641 19.5114V20.3145H19.367V19.5114H18.5641Z" fill="#8C191E"/>
<path d="M18.5641 18.7123V19.5152H19.367V18.7123H18.5641Z" fill="#E21D25"/>
<path d="M18.5641 17.9074V18.7103H19.367V17.9074H18.5641Z" fill="#E21D25"/>
<path d="M18.5641 17.1062V17.9091H19.367V17.1062H18.5641Z" fill="#100F0D"/>
<path d="M19.3635 24.3316V25.1347H20.1666V24.3316H19.3635Z" fill="#100F0D"/>
<path d="M19.3635 23.5269V24.3298H20.1666V23.5269H19.3635Z" fill="#E21D25"/>
<path d="M19.3635 22.7275V23.5304H20.1666V22.7275H19.3635Z" fill="#E21D25"/>
<path d="M19.3635 21.9224V22.7255H20.1666V21.9224H19.3635Z" fill="#8C191E"/>
<path d="M19.3635 21.1214V21.9243H20.1666V21.1214H19.3635Z" fill="#FEF0CD"/>
<path d="M19.3635 20.3166V21.1194H20.1666V20.3166H19.3635Z" fill="#FEF0CD"/>
<path d="M19.3635 19.5114V20.3145H20.1666V19.5114H19.3635Z" fill="#8C191E"/>
<path d="M19.3635 18.7123V19.5152H20.1666V18.7123H19.3635Z" fill="#E21D25"/>
<path d="M19.3635 17.9074V18.7103H20.1666V17.9074H19.3635Z" fill="#E21D25"/>
<path d="M19.3635 17.1062V17.9091H20.1666V17.1062H19.3635Z" fill="#100F0D"/>
<path d="M20.1702 24.3316V25.1347H20.9731V24.3316H20.1702Z" fill="#100F0D"/>
<path d="M20.1702 23.5269V24.3298H20.9731V23.5269H20.1702Z" fill="#E21D25"/>
<path d="M20.1702 22.7275V23.5304H20.9731V22.7275H20.1702Z" fill="#E21D25"/>
<path d="M20.1702 21.9224V22.7255H20.9731V21.9224H20.1702Z" fill="#8C191E"/>
<path d="M20.1702 21.1214V21.9243H20.9731V21.1214H20.1702Z" fill="#FEF0CD"/>
<path d="M20.1702 20.3166V21.1194H20.9731V20.3166H20.1702Z" fill="#FEF0CD"/>
<path d="M20.1702 19.5114V20.3145H20.9731V19.5114H20.1702Z" fill="#8C191E"/>
<path d="M20.1702 18.7123V19.5152H20.9731V18.7123H20.1702Z" fill="#E21D25"/>
<path d="M20.1702 17.9074V18.7103H20.9731V17.9074H20.1702Z" fill="#E21D25"/>
<path d="M20.1702 17.1062V17.9091H20.9731V17.1062H20.1702Z" fill="#100F0D"/>
<path d="M20.9751 24.3316V25.1347H21.7779V24.3316H20.9751Z" fill="#100F0D"/>
<path d="M20.9751 23.5269V24.3298H21.7779V23.5269H20.9751Z" fill="#E21D25"/>
<path d="M20.9751 22.7275V23.5304H21.7779V22.7275H20.9751Z" fill="#E21D25"/>
<path d="M20.9751 21.9224V22.7255H21.7779V21.9224H20.9751Z" fill="#8C191E"/>
<path d="M20.9751 21.1214V21.9243H21.7779V21.1214H20.9751Z" fill="#FEF0CD"/>
<path d="M20.9751 20.3166V21.1194H21.7779V20.3166H20.9751Z" fill="#FEF0CD"/>
<path d="M20.9751 19.5114V20.3145H21.7779V19.5114H20.9751Z" fill="#8C191E"/>
<path d="M20.9751 18.7123V19.5152H21.7779V18.7123H20.9751Z" fill="#E21D25"/>
<path d="M20.9751 17.9074V18.7103H21.7779V17.9074H20.9751Z" fill="#E21D25"/>
<path d="M20.9751 17.1062V17.9091H21.7779V17.1062H20.9751Z" fill="#100F0D"/>
<path d="M21.78 24.3316V25.1347H22.5831V24.3316H21.78Z" fill="#100F0D"/>
<path d="M21.78 23.5269V24.3298H22.5831V23.5269H21.78Z" fill="#E21D25"/>
<path d="M21.78 22.7275V23.5304H22.5831V22.7275H21.78Z" fill="#E21D25"/>
<path d="M21.78 21.9224V22.7255H22.5831V21.9224H21.78Z" fill="#8C191E"/>
<path d="M21.78 21.1214V21.9243H22.5831V21.1214H21.78Z" fill="#100F0D"/>
<path d="M21.78 20.3166V21.1194H22.5831V20.3166H21.78Z" fill="#100F0D"/>
<path d="M21.78 19.5114V20.3145H22.5831V19.5114H21.78Z" fill="#8C191E"/>
<path d="M21.78 18.7123V19.5152H22.5831V18.7123H21.78Z" fill="#E21D25"/>
<path d="M21.78 17.9074V18.7103H22.5831V17.9074H21.78Z" fill="#E21D25"/>
<path d="M21.78 17.1062V17.9091H22.5831V17.1062H21.78Z" fill="#100F0D"/>
<path d="M22.5793 24.3316V25.1347H23.3822V24.3316H22.5793Z" fill="#100F0D"/>
<path d="M22.5793 23.5269V24.3298H23.3822V23.5269H22.5793Z" fill="#E21D25"/>
<path d="M22.5793 22.7275V23.5304H23.3822V22.7275H22.5793Z" fill="#E21D25"/>
<path d="M22.5793 21.9224V22.7255H23.3822V21.9224H22.5793Z" fill="#100F0D"/>
<path d="M22.5793 19.5114V20.3145H23.3822V19.5114H22.5793Z" fill="#100F0D"/>
<path d="M22.5793 18.7123V19.5152H23.3822V18.7123H22.5793Z" fill="#E21D25"/>
<path d="M22.5793 17.9074V18.7103H23.3822V17.9074H22.5793Z" fill="#E21D25"/>
<path d="M22.5793 17.1062V17.9091H23.3822V17.1062H22.5793Z" fill="#100F0D"/>
<path d="M23.3824 24.3316V25.1347H24.1853V24.3316H23.3824Z" fill="#100F0D"/>
<path d="M23.3824 23.5269V24.3298H24.1853V23.5269H23.3824Z" fill="#E21D25"/>
<path d="M23.3824 22.7275V23.5304H24.1853V22.7275H23.3824Z" fill="#E21D25"/>
<path d="M23.3824 21.9224V22.7255H24.1853V21.9224H23.3824Z" fill="#100F0D"/>
<path d="M23.3824 18.7123V19.5152H24.1853V18.7123H23.3824Z" fill="#100F0D"/>
<path d="M23.3824 17.9074V18.7103H24.1853V17.9074H23.3824Z" fill="#100F0D"/>
<path d="M24.1854 24.3316V25.1347H24.9883V24.3316H24.1854Z" fill="#100F0D"/>
<path d="M24.1854 23.5269V24.3298H24.9883V23.5269H24.1854Z" fill="#E21D25"/>
<path d="M24.1854 22.7275V23.5304H24.9883V22.7275H24.1854Z" fill="#E21D25"/>
<path d="M24.1854 21.9224V22.7255H24.9883V21.9224H24.1854Z" fill="#100F0D"/>
<path d="M24.9866 23.5269V24.3298H25.7897V23.5269H24.9866Z" fill="#100F0D"/>
<path d="M24.9866 22.7275V23.5304H25.7897V22.7275H24.9866Z" fill="#100F0D"/>
<path d="M0.499268 15.5001V16.303H1.30232V15.5001H0.499268Z" fill="#100F0D"/>
<path d="M0.499268 14.6971V15.4999H1.30232V14.6971H0.499268Z" fill="#100F0D"/>
<path d="M0.499268 13.892V14.6951H1.30232V13.892H0.499268Z" fill="#100F0D"/>
<path d="M0.499268 13.0928V13.8957H1.30232V13.0928H0.499268Z" fill="#100F0D"/>
<path d="M0.499268 12.2898V13.0927H1.30232V12.2898H0.499268Z" fill="#100F0D"/>
<path d="M1.30231 16.3013V17.1042H2.1052V16.3013H1.30231Z" fill="#100F0D"/>
<path d="M1.30231 15.5001V16.303H2.1052V15.5001H1.30231Z" fill="#51BE37"/>
<path d="M1.30231 14.6971V15.4999H2.1052V14.6971H1.30231Z" fill="#51BE37"/>
<path d="M1.30231 13.892V14.6951H2.1052V13.892H1.30231Z" fill="#51BE37"/>
<path d="M1.30231 13.0928V13.8957H2.1052V13.0928H1.30231Z" fill="#51BE37"/>
<path d="M1.30231 12.2898V13.0927H2.1052V12.2898H1.30231Z" fill="#51BE37"/>
<path d="M1.30231 11.4847V12.2878H2.1052V11.4847H1.30231Z" fill="#100F0D"/>
<path d="M2.10718 17.106V17.9091H2.91007V17.106H2.10718Z" fill="#100F0D"/>
<path d="M2.10718 16.3013V17.1042H2.91007V16.3013H2.10718Z" fill="#51BE37"/>
<path d="M2.10718 15.5001V16.303H2.91007V15.5001H2.10718Z" fill="#51BE37"/>
<path d="M2.10718 14.6971V15.4999H2.91007V14.6971H2.10718Z" fill="#51BE37"/>
<path d="M2.10718 13.892V14.6951H2.91007V13.892H2.10718Z" fill="#51BE37"/>
<path d="M2.10718 13.0928V13.8957H2.91007V13.0928H2.10718Z" fill="#51BE37"/>
<path d="M2.10718 12.2898V13.0927H2.91007V12.2898H2.10718Z" fill="#51BE37"/>
<path d="M2.10718 11.4847V12.2878H2.91007V11.4847H2.10718Z" fill="#51BE37"/>
<path d="M2.10718 10.6819V11.4847H2.91007L2.91005 10.6819H2.10718Z" fill="#100F0D"/>
<path d="M2.90842 17.106V17.9091H3.71128V17.106H2.90842Z" fill="#100F0D"/>
<path d="M2.90842 16.3013V17.1042H3.71128V16.3013H2.90842Z" fill="#51BE37"/>
<path d="M2.90842 15.5001V16.303H3.71128V15.5001H2.90842Z" fill="#348E3A"/>
<path d="M2.90842 14.6971V15.4999H3.71128V14.6971H2.90842Z" fill="#348E3A"/>
<path d="M2.90842 13.892V14.6951H3.71128V13.892H2.90842Z" fill="#348E3A"/>
<path d="M2.90842 13.0928V13.8957H3.71128V13.0928H2.90842Z" fill="#348E3A"/>
<path d="M2.90842 12.2898V13.0927H3.71128V12.2898H2.90842Z" fill="#348E3A"/>
<path d="M2.90842 11.4847V12.2878H3.71128V11.4847H2.90842Z" fill="#51BE37"/>
<path d="M2.90842 10.6819L2.90844 11.4847H3.71131V10.6819H2.90842Z" fill="#51BE37"/>
<path d="M2.90842 9.8788V10.6817H3.71131V9.8788H2.90842Z" fill="#100F0D"/>
<path d="M3.71146 17.106V17.9091H4.51451V17.106H3.71146Z" fill="#100F0D"/>
<path d="M3.71146 16.3013V17.1042H4.51451V16.3013H3.71146Z" fill="#348E3A"/>
<path d="M3.71146 15.5001V16.303H4.51451V15.5001H3.71146Z" fill="#348E3A"/>
<path d="M3.71146 14.6971V15.4999H4.51451V14.6971H3.71146Z" fill="#348E3A"/>
<path d="M3.71146 13.892V14.6951H4.51451V13.892H3.71146Z" fill="#348E3A"/>
<path d="M3.71146 13.0928V13.8957H4.51451V13.0928H3.71146Z" fill="#348E3A"/>
<path d="M3.71146 12.2898V13.0927H4.51451V12.2898H3.71146Z" fill="#348E3A"/>
<path d="M3.71146 11.4847V12.2878H4.51451V11.4847H3.71146Z" fill="#348E3A"/>
<path d="M3.71146 10.6819V11.4847H4.51451V10.6819H3.71146Z" fill="#51BE37"/>
<path d="M3.71146 9.8788V10.6817H4.51451V9.8788H3.71146Z" fill="#100F0D"/>
<path d="M4.51816 17.106V17.9091H5.32105V17.106H4.51816Z" fill="#100F0D"/>
<path d="M4.51816 16.3013V17.1042H5.32105V16.3013H4.51816Z" fill="#348E3A"/>
<path d="M4.51816 15.5001V16.303H5.32105V15.5001H4.51816Z" fill="#348E3A"/>
<path d="M4.51816 14.6971V15.4999H5.32105V14.6971H4.51816Z" fill="#348E3A"/>
<path d="M4.51816 13.892V14.6951H5.32105V13.892H4.51816Z" fill="#348E3A"/>
<path d="M4.51816 13.0928V13.8957H5.32105V13.0928H4.51816Z" fill="#348E3A"/>
<path d="M4.51816 12.2898V13.0927H5.32105V12.2898H4.51816Z" fill="#348E3A"/>
<path d="M4.51816 11.4847V12.2878H5.32105V11.4847H4.51816Z" fill="#348E3A"/>
<path d="M4.51816 10.6819V11.4847H5.32105V10.6819H4.51816Z" fill="#348E3A"/>
<path d="M4.51816 9.8788V10.6817H5.32105V9.8788H4.51816Z" fill="#100F0D"/>
<path d="M5.31937 17.106V17.9091H6.12226V17.106H5.31937Z" fill="#100F0D"/>
<path d="M5.31937 16.3013V17.1042H6.12226V16.3013H5.31937Z" fill="#348E3A"/>
<path d="M5.31937 15.5001V16.303H6.12226V15.5001H5.31937Z" fill="#51BE37"/>
<path d="M5.31937 14.6971V15.4999H6.12226V14.6971H5.31937Z" fill="#51BE37"/>
<path d="M5.31937 13.892V14.6951H6.12226V13.892H5.31937Z" fill="#51BE37"/>
<path d="M5.31937 13.0928V13.8957H6.12226V13.0928H5.31937Z" fill="#51BE37"/>
<path d="M5.31937 12.2898V13.0927H6.12226V12.2898H5.31937Z" fill="#51BE37"/>
<path d="M5.31937 11.4847V12.2878H6.12226V11.4847H5.31937Z" fill="#348E3A"/>
<path d="M5.31937 10.6819V11.4847H6.12226V10.6819H5.31937Z" fill="#348E3A"/>
<path d="M5.31937 9.8788V10.6817H6.12226V9.8788H5.31937Z" fill="#100F0D"/>
<path d="M6.12057 17.106V17.9091H6.92363V17.106H6.12057Z" fill="#100F0D"/>
<path d="M6.12057 16.3013V17.1042H6.92363V16.3013H6.12057Z" fill="#51BE37"/>
<path d="M6.12057 15.5001V16.303H6.92363V15.5001H6.12057Z" fill="#51BE37"/>
<path d="M6.12057 14.6971V15.4999H6.92363V14.6971H6.12057Z" fill="#51BE37"/>
<path d="M6.12057 13.892V14.6951H6.92363V13.892H6.12057Z" fill="#51BE37"/>
<path d="M6.12057 13.0928V13.8957H6.92363V13.0928H6.12057Z" fill="#51BE37"/>
<path d="M6.12057 12.2898V13.0927H6.92363V12.2898H6.12057Z" fill="#51BE37"/>
<path d="M6.12057 11.4847V12.2878H6.92363V11.4847H6.12057Z" fill="#51BE37"/>
<path d="M6.12057 10.6819V11.4847H6.92363V10.6819H6.12057Z" fill="#348E3A"/>
<path d="M6.12057 9.8788V10.6817H6.92363V9.8788H6.12057Z" fill="#100F0D"/>
<path d="M6.91995 17.106V17.9091H7.72284V17.106H6.91995Z" fill="#100F0D"/>
<path d="M6.91995 16.3013V17.1042H7.72284V16.3013H6.91995Z" fill="#51BE37"/>
<path d="M6.91995 15.5001V16.303H7.72284V15.5001H6.91995Z" fill="#348E3A"/>
<path d="M6.91995 14.6971V15.4999H7.72284V14.6971H6.91995Z" fill="#348E3A"/>
<path d="M6.91995 13.892V14.6951H7.72284V13.892H6.91995Z" fill="#348E3A"/>
<path d="M6.91995 13.0928V13.8957H7.72284L7.72282 13.0928H6.91995Z" fill="#348E3A"/>
<path d="M6.91995 12.2898V13.0927H7.72282V12.2898H6.91995Z" fill="#348E3A"/>
<path d="M6.91995 11.4847V12.2878H7.72282V11.4847H6.91995Z" fill="#51BE37"/>
<path d="M6.91995 10.6819V11.4847H7.72282V10.6819H6.91995Z" fill="#51BE37"/>
<path d="M6.91995 9.8788V10.6817H7.72282V9.8788H6.91995Z" fill="#100F0D"/>
<path d="M7.72482 17.106V17.9091H8.52769V17.106H7.72482Z" fill="#100F0D"/>
<path d="M7.72482 16.3013V17.1042H8.52769V16.3013H7.72482Z" fill="#348E3A"/>
<path d="M7.72482 15.5001V16.303H8.52769V15.5001H7.72482Z" fill="#348E3A"/>
<path d="M7.72482 14.6971V15.4999H8.52769V14.6971H7.72482Z" fill="#348E3A"/>
<path d="M7.72482 13.892V14.6951H8.52769V13.892H7.72482Z" fill="#348E3A"/>
<path d="M7.72482 13.0928L7.72485 13.8957H8.52771V13.0928H7.72482Z" fill="#348E3A"/>
<path d="M7.72482 12.2898V13.0927H8.52771V12.2898H7.72482Z" fill="#348E3A"/>
<path d="M7.72482 11.4847V12.2878H8.52771V11.4847H7.72482Z" fill="#348E3A"/>
<path d="M7.72482 10.6819V11.4847H8.52771V10.6819H7.72482Z" fill="#51BE37"/>
<path d="M7.72482 9.8788V10.6817H8.52771V9.8788H7.72482Z" fill="#100F0D"/>
<path d="M8.52789 17.106V17.9091H9.33094V17.106H8.52789Z" fill="#100F0D"/>
<path d="M8.52789 16.3013V17.1042H9.33094V16.3013H8.52789Z" fill="#348E3A"/>
<path d="M8.52789 15.5001V16.303H9.33094V15.5001H8.52789Z" fill="#348E3A"/>
<path d="M8.52789 14.6971V15.4999H9.33094V14.6968L8.52789 14.6971Z" fill="#51BE37"/>
<path d="M8.52789 13.892V14.6951L9.33094 14.6948V13.892H8.52789Z" fill="#51BE37"/>
<path d="M8.52789 13.0928V13.8957H9.33094V13.0928H8.52789Z" fill="#51BE37"/>
<path d="M8.52789 12.2898V13.0927H9.33094V12.2898H8.52789Z" fill="#51BE37"/>
<path d="M8.52789 11.4847V12.2878H9.33094V11.4847H8.52789Z" fill="#348E3A"/>
<path d="M8.52789 10.6819V11.4847H9.33094V10.6819H8.52789Z" fill="#348E3A"/>
<path d="M8.52789 9.8788V10.6817H9.33094V9.8788H8.52789Z" fill="#100F0D"/>
<path d="M9.33093 17.106V17.9091H10.1338V17.106H9.33093Z" fill="#100F0D"/>
<path d="M9.33093 16.3013V17.1042H10.1338V16.3013H9.33093Z" fill="#51BE37"/>
<path d="M9.33093 15.5001V16.303H10.1338V15.5001H9.33093Z" fill="#51BE37"/>
<path d="M9.33093 14.6968V15.4999H10.1338V14.6968H9.33093Z" fill="#51BE37"/>
<path d="M9.33093 13.8922V14.6951H10.1338V13.8922H9.33093Z" fill="#51BE37"/>
<path d="M9.33093 13.0928V13.8957H10.1338V13.0928H9.33093Z" fill="#51BE37"/>
<path d="M9.33093 12.2898V13.0927H10.1338V12.2898H9.33093Z" fill="#51BE37"/>
<path d="M9.33093 11.4847V12.2878H10.1338V11.4847H9.33093Z" fill="#51BE37"/>
<path d="M9.33093 10.6819V11.4847H10.1338V10.6819H9.33093Z" fill="#348E3A"/>
<path d="M9.33093 9.8788V10.6817H10.1338V9.8788H9.33093Z" fill="#100F0D"/>
<path d="M10.1376 17.106V17.9091H10.9405V17.106H10.1376Z" fill="#100F0D"/>
<path d="M10.1376 16.3013V17.1042H10.9405V16.3013H10.1376Z" fill="#51BE37"/>
<path d="M10.1376 15.5001V16.303H10.9405V15.5001H10.1376Z" fill="#51BE37"/>
<path d="M10.1376 14.6968V15.4999H10.9405V14.6968H10.1376Z" fill="#51BE37"/>
<path d="M10.1376 13.8922V14.6951H10.9405V13.8922H10.1376Z" fill="#51BE37"/>
<path d="M10.1376 13.0928V13.8957H10.9405V13.0928H10.1376Z" fill="#51BE37"/>
<path d="M10.1376 12.2898V13.0927H10.9405V12.2898H10.1376Z" fill="#51BE37"/>
<path d="M10.1376 11.4847V12.2878H10.9405V11.4847H10.1376Z" fill="#51BE37"/>
<path d="M10.1376 10.6819V11.4847H10.9405V10.6819H10.1376Z" fill="#51BE37"/>
<path d="M10.1376 9.8788V10.6817H10.9405V9.8788H10.1376Z" fill="#100F0D"/>
<path d="M10.9407 17.106V17.9091H11.7437V17.106H10.9407Z" fill="#100F0D"/>
<path d="M10.9407 16.3013V17.1042H11.7437V16.3013H10.9407Z" fill="#51BE37"/>
<path d="M10.9407 15.5001V16.303H11.7437V15.5001H10.9407Z" fill="#51BE37"/>
<path d="M10.9407 14.6968V15.4999H11.7437V14.6968H10.9407Z" fill="#51BE37"/>
<path d="M10.9407 13.8922V14.6951H11.7437V13.8922H10.9407Z" fill="#51BE37"/>
<path d="M10.9407 13.0928V13.8957H11.7437V13.0928H10.9407Z" fill="#51BE37"/>
<path d="M10.9407 12.2898V13.0927H11.7437V12.2898H10.9407Z" fill="#51BE37"/>
<path d="M10.9407 11.4847V12.2878H11.7437V11.4847H10.9407Z" fill="#51BE37"/>
<path d="M10.9407 10.6819V11.4847H11.7437V10.6819H10.9407Z" fill="#51BE37"/>
<path d="M10.9407 9.8788V10.6817H11.7437V9.8788H10.9407Z" fill="#100F0D"/>
<path d="M11.7401 17.106V17.9091H12.5429V17.106H11.7401Z" fill="#100F0D"/>
<path d="M11.7401 16.3013V17.1042H12.5429L12.5429 16.3013H11.7401Z" fill="#51BE37"/>
<path d="M11.7401 15.5001V16.303H12.5429V15.5001H11.7401Z" fill="#51BE37"/>
<path d="M11.7401 14.6968V15.4999H12.5429V14.6968H11.7401Z" fill="#51BE37"/>
<path d="M11.7401 13.8922V14.6951H12.5429V13.8922H11.7401Z" fill="#348E3A"/>
<path d="M11.7401 13.0928V13.8957H12.5429V13.0928H11.7401Z" fill="#348E3A"/>
<path d="M11.7401 12.2898V13.0927H12.5429V12.2898H11.7401Z" fill="#51BE37"/>
<path d="M11.7401 11.4847V12.2878H12.5429V11.4847H11.7401Z" fill="#51BE37"/>
<path d="M11.7401 10.6819V11.4847H12.5429V10.6819H11.7401Z" fill="#51BE37"/>
<path d="M11.7401 9.8788V10.6817H12.5429V9.8788H11.7401Z" fill="#100F0D"/>
<path d="M12.5431 17.106V17.9091H13.346V17.106H12.5431Z" fill="#100F0D"/>
<path d="M12.5431 16.3013L12.5431 17.1042H13.346V16.3013H12.5431Z" fill="#51BE37"/>
<path d="M12.5431 15.5001V16.303H13.346V15.5001H12.5431Z" fill="#51BE37"/>
<path d="M12.5431 14.6968V15.4999H13.346V14.6968H12.5431Z" fill="#348E3A"/>
<path d="M12.5431 13.8922V14.6951H13.346V13.8922H12.5431Z" fill="#FEF0CD"/>
<path d="M12.5431 13.0928V13.8957H13.346V13.0928H12.5431Z" fill="#FEF0CD"/>
<path d="M12.5431 12.2898V13.0927H13.346V12.2898H12.5431Z" fill="#348E3A"/>
<path d="M12.5431 11.4847V12.2878H13.346V11.4847H12.5431Z" fill="#51BE37"/>
<path d="M12.5431 10.6819V11.4847H13.346V10.6819H12.5431Z" fill="#51BE37"/>
<path d="M12.5431 9.8788V10.6817H13.346V9.8788H12.5431Z" fill="#100F0D"/>
<path d="M13.3462 17.106V17.9091H14.1491V17.106H13.3462Z" fill="#100F0D"/>
<path d="M13.3462 16.3013V17.1042H14.1491V16.3013H13.3462Z" fill="#51BE37"/>
<path d="M13.3462 15.5001V16.303H14.1491V15.5001H13.3462Z" fill="#51BE37"/>
<path d="M13.3462 14.6968V15.4999H14.1491V14.6968H13.3462Z" fill="#348E3A"/>
<path d="M13.3462 13.8922V14.6951H14.1491V13.8922H13.3462Z" fill="#FEF0CD"/>
<path d="M13.3462 13.0928V13.8957H14.1491V13.0928H13.3462Z" fill="#FEF0CD"/>
<path d="M13.3462 12.2898V13.0927H14.1491V12.2898H13.3462Z" fill="#348E3A"/>
<path d="M13.3462 11.4847V12.2878H14.1491V11.4847H13.3462Z" fill="#51BE37"/>
<path d="M13.3462 10.6819V11.4847H14.1491V10.6819H13.3462Z" fill="#51BE37"/>
<path d="M13.3462 9.8788V10.6817H14.1491V9.8788H13.3462Z" fill="#100F0D"/>
<path d="M14.1474 17.106V17.9091H14.9505V17.106H14.1474Z" fill="#100F0D"/>
<path d="M14.1474 16.3013V17.1042H14.9505V16.3013H14.1474Z" fill="#51BE37"/>
<path d="M14.1474 15.5001V16.303H14.9505V15.5001H14.1474Z" fill="#51BE37"/>
<path d="M14.1474 14.6968V15.4999H14.9505V14.6968H14.1474Z" fill="#348E3A"/>
<path d="M14.1474 13.8922V14.6951H14.9505V13.8922H14.1474Z" fill="#FEF0CD"/>
<path d="M14.1474 13.0928V13.8957H14.9505V13.0928H14.1474Z" fill="#FEF0CD"/>
<path d="M14.1474 12.2898V13.0927H14.9505V12.2898H14.1474Z" fill="#348E3A"/>
<path d="M14.1474 11.4847V12.2878H14.9505V11.4847H14.1474Z" fill="#51BE37"/>
<path d="M14.1474 10.6819V11.4847H14.9505V10.6819H14.1474Z" fill="#51BE37"/>
<path d="M14.1474 9.8788V10.6817H14.9505V9.8788H14.1474Z" fill="#100F0D"/>
<path d="M14.9522 17.106V17.9091H15.7551V17.106H14.9522Z" fill="#100F0D"/>
<path d="M14.9522 16.3013V17.1042H15.7551V16.3013H14.9522Z" fill="#51BE37"/>
<path d="M14.9522 15.5001V16.303H15.7551V15.5001H14.9522Z" fill="#51BE37"/>
<path d="M14.9522 14.6968V15.4999H15.7551V14.6968H14.9522Z" fill="#348E3A"/>
<path d="M14.9522 13.8922V14.6951H15.7551V13.8922H14.9522Z" fill="#FEF0CD"/>
<path d="M14.9522 13.0928V13.8957H15.7551V13.0928H14.9522Z" fill="#FEF0CD"/>
<path d="M14.9522 12.2898V13.0927H15.7551V12.2898H14.9522Z" fill="#348E3A"/>
<path d="M14.9522 11.4847V12.2878H15.7551V11.4847H14.9522Z" fill="#51BE37"/>
<path d="M14.9522 10.6819V11.4847H15.7551V10.6819H14.9522Z" fill="#51BE37"/>
<path d="M14.9522 9.8788V10.6817H15.7551V9.8788H14.9522Z" fill="#100F0D"/>
<path d="M15.7571 17.106V17.9091H16.56V17.106H15.7571Z" fill="#100F0D"/>
<path d="M15.7571 16.3013V17.1042H16.56V16.3013H15.7571Z" fill="#51BE37"/>
<path d="M15.7571 15.5001V16.303H16.56V15.5001H15.7571Z" fill="#51BE37"/>
<path d="M15.7571 14.6968V15.4999H16.56V14.6968H15.7571Z" fill="#348E3A"/>
<path d="M15.7571 13.8922V14.6951H16.56V13.8922H15.7571Z" fill="#FEF0CD"/>
<path d="M15.7571 13.0928V13.8957H16.56V13.0928H15.7571Z" fill="#FEF0CD"/>
<path d="M15.7571 12.2898V13.0927H16.56V12.2898H15.7571Z" fill="#348E3A"/>
<path d="M15.7571 11.4847V12.2878H16.56V11.4847H15.7571Z" fill="#51BE37"/>
<path d="M15.7571 10.6819V11.4847H16.56V10.6819H15.7571Z" fill="#51BE37"/>
<path d="M15.7571 9.8788V10.6817H16.56V9.8788H15.7571Z" fill="#100F0D"/>
<path d="M16.5583 17.106V17.9091H17.3614V17.106H16.5583Z" fill="#100F0D"/>
<path d="M16.5583 16.3013V17.1042H17.3614V16.3013H16.5583Z" fill="#51BE37"/>
<path d="M16.5583 15.5001V16.303H17.3614V15.5001H16.5583Z" fill="#51BE37"/>
<path d="M16.5583 14.6968V15.4999H17.3614V14.6968H16.5583Z" fill="#348E3A"/>
<path d="M16.5583 13.8922V14.6951H17.3614V13.8922H16.5583Z" fill="#FEF0CD"/>
<path d="M16.5583 13.0928V13.8957H17.3614V13.0928H16.5583Z" fill="#FEF0CD"/>
<path d="M16.5583 12.2898V13.0927H17.3614V12.2898H16.5583Z" fill="#348E3A"/>
<path d="M16.5583 11.4847V12.2878H17.3614V11.4847H16.5583Z" fill="#51BE37"/>
<path d="M16.5583 10.6819V11.4847H17.3614V10.6819H16.5583Z" fill="#51BE37"/>
<path d="M16.5583 9.8788V10.6817H17.3614L17.3612 9.8788H16.5583Z" fill="#100F0D"/>
<path d="M17.3596 17.106V17.9091H18.1624V17.106H17.3596Z" fill="#100F0D"/>
<path d="M17.3596 16.3013V17.1042H18.1624V16.3013H17.3596Z" fill="#51BE37"/>
<path d="M17.3596 15.5001V16.303H18.1624V15.5001H17.3596Z" fill="#51BE37"/>
<path d="M17.3596 14.6968V15.4999H18.1624V14.6968H17.3596Z" fill="#348E3A"/>
<path d="M17.3596 13.8922V14.6951H18.1624V13.8922H17.3596Z" fill="#FEF0CD"/>
<path d="M17.3596 13.0928V13.8957H18.1624V13.0928H17.3596Z" fill="#FEF0CD"/>
<path d="M17.3596 12.2898V13.0927H18.1624V12.2898H17.3596Z" fill="#348E3A"/>
<path d="M17.3596 11.4847V12.2878H18.1624V11.4847H17.3596Z" fill="#51BE37"/>
<path d="M17.3596 10.6819V11.4847H18.1624V10.6819H17.3596Z" fill="#51BE37"/>
<path d="M17.3596 9.8788L17.3598 10.6817H18.1627V9.8788H17.3596Z" fill="#100F0D"/>
<path d="M18.1663 17.106V17.9091H18.9691V17.106H18.1663Z" fill="#100F0D"/>
<path d="M18.1663 16.3013V17.1042H18.9691V16.3013H18.1663Z" fill="#51BE37"/>
<path d="M18.1663 15.5001V16.303H18.9691V15.5001H18.1663Z" fill="#51BE37"/>
<path d="M18.1663 14.6968V15.4999H18.9691V14.6968H18.1663Z" fill="#348E3A"/>
<path d="M18.1663 13.8922V14.6951H18.9691V13.8922H18.1663Z" fill="#FEF0CD"/>
<path d="M18.1663 13.0928V13.8957H18.9691V13.0928H18.1663Z" fill="#FEF0CD"/>
<path d="M18.1663 12.2898V13.0927H18.9691V12.2898H18.1663Z" fill="#348E3A"/>
<path d="M18.1663 11.4847V12.2878H18.9691V11.4847H18.1663Z" fill="#51BE37"/>
<path d="M18.1663 10.6819V11.4847H18.9691V10.6819H18.1663Z" fill="#51BE37"/>
<path d="M18.1663 9.8788V10.6817H18.9691V9.8788H18.1663Z" fill="#100F0D"/>
<path d="M18.9656 17.106V17.9091H19.7685V17.106H18.9656Z" fill="#100F0D"/>
<path d="M18.9656 16.3013V17.1042H19.7685V16.3013H18.9656Z" fill="#51BE37"/>
<path d="M18.9656 15.5001V16.303H19.7685V15.5001H18.9656Z" fill="#51BE37"/>
<path d="M18.9656 14.6968V15.4999H19.7685V14.6968H18.9656Z" fill="#348E3A"/>
<path d="M18.9656 13.8922V14.6951H19.7685V13.8922H18.9656Z" fill="#FEF0CD"/>
<path d="M18.9656 13.0928V13.8957H19.7685V13.0928H18.9656Z" fill="#FEF0CD"/>
<path d="M18.9656 12.2898V13.0927H19.7685V12.2898H18.9656Z" fill="#348E3A"/>
<path d="M18.9656 11.4847V12.2878H19.7685V11.4847H18.9656Z" fill="#51BE37"/>
<path d="M18.9656 10.6819V11.4847H19.7685V10.6819H18.9656Z" fill="#51BE37"/>
<path d="M18.9656 9.8788V10.6817H19.7685V9.8788H18.9656Z" fill="#100F0D"/>
<path d="M19.7687 17.106V17.9091H20.5718V17.106H19.7687Z" fill="#100F0D"/>
<path d="M19.7687 16.3013V17.1042H20.5718V16.3013H19.7687Z" fill="#51BE37"/>
<path d="M19.7687 15.5001V16.303H20.5718V15.5001H19.7687Z" fill="#51BE37"/>
<path d="M19.7687 14.6968V15.4999H20.5718V14.6968H19.7687Z" fill="#348E3A"/>
<path d="M19.7687 13.8922V14.6951H20.5718V13.8922H19.7687Z" fill="#FEF0CD"/>
<path d="M19.7687 13.0928V13.8957H20.5718V13.0928H19.7687Z" fill="#FEF0CD"/>
<path d="M19.7687 12.2898V13.0927H20.5718V12.2896L19.7687 12.2898Z" fill="#348E3A"/>
<path d="M19.7687 11.4847V12.2878L20.5718 12.2875V11.4847H19.7687Z" fill="#51BE37"/>
<path d="M19.7687 10.6819V11.4847H20.5718V10.6819H19.7687Z" fill="#51BE37"/>
<path d="M19.7687 9.8788V10.6817H20.5718V9.8788H19.7687Z" fill="#100F0D"/>
<path d="M20.5735 17.106V17.9091H21.3764V17.106H20.5735Z" fill="#100F0D"/>
<path d="M20.5735 16.3013V17.1042H21.3764V16.3013H20.5735Z" fill="#51BE37"/>
<path d="M20.5735 15.5001V16.303H21.3764V15.5001H20.5735Z" fill="#51BE37"/>
<path d="M20.5735 14.6968V15.4999H21.3764V14.6968H20.5735Z" fill="#348E3A"/>
<path d="M20.5735 13.8922V14.6951H21.3764V13.8922H20.5735Z" fill="#100F0D"/>
<path d="M20.5735 13.0928V13.8957H21.3764V13.0928H20.5735Z" fill="#100F0D"/>
<path d="M20.5735 12.2896V13.0927H21.3764V12.2896H20.5735Z" fill="#348E3A"/>
<path d="M20.5735 11.4849V12.2878H21.3764V11.4849H20.5735Z" fill="#51BE37"/>
<path d="M20.5735 10.6819V11.4847H21.3764V10.6819H20.5735Z" fill="#51BE37"/>
<path d="M20.5735 9.8788V10.6817H21.3764V9.8788H20.5735Z" fill="#100F0D"/>
<path d="M21.3784 17.106V17.9091H22.1813V17.106H21.3784Z" fill="#100F0D"/>
<path d="M21.3784 16.3013V17.1042H22.1813V16.3013H21.3784Z" fill="#51BE37"/>
<path d="M21.3784 15.5001V16.303H22.1813V15.5001H21.3784Z" fill="#51BE37"/>
<path d="M21.3784 14.6968V15.4999H22.1813V14.6968H21.3784Z" fill="#100F0D"/>
<path d="M21.3784 12.2896V13.0927H22.1813V12.2896H21.3784Z" fill="#100F0D"/>
<path d="M21.3784 11.4849V12.2878H22.1813V11.4849H21.3784Z" fill="#51BE37"/>
<path d="M21.3784 10.6819V11.4847H22.1813V10.6819H21.3784Z" fill="#51BE37"/>
<path d="M21.3784 9.8788V10.6817H22.1813V9.8788H21.3784Z" fill="#100F0D"/>
<path d="M22.1778 17.106V17.9091H22.9807V17.106H22.1778Z" fill="#100F0D"/>
<path d="M22.1778 16.3013V17.1042H22.9807V16.3013H22.1778Z" fill="#51BE37"/>
<path d="M22.1778 15.5001V16.303H22.9807V15.5001H22.1778Z" fill="#51BE37"/>
<path d="M22.1778 14.6968V15.4999H22.9807V14.6968H22.1778Z" fill="#100F0D"/>
<path d="M22.1778 11.4849V12.2878H22.9807V11.4849H22.1778Z" fill="#100F0D"/>
<path d="M22.1778 10.6819V11.4847H22.9807V10.6819H22.1778Z" fill="#100F0D"/>
<path d="M22.9772 17.106V17.9091H23.7803V17.106H22.9772Z" fill="#100F0D"/>
<path d="M22.9772 16.3013V17.1042H23.7803V16.3013H22.9772Z" fill="#51BE37"/>
<path d="M22.9772 15.5001V16.303H23.7803V15.5001H22.9772Z" fill="#51BE37"/>
<path d="M22.9772 14.6968V15.4999H23.7803V14.6968H22.9772Z" fill="#100F0D"/>
<path d="M23.7839 16.3013V17.1042H24.5868V16.3013H23.7839Z" fill="#100F0D"/>
<path d="M23.7839 15.5001V16.303H24.5868V15.5001H23.7839Z" fill="#100F0D"/>
<path d="M2.34369 8.28922L2.34371 9.09209H3.14676V8.28922H2.34369Z" fill="#100F0D"/>
<path d="M2.34369 7.48778V8.29088H3.14676V7.48778H2.34369Z" fill="#100F0D"/>
<path d="M2.34369 6.6868V7.48967H3.14676V6.6868H2.34369Z" fill="#100F0D"/>
<path d="M2.34369 5.88192V6.68478H3.14676V5.88192H2.34369Z" fill="#100F0D"/>
<path d="M2.34369 5.07681V5.87991H3.14676V5.07681H2.34369Z" fill="#100F0D"/>
<path d="M3.14676 9.09411V9.89697H3.94963V9.09411H3.14676Z" fill="#100F0D"/>
<path d="M3.14676 8.28922V9.09209H3.94963V8.28922H3.14676Z" fill="#DB671B"/>
<path d="M3.14676 7.48778V8.29088H3.94963V7.48778H3.14676Z" fill="#DB671B"/>
<path d="M3.14676 6.6868V7.48967H3.94963V6.6868H3.14676Z" fill="#DB671B"/>
<path d="M3.14676 5.88192V6.68478H3.94963V5.88192H3.14676Z" fill="#DB671B"/>
<path d="M3.14676 5.07681V5.87991H3.94963V5.07681H3.14676Z" fill="#DB671B"/>
<path d="M3.14676 4.27767L3.14678 5.08054H3.94965V4.27767H3.14676Z" fill="#100F0D"/>
<path d="M3.95163 9.89691V10.7H4.75452V9.89691H3.95163Z" fill="#100F0D"/>
<path d="M3.95163 9.09411V9.89697H4.75452V9.09411H3.95163Z" fill="#DB671B"/>
<path d="M3.95163 8.28922V9.09209H4.75452V8.28922H3.95163Z" fill="#DB671B"/>
<path d="M3.95163 7.48778V8.29088H4.75452V7.48778H3.95163Z" fill="#DB671B"/>
<path d="M3.95163 6.6868V7.48967H4.75452V6.6868H3.95163Z" fill="#DB671B"/>
<path d="M3.95163 5.88192V6.68478H4.75452V5.88192H3.95163Z" fill="#DB671B"/>
<path d="M3.95163 5.07681V5.87991H4.75452V5.07681H3.95163Z" fill="#DB671B"/>
<path d="M3.95163 4.27767V5.08054H4.75452V4.27767H3.95163Z" fill="#DB671B"/>
<path d="M3.95163 3.47278V4.27565H4.75452V3.47278H3.95163Z" fill="#100F0D"/>
<path d="M4.75284 9.89691V10.7H5.55573V9.89691H4.75284Z" fill="#100F0D"/>
<path d="M4.75284 9.09411V9.89697H5.55573V9.09411H4.75284Z" fill="#DB671B"/>
<path d="M4.75284 8.28922V9.09209H5.55573V8.28922H4.75284Z" fill="#814C1B"/>
<path d="M4.75284 7.48778V8.29088H5.55573V7.48778H4.75284Z" fill="#814C1B"/>
<path d="M4.75284 6.6868V7.48967H5.55573V6.6868H4.75284Z" fill="#814C1B"/>
<path d="M4.75284 5.88192V6.68478H5.55573V5.88192H4.75284Z" fill="#814C1B"/>
<path d="M4.75284 5.07681V5.87991H5.55573V5.07681H4.75284Z" fill="#814C1B"/>
<path d="M4.75284 4.27767V5.08054H5.55573V4.27767H4.75284Z" fill="#DB671B"/>
<path d="M4.75284 3.47278V4.27565H5.55573L5.55571 3.47278H4.75284Z" fill="#DB671B"/>
<path d="M4.75284 2.66974V3.47261H5.55571V2.66974H4.75284Z" fill="#100F0D"/>
<path d="M5.55222 9.89691V10.7H6.35527V9.89691H5.55222Z" fill="#100F0D"/>
<path d="M5.55222 9.09411V9.89697H6.35527V9.09411H5.55222Z" fill="#814C1B"/>
<path d="M5.55222 8.28922V9.09209H6.35527V8.28922H5.55222Z" fill="#814C1B"/>
<path d="M5.55222 7.48778V8.29088H6.35527V7.48778H5.55222Z" fill="#814C1B"/>
<path d="M5.55222 6.6868V7.48967H6.35527V6.6868H5.55222Z" fill="#814C1B"/>
<path d="M5.55222 5.88192V6.68478H6.35527V5.88192H5.55222Z" fill="#814C1B"/>
<path d="M5.55222 5.07681V5.87991H6.35527V5.07681H5.55222Z" fill="#814C1B"/>
<path d="M5.55222 4.27767V5.08054H6.35527V4.27767H5.55222Z" fill="#814C1B"/>
<path d="M5.55222 3.47278L5.55224 4.27565H6.35529V3.47278H5.55222Z" fill="#DB671B"/>
<path d="M5.55222 2.66974V3.47261H6.35529V2.66974H5.55222Z" fill="#100F0D"/>
<path d="M6.35709 9.89691V10.7H7.15995V9.89691H6.35709Z" fill="#100F0D"/>
<path d="M6.35709 9.09411V9.89697H7.15995V9.09411H6.35709Z" fill="#814C1B"/>
<path d="M6.35709 8.28922V9.09209H7.15995V8.28922H6.35709Z" fill="#814C1B"/>
<path d="M6.35709 7.48778V8.29088H7.15995V7.48778H6.35709Z" fill="#814C1B"/>
<path d="M6.35709 6.6868V7.48967H7.15995V6.6868H6.35709Z" fill="#814C1B"/>
<path d="M6.35709 5.88192V6.68478H7.15995V5.88192H6.35709Z" fill="#814C1B"/>
<path d="M6.35709 5.07681V5.87991H7.15995V5.07681H6.35709Z" fill="#814C1B"/>
<path d="M6.35709 4.27767V5.08054H7.15995V4.27767H6.35709Z" fill="#814C1B"/>
<path d="M6.35709 3.47278V4.27565H7.15995V3.47278H6.35709Z" fill="#814C1B"/>
<path d="M6.35709 2.66974V3.47261H7.15995V2.66974H6.35709Z" fill="#100F0D"/>
<path d="M7.16013 9.89691V10.7H7.96302V9.89691H7.16013Z" fill="#100F0D"/>
<path d="M7.16013 9.09411V9.89697H7.96302V9.09411H7.16013Z" fill="#814C1B"/>
<path d="M7.16013 8.28922V9.09209H7.96302V8.28922H7.16013Z" fill="#DB671B"/>
<path d="M7.16013 7.48778V8.29088H7.96302V7.48778H7.16013Z" fill="#DB671B"/>
<path d="M7.16013 6.6868V7.48967H7.96302V6.6868H7.16013Z" fill="#DB671B"/>
<path d="M7.16013 5.88192V6.68478H7.96302V5.88192H7.16013Z" fill="#DB671B"/>
<path d="M7.16013 5.07681V5.87991H7.96302V5.07681H7.16013Z" fill="#DB671B"/>
<path d="M7.16013 4.27767V5.08054H7.96302V4.27767H7.16013Z" fill="#814C1B"/>
<path d="M7.16013 3.47278V4.27565H7.96302V3.47278H7.16013Z" fill="#814C1B"/>
<path d="M7.16013 2.66974V3.47261H7.96302V2.66974H7.16013Z" fill="#100F0D"/>
<path d="M7.96686 9.89691V10.7H8.76991V9.89691H7.96686Z" fill="#100F0D"/>
<path d="M7.96686 9.09411V9.89697H8.76991V9.09411H7.96686Z" fill="#DB671B"/>
<path d="M7.96686 8.28922V9.09209H8.76991V8.28922H7.96686Z" fill="#DB671B"/>
<path d="M7.96686 7.48778V8.29088H8.76991V7.48778H7.96686Z" fill="#DB671B"/>
<path d="M7.96686 6.6868V7.48967H8.76991V6.6868H7.96686Z" fill="#DB671B"/>
<path d="M7.96686 5.88192V6.68478H8.76991V5.88192H7.96686Z" fill="#DB671B"/>
<path d="M7.96686 5.07681V5.87991H8.76991V5.07681H7.96686Z" fill="#DB671B"/>
<path d="M7.96686 4.27767V5.08054H8.76991V4.27767H7.96686Z" fill="#DB671B"/>
<path d="M7.96686 3.47278V4.27565H8.76991V3.47278H7.96686Z" fill="#814C1B"/>
<path d="M7.96686 2.66974V3.47261H8.76991V2.66974H7.96686Z" fill="#100F0D"/>
<path d="M8.76807 9.89691V10.7H9.57096V9.89691H8.76807Z" fill="#100F0D"/>
<path d="M8.76807 9.09411V9.89697H9.57096V9.09411H8.76807Z" fill="#DB671B"/>
<path d="M8.76807 8.28922V9.09209H9.57096V8.28922H8.76807Z" fill="#814C1B"/>
<path d="M8.76807 7.48778V8.29088H9.57096V7.48778H8.76807Z" fill="#814C1B"/>
<path d="M8.76807 6.6868V7.48967H9.57096V6.6868H8.76807Z" fill="#814C1B"/>
<path d="M8.76807 5.88192V6.68478H9.57096V5.88192H8.76807Z" fill="#814C1B"/>
<path d="M8.76807 5.07681V5.87991H9.57096V5.07681H8.76807Z" fill="#814C1B"/>
<path d="M8.76807 4.27767V5.08054H9.57096V4.27767H8.76807Z" fill="#DB671B"/>
<path d="M8.76807 3.47278V4.27565H9.57096V3.47278H8.76807Z" fill="#DB671B"/>
<path d="M8.76807 2.66974V3.47261H9.57096V2.66974H8.76807Z" fill="#100F0D"/>
<path d="M9.56927 9.89691V10.7H10.3722V9.89691H9.56927Z" fill="#100F0D"/>
<path d="M9.56927 9.09411V9.89697H10.3722V9.09411H9.56927Z" fill="#814C1B"/>
<path d="M9.56927 8.28922V9.09209H10.3722V8.28922H9.56927Z" fill="#814C1B"/>
<path d="M9.56927 7.48778V8.29088H10.3722V7.48778H9.56927Z" fill="#814C1B"/>
<path d="M9.56927 6.6868V7.48967H10.3722V6.6868H9.56927Z" fill="#814C1B"/>
<path d="M9.56927 5.88192V6.68478H10.3722L10.3721 5.88192H9.56927Z" fill="#814C1B"/>
<path d="M9.56927 5.07681V5.87991H10.3721V5.07681H9.56927Z" fill="#814C1B"/>
<path d="M9.56927 4.27767V5.08054H10.3721V4.27767H9.56927Z" fill="#814C1B"/>
<path d="M9.56927 3.47278V4.27565H10.3721V3.47278H9.56927Z" fill="#DB671B"/>
<path d="M9.56927 2.66974V3.47261H10.3721V2.66974H9.56927Z" fill="#100F0D"/>
<path d="M10.3723 9.89691V10.7H11.1754V9.89691H10.3723Z" fill="#100F0D"/>
<path d="M10.3723 9.09411V9.89697H11.1754V9.09411H10.3723Z" fill="#814C1B"/>
<path d="M10.3723 8.28922V9.09209H11.1754V8.28922H10.3723Z" fill="#814C1B"/>
<path d="M10.3723 7.48778V8.29088H11.1754V7.48778H10.3723Z" fill="#DB671B"/>
<path d="M10.3723 6.6868V7.48967H11.1754V6.6868H10.3723Z" fill="#DB671B"/>
<path d="M10.3723 5.88192L10.3723 6.68478H11.1754V5.88192H10.3723Z" fill="#DB671B"/>
<path d="M10.3723 5.07681V5.87991H11.1754V5.07681H10.3723Z" fill="#DB671B"/>
<path d="M10.3723 4.27767V5.08054H11.1754V4.27767H10.3723Z" fill="#814C1B"/>
<path d="M10.3723 3.47278V4.27565H11.1754V3.47278H10.3723Z" fill="#814C1B"/>
<path d="M10.3723 2.66974V3.47261H11.1754V2.66974H10.3723Z" fill="#100F0D"/>
<path d="M11.1735 9.89691V10.7H11.9764V9.89691H11.1735Z" fill="#100F0D"/>
<path d="M11.1735 9.09411V9.89697H11.9764V9.09411H11.1735Z" fill="#DB671B"/>
<path d="M11.1735 8.28922V9.09209H11.9764V8.28922H11.1735Z" fill="#DB671B"/>
<path d="M11.1735 7.48778V8.29088H11.9764V7.48778H11.1735Z" fill="#DB671B"/>
<path d="M11.1735 6.6868V7.48967H11.9764V6.6868H11.1735Z" fill="#DB671B"/>
<path d="M11.1735 5.88192V6.68478H11.9764V5.88192H11.1735Z" fill="#DB671B"/>
<path d="M11.1735 5.07681V5.87991H11.9764V5.07681H11.1735Z" fill="#DB671B"/>
<path d="M11.1735 4.27767V5.08054H11.9764V4.27767H11.1735Z" fill="#DB671B"/>
<path d="M11.1735 3.47278V4.27565H11.9764V3.47278H11.1735Z" fill="#814C1B"/>
<path d="M11.1735 2.66974V3.47261H11.9764V2.66974H11.1735Z" fill="#100F0D"/>
<path d="M11.9747 9.89691V10.7H12.7776V9.89691H11.9747Z" fill="#100F0D"/>
<path d="M11.9747 9.09411V9.89697H12.7776V9.09411H11.9747Z" fill="#DB671B"/>
<path d="M11.9747 8.28922V9.09209H12.7776V8.28922H11.9747Z" fill="#DB671B"/>
<path d="M11.9747 7.48778V8.29088H12.7776V7.48778H11.9747Z" fill="#DB671B"/>
<path d="M11.9747 6.6868V7.48967H12.7776V6.6868H11.9747Z" fill="#DB671B"/>
<path d="M11.9747 5.88192V6.68478H12.7776V5.88192H11.9747Z" fill="#DB671B"/>
<path d="M11.9747 5.07681V5.87991H12.7776V5.07681H11.9747Z" fill="#DB671B"/>
<path d="M11.9747 4.27767V5.08054H12.7776V4.27767H11.9747Z" fill="#DB671B"/>
<path d="M11.9747 3.47278V4.27565H12.7776V3.47278H11.9747Z" fill="#DB671B"/>
<path d="M11.9747 2.66974V3.47261H12.7776V2.66974H11.9747Z" fill="#100F0D"/>
<path d="M12.7815 9.89691V10.7H13.5845V9.89691H12.7815Z" fill="#100F0D"/>
<path d="M12.7815 9.09411V9.89697H13.5845V9.09411H12.7815Z" fill="#DB671B"/>
<path d="M12.7815 8.28922V9.09209H13.5845V8.28922H12.7815Z" fill="#DB671B"/>
<path d="M12.7815 7.48778V8.29088H13.5845V7.48778H12.7815Z" fill="#DB671B"/>
<path d="M12.7815 6.6868V7.48967H13.5845V6.6868H12.7815Z" fill="#DB671B"/>
<path d="M12.7815 5.88192V6.68478H13.5845V5.88192H12.7815Z" fill="#DB671B"/>
<path d="M12.7815 5.07681V5.87991H13.5845V5.07681H12.7815Z" fill="#DB671B"/>
<path d="M12.7815 4.27767V5.08054H13.5845V4.27767H12.7815Z" fill="#DB671B"/>
<path d="M12.7815 3.47278V4.27565H13.5845V3.47278H12.7815Z" fill="#DB671B"/>
<path d="M12.7815 2.66974V3.47261H13.5845V2.66974H12.7815Z" fill="#100F0D"/>
<path d="M13.5863 9.89691V10.7H14.3892V9.89691H13.5863Z" fill="#100F0D"/>
<path d="M13.5863 9.09411V9.89697H14.3892V9.09411H13.5863Z" fill="#DB671B"/>
<path d="M13.5863 8.28922V9.09209H14.3892V8.28922H13.5863Z" fill="#DB671B"/>
<path d="M13.5863 7.48778V8.29088H14.3892V7.48778H13.5863Z" fill="#DB671B"/>
<path d="M13.5863 6.6868V7.48967H14.3892V6.6868H13.5863Z" fill="#814C1B"/>
<path d="M13.5863 5.88192V6.68478H14.3892V5.88192H13.5863Z" fill="#814C1B"/>
<path d="M13.5863 5.07681V5.87991H14.3892V5.07681H13.5863Z" fill="#DB671B"/>
<path d="M13.5863 4.27767V5.08054H14.3892V4.27767H13.5863Z" fill="#DB671B"/>
<path d="M13.5863 3.47278V4.27565H14.3892V3.47278H13.5863Z" fill="#DB671B"/>
<path d="M13.5863 2.66974V3.47261H14.3892V2.66974H13.5863Z" fill="#100F0D"/>
<path d="M14.3912 9.89691V10.7H15.1941V9.89691H14.3912Z" fill="#100F0D"/>
<path d="M14.3912 9.09411V9.89697H15.1941V9.09411H14.3912Z" fill="#DB671B"/>
<path d="M14.3912 8.28922V9.09209H15.1941V8.28922H14.3912Z" fill="#DB671B"/>
<path d="M14.3912 7.48778V8.29088H15.1941V7.48778H14.3912Z" fill="#814C1B"/>
<path d="M14.3912 6.6868V7.48967H15.1941V6.6868H14.3912Z" fill="#FEF0CD"/>
<path d="M14.3912 5.88192V6.68478H15.1941V5.88192H14.3912Z" fill="#FEF0CD"/>
<path d="M14.3912 5.07681V5.87991H15.1941V5.07681H14.3912Z" fill="#814C1B"/>
<path d="M14.3912 4.27767V5.08054H15.1941V4.27767H14.3912Z" fill="#DB671B"/>
<path d="M14.3912 3.47278V4.27565H15.1941V3.47278H14.3912Z" fill="#DB671B"/>
<path d="M14.3912 2.66974V3.47261H15.1941V2.66974H14.3912Z" fill="#100F0D"/>
<path d="M15.1906 9.89691V10.7H15.9934V9.89691H15.1906Z" fill="#100F0D"/>
<path d="M15.1906 9.09411V9.89697H15.9934V9.09411H15.1906Z" fill="#DB671B"/>
<path d="M15.1906 8.28922V9.09209H15.9934V8.28922H15.1906Z" fill="#DB671B"/>
<path d="M15.1906 7.48778V8.29088H15.9934V7.48778H15.1906Z" fill="#814C1B"/>
<path d="M15.1906 6.6868V7.48967H15.9934V6.6868H15.1906Z" fill="#FEF0CD"/>
<path d="M15.1906 5.88192V6.68478H15.9934V5.88192H15.1906Z" fill="#FEF0CD"/>
<path d="M15.1906 5.07681V5.87991H15.9934V5.07681H15.1906Z" fill="#814C1B"/>
<path d="M15.1906 4.27767V5.08054H15.9934V4.27767H15.1906Z" fill="#DB671B"/>
<path d="M15.1906 3.47278V4.27565H15.9934V3.47278H15.1906Z" fill="#DB671B"/>
<path d="M15.1906 2.66974V3.47261H15.9934V2.66974H15.1906Z" fill="#100F0D"/>
<path d="M15.9936 9.89691V10.7H16.7967V9.89691H15.9936Z" fill="#100F0D"/>
<path d="M15.9936 9.09411V9.89697H16.7967V9.09411H15.9936Z" fill="#DB671B"/>
<path d="M15.9936 8.28922V9.09209H16.7967V8.28922H15.9936Z" fill="#DB671B"/>
<path d="M15.9936 7.48778V8.29088H16.7967V7.48778H15.9936Z" fill="#814C1B"/>
<path d="M15.9936 6.6868V7.48967H16.7967V6.6868H15.9936Z" fill="#FEF0CD"/>
<path d="M15.9936 5.88192V6.68478H16.7967V5.88192H15.9936Z" fill="#FEF0CD"/>
<path d="M15.9936 5.07681V5.87991H16.7967V5.07681H15.9936Z" fill="#814C1B"/>
<path d="M15.9936 4.27767V5.08054H16.7967V4.27767H15.9936Z" fill="#DB671B"/>
<path d="M15.9936 3.47278V4.27565H16.7967V3.47278H15.9936Z" fill="#DB671B"/>
<path d="M15.9936 2.66974V3.47261H16.7967V2.66974H15.9936Z" fill="#100F0D"/>
<path d="M16.7948 9.89691V10.7H17.5977V9.89691H16.7948Z" fill="#100F0D"/>
<path d="M16.7948 9.09411V9.89697H17.5977V9.09411H16.7948Z" fill="#DB671B"/>
<path d="M16.7948 8.28922V9.09209H17.5977V8.28922H16.7948Z" fill="#DB671B"/>
<path d="M16.7948 7.48778V8.29088H17.5977V7.48778H16.7948Z" fill="#814C1B"/>
<path d="M16.7948 6.6868V7.48967H17.5977V6.6868H16.7948Z" fill="#FEF0CD"/>
<path d="M16.7948 5.88192V6.68478H17.5977V5.88192H16.7948Z" fill="#FEF0CD"/>
<path d="M16.7948 5.07681V5.87991H17.5977V5.07681H16.7948Z" fill="#814C1B"/>
<path d="M16.7948 4.27767V5.08054H17.5977V4.27767H16.7948Z" fill="#DB671B"/>
<path d="M16.7948 3.47278V4.27565H17.5977V3.47278H16.7948Z" fill="#DB671B"/>
<path d="M16.7948 2.66974V3.47261H17.5977V2.66974H16.7948Z" fill="#100F0D"/>
<path d="M17.5979 9.89691V10.7H18.4008V9.89691H17.5979Z" fill="#100F0D"/>
<path d="M17.5979 9.09411V9.89697H18.4008V9.09411H17.5979Z" fill="#DB671B"/>
<path d="M17.5979 8.28922V9.09209H18.4008V8.28922H17.5979Z" fill="#DB671B"/>
<path d="M17.5979 7.48778V8.29088H18.4008V7.48778H17.5979Z" fill="#814C1B"/>
<path d="M17.5979 6.6868V7.48967H18.4008V6.6868H17.5979Z" fill="#FEF0CD"/>
<path d="M17.5979 5.88192V6.68478H18.4008V5.88192H17.5979Z" fill="#FEF0CD"/>
<path d="M17.5979 5.07681V5.87991H18.4008V5.07681H17.5979Z" fill="#814C1B"/>
<path d="M17.5979 4.27767V5.08054H18.4008V4.27767H17.5979Z" fill="#DB671B"/>
<path d="M17.5979 3.47278V4.27565H18.4008V3.47278H17.5979Z" fill="#DB671B"/>
<path d="M17.5979 2.66974V3.47261H18.4008V2.66974H17.5979Z" fill="#100F0D"/>
<path d="M18.4009 9.89691V10.7H19.204V9.89691H18.4009Z" fill="#100F0D"/>
<path d="M18.4009 9.09411V9.89697H19.204V9.09411H18.4009Z" fill="#DB671B"/>
<path d="M18.4009 8.28922V9.09209H19.204V8.28922H18.4009Z" fill="#DB671B"/>
<path d="M18.4009 7.48778V8.29088H19.204V7.48778H18.4009Z" fill="#814C1B"/>
<path d="M18.4009 6.6868V7.48967H19.204V6.6868H18.4009Z" fill="#FEF0CD"/>
<path d="M18.4009 5.88192V6.68478H19.204V5.88192H18.4009Z" fill="#FEF0CD"/>
<path d="M18.4009 5.07681V5.87991H19.204V5.07681H18.4009Z" fill="#814C1B"/>
<path d="M18.4009 4.27767V5.08054H19.204V4.27767H18.4009Z" fill="#DB671B"/>
<path d="M18.4009 3.47278V4.27565H19.204V3.47278H18.4009Z" fill="#DB671B"/>
<path d="M18.4009 2.66974V3.47261H19.204V2.66974H18.4009Z" fill="#100F0D"/>
<path d="M19.204 9.89691V10.7H20.0068V9.89691H19.204Z" fill="#100F0D"/>
<path d="M19.204 9.09411V9.89697H20.0068V9.09411H19.204Z" fill="#DB671B"/>
<path d="M19.204 8.28922V9.09209H20.0068V8.28922H19.204Z" fill="#DB671B"/>
<path d="M19.204 7.48778V8.29088H20.0068V7.48778H19.204Z" fill="#814C1B"/>
<path d="M19.204 6.6868V7.48967H20.0068V6.6868H19.204Z" fill="#FEF0CD"/>
<path d="M19.204 5.88192V6.68478H20.0068V5.88192H19.204Z" fill="#FEF0CD"/>
<path d="M19.204 5.07681V5.87991H20.0068V5.07681H19.204Z" fill="#814C1B"/>
<path d="M19.204 4.27767V5.08054H20.0068V4.27767H19.204Z" fill="#DB671B"/>
<path d="M19.204 3.47278V4.27565H20.0068V3.47278H19.204Z" fill="#DB671B"/>
<path d="M19.204 2.66974V3.47261H20.0068V2.66974H19.204Z" fill="#100F0D"/>
<path d="M20.0107 9.89691V10.7H20.8135V9.89691H20.0107Z" fill="#100F0D"/>
<path d="M20.0107 9.09411V9.89697H20.8135V9.09411H20.0107Z" fill="#DB671B"/>
<path d="M20.0107 8.28922V9.09209H20.8135V8.28922H20.0107Z" fill="#DB671B"/>
<path d="M20.0107 7.48778V8.29088H20.8135V7.48778H20.0107Z" fill="#814C1B"/>
<path d="M20.0107 6.6868V7.48967H20.8135V6.6868H20.0107Z" fill="#FEF0CD"/>
<path d="M20.0107 5.88192V6.68478H20.8135V5.88192H20.0107Z" fill="#FEF0CD"/>
<path d="M20.0107 5.07681V5.87991H20.8135V5.07681H20.0107Z" fill="#814C1B"/>
<path d="M20.0107 4.27767V5.08054H20.8135V4.27767H20.0107Z" fill="#DB671B"/>
<path d="M20.0107 3.47278V4.27565H20.8135V3.47278H20.0107Z" fill="#DB671B"/>
<path d="M20.0107 2.66974V3.47261H20.8135V2.66974H20.0107Z" fill="#100F0D"/>
<path d="M20.8137 9.89691V10.7H21.6168L21.6166 9.89691H20.8137Z" fill="#100F0D"/>
<path d="M20.8137 9.09411V9.89697H21.6166V9.09411H20.8137Z" fill="#DB671B"/>
<path d="M20.8137 8.28922V9.09209H21.6166V8.28922H20.8137Z" fill="#DB671B"/>
<path d="M20.8137 7.48778V8.29088H21.6166V7.48778H20.8137Z" fill="#814C1B"/>
<path d="M20.8137 6.6868V7.48967H21.6166V6.6868H20.8137Z" fill="#FEF0CD"/>
<path d="M20.8137 5.88192V6.68478H21.6166V5.88192H20.8137Z" fill="#FEF0CD"/>
<path d="M20.8137 5.07681V5.87991H21.6166V5.07681H20.8137Z" fill="#814C1B"/>
<path d="M20.8137 4.27767V5.08054H21.6166V4.27767H20.8137Z" fill="#DB671B"/>
<path d="M20.8137 3.47278V4.27565H21.6166V3.47278H20.8137Z" fill="#DB671B"/>
<path d="M20.8137 2.66974V3.47261H21.6166V2.66974H20.8137Z" fill="#100F0D"/>
<path d="M21.6168 9.89691L21.617 10.7H22.4199V9.89691H21.6168Z" fill="#100F0D"/>
<path d="M21.6168 9.09411V9.89697H22.4199V9.09411H21.6168Z" fill="#DB671B"/>
<path d="M21.6168 8.28922V9.09209H22.4199V8.28922H21.6168Z" fill="#DB671B"/>
<path d="M21.6168 7.48778V8.29088H22.4199V7.48778H21.6168Z" fill="#814C1B"/>
<path d="M21.6168 6.6868V7.48967H22.4199V6.6868H21.6168Z" fill="#FEF0CD"/>
<path d="M21.6168 5.88192V6.68478H22.4199V5.88192H21.6168Z" fill="#FEF0CD"/>
<path d="M21.6168 5.07681V5.87991H22.4199V5.07681H21.6168Z" fill="#814C1B"/>
<path d="M21.6168 4.27767V5.08054H22.4199V4.27767H21.6168Z" fill="#DB671B"/>
<path d="M21.6168 3.47278V4.27565H22.4199V3.47278H21.6168Z" fill="#DB671B"/>
<path d="M21.6168 2.66974V3.47261H22.4199V2.66974H21.6168Z" fill="#100F0D"/>
<path d="M22.4162 9.89691V10.7H23.219V9.89691H22.4162Z" fill="#100F0D"/>
<path d="M22.4162 9.09411V9.89697H23.219V9.09411H22.4162Z" fill="#DB671B"/>
<path d="M22.4162 8.28922V9.09209H23.219V8.28922H22.4162Z" fill="#DB671B"/>
<path d="M22.4162 7.48778V8.29088H23.219V7.48778H22.4162Z" fill="#814C1B"/>
<path d="M22.4162 6.6868V7.48967H23.219V6.6868H22.4162Z" fill="#100F0D"/>
<path d="M22.4162 5.88192V6.68478H23.219V5.88192H22.4162Z" fill="#100F0D"/>
<path d="M22.4162 5.07681V5.87991H23.219V5.07681H22.4162Z" fill="#814C1B"/>
<path d="M22.4162 4.27767V5.08054H23.219V4.27767H22.4162Z" fill="#DB671B"/>
<path d="M22.4162 3.47278V4.27565H23.219V3.47278H22.4162Z" fill="#DB671B"/>
<path d="M22.4162 2.66974V3.47261H23.219V2.66974H22.4162Z" fill="#100F0D"/>
<path d="M23.2192 9.89691V10.7H24.0221V9.89691H23.2192Z" fill="#100F0D"/>
<path d="M23.2192 9.09411V9.89697H24.0221V9.09411H23.2192Z" fill="#DB671B"/>
<path d="M23.2192 8.28922V9.09209H24.0221V8.28922H23.2192Z" fill="#DB671B"/>
<path d="M23.2192 7.48778V8.29088H24.0221V7.48778H23.2192Z" fill="#100F0D"/>
<path d="M23.2192 5.07681V5.87991H24.0221V5.07681H23.2192Z" fill="#100F0D"/>
<path d="M23.2192 4.27767V5.08054H24.0221V4.27767H23.2192Z" fill="#DB671B"/>
<path d="M23.2192 3.47278V4.27565H24.0221V3.47278H23.2192Z" fill="#DB671B"/>
<path d="M23.2192 2.66974V3.47261H24.0221V2.66974H23.2192Z" fill="#100F0D"/>
<path d="M24.0241 9.89691V10.7H24.8272V9.89691H24.0241Z" fill="#100F0D"/>
<path d="M24.0241 9.09411V9.89697H24.8272V9.09411H24.0241Z" fill="#DB671B"/>
<path d="M24.0241 8.28922V9.09209H24.8272V8.28922H24.0241Z" fill="#DB671B"/>
<path d="M24.0241 7.48778V8.29088H24.8272V7.48778H24.0241Z" fill="#100F0D"/>
<path d="M24.0241 4.27767V5.08054H24.8269V4.27767H24.0241Z" fill="#100F0D"/>
<path d="M24.0241 3.47278V4.27565H24.8269V3.47278H24.0241Z" fill="#100F0D"/>
<path d="M24.8216 9.89691V10.7H25.6245V9.89691H24.8216Z" fill="#100F0D"/>
<path d="M24.8216 9.09411V9.89697H25.6245V9.09411H24.8216Z" fill="#DB671B"/>
<path d="M24.8216 8.28922V9.09209H25.6245V8.28922H24.8216Z" fill="#DB671B"/>
<path d="M24.8216 7.48778V8.29088H25.6245V7.48778H24.8216Z" fill="#100F0D"/>
<path d="M25.6283 9.09411V9.89697H26.4312V9.09411H25.6283Z" fill="#100F0D"/>
<path d="M25.6283 8.28922V9.09209H26.4312V8.28922H25.6283Z" fill="#100F0D"/>
</g>
</svg>
