<svg width="23" height="20" viewBox="0 0 23 20" fill="none" xmlns="http://www.w3.org/2000/svg">
<circle cx="6.76988" cy="7.42613" r="6.31089" fill="black"/>
<circle cx="15.7201" cy="7.42614" r="6.31089" fill="black"/>
<circle cx="11.2284" cy="12.442" r="6.31089" fill="black"/>
<path d="M15.6319 1.66877C15.6807 1.66877 15.7298 1.67002 15.7785 1.6719C16.921 1.7409 18.1344 2.37609 19.1096 3.41613C20.1198 4.49351 20.7379 5.87081 20.8064 7.19529C20.8257 7.69673 20.7813 8.17701 20.6708 8.66291C20.5984 8.95707 20.3683 9.71612 20.133 10.139C20.1238 10.1556 20.115 10.1719 20.1062 10.189C19.2562 11.8469 17.8083 13.2852 16.5029 14.4736C16.0188 14.9131 15.5849 15.2912 15.1366 15.663C14.2563 16.3944 13.3545 17.0727 12.1068 18.0118L12.105 18.0131C11.8245 18.2248 11.533 18.3318 11.2389 18.3318C10.9447 18.3318 10.6537 18.2248 10.3735 18.0135L10.3708 18.0114C8.51056 16.6135 7.38931 15.76 5.97745 14.4749C4.67914 13.2921 3.23833 11.8621 2.38659 10.2152C2.26272 9.94688 1.94926 9.2151 1.80439 8.64466C1.69682 8.16438 1.65339 7.68976 1.67268 7.19458C1.7412 5.86962 2.35928 4.49276 3.36954 3.41543C4.3442 2.37586 5.55769 1.74048 6.70013 1.67152C6.74889 1.66932 6.79797 1.66838 6.84626 1.66838C7.29676 1.66838 7.73703 1.76324 8.15505 1.9503C8.43384 2.07496 8.70698 2.24179 8.96633 2.4464C9.62757 2.96715 10.4134 3.24231 11.2396 3.24231C12.0659 3.24231 12.8518 2.96697 13.5129 2.4464C14.168 1.93051 14.8812 1.66877 15.6319 1.66877ZM15.6317 3.29217e-05C14.4621 3.29217e-05 13.3926 0.417134 12.4807 1.13541C12.1097 1.42784 11.6746 1.85732 11.2395 1.85732C10.8043 1.85732 10.3692 1.42737 9.99823 1.13541C9.63508 0.849095 9.24623 0.610291 8.83603 0.42729C8.21699 0.150227 7.55013 0.000153354 6.84594 0.000153354C6.76864 0.000153354 6.69134 0.0018781 6.61325 0.00548437C3.34589 0.193957 0.187947 3.49723 0.00610961 7.1196C-0.0211736 7.7926 0.0438984 8.42795 0.181725 9.03286C0.402498 9.91704 0.888119 10.9497 0.888119 10.9497C1.85888 12.8429 3.44239 14.4225 4.85389 15.7084C6.32998 17.0519 7.49205 17.9348 9.3685 19.3449C9.94709 19.7818 10.593 20 11.2388 20C11.8847 20 12.5309 19.7814 13.1101 19.3446C14.3776 18.3909 15.3008 17.6955 16.2031 16.9457C16.665 16.5625 17.1229 16.1638 17.6243 15.7086C19.0358 14.4231 20.6195 12.8434 21.5901 10.9499C22.0133 10.1891 22.2982 9.03302 22.2965 9.03302C22.4343 8.42811 22.4989 7.79276 22.4721 7.11976C22.2908 3.49675 19.1323 0.193904 15.8649 0.005645C15.7864 0.0021954 15.7086 0 15.631 0L15.6317 3.29217e-05Z" fill="black"/>
</svg>
