<svg width="48" height="48" viewBox="0 0 48 48" fill="none" xmlns="http://www.w3.org/2000/svg">
<circle cx="23.5958" cy="23.5958" r="19.5958" transform="rotate(-90 23.5958 23.5958)" stroke="#7CF7FF" stroke-opacity="0.4" stroke-width="7.76383"/>
<path d="M15.2666 10.2716C17.0846 9.13517 17.637 6.74017 16.5006 4.92224C15.3641 3.1043 12.9691 2.55186 11.1512 3.68831L15.2666 10.2716ZM5.98042 15.0127L9.47012 16.713L5.98042 15.0127ZM4.10902 25.6556L0.248606 26.0636L4.10902 25.6556ZM3.83085 36.2662C4.98785 38.0711 7.38897 38.5964 9.19389 37.4394C10.9988 36.2824 11.5241 33.8813 10.3671 32.0763L3.83085 36.2662ZM11.1512 3.68831C7.41941 6.02118 4.41847 9.35598 2.49073 13.3123L9.47012 16.713C10.7604 14.0651 12.7689 11.833 15.2666 10.2716L11.1512 3.68831ZM2.49073 13.3123C0.562991 17.2686 -0.213929 21.687 0.248606 26.0636L7.96944 25.2476C7.65986 22.3184 8.17986 19.361 9.47012 16.713L2.49073 13.3123ZM0.248606 26.0636C0.633639 29.7069 1.86465 33.1989 3.83085 36.2662L10.3671 32.0763C9.05106 30.0234 8.22714 27.6861 7.96944 25.2476L0.248606 26.0636Z" fill="#7CF7FF"/>
</svg>
