<svg width="11" height="12" viewBox="0 0 11 12" fill="none" xmlns="http://www.w3.org/2000/svg">
<g id="Group">
<path id="Vector" d="M10.6063 4.91461C10.4241 4.70632 10.2462 4.5003 10.0672 4.2621C9.98579 4.16704 9.91838 4.06574 9.847 3.95876C9.77561 3.85177 9.70176 3.741 9.61371 3.63837C9.28784 3.24717 8.91917 2.89213 8.67339 2.66927L8.56091 2.546C8.27045 2.22656 7.94116 1.86452 7.60942 1.63502C7.43805 1.50645 7.26669 1.38508 7.09533 1.2637C6.92586 1.14365 6.75638 1.0236 6.57707 0.890109C6.49621 0.843907 6.42218 0.784829 6.3506 0.727834C6.25252 0.649631 6.15121 0.568967 6.04309 0.52428C5.95201 0.463687 5.88934 0.432444 5.83405 0.404798L5.81417 0.394763H5.79163C5.76342 0.394763 5.70889 0.38094 5.67954 0.371094L5.66837 0.40442C5.25179 0.373744 4.90755 0.692235 4.62049 0.958654L3.76783 1.7261C3.64078 1.84274 3.50672 1.95351 3.3772 2.06088C3.16134 2.23944 2.93828 2.42405 2.74495 2.63556C2.52587 2.83893 2.33803 3.06236 2.15606 3.2786C2.00231 3.46171 1.84306 3.65087 1.66318 3.83094C1.59577 3.89835 1.52363 3.96122 1.45243 4.02332C1.34583 4.11649 1.23543 4.21287 1.15818 4.30792C1.03586 4.40998 0.942505 4.53666 0.852183 4.65898C0.8092 4.71749 0.766028 4.776 0.729862 4.82107C0.482189 5.04128 0.173922 5.31509 0.0523582 5.64986C-0.0595492 5.91079 0.0103219 6.15259 0.23906 6.28306C0.354186 6.34081 0.472721 6.33532 0.577433 6.33096C0.646925 6.32812 0.712252 6.32509 0.769815 6.34706C0.835899 6.36353 0.931333 6.38985 0.998553 6.40879C0.889296 7.14764 0.955002 7.9096 1.01862 8.64731C1.05649 9.08642 1.09569 9.5403 1.09569 9.97619C1.09569 10.0305 1.08963 10.1095 1.08244 10.2042C1.06861 10.3873 1.02014 10.5857 1.03661 10.7688C1.0635 11.0682 1.07865 11.0294 1.38616 11.0335C1.80728 11.0392 2.22878 11.0335 2.64971 11.0335C3.0233 11.0335 3.39689 11.0335 3.77048 11.0335C4.21224 11.0335 4.36145 11.0623 4.37016 10.5679C4.37206 10.4632 4.37338 10.3695 4.38096 10.2934C4.40936 9.72303 4.40936 9.14418 4.40898 8.57593C4.3838 8.29966 4.42848 7.94993 4.45783 7.71873L4.46617 7.64734C4.46617 7.61534 4.47885 7.55797 4.49324 7.50476C4.67445 7.54661 4.8407 7.5716 5.05316 7.5716C5.15579 7.5716 5.29799 7.56857 5.44322 7.56554C5.62122 7.56157 5.85242 7.55683 5.96148 7.56005C5.9772 7.6854 6.00163 7.81871 6.0251 7.94841C6.05275 8.10008 6.08115 8.25706 6.09498 8.39453C6.11353 8.59808 6.10709 8.81887 6.10085 9.03227C6.09763 9.14058 6.0946 9.24775 6.09498 9.35966C6.10918 9.53083 6.13057 9.7234 6.15197 9.91598C6.17318 10.1068 6.19439 10.2977 6.20859 10.4679C6.25062 10.9286 6.16769 11.1689 6.69541 11.1771C7.22939 11.1854 7.76431 11.1771 8.29847 11.1771C9.09716 11.1771 10.3601 11.4418 10.1731 10.2536C10.1623 10.1854 10.1517 10.1182 10.1466 10.0582C10.1324 9.68951 10.1253 9.29263 10.1183 8.89555C10.1111 8.49716 10.1041 8.09895 10.0896 7.72403C10.0757 7.57217 10.0757 7.42448 10.0757 7.2817C10.0757 7.13155 10.0757 6.98953 10.0615 6.85206C10.0615 6.77424 10.0583 6.67691 10.0551 6.58072C10.0519 6.48604 10.0477 6.36618 10.049 6.29309C10.1763 6.29158 10.2689 6.28306 10.4228 6.23174L10.4732 6.21584C10.5518 6.19122 10.6495 6.16055 10.7212 6.11207C10.8752 6.03046 10.9664 5.9159 10.9926 5.77124C11.0448 5.48115 10.811 5.14505 10.6063 4.91461ZM5.6072 1.04803L5.59281 1.02872H5.62122L5.6072 1.04803Z" fill="white"/>
</g>
</svg>
