<svg width="18" height="18" viewBox="0 0 18 18" fill="none" xmlns="http://www.w3.org/2000/svg">
<path d="M3.4782 17.6171L11.0045 17.6072C11.2116 17.6064 11.4013 17.5782 11.5798 17.5343C11.9845 17.4331 12.2306 17.0229 12.1295 16.6179C12.0283 16.213 11.6181 15.9672 11.2132 16.0683L11.0036 16.0961L3.4773 16.106C2.93469 16.1051 2.51457 15.6623 2.51187 15.152L2.51959 14.983L2.7379 12.85C2.84389 11.9637 3.59475 11.3016 4.49606 11.3004H9.9663C10.2703 11.3003 10.5617 11.3791 10.8046 11.5111C11.1713 11.7101 11.6299 11.5743 11.8292 11.2076C12.0282 10.8409 11.8923 10.3823 11.5256 10.1832C11.0633 9.9324 10.5286 9.78968 9.9663 9.78955H4.49572C2.83816 9.78839 1.43366 11.0198 1.23685 12.6721L1.23556 12.6845L1.01378 14.8505L1.01069 14.8931L1.00077 15.1149L1 15.149C1.00052 16.4909 2.08858 17.6147 3.47811 17.6171L3.4782 17.6171Z" fill="black" stroke="black" stroke-width="0.474654"/>
<path d="M7.25052 8.61041C9.3523 8.61002 11.0551 6.90712 11.0557 4.8052C11.0552 2.70329 9.35217 1.00033 7.25052 1C5.1486 1.00052 3.44597 2.70329 3.44531 4.8052C3.4457 6.90699 5.1486 8.60975 7.25052 8.61041ZM7.25052 2.51107C8.51707 2.51352 9.54228 3.53845 9.54445 4.80514C9.54226 6.07169 8.51707 7.0969 7.25052 7.09921C5.98396 7.09676 4.95876 6.07183 4.95645 4.80514C4.95877 3.53858 5.98383 2.51338 7.25052 2.51107Z" fill="black" stroke="black" stroke-width="0.474654"/>
<path d="M11.4904 14.1031L12.8912 15.5983C13.033 15.7497 13.235 15.8372 13.4428 15.8372C13.6502 15.8372 13.8523 15.7496 13.9941 15.5983L16.7957 12.6078C17.0809 12.3033 17.0654 11.8251 16.7609 11.5398C16.4564 11.2546 15.9782 11.2702 15.6929 11.5748L13.4425 13.9764L12.5931 13.0698C12.3078 12.7653 11.8296 12.7496 11.5251 13.035C11.2205 13.3204 11.2051 13.7986 11.4903 14.1031L11.4904 14.1031Z" fill="black" stroke="black" stroke-width="0.474654"/>
</svg>
