<svg width="19" height="19" viewBox="0 0 19 19" fill="none" xmlns="http://www.w3.org/2000/svg">
<path d="M3.63309 18.6557L11.6298 18.6451C11.8499 18.6443 12.0514 18.6143 12.2411 18.5677C12.671 18.4601 12.9326 18.0243 12.8251 17.594C12.7176 17.1638 12.2817 16.9026 11.8515 17.01L11.6289 17.0395L3.63213 17.0501C3.05561 17.0491 2.60923 16.5787 2.60636 16.0365L2.61457 15.8569L2.84652 13.5905C2.95914 12.6489 3.75693 11.9454 4.71456 11.9442H10.5267C10.8497 11.944 11.1593 12.0278 11.4174 12.1681C11.807 12.3795 12.2943 12.2351 12.506 11.8455C12.7174 11.4559 12.5731 10.9686 12.1835 10.7571C11.6922 10.4906 11.1242 10.339 10.5267 10.3389H4.71421C2.95305 10.3376 1.46076 11.646 1.25166 13.4016L1.25029 13.4147L1.01464 15.7161L1.01136 15.7614L1.00082 15.9971L1 16.0333C1.00055 17.4591 2.15661 18.6531 3.633 18.6556L3.63309 18.6557Z" fill="#39F3FF" stroke="#39F3FF" stroke-width="0.474654"/>
<path d="M7.64118 9.08607C9.87432 9.08565 11.6835 7.27632 11.6842 5.04303C11.6837 2.80975 9.87418 1.00035 7.64118 1C5.40789 1.00055 3.59885 2.80975 3.59814 5.04303C3.59856 7.27618 5.40789 9.08536 7.64118 9.08607V9.08607ZM7.64118 2.60551C8.98689 2.60811 10.0762 3.69711 10.0785 5.04296C10.0762 6.38868 8.98689 7.47796 7.64118 7.48041C6.29546 7.47781 5.20618 6.38882 5.20373 5.04296C5.20619 3.69725 6.29532 2.60796 7.64118 2.60551Z" fill="#39F3FF" stroke="#39F3FF" stroke-width="0.474654"/>
<path d="M12.1462 14.9223L13.6346 16.5109C13.7853 16.6719 13.9999 16.7648 14.2206 16.7648C14.4411 16.7648 14.6558 16.6717 14.8064 16.5109L17.7831 13.3336C18.0862 13.0101 18.0696 12.502 17.7461 12.1988C17.4226 11.8957 16.9145 11.9123 16.6114 12.2359L14.2203 14.7877L13.3178 13.8244C13.0147 13.5009 12.5066 13.4842 12.1831 13.7875C11.8595 14.0907 11.8431 14.5988 12.1462 14.9223L12.1462 14.9223Z" fill="#39F3FF" stroke="#39F3FF" stroke-width="0.474654"/>
</svg>
