<svg width="42" height="42" viewBox="0 0 42 42" fill="none" xmlns="http://www.w3.org/2000/svg">
<circle cx="21" cy="21" r="21" fill="white" fill-opacity="0.15"/>
<path d="M13.5785 23.4745L11.1062 23.4745C10.4263 23.4745 9.87013 22.9183 9.87013 22.2384L9.87013 19.7662C9.87013 19.0862 10.4263 18.53 11.1062 18.53L13.5785 18.53C14.2584 18.53 14.8146 19.0862 14.8146 19.7662L14.8146 22.2384C14.8146 22.9179 14.2584 23.4745 13.5785 23.4745Z" fill="white"/>
<path d="M22.2312 23.4745L19.759 23.4745C19.079 23.4745 18.5228 22.9183 18.5228 22.2384L18.5228 19.7662C18.5228 19.0862 19.079 18.53 19.759 18.53L22.2312 18.53C22.9111 18.53 23.4673 19.0862 23.4673 19.7662L23.4673 22.2384C23.4673 22.9179 22.9111 23.4745 22.2312 23.4745Z" fill="white"/>
<path d="M30.884 23.4745L28.4118 23.4745C27.7318 23.4745 27.1757 22.9183 27.1757 22.2384L27.1757 19.7662C27.1757 19.0862 27.7319 18.53 28.4118 18.53L30.884 18.53C31.564 18.53 32.1201 19.0862 32.1201 19.7662L32.1201 22.2384C32.1201 22.9179 31.5639 23.4745 30.884 23.4745Z" fill="white"/>
</svg>
