<svg width="42" height="35" viewBox="0 0 42 35" fill="none" xmlns="http://www.w3.org/2000/svg">
<path d="M29.6612 0.153463C29.489 0.13739 29.3167 0.121318 29.1362 0.113281C26.6425 0.121318 24.1487 0.123996 21.655 0.121317C21.0233 0.121317 17.537 0.121318 13.5667 0.113281C12.5413 0.161499 11.7948 0.217753 11.5323 0.265971C3.99365 1.55981 -1.10049 8.82462 0.203805 16.2261C1.42607 23.1774 7.13544 27.9269 14.3378 27.9671C16.2819 27.9751 18.2261 27.943 20.1702 27.9912C20.6253 28.0062 21.0653 28.1546 21.4335 28.4171C23.4351 29.944 25.3874 31.5432 27.389 33.0701C28.078 33.5925 28.8409 34.0666 29.6366 34.372C31.1214 34.9345 32.3847 34.2997 32.9015 32.8049C33.0905 32.2542 33.2036 31.6813 33.2378 31.1012C33.2952 30.0003 33.3034 28.8913 33.2624 27.7822C33.2378 27.1876 33.4183 26.8661 33.9843 26.5848C39.5214 23.8203 42.4253 18.7012 41.9495 12.6338C41.4409 6.22086 36.1761 0.748148 29.6612 0.153463Z" fill="#3E3E3E"/>
</svg>
