<svg width="21" height="19" viewBox="0 0 21 19" fill="none" xmlns="http://www.w3.org/2000/svg">
<path opacity="0.5" d="M10.3947 18C10.1357 18 9.87673 17.9042 9.66482 17.7127C8.91136 17.0423 8.18144 16.3958 7.52216 15.8451C5.6385 14.193 3.9903 12.7803 2.86011 11.3916C1.58864 9.83521 1 8.3507 1 6.74648C1 5.1662 1.51801 3.72958 2.48338 2.67606C3.44875 1.59859 4.79086 1 6.25069 1C7.3338 1 8.32272 1.35915 9.19391 2.02958C9.27964 2.0984 9.36364 2.16899 9.44591 2.24167C9.96515 2.70037 10.8243 2.70037 11.3436 2.24167C11.4258 2.16899 11.5098 2.0984 11.5956 2.02958C12.4668 1.33521 13.4557 1 14.5388 1C15.9986 1 17.3172 1.59859 18.3061 2.67606C19.2715 3.72958 19.7895 5.19014 19.7895 6.74648C19.7895 8.37465 19.2008 9.83521 17.9294 11.3916C16.7992 12.7803 15.151 14.193 13.2673 15.8451C12.6316 16.3958 11.8781 17.0423 11.1247 17.7127C10.9127 17.9042 10.6537 18 10.3947 18Z" fill="#CACBCB" fill-opacity="0.1" stroke="#CACBCB" stroke-width="2"/>
</svg>
