<svg width="236" height="151" viewBox="0 0 236 151" fill="none" xmlns="http://www.w3.org/2000/svg">
<path d="M70.2339 127.358C70.2339 131.725 73.2993 133.741 77.1206 134.455C79.7241 134.958 82.6216 134.958 82.6216 136.554C82.6216 137.457 81.9497 138.15 80.438 138.15C78.9893 138.15 78.0024 137.268 77.9395 136.239H69.709C69.709 140.25 73.0894 143.441 80.0181 143.441C87.1777 143.441 90.8101 140.354 90.8101 135.588C90.8101 131.83 88.5845 129.73 84.4692 129.08C82.2017 128.723 78.2334 128.513 78.2334 126.77C78.2334 125.93 78.8213 125.174 80.354 125.174C81.7607 125.174 82.5166 126.077 82.6636 127.022H89.9702C89.9702 122.13 85.834 119.925 80.417 119.925C74.937 119.925 70.2339 121.92 70.2339 127.358ZM110.126 143.189C115.25 143.189 118.168 139.305 118.168 132.502V130.822C118.168 124.02 115.271 120.177 110.126 120.177C107.061 120.177 104.73 121.563 103.828 123.957H103.408V120.366H94.8623V150.517H103.408V139.368H103.828C104.751 141.782 107.082 143.189 110.126 143.189ZM106.368 136.806C104.521 136.806 103.408 135.105 103.408 132.313V131.074C103.408 128.282 104.521 126.602 106.368 126.602C108.237 126.602 109.329 128.24 109.329 131.074V132.313C109.329 135.147 108.237 136.806 106.368 136.806ZM121.989 129.437C121.989 138.066 126.587 143.483 133.915 143.483C141.222 143.483 146.072 137.877 146.072 129.437V127.82C146.072 119.169 141.537 113.878 134.125 113.878C126.734 113.878 121.989 119.337 121.989 127.82V129.437ZM130.829 127.841C130.829 123.285 131.962 120.765 134.02 120.765C136.078 120.765 137.232 123.306 137.232 127.841V129.416C137.232 133.972 136.057 136.596 134.02 136.596C131.983 136.596 130.829 134.014 130.829 129.416V127.841ZM153.189 120.891H149.494V127.106H152.938V136.491C152.938 141.383 155.961 143 162.008 143C164.044 143 165.619 142.811 166.228 142.685V136.785C165.766 136.827 165.01 136.848 164.044 136.848C162.386 136.848 161.357 136.176 161.357 134.602V127.106H166.228V120.891H161.357V115.348H153.189V120.891Z" fill="black"/>
<path fill-rule="evenodd" clip-rule="evenodd" d="M109.722 22.0597C123.115 22.0597 130.205 37.2912 122.326 47.5328C115.762 56.1979 103.155 55.6736 96.853 47.0068C89.5002 36.7652 96.8534 22.0597 109.722 22.0597ZM129.417 59.0871C133.618 59.0871 135.719 63.5507 133.618 66.702C131.78 69.3288 128.104 69.5909 126.003 67.4902C122.852 64.6013 125.215 59.0871 129.417 59.0871Z" fill="black"/>
<path d="M117.866 10.7954C138.373 10.7954 155.203 27.6248 155.203 48.1318C155.203 68.6317 138.38 85.2005 117.866 85.2005C97.3594 85.2005 80.7975 68.6389 80.7975 48.1318C80.7975 27.6183 97.3659 10.7954 117.866 10.7954ZM164.75 48.1339C164.75 22.2389 143.761 1.25 117.866 1.25C92.2361 1.25 71.25 22.2422 71.25 48.1339C71.25 73.7611 92.2398 94.75 117.866 94.75C143.758 94.75 164.75 73.7631 164.75 48.1339Z" fill="black" stroke="black" stroke-width="1.5"/>
</svg>
