<svg width="32" height="26" viewBox="0 0 32 26" fill="none" xmlns="http://www.w3.org/2000/svg">
<path d="M10.7789 13.6084V10.5769H6.90529V6.70312H3.87358V10.5769H0V13.6084H3.87358V17.4822H6.90529V13.6084H10.7789Z" fill="#7CF7FF"/>
<path d="M24.2189 15.5608H16.3704C12.0925 15.5608 8.58936 19.0641 8.58936 23.3419V25.8346H32V23.3419C32 19.0641 28.5305 15.5608 24.2189 15.5608Z" fill="#7CF7FF"/>
<path d="M26.9464 6.63581C26.9464 10.3005 23.9755 13.2716 20.3106 13.2716C16.6456 13.2716 13.6748 10.3005 13.6748 6.63581C13.6748 2.97084 16.6457 0 20.3106 0C23.9756 0 26.9464 2.9709 26.9464 6.63581Z" fill="#7CF7FF"/>
</svg>
