<svg width="19" height="20" viewBox="0 0 19 20" fill="none" xmlns="http://www.w3.org/2000/svg">
<mask id="path-1-outside-1_806_2" maskUnits="userSpaceOnUse" x="0" y="0" width="19" height="20" fill="black">
<rect fill="white" width="19" height="20"/>
<path d="M1.00232 5.1937C1.30786 9.20703 1.40606 13.9298 1.27804 18.4943C1.27233 18.7275 1.37751 18.949 1.56089 19.09C1.74571 19.2296 1.9859 19.2713 2.20338 19.2008C2.73641 19.0296 3.16142 18.687 3.53659 18.3835C3.71855 18.2352 3.90051 18.087 4.09233 17.9691L7.26499 16.0163C7.56355 16.1472 7.81926 16.3445 8.12357 16.579C8.33107 16.7388 8.54573 16.9056 8.78875 17.0626C9.16537 17.3072 9.52071 17.5863 9.87606 17.8641C10.5427 18.3837 11.2307 18.9204 12.058 19.2758C12.1475 19.3147 12.2414 19.3333 12.3352 19.3333C12.4346 19.3333 12.537 19.3118 12.6295 19.2686C14.5455 18.3851 16.3309 17.2381 17.9358 15.8611C18.0978 15.7215 18.1903 15.5158 18.1874 15.3014C18.1519 13.0523 18.1035 10.8462 18.0553 8.6416C18.0069 6.43986 17.9587 4.23821 17.9231 1.99047C17.9189 1.74587 17.7938 1.51991 17.589 1.39044C17.3844 1.26099 17.1285 1.24509 16.911 1.35013C15.3005 2.11429 13.683 3.0885 12.209 4.18207C10.4223 3.06235 8.58148 2.04217 6.84003 1.08658C6.59842 0.954242 6.30143 0.974478 6.07965 1.14135C4.2759 2.48818 2.85164 3.50561 1.31625 4.54022C1.10304 4.68412 0.982156 4.9345 1.00214 5.19358L1.00232 5.1937ZM6.56009 2.57037C8.19899 3.47119 9.91042 4.43821 11.5647 5.48006C11.7936 8.03 11.8035 10.6087 11.5747 13.1587C11.5406 13.5544 11.8277 13.904 12.2186 13.94C12.2413 13.9414 12.2613 13.9429 12.284 13.9429C12.6479 13.9429 12.9577 13.6623 12.9904 13.2881C13.2249 10.6734 13.2151 8.02541 12.9833 5.40969C14.102 4.57358 15.2974 3.80091 16.5197 3.15335C16.551 5.01108 16.5922 6.8429 16.632 8.67506C16.6776 10.7645 16.7229 12.854 16.7585 14.9825C15.4038 16.1093 13.9185 17.0633 12.3338 17.8231C11.7836 17.5396 11.2763 17.1424 10.7418 16.7265C10.3538 16.4242 9.96576 16.1221 9.55631 15.8558C9.34881 15.7206 9.16399 15.5767 8.9849 15.4386C8.63954 15.1709 8.28276 14.8975 7.82364 14.699C7.67023 12.1835 7.54807 9.65055 7.47272 7.1627C7.4613 6.76408 7.09024 6.48767 6.74061 6.46469C6.34829 6.4777 6.03989 6.80855 6.0513 7.2057C6.12808 9.73409 6.25166 12.3068 6.40808 14.8596L3.35202 16.7405C3.13881 16.8714 2.93416 17.0312 2.72952 17.1937C2.80345 13.1644 2.70683 9.07474 2.44952 5.5031C3.77274 4.60532 5.03773 3.70161 6.55987 2.57047L6.56009 2.57037Z"/>
</mask>
<path d="M1.00232 5.1937C1.30786 9.20703 1.40606 13.9298 1.27804 18.4943C1.27233 18.7275 1.37751 18.949 1.56089 19.09C1.74571 19.2296 1.9859 19.2713 2.20338 19.2008C2.73641 19.0296 3.16142 18.687 3.53659 18.3835C3.71855 18.2352 3.90051 18.087 4.09233 17.9691L7.26499 16.0163C7.56355 16.1472 7.81926 16.3445 8.12357 16.579C8.33107 16.7388 8.54573 16.9056 8.78875 17.0626C9.16537 17.3072 9.52071 17.5863 9.87606 17.8641C10.5427 18.3837 11.2307 18.9204 12.058 19.2758C12.1475 19.3147 12.2414 19.3333 12.3352 19.3333C12.4346 19.3333 12.537 19.3118 12.6295 19.2686C14.5455 18.3851 16.3309 17.2381 17.9358 15.8611C18.0978 15.7215 18.1903 15.5158 18.1874 15.3014C18.1519 13.0523 18.1035 10.8462 18.0553 8.6416C18.0069 6.43986 17.9587 4.23821 17.9231 1.99047C17.9189 1.74587 17.7938 1.51991 17.589 1.39044C17.3844 1.26099 17.1285 1.24509 16.911 1.35013C15.3005 2.11429 13.683 3.0885 12.209 4.18207C10.4223 3.06235 8.58148 2.04217 6.84003 1.08658C6.59842 0.954242 6.30143 0.974478 6.07965 1.14135C4.2759 2.48818 2.85164 3.50561 1.31625 4.54022C1.10304 4.68412 0.982156 4.9345 1.00214 5.19358L1.00232 5.1937ZM6.56009 2.57037C8.19899 3.47119 9.91042 4.43821 11.5647 5.48006C11.7936 8.03 11.8035 10.6087 11.5747 13.1587C11.5406 13.5544 11.8277 13.904 12.2186 13.94C12.2413 13.9414 12.2613 13.9429 12.284 13.9429C12.6479 13.9429 12.9577 13.6623 12.9904 13.2881C13.2249 10.6734 13.2151 8.02541 12.9833 5.40969C14.102 4.57358 15.2974 3.80091 16.5197 3.15335C16.551 5.01108 16.5922 6.8429 16.632 8.67506C16.6776 10.7645 16.7229 12.854 16.7585 14.9825C15.4038 16.1093 13.9185 17.0633 12.3338 17.8231C11.7836 17.5396 11.2763 17.1424 10.7418 16.7265C10.3538 16.4242 9.96576 16.1221 9.55631 15.8558C9.34881 15.7206 9.16399 15.5767 8.9849 15.4386C8.63954 15.1709 8.28276 14.8975 7.82364 14.699C7.67023 12.1835 7.54807 9.65055 7.47272 7.1627C7.4613 6.76408 7.09024 6.48767 6.74061 6.46469C6.34829 6.4777 6.03989 6.80855 6.0513 7.2057C6.12808 9.73409 6.25166 12.3068 6.40808 14.8596L3.35202 16.7405C3.13881 16.8714 2.93416 17.0312 2.72952 17.1937C2.80345 13.1644 2.70683 9.07474 2.44952 5.5031C3.77274 4.60532 5.03773 3.70161 6.55987 2.57047L6.56009 2.57037Z" fill="#39FFA0"/>
<path d="M1.00232 5.1937L1.40117 5.16333L1.38675 4.97399L1.23092 4.86546L1.00232 5.1937ZM1.27804 18.4943L0.878194 18.4831L0.878159 18.4845L1.27804 18.4943ZM1.56089 19.09L1.31709 19.4071L1.31984 19.4092L1.56089 19.09ZM2.20338 19.2008L2.08106 18.82L2.08002 18.8203L2.20338 19.2008ZM3.53659 18.3835L3.78819 18.6945L3.78923 18.6936L3.53659 18.3835ZM4.09233 17.9691L4.30176 18.3099L4.302 18.3098L4.09233 17.9691ZM7.26499 16.0163L7.42559 15.65L7.23373 15.5659L7.05532 15.6757L7.26499 16.0163ZM8.12357 16.579L7.87941 16.8958L7.87951 16.8959L8.12357 16.579ZM8.78875 17.0626L9.00663 16.7271L9.00573 16.7265L8.78875 17.0626ZM9.87606 17.8641L9.62968 18.1792L9.63016 18.1796L9.87606 17.8641ZM12.058 19.2758L12.2174 18.909L12.2159 18.9083L12.058 19.2758ZM12.6295 19.2686L12.462 18.9054L12.4602 18.9062L12.6295 19.2686ZM17.9358 15.8611L18.1963 16.1646L18.1969 16.1641L17.9358 15.8611ZM18.1874 15.3014L18.5874 15.296L18.5874 15.295L18.1874 15.3014ZM18.0553 8.6416L18.4552 8.63285L18.4552 8.63281L18.0553 8.6416ZM17.9231 1.99047L18.3231 1.98414L18.3231 1.98346L17.9231 1.99047ZM17.589 1.39044L17.3752 1.72849L17.3753 1.72855L17.589 1.39044ZM16.911 1.35013L17.0825 1.71152L17.085 1.71032L16.911 1.35013ZM12.209 4.18207L11.9965 4.52101L12.2279 4.66604L12.4473 4.50332L12.209 4.18207ZM6.84003 1.08658L7.03246 0.735908L7.03219 0.735762L6.84003 1.08658ZM6.07965 1.14135L6.31897 1.46186L6.32014 1.46098L6.07965 1.14135ZM1.31625 4.54022L1.09273 4.2085L1.09248 4.20867L1.31625 4.54022ZM1.00214 5.19358L0.60333 5.22435L0.617919 5.41343L0.773541 5.52181L1.00214 5.19358ZM6.56009 2.57037L6.75276 2.21983L6.57912 2.12439L6.39799 2.20469L6.56009 2.57037ZM11.5647 5.48006L11.9631 5.4443L11.9454 5.2471L11.7779 5.14159L11.5647 5.48006ZM11.5747 13.1587L11.1763 13.1229L11.1762 13.1243L11.5747 13.1587ZM12.2186 13.94L12.1819 14.3385L12.1932 14.3392L12.2186 13.94ZM12.9904 13.2881L12.592 13.2524L12.5919 13.2533L12.9904 13.2881ZM12.9833 5.40969L12.7438 5.08928L12.5652 5.22281L12.5848 5.44499L12.9833 5.40969ZM16.5197 3.15335L16.9197 3.14662L16.9087 2.49462L16.3325 2.79989L16.5197 3.15335ZM16.632 8.67506L16.2321 8.68375L16.2321 8.68377L16.632 8.67506ZM16.7585 14.9825L17.0143 15.29L17.1616 15.1674L17.1584 14.9758L16.7585 14.9825ZM12.3338 17.8231L12.1506 18.1787L12.3274 18.2698L12.5067 18.1838L12.3338 17.8231ZM10.7418 16.7265L10.496 17.042L10.4961 17.0421L10.7418 16.7265ZM9.55631 15.8558L9.33791 16.1909L9.33823 16.1912L9.55631 15.8558ZM8.9849 15.4386L8.73983 15.7547L8.74064 15.7554L8.9849 15.4386ZM7.82364 14.699L7.42438 14.7234L7.43934 14.9687L7.6649 15.0662L7.82364 14.699ZM7.47272 7.1627L7.07289 7.17415L7.07291 7.1748L7.47272 7.1627ZM6.74061 6.46469L6.76685 6.06555L6.74711 6.06425L6.72735 6.06491L6.74061 6.46469ZM6.0513 7.2057L5.65146 7.21719L5.65148 7.21784L6.0513 7.2057ZM6.40808 14.8596L6.61774 15.2003L6.822 15.0746L6.80734 14.8352L6.40808 14.8596ZM3.35202 16.7405L3.5613 17.0813L3.56168 17.0811L3.35202 16.7405ZM2.72952 17.1937L2.32959 17.1863L2.31403 18.0344L2.97828 17.5069L2.72952 17.1937ZM2.44952 5.5031L2.22494 5.17209L2.03397 5.30166L2.05055 5.53184L2.44952 5.5031ZM6.55987 2.57047L6.39777 2.20478L6.35704 2.22284L6.32129 2.24941L6.55987 2.57047ZM0.603474 5.22406C0.907835 9.2219 1.00588 13.9306 0.878196 18.4831L1.67788 18.5055C1.80624 13.9289 1.70789 9.19217 1.40117 5.16333L0.603474 5.22406ZM0.878159 18.4845C0.869354 18.8441 1.03149 19.1875 1.3171 19.4071L1.80469 18.7729C1.72352 18.7105 1.6753 18.6109 1.67792 18.5041L0.878159 18.4845ZM1.31984 19.4092C1.60667 19.6258 1.98249 19.6929 2.32674 19.5813L2.08002 18.8203C1.98931 18.8497 1.88476 18.8333 1.80194 18.7708L1.31984 19.4092ZM2.3257 19.5816C2.94038 19.3842 3.42019 18.9922 3.78819 18.6944L3.28499 18.0725C2.90265 18.3819 2.53245 18.675 2.08106 18.82L2.3257 19.5816ZM3.78923 18.6936C3.97531 18.542 4.13657 18.4114 4.30176 18.3099L3.8829 17.6283C3.66446 17.7626 3.4618 17.9285 3.28395 18.0734L3.78923 18.6936ZM4.302 18.3098L7.47466 16.357L7.05532 15.6757L3.88266 17.6285L4.302 18.3098ZM7.10438 16.3827C7.35004 16.4904 7.56675 16.6549 7.87941 16.8958L8.36772 16.2621C8.07178 16.0341 7.77706 15.8041 7.42559 15.65L7.10438 16.3827ZM7.87951 16.8959C8.08412 17.0534 8.31226 17.231 8.57177 17.3986L9.00573 16.7265C8.77921 16.5802 8.57802 16.4241 8.36763 16.262L7.87951 16.8959ZM8.57088 17.398C8.93008 17.6313 9.27124 17.899 9.62968 18.1792L10.1224 17.549C9.77018 17.2736 9.40065 16.983 9.00662 16.7271L8.57088 17.398ZM9.63016 18.1796C10.2908 18.6946 11.018 19.2644 11.9001 19.6434L12.2159 18.9083C11.4434 18.5764 10.7945 18.0728 10.122 17.5486L9.63016 18.1796ZM11.8987 19.6427C12.0397 19.704 12.188 19.7333 12.3352 19.7333V18.9333C12.2948 18.9333 12.2553 18.9254 12.2174 18.909L11.8987 19.6427ZM12.3352 19.7333C12.4907 19.7333 12.6511 19.7 12.7987 19.631L12.4602 18.9062C12.4228 18.9236 12.3786 18.9333 12.3352 18.9333V19.7333ZM12.7969 19.6319C14.7468 18.7328 16.5634 17.5656 18.1963 16.1646L17.6754 15.5575C16.0984 16.9105 14.3443 18.0375 12.462 18.9054L12.7969 19.6319ZM18.1969 16.1641C18.4488 15.9471 18.5918 15.6283 18.5874 15.296L17.7875 15.3067C17.7888 15.4032 17.7468 15.4959 17.6747 15.558L18.1969 16.1641ZM18.5874 15.295C18.5518 13.0445 18.5034 10.8372 18.4552 8.63285L17.6554 8.65035C17.7036 10.8551 17.752 13.06 17.7875 15.3077L18.5874 15.295ZM18.4552 8.63281C18.4068 6.43092 18.3586 4.23047 18.3231 1.98414L17.5232 1.99679C17.5587 4.24596 17.607 6.44881 17.6554 8.65039L18.4552 8.63281ZM18.3231 1.98346C18.3165 1.60722 18.124 1.25538 17.8028 1.05233L17.3753 1.72855C17.4637 1.78443 17.5212 1.88452 17.5232 1.99747L18.3231 1.98346ZM17.8029 1.05239C17.4831 0.850097 17.0806 0.823994 16.7371 0.989938L17.085 1.71032C17.1764 1.66619 17.2857 1.67189 17.3752 1.72849L17.8029 1.05239ZM16.7396 0.988744C15.1048 1.7644 13.465 2.75219 11.9706 3.86082L12.4473 4.50332C13.901 3.42481 15.4962 2.46417 17.0825 1.71151L16.7396 0.988744ZM12.4214 3.84313C10.6239 2.71659 8.77381 1.69144 7.03246 0.735908L6.6476 1.43726C8.38915 2.3929 10.2208 3.40811 11.9965 4.52101L12.4214 3.84313ZM7.03219 0.735762C6.6534 0.52828 6.18709 0.55993 5.83916 0.821715L6.32014 1.46098C6.41577 1.38903 6.54344 1.3802 6.64787 1.4374L7.03219 0.735762ZM5.84033 0.820838C4.04053 2.16473 2.62162 3.17826 1.09273 4.2085L1.53978 4.87194C3.08165 3.83295 4.51127 2.81164 6.31897 1.46186L5.84033 0.820838ZM1.09248 4.20867C0.75926 4.43357 0.57234 4.8227 0.60333 5.22435L1.40096 5.1628C1.39197 5.04631 1.44682 4.93468 1.54003 4.87177L1.09248 4.20867ZM0.773541 5.52181L0.773716 5.52194L1.23092 4.86546L1.23075 4.86534L0.773541 5.52181ZM6.36741 2.92091C8.00409 3.82051 9.70735 4.78304 11.3516 5.81853L11.7779 5.14159C10.1135 4.09339 8.39389 3.12188 6.75276 2.21983L6.36741 2.92091ZM11.1663 5.51583C11.3932 8.043 11.4028 10.5978 11.1763 13.1229L11.9731 13.1944C12.2041 10.6197 12.1941 8.01699 11.9631 5.4443L11.1663 5.51583ZM11.1762 13.1243C11.1237 13.7334 11.5662 14.2816 12.182 14.3383L12.2553 13.5417C12.0893 13.5264 11.9575 13.3754 11.9732 13.193L11.1762 13.1243ZM12.1932 14.3392C12.2112 14.3403 12.2457 14.3429 12.284 14.3429V13.5429C12.2769 13.5429 12.2714 13.5425 12.2441 13.5408L12.1932 14.3392ZM12.284 14.3429C12.8569 14.3429 13.3383 13.9022 13.3889 13.3229L12.5919 13.2533C12.5772 13.4224 12.4389 13.5429 12.284 13.5429V14.3429ZM13.3888 13.3238C13.6255 10.6844 13.6155 8.01258 13.3817 5.37438L12.5848 5.44499C12.8146 8.03824 12.8243 10.6625 12.592 13.2524L13.3888 13.3238ZM13.2227 5.73009C14.3271 4.9047 15.5051 4.14352 16.707 3.50681L16.3325 2.79989C15.0896 3.45829 13.8769 4.24245 12.7438 5.08928L13.2227 5.73009ZM16.1198 3.16008C16.151 5.01904 16.1923 6.85208 16.2321 8.68375L17.0319 8.66637C16.9921 6.83373 16.9509 5.00312 16.9197 3.14662L16.1198 3.16008ZM16.2321 8.68377C16.2777 10.7734 16.323 12.8618 16.3585 14.9892L17.1584 14.9758C17.1229 12.8461 17.0775 10.7557 17.0319 8.66635L16.2321 8.68377ZM16.5027 14.675C15.1732 15.7808 13.7157 16.7169 12.1608 17.4624L12.5067 18.1838C14.1212 17.4096 15.6344 16.4377 17.0143 15.29L16.5027 14.675ZM12.517 17.4675C12.0062 17.2043 11.5291 16.8324 10.9875 16.4108L10.4961 17.0421C11.0234 17.4525 11.561 17.8749 12.1506 18.1787L12.517 17.4675ZM10.9876 16.4109C10.6018 16.1104 10.2005 15.7976 9.7744 15.5205L9.33823 16.1912C9.73102 16.4466 10.1057 16.738 10.496 17.042L10.9876 16.4109ZM9.77471 15.5207C9.583 15.3958 9.41119 15.2622 9.22916 15.1218L8.74064 15.7554C8.91679 15.8912 9.11462 16.0454 9.33791 16.1909L9.77471 15.5207ZM9.22997 15.1225C8.88631 14.8561 8.49342 14.5528 7.98238 14.3319L7.6649 15.0662C8.07209 15.2422 8.39276 15.4857 8.73983 15.7547L9.22997 15.1225ZM8.22289 14.6747C8.06969 12.1624 7.94775 9.63367 7.87254 7.15059L7.07291 7.1748C7.1484 9.66743 7.27077 12.2045 7.42438 14.7234L8.22289 14.6747ZM7.87256 7.15124C7.85364 6.49105 7.26202 6.0981 6.76685 6.06555L6.71437 6.86383C6.91846 6.87724 7.06896 7.0371 7.07289 7.17415L7.87256 7.15124ZM6.72735 6.06491C6.11127 6.08534 5.63383 6.60358 5.65146 7.21719L6.45113 7.19421C6.44594 7.01351 6.5853 6.87006 6.75386 6.86447L6.72735 6.06491ZM5.65148 7.21784C5.72841 9.75094 5.8522 12.3278 6.00883 14.8841L6.80734 14.8352C6.65113 12.2858 6.52775 9.71725 6.45111 7.19356L5.65148 7.21784ZM6.19843 14.519L3.14237 16.3998L3.56168 17.0811L6.61774 15.2003L6.19843 14.519ZM3.14275 16.3996C2.90631 16.5447 2.68423 16.7188 2.48077 16.8804L2.97828 17.5069C3.1841 17.3435 3.37131 17.198 3.5613 17.0813L3.14275 16.3996ZM3.12945 17.201C3.20357 13.1613 3.10677 9.05951 2.84849 5.47436L2.05055 5.53184C2.3069 9.08997 2.40332 13.1675 2.32959 17.1863L3.12945 17.201ZM2.6741 5.8341C4.003 4.93247 5.27273 4.02534 6.79846 2.89152L6.32129 2.24941C4.80273 3.37789 3.54249 4.27816 2.22494 5.17209L2.6741 5.8341ZM6.72197 2.93615L6.72219 2.93605L6.39799 2.20469L6.39777 2.20478L6.72197 2.93615Z" fill="#39FFA0" mask="url(#path-1-outside-1_806_2)"/>
</svg>
