<svg width="27" height="28" viewBox="0 0 27 28" fill="none" xmlns="http://www.w3.org/2000/svg">
<path d="M2.0031 7.61193C2.41197 12.9825 2.54338 19.3024 2.37207 25.4106C2.36442 25.7226 2.50517 26.019 2.75058 26.2077C2.9979 26.3945 3.31931 26.4503 3.61034 26.356C4.32364 26.1269 4.89237 25.6685 5.39442 25.2623C5.63792 25.0639 5.88141 24.8655 6.1381 24.7078L10.3837 22.0946C10.7832 22.2698 11.1254 22.5337 11.5326 22.8475C11.8103 23.0613 12.0976 23.2846 12.4228 23.4946C12.9267 23.8219 13.4023 24.1954 13.8778 24.5673C14.7698 25.2625 15.6905 25.9808 16.7977 26.4564C16.9174 26.5084 17.0431 26.5333 17.1685 26.5333C17.3016 26.5333 17.4386 26.5045 17.5623 26.4467C20.1264 25.2645 22.5155 23.7295 24.6632 21.8868C24.88 21.7 25.0037 21.4247 24.9999 21.1378C24.9524 18.1281 24.8876 15.176 24.8231 12.2258C24.7583 9.27953 24.6938 6.33331 24.6462 3.32543C24.6405 2.99811 24.4732 2.69573 24.1992 2.52248C23.9253 2.34926 23.5829 2.32798 23.2918 2.46853C21.1367 3.49112 18.9722 4.79479 16.9996 6.25819C14.6088 4.7598 12.1454 3.39461 9.81502 2.11586C9.4917 1.93877 9.09428 1.96585 8.7975 2.18915C6.38375 3.99146 4.47783 5.35296 2.42321 6.73746C2.13789 6.93003 1.97612 7.26508 2.00287 7.61177L2.0031 7.61193ZM9.44041 4.10144C11.6336 5.30691 13.9238 6.60096 16.1375 7.99514C16.4438 11.4074 16.457 14.8582 16.1509 18.2705C16.1052 18.8 16.4895 19.2679 17.0125 19.3161C17.0429 19.318 17.0697 19.3199 17.1 19.3199C17.587 19.3199 18.0016 18.9445 18.0454 18.4437C18.3591 14.9448 18.346 11.4013 18.0358 7.90096C19.5329 6.78209 21.1325 5.74812 22.7682 4.88157C22.81 7.36755 22.8652 9.81887 22.9185 12.2706C22.9794 15.0667 23.0401 17.8628 23.0877 20.7111C21.275 22.2189 19.2872 23.4955 17.1666 24.5124C16.4304 24.133 15.7515 23.6015 15.0363 23.0449C14.5171 22.6404 13.9978 22.2362 13.4499 21.8798C13.1722 21.6988 12.9249 21.5063 12.6852 21.3215C12.2231 20.9632 11.7457 20.5974 11.1313 20.3318C10.926 16.9655 10.7625 13.576 10.6617 10.2468C10.6464 9.71338 10.1498 9.3435 9.68198 9.31275C9.15698 9.33016 8.74429 9.77289 8.75956 10.3044C8.8623 13.6878 9.02768 17.1306 9.237 20.5467L5.14743 23.0636C4.86212 23.2388 4.58826 23.4526 4.31441 23.6701C4.41334 18.2782 4.28406 12.8055 3.93972 8.02596C5.71044 6.82457 7.40322 5.61525 9.44012 4.10157L9.44041 4.10144Z" fill="#787878" stroke="black" stroke-width="0.1"/>
<mask id="mask0_4_1900" style="mask-type:alpha" maskUnits="userSpaceOnUse" x="0" y="0" width="27" height="28">
<rect y="0.77002" width="27" height="27" fill="#D9D9D9"/>
</mask>
<g mask="url(#mask0_4_1900)">
</g>
</svg>
