<svg width="42" height="42" viewBox="0 0 42 42" fill="none" xmlns="http://www.w3.org/2000/svg">
<circle cx="21" cy="21" r="21" fill="white"/>
<path d="M28.1461 10.9747H24.5909L23.5026 8.79811C23.2607 8.31445 22.7529 8 22.1967 8H16.7792C16.223 8 15.715 8.31446 15.4733 8.79811L14.385 10.9747H10.8297C9.25771 10.9747 8 12.2323 8 13.7802V24.7118C8 26.2597 9.25767 27.5415 10.8297 27.5415H28.1703C29.7182 27.5415 31 26.2838 31 24.7118V13.7802C30.9759 12.2323 29.7182 10.9747 28.1462 10.9747H28.1461ZM19.4878 24.1555C16.6341 24.1555 14.3122 21.8337 14.3122 18.9799C14.3122 16.1262 16.6341 13.8043 19.4878 13.8043C22.3416 13.8043 24.6634 16.1262 24.6634 18.9799C24.6634 21.8339 22.3416 24.1555 19.4878 24.1555Z" fill="black"/>
<path d="M21.8096 18.0851H20.3828V16.6582C20.3828 16.1503 19.9716 15.7634 19.488 15.7634C18.98 15.7634 18.5932 16.1746 18.5932 16.6582V18.0851H17.1663C16.6583 18.0851 16.2715 18.4962 16.2715 18.9799C16.2715 19.4879 16.6826 19.8747 17.1663 19.8747H18.5932V21.3016C18.5932 21.8096 19.0043 22.1964 19.488 22.1964C19.9959 22.1964 20.3828 21.7853 20.3828 21.3016V19.8747H21.8096C22.3176 19.8747 22.7045 19.4636 22.7045 18.9799C22.7045 18.4721 22.3175 18.0851 21.8096 18.0851Z" fill="black" stroke="black" stroke-width="0.5"/>
</svg>
