<svg width="25" height="24" viewBox="0 0 25 24" fill="none" xmlns="http://www.w3.org/2000/svg">
<path d="M20.9115 13.9168C20.1798 17.1413 17.6414 19.6798 14.4168 20.4115V21.5834C14.4168 22.6419 13.5587 23.5 12.5002 23.5C11.4417 23.5 10.5836 22.6418 10.5836 21.5834V20.4115C7.35913 19.6798 4.82061 17.1414 4.0889 13.9168H2.91659C1.85811 13.9168 1 13.0586 1 12.0002C1 10.9413 1.85816 10.0832 2.91659 10.0832H4.0889C4.82062 6.85868 7.35901 4.32061 10.5836 3.5889V2.41659C10.5836 1.35811 11.4418 0.5 12.5002 0.5C13.5587 0.5 14.4168 1.35816 14.4168 2.41659V3.5889C17.6413 4.32062 20.1798 6.85868 20.9115 10.0832H22.0834C23.1419 10.0832 24 10.9413 24 12.0002C24 13.0587 23.1418 13.9168 22.0834 13.9168H20.9115ZM12.5002 16.7916C15.1464 16.7916 17.292 14.6464 17.292 12.0002C17.292 9.35358 15.1464 7.2084 12.5002 7.2084C9.85359 7.2084 7.70841 9.35358 7.70841 12.0002C7.70841 14.6464 9.85359 16.7916 12.5002 16.7916ZM12.5003 13.9161C11.4419 13.9161 10.5837 13.058 10.5837 11.9996C10.5837 10.9406 11.4419 10.0825 12.5003 10.0825C13.5588 10.0825 14.4169 10.9407 14.4169 11.9996C14.4169 13.058 13.5588 13.9161 12.5003 13.9161Z" fill="#39F3FF" stroke="white"/>
</svg>
