<svg width="57" height="22" viewBox="0 0 57 22" fill="none" xmlns="http://www.w3.org/2000/svg">
<g id="Group 22981">
<path id="Vector" d="M48 2L39 8.49357L42.4377 19H45.9546V12.9816H50.0454V19H53.5623L57 8.49357L48 2Z" fill="#898C8D"/>
<g id="Group">
<path id="Vector_2" d="M8.99712 3.198C8.99712 3.198 6.12866 11.1068 0 12.1227C6.12866 13.1371 8.99712 21.0464 8.99712 21.0464C8.99712 21.0464 11.8656 13.1371 17.9928 12.1227C11.8656 11.1068 8.99712 3.198 8.99712 3.198Z" fill="#39F3FF"/>
<path id="Vector_3" d="M18.9619 0C18.9619 0 17.4323 4.21854 14.165 4.75895C17.4323 5.29982 18.9619 9.51649 18.9619 9.51649C18.9619 9.51649 20.4919 5.29982 23.7591 4.75895C20.4919 4.21854 18.9619 0 18.9619 0Z" fill="#39F3FF"/>
<path id="Vector_4" d="M16.972 17.251C16.972 17.251 16.3367 19.0003 14.9824 19.2237C16.3367 19.4486 16.972 21.1979 16.972 21.1979C16.972 21.1979 17.6059 19.4486 18.9616 19.2237C17.6059 19.0003 16.972 17.251 16.972 17.251Z" fill="#39F3FF"/>
</g>
</g>
</svg>
