<svg width="27" height="30" viewBox="0 0 27 30" fill="none" xmlns="http://www.w3.org/2000/svg">
<path d="M26.4397 22.4952C26.4545 22.2243 26.465 21.9533 26.4715 21.6816C26.493 20.863 25.812 20.246 24.8894 20.2115C24.5379 20.199 23.9925 20.1985 23.2989 20.2036C23.604 16.3919 23.1761 9.61356 22.6888 7.59268C22.3804 6.07246 21.4958 4.58596 20.2988 3.40542C19.1018 2.22504 17.65 1.4172 16.182 1.19278L16.1365 1.18588C14.3455 0.915039 13.7478 0.9195 13.3053 0.915039C12.5236 0.920111 12.1278 0.915039 10.3355 1.18325L10.2901 1.19015C8.82221 1.41737 7.37466 2.22401 6.17319 3.40559C4.97172 4.58696 4.0906 6.06962 3.78323 7.58978C3.29592 9.61332 2.86804 16.3947 3.17318 20.2038C2.48075 20.1988 1.9354 20.1994 1.58259 20.2118C0.660701 20.2471 -0.0216024 20.8634 0.000523016 21.6824C0.00660957 21.9537 0.0173622 22.2245 0.032984 22.4953C0.0692997 23.147 0.721571 23.7609 1.43956 23.8287H1.43935C9.28711 24.5483 17.1837 24.5483 25.0309 23.8287C25.7502 23.7611 26.4024 23.147 26.4393 22.4953L26.4397 22.4952Z" fill="black"/>
<path d="M13.2368 30.0004C11.2672 30.0004 9.52102 28.1615 9.38936 26.0274C9.38125 25.9311 9.41533 25.8361 9.48249 25.7667C9.54984 25.6974 9.64378 25.6604 9.74035 25.6655C12.0729 25.7412 14.4038 25.7412 16.7332 25.6655C16.8298 25.6604 16.9237 25.6974 16.9911 25.7667C17.0582 25.8361 17.0923 25.9311 17.0842 26.0274C16.9525 28.1615 15.2063 30.0004 13.2368 30.0004H13.2368Z" fill="black"/>
</svg>
