<svg width="29" height="29" viewBox="0 0 29 29" fill="none" xmlns="http://www.w3.org/2000/svg">
<path d="M14.4971 3.14165C16.6283 3.14676 18.0928 3.41642 19.0132 3.62128C19.5433 3.75172 20.1307 4.12279 20.6263 4.64189C21.1317 5.17078 21.4913 5.79884 21.6121 6.36374C21.615 6.37805 21.6185 6.39175 21.6219 6.40606C21.8239 7.39353 22.1801 14.7876 22.1159 17.5961V17.6212C22.1073 18.3912 22.3751 19.137 22.8703 19.7216C23.6759 20.6731 24.3994 21.5293 25.0777 22.3342C21.5663 22.4413 18.0062 22.4957 14.4954 22.4957C10.9846 22.4957 7.42438 22.4413 3.91297 22.3342C4.58562 21.5356 5.30916 20.6786 6.11978 19.7216C6.61495 19.137 6.88278 18.3912 6.87482 17.6212V17.5961C6.81124 14.7876 7.16739 7.39317 7.36877 6.40606C7.37225 6.39236 7.37511 6.37805 7.37797 6.36435C7.4988 5.79883 7.85822 5.17076 8.36424 4.64188C8.86003 4.12319 9.4474 3.7517 9.97733 3.62127C10.8996 3.41641 12.3664 3.14615 14.4971 3.14165ZM14.495 1.0741C12.2927 1.07859 10.6767 1.23697 9.48441 1.50316C7.52437 1.97135 5.67409 3.92917 5.25045 5.90983C4.97506 7.06045 4.63856 14.9582 4.69927 17.6463C4.70214 17.8931 4.61749 18.1306 4.45946 18.3167C3.67354 19.2447 2.895 20.1664 2.12671 21.0788C1.0276 22.3795 2.0707 24.4493 3.81197 24.5084C7.37327 24.6172 10.9337 24.6722 14.4954 24.6722C18.0567 24.6722 21.6171 24.6178 25.1788 24.5084C26.9203 24.4489 27.9632 22.3795 26.864 21.0788C26.0957 20.1657 25.3168 19.2447 24.5313 18.3167C24.3739 18.1307 24.2892 17.8931 24.2915 17.6463C24.3528 14.958 24.0155 7.06024 23.7403 5.90983C23.3167 3.92912 21.4664 1.97133 19.5064 1.50316C18.3136 1.23635 16.6977 1.0786 14.495 1.0741Z" fill="white" stroke="white" stroke-width="0.241667"/>
<path d="M14.4839 27.9295H14.4664C14.2479 27.9283 12.7355 27.9115 12.4027 27.8643C11.7221 27.7655 11.1423 27.3453 10.9937 26.8422C10.9925 26.8389 10.9915 26.8355 10.9909 26.8317C10.9325 26.6209 10.9038 26.4052 10.9032 25.0002C10.9032 24.7647 10.9325 24.5492 10.9909 24.3382C10.9921 24.3349 10.9931 24.3314 10.9937 24.3277C11.1426 23.8246 11.7221 23.4044 12.4031 23.3056C12.7353 23.2584 14.2481 23.2413 14.4668 23.2404H14.4787H14.4905C14.7091 23.2416 16.2221 23.2584 16.5542 23.3056C17.2349 23.4044 17.8147 23.8246 17.9637 24.3277C17.9649 24.331 17.9659 24.3344 17.9665 24.3382C18.0249 24.5489 18.0536 24.7647 18.0542 24.9974C18.0542 26.4052 18.0249 26.6206 17.9665 26.8317C17.9653 26.835 17.9643 26.8385 17.9637 26.8422C17.8147 27.3453 17.2353 27.7655 16.5542 27.8643C16.2215 27.9115 14.7093 27.9286 14.4905 27.9295H14.4839ZM14.4783 26.3312H14.4901C14.7093 26.3333 15.477 26.3169 15.912 26.3022C15.9154 26.2631 15.9176 25.0467 15.9182 24.9974C15.9182 24.9495 15.916 24.9061 15.912 24.8679C15.477 24.8532 14.7093 24.8376 14.4901 24.8389H14.4664C14.2457 24.8373 13.4795 24.8532 13.0446 24.8679C13.0412 24.907 13.039 24.9511 13.0384 25.0004C13.0384 25.0483 13.0406 26.2636 13.0446 26.3022C13.4795 26.3169 14.2461 26.3333 14.4664 26.3312H14.4783Z" fill="white"/>
<mask id="mask0_521_9" style="mask-type:alpha" maskUnits="userSpaceOnUse" x="0" y="0" width="29" height="29">
<rect width="29" height="29" fill="#D9D9D9"/>
</mask>
<g mask="url(#mask0_521_9)">
</g>
</svg>
