<svg width="28" height="29" viewBox="0 0 28 29" fill="none" xmlns="http://www.w3.org/2000/svg">
<path d="M9.49988 23.4153H11.4997C11.4997 24.8221 12.6189 25.9624 13.9996 25.9624C15.3804 25.9624 16.4996 24.8221 16.4996 23.4153H18.4994C18.4994 25.9475 16.485 28 13.9996 28C11.5143 28 9.49988 25.9475 9.49988 23.4153ZM26.9996 20.8674V21.3784C26.9996 22.507 26.104 23.4153 24.9988 23.4153H3.00087C1.89561 23.4153 1 22.5038 1 21.3784V20.8674C1 19.0725 2.304 17.5878 4.00014 17.3387V11.1887C4.00014 5.56025 8.4766 1 14 1C19.5234 1 23.9999 5.56098 23.9999 11.1887V17.3387C25.6981 17.5871 26.9996 19.0707 26.9996 20.8674ZM24.9995 20.8674C24.9995 20.0223 24.3288 19.3397 23.4949 19.3397C22.6686 19.3397 21.9997 18.6528 21.9997 17.8152V11.1886C21.9997 6.68665 18.4186 3.03783 13.9996 3.03783C9.58069 3.03783 5.99957 6.68556 5.99957 11.1886V17.8152C5.99957 18.6567 5.32715 19.3397 4.50442 19.3397C3.6733 19.3397 2.99979 20.0245 2.99979 20.8674V21.3777H24.9986L24.9995 20.8674Z" fill="black" stroke="black" stroke-width="0.7"/>
</svg>
