<svg width="49" height="22" viewBox="0 0 49 22" fill="none" xmlns="http://www.w3.org/2000/svg">
<rect y="3" width="46" height="17" rx="8.5" fill="#1B1B1B"/>
<path fill-rule="evenodd" clip-rule="evenodd" d="M4.05679 2V3.35222H42.307V2H4.05679ZM42.307 3.35222V4.70457H43.6592V3.35222H42.307ZM43.6592 4.70457V6.05679H45.0115V4.70457H43.6592ZM45.0115 6.05679V17.9431H46.3638V6.05679H45.0115ZM45.0115 17.9431H43.6592V19.2954H45.0115V17.9431ZM43.6592 19.2954H42.307V20.6477H43.6592V19.2954ZM42.307 20.6477H4.05679V22H42.307V20.6477ZM4.05679 20.6477V19.2954H2.70457V20.6477H4.05679ZM2.70457 19.2954V17.9431H1.35234V19.2954H2.70457ZM1.35234 17.9431V6.05679H0V17.9431H1.35234ZM1.35234 6.05679H2.70457V4.70457H1.35234V6.05679ZM2.70457 4.70457H4.05679V3.35222H2.70457V4.70457Z" fill="url(#paint0_linear_558_9)"/>
<rect x="39" width="10" height="10" rx="5" fill="#FF00A8"/>
<defs>
<linearGradient id="paint0_linear_558_9" x1="23.1819" y1="4" x2="23.1819" y2="19.4545" gradientUnits="userSpaceOnUse">
<stop stop-color="#3AEDE7"/>
<stop offset="1" stop-color="#3AFC8F"/>
</linearGradient>
</defs>
</svg>
