<svg width="25" height="26" viewBox="0 0 25 26" fill="none" xmlns="http://www.w3.org/2000/svg">
<path d="M24 25.0004C24 25.2765 23.7761 25.5004 23.5 25.5004H1.5C1.22386 25.5004 1 25.2765 1 25.0004V9.58935C1 9.31321 1.22386 9.08936 1.5 9.08936H6.31046C6.5866 9.08936 6.81046 9.31321 6.81046 9.58936V10.7422C6.81046 11.0183 6.5866 11.2422 6.31046 11.2422H3.65285C3.37671 11.2422 3.15285 11.4661 3.15285 11.7422V22.8475C3.15285 23.1237 3.37671 23.3475 3.65285 23.3475H21.3471C21.6233 23.3475 21.8471 23.1237 21.8471 22.8475V11.7422C21.8471 11.4661 21.6233 11.2422 21.3471 11.2422H18.6895C18.4134 11.2422 18.1895 11.0183 18.1895 10.7422V9.58936C18.1895 9.31321 18.4134 9.08936 18.6895 9.08936H23.5C23.7761 9.08936 24 9.31321 24 9.58936V25.0004Z" fill="#6F6F6F" stroke="#0E0E0E" stroke-width="0.2"/>
<path d="M17.5809 5.07932L12.5016 0L7.42224 5.07932L8.80123 6.59299L11.1561 4.13745V17.5683H13.847V4.13745L16.2018 6.59299L17.5809 5.07932Z" fill="#6F6F6F"/>
</svg>
