<svg width="52" height="30" viewBox="0 0 52 30" fill="none" xmlns="http://www.w3.org/2000/svg">
<path d="M0 11C0 4.92487 4.92487 0 11 0H41C47.0751 0 52 4.92487 52 11V19C52 25.0751 47.0751 30 41 30H11C4.92487 30 0 25.0751 0 19V11Z" fill="#39F3FF"/>
<path d="M11.6992 16.5195C11.6992 18.1602 12.7246 19.6709 14.9941 19.6709C17.0859 19.6709 18.3643 18.543 18.3643 16.3623V10.1689H16.1152V16.376C16.1152 17.2168 15.7666 17.6953 14.9736 17.6953C14.2969 17.6953 13.8662 17.2373 13.8525 16.5195H11.6992ZM23.5049 12.0693C21.3789 12.0693 20.0391 13.457 20.0391 15.5146V16.1504C20.0391 18.3857 21.3721 19.6367 23.5049 19.6367C25.624 19.6367 26.9639 18.3789 26.9639 16.1436V15.501C26.9639 13.416 25.624 12.0693 23.5049 12.0693ZM23.5049 13.6963C24.4004 13.6963 24.7559 14.5508 24.7559 15.5078V16.1846C24.7559 17.1074 24.4346 18.0029 23.5049 18.0029C22.5752 18.0029 22.2402 17.1006 22.2402 16.1846V15.5078C22.2402 14.5576 22.6094 13.6963 23.5049 13.6963ZM28.4814 10.1143C28.4814 10.7705 29.0078 11.2012 29.7803 11.2012C30.5664 11.2012 31.0791 10.7705 31.0791 10.1143C31.0791 9.45117 30.5596 9.01367 29.7803 9.01367C29.001 9.01367 28.4814 9.45117 28.4814 10.1143ZM28.6934 19.5H30.874V12.1992H28.6934V19.5ZM32.9316 19.5H35.1123V15.4668C35.1123 14.4824 35.6318 13.8945 36.3906 13.8945C36.9785 13.8945 37.5322 14.2227 37.5322 15.2549V19.5H39.7129V14.6738C39.7129 12.9443 38.7627 12.0898 37.2998 12.0898C35.9326 12.0898 35.3379 12.9033 35.1533 13.4639H35.0508V12.1992H32.9316V19.5Z" fill="black"/>
</svg>
