<svg width="52" height="30" viewBox="0 0 52 30" fill="none" xmlns="http://www.w3.org/2000/svg">
<path d="M0 19C0 25.0751 4.92487 30 11 30H41C47.0751 30 52 25.0751 52 19V11C52 4.92487 47.0751 -1.19209e-06 41 -1.19209e-06H11C4.92487 -1.19209e-06 0 4.92487 0 11V19Z" fill="url(#paint0_linear_1157_10)"/>
<path d="M11.6992 17.0195C11.6992 18.6602 12.7246 20.1709 14.9941 20.1709C17.0859 20.1709 18.3643 19.043 18.3643 16.8623V10.6689H16.1152V16.876C16.1152 17.7168 15.7666 18.1953 14.9736 18.1953C14.2969 18.1953 13.8662 17.7373 13.8525 17.0195H11.6992ZM23.5049 12.5693C21.3789 12.5693 20.0391 13.957 20.0391 16.0146V16.6504C20.0391 18.8857 21.3721 20.1367 23.5049 20.1367C25.624 20.1367 26.9639 18.8789 26.9639 16.6436V16.001C26.9639 13.916 25.624 12.5693 23.5049 12.5693ZM23.5049 14.1963C24.4004 14.1963 24.7559 15.0508 24.7559 16.0078V16.6846C24.7559 17.6074 24.4346 18.5029 23.5049 18.5029C22.5752 18.5029 22.2402 17.6006 22.2402 16.6846V16.0078C22.2402 15.0576 22.6094 14.1963 23.5049 14.1963ZM28.4814 10.6143C28.4814 11.2705 29.0078 11.7012 29.7803 11.7012C30.5664 11.7012 31.0791 11.2705 31.0791 10.6143C31.0791 9.95117 30.5596 9.51367 29.7803 9.51367C29.001 9.51367 28.4814 9.95117 28.4814 10.6143ZM28.6934 20H30.874V12.6992H28.6934V20ZM32.9316 20H35.1123V15.9668C35.1123 14.9824 35.6318 14.3945 36.3906 14.3945C36.9785 14.3945 37.5322 14.7227 37.5322 15.7549V20H39.7129V15.1738C39.7129 13.4443 38.7627 12.5898 37.2998 12.5898C35.9326 12.5898 35.3379 13.4033 35.1533 13.9639H35.0508V12.6992H32.9316V20Z" fill="black"/>
<defs>
<linearGradient id="paint0_linear_1157_10" x1="26" y1="30" x2="26" y2="0" gradientUnits="userSpaceOnUse">
<stop stop-color="#39C4FF"/>
<stop offset="0.527909" stop-color="#24E5FF"/>
<stop offset="1" stop-color="#61ECFF"/>
</linearGradient>
</defs>
</svg>
