<svg width="22" height="18" viewBox="0 0 22 18" fill="none" xmlns="http://www.w3.org/2000/svg">
<g opacity="0.6">
<path d="M18.8568 16.711H3.14234C2.74821 16.711 2.42822 16.391 2.42822 15.9966C2.42822 15.6022 2.74822 15.2822 3.14259 15.2822H18.857C19.2514 15.2822 19.5714 15.6022 19.5714 15.9966C19.5712 16.391 19.2512 16.711 18.8568 16.711Z" fill="black" stroke="black" stroke-width="1.5"/>
<path d="M7.42946 8.14166C7.24651 8.14166 7.06379 8.07158 6.92364 7.93311L1.20945 2.21892C0.930833 1.9403 0.930833 1.4876 1.20945 1.20896C1.48807 0.930345 1.94078 0.930345 2.21941 1.20896L7.9336 6.92316C8.21222 7.20178 8.21222 7.65448 7.9336 7.93311C7.79513 8.07158 7.61218 8.14166 7.42946 8.14166Z" fill="black" stroke="black" stroke-width="1.5"/>
<path d="M1.71478 8.14166C1.53183 8.14166 1.34911 8.07158 1.20896 7.93311C0.930345 7.65449 0.930345 7.20179 1.20896 6.92316L6.92316 1.20896C7.20178 0.930345 7.65448 0.930345 7.93311 1.20896C8.21173 1.48758 8.21173 1.94029 7.93311 2.21892L2.21892 7.93311C2.08069 8.07158 1.89774 8.14166 1.71478 8.14166Z" fill="black" stroke="black" stroke-width="1.5"/>
<path d="M20.2869 8.14166C20.1039 8.14166 19.9212 8.07158 19.7811 7.93311L14.0669 2.21892C13.7883 1.9403 13.7883 1.4876 14.0669 1.20896C14.3455 0.930345 14.7982 0.930345 15.0768 1.20896L20.791 6.92316C21.0696 7.20178 21.0696 7.65448 20.791 7.93311C20.6526 8.07158 20.4696 8.14166 20.2869 8.14166Z" fill="black" stroke="black" stroke-width="1.5"/>
<path d="M14.5722 8.14166C14.3892 8.14166 14.2065 8.07158 14.0664 7.93311C13.7878 7.65449 13.7878 7.20179 14.0664 6.92316L19.7806 1.20896C20.0592 0.930345 20.5119 0.930345 20.7905 1.20896C21.0692 1.48758 21.0692 1.94029 20.7905 2.21892L15.0763 7.93311C14.9381 8.07158 14.7552 8.14166 14.5722 8.14166Z" fill="black" stroke="black" stroke-width="1.5"/>
</g>
</svg>
