<svg width="72" height="37" viewBox="0 0 72 37" fill="none" xmlns="http://www.w3.org/2000/svg">
<path d="M0 18.5C0 8.28273 8.28273 0 18.5 0H53.5C63.7173 0 72 8.28273 72 18.5V18.5C72 28.7173 63.7173 37 53.5 37H18.5C8.28273 37 0 28.7173 0 18.5V18.5Z" fill="#ABABAB"/>
<path d="M19.8362 21.2388C19.8929 22.7539 20.9903 24.177 23.7232 24.177C26.3287 24.177 27.6951 22.8884 27.6951 21.0547C27.6951 19.2917 26.5198 18.5625 25.0472 18.2722L23.6453 17.9819C22.824 17.8262 22.3497 17.5076 22.3497 16.9907C22.3497 16.3748 22.8594 15.9075 23.794 15.9075C24.7569 15.9075 25.295 16.4314 25.3729 17.0049H27.5252C27.4686 15.511 26.2154 14.1516 23.8011 14.1516C21.5638 14.1516 20.0345 15.3057 20.0345 17.1606C20.0345 18.7607 21.0682 19.5891 22.6046 19.9077L23.971 20.2051C24.9197 20.4104 25.4012 20.6865 25.4012 21.2883C25.4012 21.9255 24.8914 22.3999 23.8152 22.3999C22.7603 22.3999 22.1302 21.876 22.0523 21.2388H19.8362ZM31.5396 24.1133C32.6512 24.1133 33.2601 23.5894 33.515 23.0725H33.6212V24H35.7381V18.9731C35.7381 17.019 34.2938 16.3252 32.5025 16.3252C30.1802 16.3252 29.3731 17.5076 29.3165 18.7253H31.4334C31.49 18.2935 31.8228 17.9749 32.4671 17.9749C33.1043 17.9749 33.515 18.2864 33.515 18.9023V19.5325H31.752C29.9962 19.5325 29.0403 20.4316 29.0403 21.8052C29.0403 23.2495 30.0599 24.1133 31.5396 24.1133ZM32.3184 22.5344C31.7733 22.5344 31.2635 22.23 31.2635 21.6353C31.2635 21.1255 31.6387 20.7715 32.3467 20.7715H33.515V21.5078C33.515 22.1096 32.9556 22.5344 32.3184 22.5344ZM39.2357 24H41.8199L44.4041 16.4385H42.0394L40.6092 21.9822H40.5171L39.2711 16.4385H36.8213L39.2357 24ZM48.7371 24.1416C51.0523 24.1416 52.001 22.6902 52.0506 21.6636H49.9832C49.9266 22.1379 49.4097 22.4707 48.73 22.4707C47.93 22.4707 47.3423 21.9114 47.3423 21.0334V20.6865H52.1002V19.8511C52.1002 17.6492 50.6841 16.304 48.638 16.304C46.7122 16.304 45.1475 17.4863 45.1475 19.8511V20.5732C45.1475 22.9309 46.5919 24.1416 48.7371 24.1416ZM47.3423 19.4192V19.3696C47.3423 18.4988 47.8804 17.9182 48.6592 17.9182C49.438 17.9182 49.9407 18.4988 49.9407 19.3696V19.4192H47.3423Z" fill="black"/>
</svg>
