<svg width="40" height="40" viewBox="0 0 40 40" fill="none" xmlns="http://www.w3.org/2000/svg">
<g id="Group 22666">
<rect id="Rectangle 4930" width="40" height="40" rx="20" fill="#2E2E2E"/>
<g id="Group">
<path id="Vector" d="M19.4762 30.7487L19.994 31.0506L20.5118 30.7487C20.8684 30.5466 29.2516 25.568 29.2516 18.203C29.2516 14.8954 27.4872 11.8395 24.6228 10.1857C21.7585 8.53184 18.2294 8.53184 15.3651 10.1857C12.5008 11.8394 10.7363 14.8956 10.7363 18.203C10.7363 25.5682 19.1197 30.5467 19.4761 30.7487H19.4762ZM19.994 11.0025C21.9038 11.0025 23.7352 11.7612 25.0855 13.1115C26.4359 14.4619 27.1946 16.2933 27.1946 18.2031C27.1946 23.4286 21.7084 27.4884 19.9941 28.6438C18.2625 27.4917 12.7936 23.4422 12.7936 18.2031C12.7936 16.2933 13.5523 14.4619 14.9026 13.1115C16.253 11.7612 18.0844 11.0025 19.9941 11.0025H19.994Z" fill="#727272"/>
<path id="Vector_2" d="M19.9944 22.319C21.0858 22.319 22.1322 21.8856 22.9038 21.1137C23.6756 20.3421 24.109 19.2958 24.109 18.2044C24.109 17.113 23.6756 16.0667 22.9038 15.2951C22.1322 14.5233 21.0858 14.0898 19.9944 14.0898C18.903 14.0898 17.8567 14.5232 17.0851 15.2951C16.3133 16.0667 15.8799 17.113 15.8799 18.2044C15.8799 19.2958 16.3133 20.3421 17.0851 21.1137C17.8567 21.8855 18.903 22.319 19.9944 22.319ZM19.9944 16.1471C20.54 16.1471 21.0633 16.3641 21.4491 16.7498C21.8349 17.1356 22.0518 17.659 22.0518 18.2045C22.0518 18.7501 21.8349 19.2734 21.4491 19.6592C21.0633 20.045 20.54 20.2619 19.9944 20.2619C19.4489 20.2619 18.9256 20.045 18.5398 19.6592C18.154 19.2734 17.9371 18.7501 17.9371 18.2045C17.9371 17.659 18.154 17.1356 18.5398 16.7498C18.9256 16.3641 19.4489 16.1471 19.9944 16.1471Z" fill="#727272"/>
</g>
</g>
</svg>
