<svg width="18" height="22" viewBox="0 0 18 22" fill="none" xmlns="http://www.w3.org/2000/svg">
<path d="M8.30289 21.0433L8.79481 21.33L9.28673 21.0433C9.62551 20.8513 17.5895 16.1216 17.5895 9.12483C17.5895 5.98264 15.9134 3.07952 13.1922 1.50842C10.4711 -0.0627855 7.11838 -0.0627855 4.39732 1.50842C1.6762 3.0794 0 5.98276 0 9.12483C0 16.1217 7.96424 20.8513 8.30277 21.0433H8.30289ZM8.79481 2.28437C10.6091 2.28437 12.3489 3.00512 13.6318 4.28794C14.9146 5.57076 15.6353 7.3106 15.6353 9.12489C15.6353 14.0891 10.4234 17.9459 8.79487 19.0435C7.14984 17.9491 1.95441 14.1021 1.95441 9.12489C1.95441 7.3106 2.67516 5.57076 3.95798 4.28794C5.2408 3.00512 6.98064 2.28437 8.79493 2.28437H8.79481Z" fill="#79EDF6"/>
<path d="M8.79506 13.0335C9.83183 13.0335 10.8259 12.6218 11.5589 11.8886C12.2921 11.1556 12.7039 10.1615 12.7039 9.12471C12.7039 8.08788 12.2922 7.09386 11.5589 6.36084C10.8259 5.62765 9.83189 5.21588 8.79506 5.21588C7.75823 5.21588 6.76422 5.62759 6.03119 6.36084C5.298 7.09386 4.88623 8.08788 4.88623 9.12471C4.88623 10.1615 5.29794 11.1556 6.03119 11.8886C6.76422 12.6218 7.75823 13.0335 8.79506 13.0335ZM8.79506 7.1703C9.31334 7.1703 9.81048 7.37638 10.177 7.74288C10.5435 8.10938 10.7496 8.60655 10.7496 9.12482C10.7496 9.64309 10.5435 10.1402 10.177 10.5068C9.8105 10.8733 9.31333 11.0793 8.79506 11.0793C8.27679 11.0793 7.77964 10.8733 7.41313 10.5068C7.04663 10.1403 6.84054 9.64309 6.84054 9.12482C6.84054 8.60655 7.04663 8.10939 7.41313 7.74288C7.77963 7.37638 8.27679 7.1703 8.79506 7.1703Z" fill="#79EDF6"/>
</svg>
