<svg width="46" height="31" viewBox="0 0 46 31" fill="none" xmlns="http://www.w3.org/2000/svg">
<path d="M13.6875 7.46051V28.1265C13.6875 29.1825 14.435 29.6134 15.348 29.0867L22.7955 24.7913C23.1051 24.6127 23.2959 24.2825 23.2959 23.925L23.2956 1.73318C23.2956 0.963702 22.4629 0.482548 21.7962 0.86682L15.3477 4.5838C14.435 5.11292 13.6875 6.40529 13.6875 7.46106L13.6875 7.46051Z" fill="#7CF7FF"/>
<path d="M43.4091 0.957892L35.9634 5.25056C35.6537 5.42911 35.4629 5.75941 35.4629 6.11689V28.3111C35.4629 29.0807 36.2959 29.5619 36.9626 29.1773L43.4091 25.4584C44.3219 24.9318 45.0697 23.6397 45.0697 22.5849L45.0694 1.91814C45.0694 0.863328 44.3219 0.431239 43.4091 0.957892Z" fill="#7CF7FF"/>
<path d="M24.5728 23.9229C24.5728 24.2803 24.7635 24.6106 25.0731 24.7891L32.6811 29.1779C33.3478 29.5624 34.1808 29.0813 34.1808 28.3117V6.11741C34.1808 5.75993 33.99 5.42964 33.6803 5.25109L26.0722 0.864551C25.4056 0.480175 24.5728 0.961333 24.5728 1.73087V23.9229Z" fill="#7CF7FF"/>
<path d="M10.7789 8.90529V5.87382H6.90529V2H3.87358V5.87382H0V8.90529H3.87358V12.7791H6.90529V8.90529H10.7789Z" fill="#7CF7FF"/>
</svg>
