<svg width="68" height="38" viewBox="0 0 68 38" fill="none" xmlns="http://www.w3.org/2000/svg">
<path d="M34.0231 15.9989C34.0231 8.34062 40.2314 2.13232 47.8897 2.13232C55.548 2.13232 61.7563 8.34062 61.7563 15.9989C61.7563 23.6573 55.548 29.8655 47.8897 29.8655C40.2314 29.8655 34.0231 23.6573 34.0231 15.9989Z" fill="white"/>
<path d="M0 19C0 8.50659 8.50659 0 19 0H49C59.4934 0 68 8.50659 68 19C68 29.4934 59.4934 38 49 38H19C8.50659 38 0 29.4934 0 19Z" fill="#AEAEAE"/>
<path d="M3 19C3 10.1634 10.1634 3 19 3C27.8366 3 35 10.1634 35 19C35 27.8366 27.8366 35 19 35C10.1634 35 3 27.8366 3 19Z" fill="white"/>
</svg>
