<svg width="14" height="14" viewBox="0 0 14 14" fill="none" xmlns="http://www.w3.org/2000/svg">
<path d="M12.7037 0H1.2963C0.952548 0 0.622815 0.136574 0.37963 0.37963C0.136574 0.62283 0 0.952556 0 1.2963V12.7037C0 13.0475 0.136574 13.3772 0.37963 13.6204C0.62283 13.8634 0.952556 14 1.2963 14H12.7037C13.0475 14 13.3772 13.8634 13.6204 13.6204C13.8634 13.3772 14 13.0474 14 12.7037V1.2963C14 0.952548 13.8634 0.622815 13.6204 0.37963C13.3772 0.136574 13.0474 0 12.7037 0ZM7 2.33333C7.61878 2.33333 8.21237 2.57914 8.64989 3.01678C9.08752 3.45426 9.33333 4.04789 9.33333 4.66667C9.33333 5.28544 9.08753 5.87904 8.64989 6.31656C8.21241 6.75419 7.61878 7 7 7C6.38122 7 5.78763 6.7542 5.35011 6.31656C4.91248 5.87907 4.66667 5.28544 4.66667 4.66667C4.66667 4.04789 4.91247 3.4543 5.35011 3.01678C5.78759 2.57915 6.38122 2.33333 7 2.33333ZM11.6667 11.1481C11.6589 11.3268 11.6185 11.5026 11.5475 11.6667H2.47338C2.39511 11.5039 2.34766 11.3281 2.33333 11.1481V11.0911C2.33333 9.69111 4.42304 8.55555 7 8.55555C9.57696 8.55555 11.6667 9.69111 11.6667 11.0911V11.1481Z" fill="#ABABAB"/>
</svg>
