<svg width="46" height="46" viewBox="0 0 46 46" fill="none" xmlns="http://www.w3.org/2000/svg">
<circle cx="23" cy="23" r="22" stroke="#79F193" stroke-width="2"/>
<path fill-rule="evenodd" clip-rule="evenodd" d="M15.7273 19.6271C14.2001 19.7617 13 21.1156 13 22.7656V31.8501C13 33.5886 14.3346 35 15.9781 35H30.0219C31.6656 35 33 33.5884 33 31.8501V22.7656C33 21.1156 31.7999 19.7617 30.2727 19.6271V17.7483C30.2727 13.4676 27.0145 10 22.9999 10C18.9853 10 15.7271 13.4673 15.7271 17.7483L15.7273 19.6271ZM28.4547 19.6155V17.7483C28.4547 14.5329 26.0147 11.9231 23.0001 11.9231C19.9855 11.9231 17.5455 14.5327 17.5455 17.7483V19.6155H28.4547Z" fill="#79F193"/>
</svg>
