<svg width="18" height="17" viewBox="0 0 18 17" fill="none" xmlns="http://www.w3.org/2000/svg">
<path d="M12.6895 9.25004L9.9069 15.4116C9.74514 15.7698 9.38171 16.0188 9.0038 15.9108C8.63706 15.806 8.2994 15.6115 8.02452 15.341C7.59576 14.919 7.35489 14.3467 7.35489 13.75V11.75C7.35489 11.1977 6.90717 10.75 6.35489 10.75H3.04144C2.82051 10.7525 2.60167 10.7077 2.40009 10.6186C2.19851 10.5296 2.01901 10.3985 1.87403 10.2344C1.72904 10.0703 1.62204 9.87717 1.56044 9.66835C1.49884 9.45953 1.4841 9.24003 1.51726 9.02504L2.56895 2.27509C2.62406 1.91741 2.80868 1.59139 3.08877 1.35709C3.36886 1.12279 3.72555 0.996006 4.09313 1.0001H12.6895M12.6895 9.25004V1.0001M12.6895 9.25004H14.9758C15.3801 9.25004 15.7677 9.09201 16.0536 8.81071C16.3394 8.5294 16.5 8.14787 16.5 7.75005V2.50009C16.5 2.10226 16.3394 1.72074 16.0536 1.43943C15.7677 1.15813 15.3801 1.0001 14.9758 1.0001H12.6895" stroke="#FC4B24" stroke-width="1.25" stroke-linecap="round" stroke-linejoin="round"/>
</svg>
