<svg width="172" height="30" viewBox="0 0 172 30" fill="none" xmlns="http://www.w3.org/2000/svg">
<rect width="172" height="30" rx="15" fill="url(#paint0_linear_224_8)"/>
<path d="M33.2268 18.8516C33.2268 19.6309 32.8303 20.0684 32.1125 20.0684C31.3811 20.0684 30.9641 19.624 30.9641 18.8516V12.3027C30.9641 11.1953 31.4631 10.6689 32.5363 10.6689H35.0041C37.0959 10.6689 38.3811 11.7695 38.3811 13.5605C38.3811 14.7363 37.8068 15.6592 36.7951 16.1309L38.0119 18.2842C38.135 18.4961 38.1965 18.7559 38.1965 18.9951C38.1965 19.6172 37.7316 20.0547 37.0754 20.0547C36.4807 20.0547 36.1662 19.8086 35.7971 19.084L34.5666 16.6846H33.2268V18.8516ZM33.2268 15.085H34.6965C35.592 15.085 36.1389 14.6133 36.1389 13.7656C36.1389 12.9316 35.5988 12.46 34.6965 12.46H33.2268V15.085ZM40.0198 18.708V11.9609C40.0198 11.127 40.4778 10.6689 41.3323 10.6689H45.5637C46.0832 10.6689 46.4524 11.0381 46.4524 11.5713C46.4524 12.0977 46.0832 12.46 45.5637 12.46H42.2551V14.4766H45.3997C45.885 14.4766 46.2131 14.8184 46.2131 15.3105C46.2131 15.8096 45.885 16.1309 45.3997 16.1309H42.2551V18.209H45.5364C46.0832 18.209 46.4524 18.5645 46.4524 19.1045C46.4524 19.6514 46.0832 20 45.5295 20H41.3323C40.4778 20 40.0198 19.5488 40.0198 18.708ZM49.219 20.0684C48.4876 20.0684 48.0638 19.6172 48.0638 18.8516V11.9609C48.0638 11.127 48.5218 10.6689 49.3694 10.6689H53.5462C54.0657 10.6689 54.4417 11.0518 54.4417 11.585C54.4417 12.1113 54.0657 12.4805 53.5462 12.4805H50.3264V14.7227H53.1975C53.7376 14.7227 54.0931 15.0781 54.0931 15.6045C54.0931 16.1309 53.7307 16.4863 53.1975 16.4863H50.3264V18.8516C50.3264 19.6309 49.93 20.0684 49.219 20.0684ZM57.9876 18.8516C57.9876 19.6309 57.5911 20.0684 56.8734 20.0684C56.1419 20.0684 55.7249 19.624 55.7249 18.8516V12.3027C55.7249 11.1953 56.2239 10.6689 57.2972 10.6689H59.765C61.8568 10.6689 63.1419 11.7695 63.1419 13.5605C63.1419 14.7363 62.5677 15.6592 61.556 16.1309L62.7728 18.2842C62.8958 18.4961 62.9573 18.7559 62.9573 18.9951C62.9573 19.6172 62.4925 20.0547 61.8363 20.0547C61.2415 20.0547 60.9271 19.8086 60.5579 19.084L59.3275 16.6846H57.9876V18.8516ZM57.9876 15.085H59.4573C60.3529 15.085 60.8997 14.6133 60.8997 13.7656C60.8997 12.9316 60.3597 12.46 59.4573 12.46H57.9876V15.085ZM64.7806 18.708V11.9609C64.7806 11.127 65.2386 10.6689 66.0931 10.6689H70.3246C70.8441 10.6689 71.2132 11.0381 71.2132 11.5713C71.2132 12.0977 70.8441 12.46 70.3246 12.46H67.016V14.4766H70.1605C70.6459 14.4766 70.974 14.8184 70.974 15.3105C70.974 15.8096 70.6459 16.1309 70.1605 16.1309H67.016V18.209H70.2972C70.8441 18.209 71.2132 18.5645 71.2132 19.1045C71.2132 19.6514 70.8441 20 70.2904 20H66.0931C65.2386 20 64.7806 19.5488 64.7806 18.708ZM72.4213 18.0791C72.4213 17.5322 72.8178 17.1494 73.3031 17.1494C73.6313 17.1494 73.9115 17.2725 74.2875 17.6074C74.848 18.1338 75.5248 18.4209 76.2152 18.4209C77.1928 18.4209 77.7191 18.0654 77.7191 17.4229C77.7191 16.9033 77.309 16.582 76.3246 16.3701L75.0395 16.0762C73.3578 15.7207 72.5307 14.8525 72.5307 13.4238C72.5307 11.6328 73.9252 10.498 76.1127 10.498C77.309 10.498 78.3891 10.8467 79.018 11.4414C79.4213 11.8105 79.6332 12.2207 79.6332 12.6377C79.6332 13.1367 79.2777 13.4785 78.7514 13.4785C78.4574 13.4785 78.1635 13.3486 77.8764 13.0752C77.3979 12.5488 76.8441 12.2754 76.14 12.2754C75.3129 12.2754 74.7934 12.6514 74.7934 13.2393C74.7934 13.752 75.1898 14.1143 76.058 14.2852L77.3568 14.5654C79.0932 14.9141 79.934 15.7686 79.934 17.1836C79.934 19.0225 78.4369 20.2051 76.099 20.2051C74.8139 20.2051 73.6723 19.8359 73.0365 19.2344C72.64 18.8584 72.4213 18.4619 72.4213 18.0791ZM88.3266 20.0684C87.602 20.0684 87.1987 19.6309 87.1987 18.8516V16.1719H83.7739V18.8516C83.7739 19.624 83.3637 20.0684 82.6391 20.0684C81.9145 20.0684 81.5112 19.6309 81.5112 18.8516V11.8174C81.5112 11.0381 81.9145 10.6006 82.6391 10.6006C83.3637 10.6006 83.7739 11.0449 83.7739 11.8174V14.374H87.1987V11.8174C87.1987 11.0381 87.602 10.6006 88.3266 10.6006C89.0512 10.6006 89.4614 11.0449 89.4614 11.8174V18.8516C89.4614 19.624 89.0512 20.0684 88.3266 20.0684ZM100.545 19.0566C100.545 19.6104 100.149 20 99.5816 20H95.7261C94.8716 20 94.4136 19.5488 94.4136 18.708V11.8174C94.4136 11.0381 94.8169 10.6006 95.5415 10.6006C96.2661 10.6006 96.6763 11.0449 96.6763 11.8174V18.1133H99.5816C100.149 18.1133 100.545 18.5029 100.545 19.0566ZM101.261 15.9326V14.8184C101.261 12.125 102.793 10.498 105.383 10.498C107.974 10.498 109.499 12.1318 109.499 14.8184V15.9326C109.499 18.5986 107.974 20.2051 105.383 20.2051C102.779 20.2051 101.261 18.5918 101.261 15.9326ZM103.524 14.8047V15.9326C103.524 17.457 104.214 18.3594 105.383 18.3594C106.545 18.3594 107.236 17.457 107.236 15.9326V14.8047C107.236 13.2598 106.539 12.3438 105.383 12.3438C104.214 12.3438 103.524 13.2598 103.524 14.8047ZM110.864 15.8027V14.791C110.864 12.1045 112.347 10.498 114.918 10.498C116.134 10.498 117.214 10.8672 117.884 11.5166C118.336 11.9541 118.609 12.4873 118.609 12.9111C118.609 13.458 118.233 13.8203 117.686 13.8203C117.324 13.8203 117.057 13.6836 116.702 13.3213C116.189 12.6924 115.711 12.4053 115.054 12.4053C113.824 12.4053 113.127 13.3145 113.127 14.8936V15.7002C113.127 17.3818 113.81 18.291 115.054 18.291C115.717 18.291 116.251 18.0039 116.736 17.3887C117.098 17.0127 117.344 16.8828 117.693 16.8828C118.247 16.8828 118.623 17.252 118.623 17.792C118.623 18.332 118.254 18.9336 117.659 19.3779C116.989 19.8975 116.046 20.2051 114.918 20.2051C112.306 20.2051 110.864 18.6055 110.864 15.8027ZM120.719 20.0752C120.104 20.0752 119.68 19.6924 119.68 19.1455C119.68 18.9199 119.742 18.6602 119.899 18.2021L121.964 12.1523C122.333 11.0449 122.866 10.6006 123.85 10.6006C124.835 10.6006 125.354 11.0381 125.73 12.1523L127.788 18.2021C127.911 18.585 127.972 18.8584 127.972 19.0977C127.972 19.6924 127.548 20.0752 126.899 20.0752C126.298 20.0752 125.949 19.7471 125.723 18.9746L125.368 17.8604H122.23L121.868 18.9746C121.642 19.7676 121.321 20.0752 120.719 20.0752ZM122.695 16.2266H124.91L123.864 12.6924H123.755L122.695 16.2266ZM131.532 20.0684C130.828 20.0684 130.404 19.6172 130.404 18.8789V12.5215H128.633C128.114 12.5215 127.724 12.125 127.724 11.5986C127.724 11.0654 128.114 10.6689 128.633 10.6689H134.451C134.97 10.6689 135.353 11.0654 135.353 11.5986C135.353 12.125 134.97 12.5215 134.451 12.5215H132.667V18.8789C132.667 19.6172 132.236 20.0684 131.532 20.0684ZM137.552 20.0684C136.828 20.0684 136.411 19.624 136.411 18.8516V11.8174C136.411 11.0381 136.814 10.6006 137.539 10.6006C138.263 10.6006 138.674 11.0449 138.674 11.8174V18.8516C138.674 19.6309 138.27 20.0684 137.552 20.0684ZM140.36 15.9326V14.8184C140.36 12.125 141.891 10.498 144.482 10.498C147.073 10.498 148.597 12.1318 148.597 14.8184V15.9326C148.597 18.5986 147.073 20.2051 144.482 20.2051C141.878 20.2051 140.36 18.5918 140.36 15.9326ZM142.623 14.8047V15.9326C142.623 17.457 143.313 18.3594 144.482 18.3594C145.644 18.3594 146.335 17.457 146.335 15.9326V14.8047C146.335 13.2598 145.637 12.3438 144.482 12.3438C143.313 12.3438 142.623 13.2598 142.623 14.8047ZM152.396 18.8926C152.396 19.6309 152.02 20.0684 151.357 20.0684C150.694 20.0684 150.304 19.624 150.304 18.8926V11.9268C150.304 11.0518 150.68 10.6006 151.426 10.6006C151.925 10.6006 152.212 10.8467 152.663 11.5029L155.807 16.1924H155.896V11.7764C155.896 11.0381 156.279 10.6006 156.935 10.6006C157.598 10.6006 157.995 11.0381 157.995 11.7764V18.8105C157.995 19.6309 157.626 20.0684 156.935 20.0684C156.429 20.0684 156.122 19.8564 155.657 19.1729L152.485 14.4219H152.396V18.8926Z" fill="black"/>
<path fill-rule="evenodd" clip-rule="evenodd" d="M22.4921 9.66455C22.5867 9.71006 22.7042 9.67561 22.757 9.58314L23.0432 9.0825C23.1467 8.90158 23.3004 8.91018 23.3863 9.10089L24.4103 11.3743C24.4964 11.5654 24.3981 11.7368 24.1916 11.757L21.7301 11.9981C21.5232 12.0183 21.4399 11.8871 21.5436 11.7057L21.8169 11.2276C21.869 11.1365 21.8341 11.0275 21.7389 10.9854C21.7389 10.9854 21.7931 11.0082 21.7331 10.9829C21.1997 10.7579 20.6142 10.6336 20 10.6336C17.5147 10.6336 15.5 12.6683 15.5 15.1783C15.5 17.6883 17.5147 19.723 20 19.723C22.4853 19.723 24.5 17.6883 24.5 15.1783C24.5 14.6473 24.4098 14.1375 24.2441 13.6638C24.2083 13.5678 24.2581 13.4581 24.3557 13.4187L25.3959 12.9985C25.4933 12.9591 25.6022 13.0051 25.6389 13.103C25.6389 13.103 25.6207 13.0523 25.6434 13.1156C25.8742 13.7594 26 14.454 26 15.1783C26 18.5249 23.3137 21.2379 20 21.2379C16.6863 21.2379 14 18.5249 14 15.1783C14 11.8317 16.6863 9.11873 20 9.11873C20.8869 9.11873 21.7289 9.31308 22.4864 9.6619C22.5459 9.6893 22.4921 9.66455 22.4921 9.66455Z" fill="black" stroke="black" stroke-width="0.25"/>
<defs>
<linearGradient id="paint0_linear_224_8" x1="83.3939" y1="0" x2="83.3939" y2="24.3871" gradientUnits="userSpaceOnUse">
<stop stop-color="#39B8FF"/>
<stop offset="0.527909" stop-color="#24E5FF"/>
<stop offset="1" stop-color="#61ECFF"/>
</linearGradient>
</defs>
</svg>
