<svg width="27" height="27" viewBox="0 0 27 27" fill="none" xmlns="http://www.w3.org/2000/svg">
<mask id="mask0_146_8433" style="mask-type:alpha" maskUnits="userSpaceOnUse" x="0" y="0" width="27" height="27">
<rect width="27" height="27" fill="#D9D9D9"/>
</mask>
<g mask="url(#mask0_146_8433)">
<path d="M13.4974 2.92496C15.4816 2.92972 16.8451 3.18079 17.702 3.37152C18.1956 3.49296 18.7425 3.83844 19.2039 4.32174C19.6744 4.81415 20.0092 5.3989 20.1217 5.92484C20.1244 5.93816 20.1276 5.95091 20.1309 5.96424C20.3189 6.88361 20.6505 13.7677 20.5907 16.3826V16.406C20.5827 17.1228 20.8321 17.8172 21.2931 18.3614C22.0431 19.2473 22.7167 20.0445 23.3483 20.7939C20.0791 20.8936 16.7645 20.9443 13.4958 20.9443C10.2271 20.9443 6.91243 20.8936 3.64318 20.7939C4.26945 20.0504 4.94308 19.2524 5.6978 18.3614C6.15883 17.8172 6.40818 17.1228 6.40077 16.406V16.3826C6.34158 13.7677 6.67316 6.88327 6.86065 5.96424C6.86389 5.95148 6.86655 5.93816 6.86922 5.92541C6.98172 5.39889 7.31635 4.81413 7.78747 4.32173C8.24907 3.83881 8.79593 3.49294 9.28931 3.3715C10.148 3.18077 11.5136 2.92915 13.4974 2.92496ZM13.4954 1C11.445 1.00419 9.94049 1.15164 8.83038 1.39948C7.00552 1.83537 5.28284 3.65817 4.88843 5.50224C4.63203 6.5735 4.31874 13.9266 4.37526 16.4293C4.37793 16.659 4.29912 16.8802 4.15198 17.0535C3.42026 17.9174 2.69542 18.7756 1.98012 19.625C0.956806 20.8361 1.92797 22.7631 3.54915 22.8181C6.86484 22.9194 10.1797 22.9706 13.4958 22.9706C16.8115 22.9706 20.1264 22.92 23.4424 22.8181C25.0638 22.7627 26.0347 20.836 25.0114 19.625C24.2961 18.775 23.5709 17.9174 22.8396 17.0535C22.693 16.8802 22.6142 16.6591 22.6163 16.4293C22.6734 13.9264 22.3593 6.57331 22.1031 5.50224C21.7087 3.65813 19.9861 1.83536 18.1612 1.39948C17.0507 1.15107 15.5463 1.00419 13.4954 1Z" fill="white" stroke="white" stroke-width="0.9"/>
<path d="M13.4851 26.0032H13.4689C13.2654 26.0021 11.8573 25.9864 11.5475 25.9425C10.9138 25.8505 10.3739 25.4593 10.2356 24.9909C10.2345 24.9878 10.2336 24.9846 10.233 24.9811C10.1786 24.7849 10.1519 24.584 10.1514 23.2759C10.1514 23.0566 10.1787 22.8561 10.233 22.6596C10.2341 22.6565 10.2351 22.6533 10.2356 22.6498C10.3743 22.1814 10.9138 21.7902 11.5479 21.6982C11.8571 21.6542 13.2655 21.6383 13.4692 21.6375H13.4803H13.4913C13.6948 21.6386 15.1034 21.6542 15.4127 21.6982C16.0464 21.7902 16.5862 22.1814 16.7249 22.6498C16.726 22.6528 16.727 22.6561 16.7275 22.6596C16.7819 22.8558 16.8086 23.0566 16.8092 23.2733C16.8092 24.584 16.7819 24.7846 16.7275 24.9811C16.7264 24.9842 16.7255 24.9874 16.7249 24.9909C16.5862 25.4593 16.0467 25.8505 15.4127 25.9425C15.1029 25.9864 13.695 26.0024 13.4913 26.0032H13.4851ZM13.4799 24.5151H13.4909C13.695 24.5171 14.4097 24.5018 14.8147 24.4881C14.8179 24.4518 14.8199 23.3192 14.8205 23.2733C14.8205 23.2287 14.8184 23.1883 14.8147 23.1527C14.4098 23.139 13.695 23.1245 13.4909 23.1258H13.4689C13.2633 23.1242 12.55 23.139 12.1451 23.1527C12.1419 23.1891 12.1398 23.2302 12.1393 23.2761C12.1393 23.3207 12.1413 24.4522 12.1451 24.4881C12.55 24.5018 13.2637 24.5171 13.4689 24.5151H13.4799Z" fill="white"/>
<rect x="10.5601" y="21" width="6" height="4" fill="white"/>
<circle cx="21.5" cy="5.5" r="5.5" fill="#FF39EB"/>
</g>
</svg>
