<svg width="83" height="27" viewBox="0 0 83 27" fill="none" xmlns="http://www.w3.org/2000/svg">
<path d="M78.7641 1.21116V6.49891H82.9158V10.6346H78.7641V14.9475C78.7641 15.8731 78.9791 16.5427 79.4093 16.9562C79.8581 17.3698 80.5594 17.5766 81.5132 17.5766C81.7189 17.5766 81.9434 17.5667 82.1865 17.547C82.4483 17.5077 82.7195 17.4486 83 17.3698V21.3282C82.7382 21.3873 82.3922 21.4464 81.9621 21.5055C81.5506 21.5842 81.0831 21.6433 80.5594 21.6827C80.0545 21.7418 79.5215 21.791 78.9604 21.8304C78.4181 21.8698 77.8944 21.8895 77.3895 21.8895C76.0804 21.8895 74.9863 21.791 74.1073 21.5941C73.2471 21.3972 72.5551 21.0624 72.0315 20.5897C71.5078 20.1171 71.1338 19.4967 70.9094 18.7287C70.7036 17.9409 70.6008 16.9661 70.6008 15.8042V10.6346H68.2724V6.49891H70.5166V3.89934L78.7641 1.21116Z" fill="black"/>
<path d="M30.882 13.9136C30.882 14.4059 30.9194 14.8884 30.9942 15.3611C31.069 15.8337 31.2 16.267 31.387 16.6608C31.5927 17.035 31.8732 17.3403 32.2285 17.5766C32.5839 17.8129 33.0421 17.9311 33.6031 17.9311C34.1829 17.9311 34.6504 17.8129 35.0057 17.5766C35.3611 17.3403 35.6322 17.035 35.8193 16.6608C36.025 16.267 36.1652 15.8337 36.2401 15.3611C36.3149 14.8884 36.3523 14.4059 36.3523 13.9136C36.3523 12.7319 36.1465 11.767 35.7351 11.0186C35.3237 10.2702 34.6224 9.89606 33.6312 9.89606C32.7709 9.89606 32.0976 10.2702 31.6114 11.0186C31.1251 11.7473 30.882 12.7123 30.882 13.9136ZM22.6346 12.1116C22.6346 11.3435 22.6159 10.4475 22.5785 9.42341C22.5598 8.39934 22.5224 7.42451 22.4663 6.49891H30.6015L30.7137 9.06893H30.7698C31.387 8.14333 32.1911 7.39497 33.1823 6.82385C34.1735 6.23304 35.4546 5.93764 37.0255 5.93764C38.185 5.93764 39.2417 6.09519 40.1955 6.41029C41.1679 6.70569 42.0002 7.17834 42.6921 7.82823C43.3841 8.47812 43.9171 9.32495 44.2911 10.3687C44.6839 11.3928 44.8802 12.6335 44.8802 14.0908C44.8802 15.3906 44.6745 16.5328 44.2631 17.5175C43.8703 18.4825 43.3093 19.2899 42.5799 19.9398C41.8506 20.5897 40.9903 21.0722 39.9991 21.3873C39.0079 21.7221 37.9232 21.8895 36.745 21.8895C35.4546 21.8895 34.3231 21.6827 33.3506 21.2691C32.3782 20.8359 31.5553 20.2746 30.882 19.5853V27H22.6346V12.1116Z" fill="black"/>
<path d="M53.8588 10.93C53.8588 12.2495 53.9149 13.3425 54.0271 14.209C54.1393 15.0558 54.3076 15.7352 54.532 16.2473C54.7565 16.7396 55.037 17.0842 55.3736 17.2812C55.7103 17.4781 56.103 17.5766 56.5518 17.5766C57.0194 17.5766 57.4215 17.4781 57.7581 17.2812C58.0947 17.0842 58.3752 16.7396 58.5997 16.2473C58.8241 15.7352 58.983 15.0558 59.0766 14.209C59.1888 13.3425 59.2449 12.2495 59.2449 10.93C59.2449 9.6105 59.1888 8.52735 59.0766 7.68053C58.983 6.8337 58.8241 6.16411 58.5997 5.67177C58.3752 5.15974 58.0947 4.80525 57.7581 4.60831C57.4215 4.41138 57.0194 4.31291 56.5518 4.31291C56.0095 4.31291 55.5606 4.47046 55.2053 4.78556C54.8687 5.10066 54.5975 5.55361 54.3918 6.14442C54.2048 6.71554 54.0645 7.41466 53.971 8.24179C53.8962 9.04923 53.8588 9.9453 53.8588 10.93ZM45.7797 10.93C45.7797 9.19694 45.9573 7.65099 46.3127 6.29212C46.6867 4.93326 47.2945 3.79103 48.1361 2.86543C48.9776 1.93983 50.081 1.23085 51.4463 0.738513C52.8302 0.246171 54.532 0 56.5518 0C58.5716 0 60.2641 0.246171 61.6293 0.738513C63.0133 1.23085 64.126 1.93983 64.9676 2.86543C65.8092 3.79103 66.4076 4.94311 66.7629 6.32166C67.137 7.68053 67.324 9.22648 67.324 10.9595C67.324 12.6926 67.1276 14.2385 66.7349 15.5974C66.3422 16.9562 65.7156 18.0985 64.8554 19.0241C63.9951 19.9497 62.8823 20.6586 61.5171 21.151C60.1519 21.6433 58.4968 21.8895 56.5518 21.8895C54.6069 21.8895 52.9518 21.6433 51.5865 21.151C50.2213 20.6586 49.1086 19.9497 48.2483 19.0241C47.388 18.0985 46.7615 16.9562 46.3688 15.5974C45.976 14.2385 45.7797 12.6827 45.7797 10.93Z" fill="black"/>
<path d="M13.2127 10.7823C13.1753 10.4475 13.0725 10.1718 12.9042 9.95514C12.7545 9.73851 12.5582 9.56127 12.3151 9.42341C12.0719 9.28556 11.7914 9.19694 11.4735 9.15755C11.1743 9.09847 10.847 9.06893 10.4916 9.06893C9.81838 9.06893 9.25733 9.18709 8.80849 9.42341C8.35965 9.65974 8.13523 9.97484 8.13523 10.3687C8.13523 10.5853 8.16328 10.7724 8.21939 10.93C8.29419 11.0678 8.46251 11.1958 8.72433 11.314C8.98616 11.4322 9.37889 11.5503 9.90254 11.6685C10.4262 11.767 11.1462 11.8851 12.0626 12.023L14.8959 12.4661C15.9806 12.6433 16.9344 12.8403 17.7572 13.0569C18.5988 13.2735 19.2908 13.5591 19.8331 13.9136C20.3755 14.2484 20.7869 14.6718 21.0674 15.1838C21.348 15.6958 21.4882 16.3162 21.4882 17.0449C21.4882 18.6794 20.6654 19.9004 19.0196 20.7079C17.3739 21.4956 14.7463 21.8895 11.1368 21.8895C8.91135 21.8895 7.08794 21.7812 5.66661 21.5646C4.24528 21.3676 3.11383 21.0722 2.27225 20.6783C1.44938 20.2648 0.869628 19.7626 0.532998 19.1718C0.215069 18.5613 0.0374034 17.8523 0 17.0449H7.57418C7.64899 17.36 7.74249 17.6258 7.8547 17.8425C7.98562 18.0591 8.17263 18.2462 8.41575 18.4037C8.65888 18.5613 8.9581 18.6597 9.31343 18.6991C9.66877 18.7385 10.0989 18.7582 10.6039 18.7582C12.474 18.7582 13.4091 18.3249 13.4091 17.4584C13.4091 17.2024 13.3623 16.9956 13.2688 16.8381C13.1753 16.6805 12.9883 16.5427 12.7078 16.4245C12.446 16.2867 12.0626 16.1685 11.5576 16.07C11.0714 15.9716 10.4168 15.8534 9.59396 15.7155L4.06761 14.7998C2.8333 14.5832 1.90757 14.1597 1.29042 13.5295C0.691962 12.8797 0.392735 12.1116 0.392735 11.2254C0.392735 10.2801 0.617155 9.47265 1.066 8.80306C1.51484 8.13348 2.16939 7.5919 3.02967 7.17834C3.90865 6.74508 4.97465 6.42998 6.22766 6.23304C7.49937 6.03611 8.9394 5.93764 10.5477 5.93764C12.1187 5.93764 13.5307 6.00657 14.7837 6.14442C16.0554 6.28228 17.1307 6.52845 18.0097 6.88293C18.9074 7.23742 19.59 7.72976 20.0575 8.35996C20.5438 8.99015 20.7869 9.79759 20.7869 10.7823H13.2127Z" fill="black"/>
</svg>
