<svg width="11" height="18" viewBox="0 0 11 18" fill="none" xmlns="http://www.w3.org/2000/svg">
<g id="Group 22792">
<g id="Union">
<path fill-rule="evenodd" clip-rule="evenodd" d="M9.80804 5.97004C10.0586 5.71947 10.0586 5.3132 9.80804 5.06263L5.99306 1.24765C5.95582 1.2104 5.91513 1.17869 5.87203 1.15252C5.6203 0.938054 5.24188 0.949766 5.00399 1.18766L1.18768 5.00396C0.937473 5.25417 0.937473 5.65984 1.18768 5.91005C1.43789 6.16025 1.84356 6.16025 2.09376 5.91005L5.4672 2.53661L8.90063 5.97004C9.1512 6.22062 9.55747 6.22062 9.80804 5.97004Z" fill="white"/>
<path d="M9.80804 5.06263L9.45449 5.41618L9.80804 5.06263ZM9.80804 5.97004L10.1616 6.3236H10.1616L9.80804 5.97004ZM5.99306 1.24765L5.63951 1.6012L5.63951 1.6012L5.99306 1.24765ZM5.87203 1.15252L5.54776 1.53312L5.57826 1.5591L5.61251 1.5799L5.87203 1.15252ZM5.00399 1.18766L4.65044 0.834102L4.65044 0.834102L5.00399 1.18766ZM1.18768 5.00396L1.54123 5.35752L1.54123 5.35752L1.18768 5.00396ZM1.18768 5.91005L1.54123 5.55649L1.18768 5.91005ZM2.09376 5.91005L2.44732 6.2636L2.44732 6.2636L2.09376 5.91005ZM5.4672 2.53661L5.82075 2.18306L5.4672 1.82951L5.11364 2.18306L5.4672 2.53661ZM8.90063 5.97004L9.25418 5.61649L9.25418 5.61649L8.90063 5.97004ZM9.45449 5.41618C9.5098 5.4715 9.5098 5.56118 9.45449 5.61649L10.1616 6.3236C10.6074 5.87776 10.6074 5.15491 10.1616 4.70908L9.45449 5.41618ZM5.63951 1.6012L9.45449 5.41618L10.1616 4.70908L6.34661 0.894097L5.63951 1.6012ZM5.61251 1.5799C5.62169 1.58547 5.63076 1.59246 5.63951 1.6012L6.34661 0.894097C6.28087 0.828353 6.20857 0.771915 6.13154 0.725144L5.61251 1.5799ZM5.35754 1.54121C5.40961 1.48914 5.49288 1.48636 5.54776 1.53312L6.19629 0.771925C5.74772 0.389751 5.07415 0.410393 4.65044 0.834102L5.35754 1.54121ZM1.54123 5.35752L5.35754 1.54121L4.65044 0.834102L0.834127 4.65041L1.54123 5.35752ZM1.54123 5.55649C1.48629 5.50155 1.48629 5.41246 1.54123 5.35752L0.834128 4.65041C0.388657 5.09588 0.388657 5.81813 0.834127 6.2636L1.54123 5.55649ZM1.74021 5.55649C1.68526 5.61144 1.59618 5.61144 1.54123 5.55649L0.834127 6.2636C1.2796 6.70907 2.00185 6.70907 2.44732 6.2636L1.74021 5.55649ZM5.11364 2.18306L1.74021 5.55649L2.44732 6.2636L5.82075 2.89017L5.11364 2.18306ZM9.25418 5.61649L5.82075 2.18306L5.11364 2.89017L8.54707 6.3236L9.25418 5.61649ZM9.45449 5.61649C9.39917 5.6718 9.30949 5.6718 9.25418 5.61649L8.54707 6.3236C8.99291 6.76943 9.71576 6.76943 10.1616 6.3236L9.45449 5.61649Z" fill="white"/>
</g>
<g id="Union_2">
<path fill-rule="evenodd" clip-rule="evenodd" d="M9.81207 11.9347C10.0626 12.1853 10.0626 12.5916 9.81207 12.8422L5.99709 16.6571C5.96013 16.6941 5.91978 16.7256 5.87705 16.7517C5.62533 16.967 5.24622 16.9556 5.00802 16.7174L1.19171 12.9011C0.941501 12.6509 0.941501 12.2452 1.19171 11.995C1.44192 11.7448 1.84758 11.7448 2.09779 11.995L5.4711 15.3683L8.90466 11.9347C9.15523 11.6842 9.56149 11.6842 9.81207 11.9347Z" fill="white"/>
<path d="M9.81207 12.8422L9.45851 12.4886L9.81207 12.8422ZM9.81207 11.9347L10.1656 11.5812H10.1656L9.81207 11.9347ZM5.99709 16.6571L6.35064 17.0107L6.35064 17.0107L5.99709 16.6571ZM5.87705 16.7517L5.55202 16.3717L5.5825 16.3456L5.61675 16.3248L5.87705 16.7517ZM5.00802 16.7174L5.36157 16.3638L5.36157 16.3638L5.00802 16.7174ZM1.19171 12.9011L0.838155 13.2546L0.838155 13.2546L1.19171 12.9011ZM1.19171 11.995L0.838155 11.6414L0.838155 11.6414L1.19171 11.995ZM2.09779 11.995L1.74424 12.3485L1.74424 12.3485L2.09779 11.995ZM5.4711 15.3683L5.82466 15.7218L5.4711 16.0754L5.11755 15.7218L5.4711 15.3683ZM9.45851 12.4886C9.51383 12.4333 9.51383 12.3436 9.45852 12.2883L10.1656 11.5812C10.6115 12.027 10.6115 12.7499 10.1656 13.1957L9.45851 12.4886ZM5.64354 16.3036L9.45851 12.4886L10.1656 13.1957L6.35064 17.0107L5.64354 16.3036ZM5.61675 16.3248C5.62586 16.3192 5.63485 16.3123 5.64354 16.3036L6.35064 17.0107C6.28541 17.0759 6.21371 17.132 6.13735 17.1786L5.61675 16.3248ZM5.36157 16.3638C5.41372 16.416 5.49713 16.4187 5.55202 16.3717L6.20208 17.1316C5.75353 17.5153 5.07873 17.4952 4.65447 17.0709L5.36157 16.3638ZM1.54526 12.5475L5.36157 16.3638L4.65447 17.0709L0.838155 13.2546L1.54526 12.5475ZM1.54526 12.3485C1.49032 12.4035 1.49032 12.4926 1.54526 12.5475L0.838155 13.2546C0.392686 12.8091 0.392686 12.0869 0.838155 11.6414L1.54526 12.3485ZM1.74424 12.3485C1.68929 12.2936 1.60021 12.2936 1.54526 12.3485L0.838155 11.6414C1.28363 11.196 2.00588 11.196 2.45134 11.6414L1.74424 12.3485ZM5.11755 15.7218L1.74424 12.3485L2.45134 11.6414L5.82466 15.0147L5.11755 15.7218ZM9.25821 12.2883L5.82466 15.7218L5.11755 15.0147L8.5511 11.5812L9.25821 12.2883ZM9.45852 12.2883C9.4032 12.233 9.31352 12.233 9.25821 12.2883L8.5511 11.5812C8.99694 11.1354 9.71978 11.1354 10.1656 11.5812L9.45852 12.2883Z" fill="white"/>
</g>
</g>
</svg>
