<svg width="27" height="28" viewBox="0 0 27 28" fill="none" xmlns="http://www.w3.org/2000/svg">
<mask id="mask0_4_1898" style="mask-type:alpha" maskUnits="userSpaceOnUse" x="0" y="0" width="27" height="28">
<rect y="0.77002" width="27" height="27" fill="#D9D9D9"/>
</mask>
<g mask="url(#mask0_4_1898)">
<path d="M17.6917 26.7248C20.2813 25.5306 22.6941 23.9804 24.8629 22.1195L24.8634 22.1191C25.1491 21.873 25.3116 21.511 25.3066 21.1337L25.3065 21.133C25.2594 18.15 25.1954 15.2236 25.1315 12.3008L25.1297 12.2191V12.2191C25.0649 9.27267 25.0004 6.32738 24.9529 3.32058L24.9529 3.32006C24.9454 2.89181 24.7263 2.49293 24.363 2.26326C24.0012 2.03444 23.547 2.0052 23.1595 2.19187C21.0473 3.19416 18.9276 4.46334 16.9853 5.88765C14.6419 4.42744 12.2355 3.09428 9.96255 1.84701L9.96234 1.8469C9.53402 1.61229 9.00702 1.648 8.61357 1.94376C6.20307 3.74364 4.30136 5.10208 2.25184 6.48314L2.25165 6.48327C1.87432 6.73793 1.66193 7.17936 1.69711 7.63536L1.70786 7.77462C2.10754 13.1031 2.2351 19.3559 2.06552 25.402L2.06549 25.4031C2.05548 25.812 2.23989 26.2019 2.56366 26.4508L2.56577 26.4524C2.89119 26.6982 3.31641 26.7735 3.70452 26.6478C4.47581 26.4 5.08391 25.908 5.57885 25.5075L5.58731 25.5007L5.58811 25.5C5.83476 25.2991 6.06239 25.1143 6.29866 24.9691L6.29884 24.9689L10.4026 22.4431C10.705 22.5982 10.9872 22.8143 11.3454 23.0904L11.3455 23.0904C11.3592 23.101 11.3729 23.1115 11.3867 23.1221C11.6504 23.3254 11.9349 23.5446 12.2557 23.7518C12.736 24.0637 13.1913 24.4198 13.6586 24.7851L13.6889 24.8088L13.6893 24.8091L13.7064 24.8225C14.5888 25.5103 15.5345 26.2474 16.676 26.7379C16.8351 26.8069 17.0023 26.84 17.1685 26.84C17.3445 26.84 17.5258 26.8022 17.6917 26.7248ZM17.6917 26.7248C17.6914 26.7249 17.6911 26.7251 17.6907 26.7252L17.5623 26.4467L17.6921 26.7246C17.692 26.7246 17.6919 26.7247 17.6917 26.7248ZM17.0125 19.3161C16.4895 19.2679 16.1052 18.8 16.1509 18.2705C16.457 14.8582 16.4438 11.4074 16.1375 7.99514M17.0125 19.3161L16.1375 7.99514M17.0125 19.3161L17.0213 19.3166M17.0125 19.3161L17.0213 19.3166M16.1375 7.99514L15.8321 8.02256C15.8366 8.07296 15.8411 8.12337 15.8455 8.17379C15.8884 8.2007 15.9312 8.22764 15.9741 8.25463L16.1375 7.99514ZM13.6171 21.6227C14.1776 21.9873 14.707 22.3996 15.2244 22.8026L15.2247 22.8029L15.2248 22.803L15.246 22.8195C15.9126 23.3383 16.5244 23.8145 17.1732 24.1687C19.1749 23.1953 21.0556 21.9871 22.7786 20.5688C22.7314 17.7723 22.6718 15.0252 22.6119 12.2773L22.6119 12.2773C22.6055 11.9831 22.5991 11.6888 22.5927 11.3945C22.5492 9.40265 22.5056 7.40752 22.4702 5.39102C21.0532 6.17095 19.6668 7.07395 18.3562 8.04482C18.6533 11.5066 18.6612 15.0097 18.3509 18.4704L9.46506 4.46501C7.55097 5.88502 5.93462 7.03974 4.25819 8.18034C4.5805 12.7398 4.70863 17.9135 4.63162 23.0405C4.74762 22.9569 4.86604 22.8765 4.98699 22.8022L8.9197 20.3819C8.71552 17.0234 8.55405 13.6401 8.45303 10.3137L8.45302 10.3132C8.43298 9.61575 8.97527 9.02935 9.67181 9.00625L9.68696 9.00575L9.70209 9.00674C10.2814 9.04482 10.9469 9.50385 10.9682 10.2375C11.0671 13.5025 11.2263 16.826 11.4262 20.1292C11.9976 20.4028 12.4535 20.7538 12.8727 21.0787L12.8725 21.0786L12.6852 21.3215M13.6171 21.6227C13.6172 21.6228 13.6173 21.6228 13.6173 21.6229L13.4499 21.8798L13.6171 21.6227ZM13.6171 21.6227C13.364 21.4577 13.1365 21.2823 12.9062 21.1046L12.8731 21.0791L12.6852 21.3215M12.6852 21.3215C12.2231 20.9632 11.7457 20.5974 11.1313 20.3318L12.6852 21.3215ZM9.44022 4.10179L9.56426 4.38199L9.56455 4.38186L9.44097 4.10271M9.44022 4.10179L9.44097 4.10271M9.44022 4.10179L9.44012 4.10157L9.44024 4.10174M9.44022 4.10179L9.44024 4.10174M9.44097 4.10271L9.44024 4.10174M9.44097 4.10271L9.44041 4.10144L9.44024 4.10174M18.0454 18.4437L18.3508 18.4711L18.0454 18.4437ZM18.0454 18.4437C18.0016 18.9445 17.587 19.3199 17.1 19.3199M18.0454 18.4437L17.1 19.3199M17.0213 19.3166C17.0482 19.3184 17.0726 19.3199 17.1 19.3199M17.0213 19.3166L17.1 19.3199" fill="white" stroke="white" stroke-width="0.613333"/>
</g>
</svg>
