<svg width="34" height="34" viewBox="0 0 34 34" fill="none" xmlns="http://www.w3.org/2000/svg">
<path fill-rule="evenodd" clip-rule="evenodd" d="M17 1C8.16965 1 1 8.16965 1 17C1 25.8304 8.16965 33 17 33C25.8304 33 33 25.8304 33 17C33 8.16965 25.8304 1 17 1ZM24.1168 18.6H18.6V28.7815C21.6278 26.3104 23.6872 22.6968 24.1168 18.6ZM7.46857 18.6H4.29893C4.84857 22.9993 7.63424 26.7072 11.4796 28.5502C9.24283 25.7805 7.7925 22.3502 7.46857 18.6ZM15.3996 18.6H10.6828C11.0732 22.3239 12.8117 25.6496 15.3996 28.0811V18.6ZM29.7 18.6H27.3303C27.0368 22.0057 25.8135 25.1471 23.916 27.7694C27.0303 25.7636 29.22 22.4455 29.7 18.6ZM7.46821 15.4C7.79214 11.649 9.24247 8.21856 11.4793 5.44983C7.6336 7.29303 4.84823 11.0009 4.29856 15.4H7.46821ZM15.3993 15.4V5.91886C12.8104 8.34994 11.0729 11.6757 10.6825 15.4H15.3993ZM18.5993 15.4H24.1161C23.6864 11.3032 21.6265 7.68965 18.5993 5.21851V15.4ZM29.6996 15.4C29.2196 11.5543 27.03 8.23611 23.9157 6.23063C25.8132 8.85317 27.0364 11.9946 27.33 15.4H29.6996Z" fill="#39FFA0" stroke="black" stroke-width="1.25"/>
</svg>
