<svg width="73" height="73" viewBox="0 0 73 73" fill="none" xmlns="http://www.w3.org/2000/svg">
<circle cx="36.5" cy="36.5" r="36.5" fill="white"/>
<path fill-rule="evenodd" clip-rule="evenodd" d="M23.691 31.5586C21.0642 31.7901 19 34.1188 19 36.9568V52.5822C19 55.5725 21.2955 58 24.1223 58H48.2777C51.1048 58 53.4 55.5721 53.4 52.5822V36.9568C53.4 34.1188 51.3358 31.7901 48.709 31.5586V28.327C48.709 20.9642 43.105 15 36.1998 15C29.2946 15 23.6906 20.9637 23.6906 28.327L23.691 31.5586ZM45.5821 31.5387V28.3271C45.5821 22.7966 41.3853 18.3077 36.2002 18.3077C31.015 18.3077 26.8183 22.7963 26.8183 28.3271V31.5387H45.5821Z" fill="#D7D7D7"/>
</svg>
