<svg width="23" height="28" viewBox="0 0 23 28" fill="none" xmlns="http://www.w3.org/2000/svg">
<path d="M17.3261 9.03453H16.6698C15.9152 9.03453 15.2916 9.65807 15.2916 10.4127C15.2916 11.1674 15.9152 11.791 16.6698 11.791H17.3261C18.4747 11.791 19.3935 12.7098 19.3935 13.8583V22.9808C19.3935 24.1294 18.4746 25.0482 17.3261 25.0482L4.85651 25.048C3.70788 25.048 2.78913 24.1292 2.78913 22.9806V13.8909C2.78913 12.7423 3.70794 11.8235 4.85651 11.8235H5.51274C6.26742 11.8235 6.89096 11.2 6.89096 10.4453C6.89096 9.69065 6.26742 9.06712 5.51274 9.06712H4.85651C2.16559 9.06712 0 11.2329 0 13.9236V23.0461C0 25.737 2.16583 27.9026 4.85651 27.9026L17.3261 27.9028C20.017 27.9028 22.1826 25.737 22.1826 23.0463L22.1828 13.891C22.1828 11.2001 20.017 9.03453 17.3261 9.03453Z" fill="black"/>
<path d="M8.35287 6.21246L9.73109 4.83425V15.7287C9.73109 16.4834 10.3546 17.1069 11.1093 17.1069C11.864 17.1069 12.4875 16.4834 12.4875 15.7287V4.83425L13.8657 6.21246C14.3908 6.73755 15.2766 6.73755 15.8017 6.21246C16.3268 5.68738 16.3268 4.80155 15.8017 4.27646L11.7986 0.295279C11.4049 -0.0984264 10.7814 -0.0984264 10.3877 0.295279L6.38405 4.27646C5.85896 4.80155 5.85896 5.68737 6.38405 6.21246C6.94187 6.77028 7.7952 6.77028 8.35305 6.21246H8.35287Z" fill="black"/>
</svg>
