<svg width="27" height="27" viewBox="0 0 27 27" fill="none" xmlns="http://www.w3.org/2000/svg">
<path d="M8 26V26.9999H8.99991V26H8Z" fill="#100F0D"/>
<path d="M9 26V26.9999H9.99994V26H9Z" fill="#100F0D"/>
<path d="M10 26V26.9999H10.9999V26H10Z" fill="#100F0D"/>
<path d="M11 26V26.9999H12.0001V26H11Z" fill="#100F0D"/>
<path d="M11 25V25.9999H12.0001V25H11Z" fill="#100F0D"/>
<path d="M11 23.9997V24.9999H12.0001V23.9997H11Z" fill="#100F0D"/>
<path d="M11 23V23.9999H12.0001V23H11Z" fill="#100F0D"/>
<path d="M11 22V22.9999H12.0001V22H11Z" fill="#100F0D"/>
<path d="M11 20.9997V21.9999H12.0001V20.9997H11Z" fill="#100F0D"/>
<path d="M11 20V20.9999H12.0001V20H11Z" fill="#100F0D"/>
<path d="M11 5.00067V6.00085H12.0001V5.00067H11Z" fill="#100F0D"/>
<path d="M11 4L11 4.99988H12.0001V4H11Z" fill="#100F0D"/>
<path d="M11 2.99969V3.99988H12.0001V2.99969H11Z" fill="#100F0D"/>
<path d="M11 2V2.99988H12.0001V2H11Z" fill="#100F0D"/>
<path d="M11 0.999694V1.99988H12.0001V0.999694H11Z" fill="#100F0D"/>
<path d="M12 26V26.9999H12.9999V26H12Z" fill="#100F0D"/>
<path d="M12 25V25.9999H12.9999V25H12Z" fill="#A55421"/>
<path d="M12 23.9997V24.9999H12.9999V23.9997H12Z" fill="#A55421"/>
<path d="M12 23V23.9999H12.9999V23H12Z" fill="#A55421"/>
<path d="M12 22V22.9999H12.9999V22H12Z" fill="#A55421"/>
<path d="M12 20.9997V21.9999H12.9999V20.9997H12Z" fill="#A55421"/>
<path d="M12 20V20.9999H12.9999V20H12Z" fill="#A55421"/>
<path d="M12 5.00067V6.00085H12.9999V5.00067H12Z" fill="#A55421"/>
<path d="M12 4V4.99988H12.9999V4H12Z" fill="#A55421"/>
<path d="M12 2.99969V3.99988H12.9999V2.99969H12Z" fill="#A55421"/>
<path d="M12 2V2.99988H12.9999V2H12Z" fill="#A55421"/>
<path d="M12 0.999694V1.99988H12.9999V0.999694H12Z" fill="#A55421"/>
<path d="M12 1.3929e-06V0.999878H12.9999V1.3929e-06H12Z" fill="#100F0D"/>
<path d="M13 26V26.9999H13.9999V26H13Z" fill="#100F0D"/>
<path d="M13 25V25.9999H13.9999V25H13Z" fill="#D77526"/>
<path d="M13 23.9997V24.9999H13.9999V23.9997H13Z" fill="#D77526"/>
<path d="M13 23V23.9999H13.9999V23H13Z" fill="#D77526"/>
<path d="M13 22V22.9999H13.9999V22H13Z" fill="#D77526"/>
<path d="M13 20.9997V21.9999H13.9999V20.9997H13Z" fill="#D77526"/>
<path d="M13 20V20.9999H13.9999V20H13Z" fill="#A55421"/>
<path d="M13 5.00067V6.00085H13.9999V5.00067H13Z" fill="#D77526"/>
<path d="M13 4V4.99988H13.9999V4H13Z" fill="#D77526"/>
<path d="M13 2.99969V3.99988H13.9999V2.99969H13Z" fill="#D77526"/>
<path d="M13 2V2.99988H13.9999V2H13Z" fill="#D77526"/>
<path d="M13 0.999694V1.99988H13.9999V0.999694H13Z" fill="#A55421"/>
<path d="M13 1.3929e-06V0.999878H13.9999V1.3929e-06H13Z" fill="#100F0D"/>
<path d="M14 26V26.9999H15.0002V26H14Z" fill="#100F0D"/>
<path d="M14 25V25.9999H15.0002V25H14Z" fill="#D77526"/>
<path d="M14 23.9997V24.9999H15.0002V23.9997H14Z" fill="#D77526"/>
<path d="M14 23V23.9999H15.0002V23H14Z" fill="#D77526"/>
<path d="M14 22V22.9999H15.0002V22H14Z" fill="#D77526"/>
<path d="M14 20.9997V21.9999H15.0002V20.9997H14Z" fill="#D77526"/>
<path d="M14 20V20.9999H15.0002V20H14Z" fill="#A55421"/>
<path d="M14 5.00067V6.00085H15.0002V5.00067H14Z" fill="#D77526"/>
<path d="M14 4V4.99988H15.0002V4H14Z" fill="#D77526"/>
<path d="M14 2.99969V3.99988H15.0002V2.99969H14Z" fill="#D77526"/>
<path d="M14 2V2.99988H15.0002V2H14Z" fill="#D77526"/>
<path d="M14 0.999694V1.99988H15.0002V0.999694H14Z" fill="#D77526"/>
<path d="M14 1.3929e-06V0.999878H15.0002V1.3929e-06H14Z" fill="#100F0D"/>
<path d="M15 26V26.9999H15.9999V26H15Z" fill="#100F0D"/>
<path d="M15 25V25.9999H15.9999V25H15Z" fill="#100F0D"/>
<path d="M15 23.9997V24.9999H15.9999V23.9997H15Z" fill="#100F0D"/>
<path d="M15 23V23.9999H15.9999V23H15Z" fill="#100F0D"/>
<path d="M15 22V22.9999H15.9999V22H15Z" fill="#100F0D"/>
<path d="M15 20.9997V21.9999H15.9999V20.9997H15Z" fill="#100F0D"/>
<path d="M15 20V20.9999H15.9999V20H15Z" fill="#100F0D"/>
<path d="M15 5.00067V6.00085H15.9999V5.00067H15Z" fill="#100F0D"/>
<path d="M15 4V4.99988H15.9999V4H15Z" fill="#100F0D"/>
<path d="M15 2.99969V3.99988H15.9999V2.99969H15Z" fill="#100F0D"/>
<path d="M15 2V2.99988H15.9999V2H15Z" fill="#100F0D"/>
<path d="M15 0.999694V1.99988H15.9999V0.999694H15Z" fill="#100F0D"/>
<path d="M16 26V26.9999H17.0002V26H16Z" fill="#100F0D"/>
<path d="M17 26V26.9999H17.9999V26H17Z" fill="#100F0D"/>
<path d="M18 26V26.9999H19.0002V26H18Z" fill="#100F0D"/>
<path d="M0 17.7151V18.8583H1.08014V17.7151H0Z" fill="#100F0D"/>
<path d="M0 16.5714V17.7142H1.08014V16.5711L0 16.5714Z" fill="#100F0D"/>
<path d="M0 15.4281V16.5713L1.08014 16.5709V15.4281H0Z" fill="#100F0D"/>
<path d="M0 14.2856V15.4283H1.08014V14.2856H0Z" fill="#100F0D"/>
<path d="M0 13.1423V14.2854H1.08014V13.1423H0Z" fill="#100F0D"/>
<path d="M0 11.9997V13.1425H1.08014V11.9997H0Z" fill="#100F0D"/>
<path d="M0 10.8567V11.9995H1.08014V10.8567H0Z" fill="#100F0D"/>
<path d="M0 9.71452V10.8577H1.08014V9.71452H0Z" fill="#100F0D"/>
<path d="M0 8.57083L3.25081e-05 9.71362H1.08017V8.57083H0Z" fill="#100F0D"/>
<path d="M0 7.42788V8.57068H1.08017V7.42788H0Z" fill="#100F0D"/>
<path d="M0 6.28569V7.42883H1.08017V6.28569H0Z" fill="#100F0D"/>
<path d="M0 5.142V6.28479H1.08017V5.142H0Z" fill="#100F0D"/>
<path d="M1.07904 18.8572V20H2.15898V18.8572H1.07904Z" fill="#100F0D"/>
<path d="M1.07904 17.7153V18.8584H2.15898V17.7153H1.07904Z" fill="#A55421"/>
<path d="M1.07904 16.5707V17.7139H2.15898V16.5707H1.07904Z" fill="#A55421"/>
<path d="M1.07904 15.4285V16.5713H2.15898V15.4285H1.07904Z" fill="#8A441E"/>
<path d="M1.07904 14.2849V15.4277H2.15898V14.2849H1.07904Z" fill="#A55421"/>
<path d="M1.07904 13.142V14.2852H2.15898V13.142H1.07904Z" fill="#A55421"/>
<path d="M1.07904 11.9998V13.1426H2.15898V11.9998H1.07904Z" fill="#A55421"/>
<path d="M1.07904 10.8562V11.999H2.15898V10.8562H1.07904Z" fill="#A55421"/>
<path d="M1.07904 9.71427V10.8574H2.15898V9.71427H1.07904Z" fill="#8A441E"/>
<path d="M1.07904 8.57107V9.71387H2.15898L2.15894 8.57107H1.07904Z" fill="#A55421"/>
<path d="M1.07904 7.42752V8.57031H2.15894V7.42752H1.07904Z" fill="#A55421"/>
<path d="M1.07904 6.28556V7.42871H2.15894V6.28556H1.07904Z" fill="#A55421"/>
<path d="M1.07904 5.14139V6.28418H2.15894V5.14139H1.07904Z" fill="#A55421"/>
<path d="M1.07904 3.99978V5.14258H2.15894V3.99978H1.07904Z" fill="#100F0D"/>
<path d="M2.1601 18.8572V20H3.24V18.8572H2.1601Z" fill="#100F0D"/>
<path d="M2.1601 17.7153V18.8584H3.24V17.7153H2.1601Z" fill="#D77526"/>
<path d="M2.1601 16.5707V17.7139H3.24V16.5707H2.1601Z" fill="#D77526"/>
<path d="M2.1601 15.4285V16.5713H3.24V15.4285H2.1601Z" fill="#A55421"/>
<path d="M2.1601 14.2849V15.4277H3.24V14.2849H2.1601Z" fill="#8A441E"/>
<path d="M2.1601 13.142V14.2852H3.24V13.142H2.1601Z" fill="#D77526"/>
<path d="M2.1601 11.9998V13.1426H3.24V11.9998H2.1601Z" fill="#D77526"/>
<path d="M2.1601 10.8562V11.999H3.24V10.8562H2.1601Z" fill="#D77526"/>
<path d="M2.1601 9.71427V10.8574H3.24V9.71427H2.1601Z" fill="#A55421"/>
<path d="M2.1601 8.57107L2.16013 9.71387H3.24003V8.57107H2.1601Z" fill="#8A441E"/>
<path d="M2.1601 7.42752V8.57031H3.24003V7.42752H2.1601Z" fill="#D77526"/>
<path d="M2.1601 6.28556V7.42871H3.24003V6.28556H2.1601Z" fill="#D77526"/>
<path d="M2.1601 5.14139V6.28418H3.24003V5.14139H2.1601Z" fill="#D77526"/>
<path d="M2.1601 3.99978V5.14258H3.24003V3.99978H2.1601Z" fill="#100F0D"/>
<path d="M3.23914 18.8572V20H4.31931V18.8572H3.23914Z" fill="#100F0D"/>
<path d="M3.23914 17.7153V18.8584H4.31931V17.7153H3.23914Z" fill="#D77526"/>
<path d="M3.23914 16.5707V17.7139H4.31931V16.5707H3.23914Z" fill="#D77526"/>
<path d="M3.23914 15.4285V16.5713H4.31931V15.4285H3.23914Z" fill="#A55421"/>
<path d="M3.23914 14.2849V15.4277H4.31931V14.2849H3.23914Z" fill="#8A441E"/>
<path d="M3.23914 13.142V14.2852H4.31931V13.142H3.23914Z" fill="#D77526"/>
<path d="M3.23914 11.9998V13.1426H4.31931V11.9998H3.23914Z" fill="#D77526"/>
<path d="M3.23914 10.8562V11.999H4.31931V10.8562H3.23914Z" fill="#D77526"/>
<path d="M3.23914 9.71427V10.8574H4.31931V9.71427H3.23914Z" fill="#A55421"/>
<path d="M3.23914 8.57107V9.71387H4.31931L4.31927 8.57107H3.23914Z" fill="#8A441E"/>
<path d="M3.23914 7.42752V8.57031H4.31927V7.42752H3.23914Z" fill="#D77526"/>
<path d="M3.23914 6.28556V7.42871H4.31927V6.28556H3.23914Z" fill="#D77526"/>
<path d="M3.23914 5.14139V6.28418H4.31927V5.14139H3.23914Z" fill="#D77526"/>
<path d="M3.23914 3.99978V5.14258H4.31927V3.99978H3.23914Z" fill="#100F0D"/>
<path d="M4.32019 18.8572V20H5.40009V18.8572H4.32019Z" fill="#100F0D"/>
<path d="M4.32019 17.7153V18.8584H5.40009V17.7153H4.32019Z" fill="#D77526"/>
<path d="M4.32019 16.5707V17.7139H5.40009V16.5707H4.32019Z" fill="#D77526"/>
<path d="M4.32019 15.4285V16.5713H5.40009V15.4285H4.32019Z" fill="#A55421"/>
<path d="M4.32019 14.2849V15.4277H5.40009V14.2849H4.32019Z" fill="#8A441E"/>
<path d="M4.32019 13.142V14.2852H5.40009V13.142H4.32019Z" fill="#D77526"/>
<path d="M4.32019 11.9998V13.1426H5.40009V11.9998H4.32019Z" fill="#D77526"/>
<path d="M4.32019 10.8562V11.999H5.40009V10.8562H4.32019Z" fill="#D77526"/>
<path d="M4.32019 9.71427V10.8574H5.40009V9.71427H4.32019Z" fill="#A55421"/>
<path d="M4.32019 8.57107L4.32022 9.71387H5.40013V8.57107H4.32019Z" fill="#8A441E"/>
<path d="M4.32019 7.42752V8.57031H5.40013V7.42752H4.32019Z" fill="#D77526"/>
<path d="M4.32019 6.28556V7.42871H5.40013V6.28556H4.32019Z" fill="#D77526"/>
<path d="M4.32019 5.14139V6.28418H5.40013V5.14139H4.32019Z" fill="#D77526"/>
<path d="M4.32019 3.99978V5.14258H5.40013V3.99978H4.32019Z" fill="#100F0D"/>
<path d="M5.39917 18.8572V20H6.47911V18.8572H5.39917" fill="#100F0D"/>
<path d="M5.39917 17.7153V18.8584H6.47911V17.7153H5.39917" fill="#D77526"/>
<path d="M5.39917 16.5707V17.7139H6.47911V16.5707H5.39917" fill="#D77526"/>
<path d="M5.39917 15.4285V16.5713H6.47911V15.4285H5.39917" fill="#A55421"/>
<path d="M5.39917 14.2849V15.4277H6.47911V14.2849H5.39917" fill="#8A441E"/>
<path d="M5.39917 13.142V14.2852H6.47911V13.142H5.39917" fill="#D77526"/>
<path d="M5.39917 11.9998V13.1426H6.47911V11.9998H5.39917" fill="#D77526"/>
<path d="M5.39917 10.8562V11.999H6.47911V10.8562H5.39917" fill="#D77526"/>
<path d="M5.39917 9.71427V10.8574H6.47911V9.71427H5.39917" fill="#A55421"/>
<path d="M5.39917 8.57107V9.71387H6.47911V8.57107H5.39917" fill="#8A441E"/>
<path d="M5.39917 7.42752V8.57031H6.47911V7.42752H5.39917" fill="#D77526"/>
<path d="M5.39917 6.28556V7.42871H6.47911V6.28556H5.39917" fill="#D77526"/>
<path d="M5.39917 5.14139V6.28418H6.47911V5.14139H5.39917" fill="#D77526"/>
<path d="M5.39917 3.99978V5.14258H6.47911V3.99978H5.39917" fill="#100F0D"/>
<path d="M6.48022 18.8572V20H7.56036V18.8572H6.48022Z" fill="#100F0D"/>
<path d="M6.48022 17.7153V18.8584H7.56036V17.7153H6.48022Z" fill="#D77526"/>
<path d="M6.48022 16.5707V17.7139H7.56036V16.5707H6.48022Z" fill="#D77526"/>
<path d="M6.48022 15.4285V16.5713H7.56036V15.4285H6.48022Z" fill="#A55421"/>
<path d="M6.48022 14.2849V15.4277H7.56036V14.2849H6.48022Z" fill="#8A441E"/>
<path d="M6.48022 13.142V14.2852H7.56036V13.142H6.48022Z" fill="#D77526"/>
<path d="M6.48022 11.9998V13.1426H7.56036V11.9998H6.48022Z" fill="#D77526"/>
<path d="M6.48022 10.8562V11.999H7.56036V10.8562H6.48022Z" fill="#D77526"/>
<path d="M6.48022 9.71427V10.8574H7.56036V9.71427H6.48022Z" fill="#A55421"/>
<path d="M6.48022 8.57107V9.71387H7.56036V8.57107H6.48022Z" fill="#8A441E"/>
<path d="M6.48022 7.42752V8.57031H7.56036V7.42752H6.48022Z" fill="#D77526"/>
<path d="M6.48022 6.28556V7.42871H7.56036V6.28556H6.48022Z" fill="#D77526"/>
<path d="M6.48022 5.14139V6.28418H7.56036V5.14139H6.48022Z" fill="#D77526"/>
<path d="M6.48022 3.99978V5.14258H7.56036V3.99978H6.48022Z" fill="#100F0D"/>
<path d="M7.55927 18.8572V20H8.6392V18.8572H7.55927Z" fill="#100F0D"/>
<path d="M7.55927 17.7153V18.8584H8.6392V17.7153H7.55927Z" fill="#D77526"/>
<path d="M7.55927 16.5707V17.7139H8.6392V16.5707H7.55927Z" fill="#D77526"/>
<path d="M7.55927 15.4285V16.5713H8.6392V15.4285H7.55927Z" fill="#A55421"/>
<path d="M7.55927 14.2849V15.4277H8.6392V14.2849H7.55927Z" fill="#8A441E"/>
<path d="M7.55927 13.142V14.2852H8.6392V13.142H7.55927Z" fill="#D77526"/>
<path d="M7.55927 11.9998V13.1426H8.6392V11.9998H7.55927Z" fill="#773B19"/>
<path d="M7.55927 10.8562V11.999H8.6392V10.8562H7.55927Z" fill="#773B19"/>
<path d="M7.55927 9.71427V10.8574H8.6392V9.71427H7.55927Z" fill="#A55421"/>
<path d="M7.55927 8.57107V9.71387H8.6392V8.57107H7.55927Z" fill="#8A441E"/>
<path d="M7.55927 7.42752V8.57031H8.6392V7.42752H7.55927Z" fill="#D77526"/>
<path d="M7.55927 6.28556V7.42871H8.6392V6.28556H7.55927Z" fill="#D77526"/>
<path d="M7.55927 5.14139V6.28418H8.6392V5.14139H7.55927Z" fill="#D77526"/>
<path d="M7.55927 3.99978V5.14258H8.6392V3.99978H7.55927Z" fill="#100F0D"/>
<path d="M8.64032 18.8572V20H9.72026V18.8572H8.64032Z" fill="#100F0D"/>
<path d="M8.64032 17.7153V18.8584H9.72026V17.7153H8.64032Z" fill="#D77526"/>
<path d="M8.64032 16.5707V17.7139H9.72026V16.5707H8.64032Z" fill="#D77526"/>
<path d="M8.64032 15.4285V16.5713H9.72026V15.4285H8.64032Z" fill="#773B19"/>
<path d="M8.64032 14.2849V15.4277H9.72026V14.2849H8.64032Z" fill="#773B19"/>
<path d="M8.64032 13.142V14.2852H9.72026V13.142H8.64032Z" fill="#773B19"/>
<path d="M8.64032 11.9998V13.1426H9.72026V11.9998H8.64032Z" fill="#603116"/>
<path d="M8.64032 10.8562V11.999H9.72026V10.8562H8.64032Z" fill="#603116"/>
<path d="M8.64032 9.71427V10.8574H9.72026V9.71427H8.64032Z" fill="#773B19"/>
<path d="M8.64032 8.57107V9.71387H9.72026V8.57107H8.64032Z" fill="#8A441E"/>
<path d="M8.64032 7.42752V8.57031H9.72026V7.42752H8.64032Z" fill="#D77526"/>
<path d="M8.64032 6.28556V7.42871H9.72026V6.28556H8.64032Z" fill="#D77526"/>
<path d="M8.64032 5.14139V6.28418H9.72026V5.14139H8.64032Z" fill="#D77526"/>
<path d="M8.64032 3.99978V5.14258H9.72026V3.99978H8.64032Z" fill="#100F0D"/>
<path d="M9.71936 18.8572V20H10.7993V18.8572H9.71936Z" fill="#100F0D"/>
<path d="M9.71936 17.7153V18.8584H10.7993V17.7153H9.71936Z" fill="#D77526"/>
<path d="M9.71936 16.5707V17.7139H10.7993V16.5707H9.71936Z" fill="#773B19"/>
<path d="M9.71936 15.4285V16.5713H10.7993V15.4285H9.71936Z" fill="#603116"/>
<path d="M9.71936 14.2849V15.4277H10.7993V14.2849H9.71936Z" fill="#603116"/>
<path d="M9.71936 13.142V14.2852H10.7993V13.142H9.71936Z" fill="#603116"/>
<path d="M9.71936 11.9998V13.1426H10.7993V11.9998H9.71936Z" fill="#603116"/>
<path d="M9.71936 10.8562V11.999H10.7993V10.8562H9.71936Z" fill="#603116"/>
<path d="M9.71936 9.71427V10.8574H10.7993V9.71427H9.71936Z" fill="#603116"/>
<path d="M9.71936 8.57107V9.71387H10.7993V8.57107H9.71936Z" fill="#773B19"/>
<path d="M9.71936 7.42752V8.57031H10.7993V7.42752H9.71936Z" fill="#D77526"/>
<path d="M9.71936 6.28556V7.42871H10.7993V6.28556H9.71936Z" fill="#D77526"/>
<path d="M9.71936 5.14139V6.28418H10.7993V5.14139H9.71936Z" fill="#D77526"/>
<path d="M9.71936 3.99978V5.14258H10.7993V3.99978H9.71936Z" fill="#100F0D"/>
<path d="M10.8004 18.8572V20H11.8805V18.8572H10.8004Z" fill="#492516"/>
<path d="M10.8004 17.7153V18.8584H11.8805V17.7153H10.8004Z" fill="#D77526"/>
<path d="M10.8004 16.5707V17.7139H11.8805V16.5707H10.8004Z" fill="#492516"/>
<path d="M10.8004 15.4285V16.5713H11.8805V15.4285H10.8004Z" fill="#492516"/>
<path d="M10.8004 14.2849V15.4277H11.8805V14.2849H10.8004Z" fill="#492516"/>
<path d="M10.8004 13.142V14.2852H11.8805V13.142H10.8004Z" fill="#603116"/>
<path d="M10.8004 11.9998V13.1426H11.8805V11.9998H10.8004Z" fill="#603116"/>
<path d="M10.8004 10.8562V11.999H11.8805V10.8562H10.8004Z" fill="#603116"/>
<path d="M10.8004 9.71427V10.8574H11.8805V9.71427H10.8004Z" fill="#603116"/>
<path d="M10.8004 8.57107V9.71387H11.8805V8.57107H10.8004Z" fill="#603116"/>
<path d="M10.8004 7.42752V8.57031H11.8805V7.42752H10.8004Z" fill="#773B19"/>
<path d="M10.8004 6.28556V7.42871H11.8805V6.28556H10.8004Z" fill="#D77526"/>
<path d="M10.8004 5.14139V6.28418H11.8805V5.14139H10.8004Z" fill="#D77526"/>
<path d="M10.8004 3.99978V5.14258H11.8805V3.99978H10.8004Z" fill="#492516"/>
<path d="M11.8795 18.8572V20H12.9593V18.8572H11.8795Z" fill="#492516"/>
<path d="M11.8795 17.7153V18.8584H12.9593V17.7153H11.8795Z" fill="#D77526"/>
<path d="M11.8795 16.5707V17.7139H12.9593V16.5707H11.8795Z" fill="#D77526"/>
<path d="M11.8795 15.4285V16.5713H12.9593V15.4285H11.8795Z" fill="#A55421"/>
<path d="M11.8795 14.2849V15.4277H12.9593V14.2849H11.8795Z" fill="#8A441E"/>
<path d="M11.8795 13.142V14.2852H12.9593V13.142H11.8795Z" fill="#773B19"/>
<path d="M11.8795 11.9998V13.1426H12.9593V11.9998H11.8795Z" fill="#603116"/>
<path d="M11.8795 10.8562V11.999H12.9593V10.8562H11.8795Z" fill="#603116"/>
<path d="M11.8795 9.71427V10.8574H12.9593V9.71427H11.8795Z" fill="#603116"/>
<path d="M11.8795 8.57107V9.71387H12.9593V8.57107H11.8795Z" fill="#603116"/>
<path d="M11.8795 7.42752V8.57031H12.9593V7.42752H11.8795Z" fill="#603116"/>
<path d="M11.8795 6.28556V7.42871H12.9593V6.28556H11.8795Z" fill="#773B19"/>
<path d="M11.8795 5.14139V6.28418H12.9593V5.14139H11.8795Z" fill="#D77526"/>
<path d="M11.8795 3.99978V5.14258H12.9593V3.99978H11.8795Z" fill="#492516"/>
<path d="M12.9605 18.8572V20H14.0404V18.8572H12.9605Z" fill="#492516"/>
<path d="M12.9605 17.7153V18.8584H14.0404V17.7153H12.9605Z" fill="#D77526"/>
<path d="M12.9605 16.5707V17.7139H14.0404V16.5707H12.9605Z" fill="#D77526"/>
<path d="M12.9605 15.4285V16.5713H14.0404V15.4285H12.9605Z" fill="#A55421"/>
<path d="M12.9605 14.2849V15.4277H14.0404V14.2849H12.9605Z" fill="#8A441E"/>
<path d="M12.9605 13.142V14.2852H14.0404V13.142H12.9605Z" fill="#773B19"/>
<path d="M12.9605 11.9998V13.1426H14.0404V11.9998H12.9605Z" fill="#603116"/>
<path d="M12.9605 10.8562V11.999H14.0404V10.8562H12.9605Z" fill="#603116"/>
<path d="M12.9605 9.71427V10.8574H14.0404V9.71427H12.9605Z" fill="#603116"/>
<path d="M12.9605 8.57107V9.71387H14.0404V8.57107H12.9605Z" fill="#603116"/>
<path d="M12.9605 7.42752V8.57031H14.0404V7.42752H12.9605Z" fill="#603116"/>
<path d="M12.9605 6.28556V7.42871H14.0404V6.28556H12.9605Z" fill="#603116"/>
<path d="M12.9605 5.14139V6.28418H14.0404V5.14139H12.9605Z" fill="#D77526"/>
<path d="M12.9605 3.99978V5.14258H14.0404V3.99978H12.9605Z" fill="#492516"/>
<path d="M14.0395 18.8572V20H15.1197V18.8572H14.0395Z" fill="#492516"/>
<path d="M14.0395 17.7153V18.8584H15.1197V17.7153H14.0395Z" fill="#D77526"/>
<path d="M14.0395 16.5707V17.7139H15.1197V16.5707H14.0395Z" fill="#D77526"/>
<path d="M14.0395 15.4285V16.5713H15.1197V15.4285H14.0395Z" fill="#A55421"/>
<path d="M14.0395 14.2849V15.4277H15.1197V14.2849H14.0395Z" fill="#8A441E"/>
<path d="M14.0395 13.142V14.2852H15.1197V13.142H14.0395Z" fill="#773B19"/>
<path d="M14.0395 11.9998V13.1426H15.1197V11.9998H14.0395Z" fill="#603116"/>
<path d="M14.0395 10.8562V11.999H15.1197V10.8562H14.0395Z" fill="#603116"/>
<path d="M14.0395 9.71427V10.8574H15.1197V9.71427H14.0395Z" fill="#603116"/>
<path d="M14.0395 8.57107V9.71387H15.1197V8.57107H14.0395Z" fill="#603116"/>
<path d="M14.0395 7.42752V8.57031H15.1197V7.42752H14.0395Z" fill="#603116"/>
<path d="M14.0395 6.28556V7.42871H15.1197V6.28556H14.0395Z" fill="#492516"/>
<path d="M14.0395 5.14139V6.28418H15.1197V5.14139H14.0395Z" fill="#D77526"/>
<path d="M14.0395 3.99978V5.14258H15.1197V3.99978H14.0395Z" fill="#492516"/>
<path d="M15.1205 18.8572V20H16.2004V18.8572H15.1205Z" fill="#492516"/>
<path d="M15.1205 17.7153V18.8584H16.2004V17.7153H15.1205Z" fill="#D77526"/>
<path d="M15.1205 16.5707V17.7139H16.2004V16.5707H15.1205Z" fill="#773B19"/>
<path d="M15.1205 15.4285V16.5713H16.2004V15.4285H15.1205Z" fill="#773B19"/>
<path d="M15.1205 14.2849V15.4277H16.2004V14.2849H15.1205Z" fill="#773B19"/>
<path d="M15.1205 13.142V14.2852H16.2004V13.142H15.1205Z" fill="#603116"/>
<path d="M15.1205 11.9998V13.1426H16.2004V11.9998H15.1205Z" fill="#603116"/>
<path d="M15.1205 10.8562V11.999H16.2004V10.8562H15.1205Z" fill="#603116"/>
<path d="M15.1205 9.71427V10.8574H16.2004V9.71427H15.1205Z" fill="#603116"/>
<path d="M15.1205 8.57107V9.71387H16.2004V8.57107H15.1205Z" fill="#603116"/>
<path d="M15.1205 7.42752V8.57031H16.2004V7.42752H15.1205Z" fill="#492516"/>
<path d="M15.1205 6.28556V7.42871H16.2004V6.28556H15.1205Z" fill="#D77526"/>
<path d="M15.1205 5.14139V6.28418H16.2004V5.14139H15.1205Z" fill="#D77526"/>
<path d="M15.1205 3.99978V5.14258H16.2004V3.99978H15.1205Z" fill="#492516"/>
<path d="M16.1996 18.8572V20H17.2798V18.8572H16.1996Z" fill="#100F0D"/>
<path d="M16.1996 17.7153V18.8584H17.2798V17.7153H16.1996Z" fill="#D77526"/>
<path d="M16.1996 16.5707V17.7139H17.2798V16.5707H16.1996Z" fill="#492516"/>
<path d="M16.1996 15.4285V16.5713H17.2798V15.4285H16.1996Z" fill="#603116"/>
<path d="M16.1996 14.2849V15.4277H17.2798V14.2849H16.1996Z" fill="#603116"/>
<path d="M16.1996 13.142V14.2852H17.2798V13.142H16.1996Z" fill="#603116"/>
<path d="M16.1996 11.9998V13.1426H17.2798V11.9998H16.1996Z" fill="#603116"/>
<path d="M16.1996 10.8562V11.999H17.2798V10.8562H16.1996Z" fill="#603116"/>
<path d="M16.1996 9.71427V10.8574H17.2798V9.71427H16.1996Z" fill="#603116"/>
<path d="M16.1996 8.57107V9.71387H17.2798V8.57107H16.1996Z" fill="#492516"/>
<path d="M16.1996 7.42752V8.57031H17.2798V7.42752H16.1996Z" fill="#D77526"/>
<path d="M16.1996 6.28556V7.42871H17.2798V6.28556H16.1996Z" fill="#D77526"/>
<path d="M16.1996 5.14139V6.28418H17.2798V5.14139H16.1996Z" fill="#D77526"/>
<path d="M16.1996 3.99978V5.14258H17.2798V3.99978H16.1996Z" fill="#100F0D"/>
<path d="M17.2806 18.8572V20H18.3605V18.8572H17.2806Z" fill="#100F0D"/>
<path d="M17.2806 17.7153V18.8584H18.3605V17.7153H17.2806Z" fill="#D77526"/>
<path d="M17.2806 16.5707V17.7139H18.3605V16.5707H17.2806Z" fill="#D77526"/>
<path d="M17.2806 15.4285V16.5713H18.3605V15.4285H17.2806Z" fill="#492516"/>
<path d="M17.2806 14.2849V15.4277H18.3605V14.2849H17.2806Z" fill="#492516"/>
<path d="M17.2806 13.142V14.2852H18.3605V13.142H17.2806Z" fill="#492516"/>
<path d="M17.2806 11.9998V13.1426H18.3605V11.9998H17.2806Z" fill="#603116"/>
<path d="M17.2806 10.8562V11.999H18.3605V10.8562H17.2806Z" fill="#603116"/>
<path d="M17.2806 9.71427V10.8574H18.3605V9.71427H17.2806Z" fill="#492516"/>
<path d="M17.2806 8.57107V9.71387H18.3605V8.57107H17.2806Z" fill="#8A441E"/>
<path d="M17.2806 7.42752V8.57031H18.3605V7.42752H17.2806Z" fill="#D77526"/>
<path d="M17.2806 6.28556V7.42871H18.3605V6.28556H17.2806Z" fill="#D77526"/>
<path d="M17.2806 5.14139V6.28418H18.3605V5.14139H17.2806Z" fill="#D77526"/>
<path d="M17.2806 3.99978V5.14258H18.3605V3.99978H17.2806Z" fill="#100F0D"/>
<path d="M18.3597 18.8572V20H19.4399V18.8572H18.3597Z" fill="#100F0D"/>
<path d="M18.3597 17.7153V18.8584H19.4399V17.7153H18.3597Z" fill="#D77526"/>
<path d="M18.3597 16.5707V17.7139H19.4399V16.5707H18.3597Z" fill="#D77526"/>
<path d="M18.3597 15.4285V16.5713H19.4399V15.4285H18.3597Z" fill="#A55421"/>
<path d="M18.3597 14.2849V15.4277H19.4399V14.2849H18.3597Z" fill="#8A441E"/>
<path d="M18.3597 13.142V14.2852H19.4399V13.142H18.3597Z" fill="#D77526"/>
<path d="M18.3597 11.9998V13.1426H19.4399V11.9998H18.3597Z" fill="#492516"/>
<path d="M18.3597 10.8562V11.999H19.4399V10.8562H18.3597Z" fill="#492516"/>
<path d="M18.3597 9.71427V10.8574H19.4399V9.71427H18.3597Z" fill="#A55421"/>
<path d="M18.3597 8.57107V9.71387H19.4399V8.57107H18.3597Z" fill="#8A441E"/>
<path d="M18.3597 7.42752V8.57031H19.4399V7.42752H18.3597Z" fill="#D77526"/>
<path d="M18.3597 6.28556V7.42871H19.4399V6.28556H18.3597Z" fill="#D77526"/>
<path d="M18.3597 5.14139V6.28418H19.4399V5.14139H18.3597Z" fill="#D77526"/>
<path d="M18.3597 3.99978V5.14258H19.4399V3.99978H18.3597Z" fill="#100F0D"/>
<path d="M19.4407 18.8572V20H20.5206V18.8572H19.4407Z" fill="#100F0D"/>
<path d="M19.4407 17.7153V18.8584H20.5206V17.7153H19.4407Z" fill="#D77526"/>
<path d="M19.4407 16.5707V17.7139H20.5206V16.5707H19.4407Z" fill="#D77526"/>
<path d="M19.4407 15.4285V16.5713H20.5206V15.4285H19.4407Z" fill="#A55421"/>
<path d="M19.4407 14.2849V15.4277H20.5206V14.2849H19.4407Z" fill="#8A441E"/>
<path d="M19.4407 13.142V14.2852H20.5206V13.142H19.4407Z" fill="#D77526"/>
<path d="M19.4407 11.9998V13.1426H20.5206V11.9998H19.4407Z" fill="#D77526"/>
<path d="M19.4407 10.8562V11.999H20.5206V10.8562H19.4407Z" fill="#D77526"/>
<path d="M19.4407 9.71427V10.8574H20.5206V9.71427H19.4407Z" fill="#A55421"/>
<path d="M19.4407 8.57107V9.71387H20.5206V8.57107H19.4407Z" fill="#8A441E"/>
<path d="M19.4407 7.42752V8.57031H20.5206V7.42752H19.4407Z" fill="#D77526"/>
<path d="M19.4407 6.28556V7.42871H20.5206V6.28556H19.4407Z" fill="#D77526"/>
<path d="M19.4407 5.14139V6.28418H20.5206V5.14139H19.4407Z" fill="#D77526"/>
<path d="M19.4407 3.99978V5.14258H20.5206V3.99978H19.4407Z" fill="#100F0D"/>
<path d="M20.5198 18.8572V20H21.5996V18.8572H20.5198Z" fill="#100F0D"/>
<path d="M20.5198 17.7153V18.8584H21.5996V17.7153H20.5198Z" fill="#D77526"/>
<path d="M20.5198 16.5707V17.7139H21.5996V16.5707H20.5198Z" fill="#D77526"/>
<path d="M20.5198 15.4285V16.5713H21.5996V15.4285H20.5198Z" fill="#A55421"/>
<path d="M20.5198 14.2849V15.4277H21.5996V14.2849H20.5198Z" fill="#8A441E"/>
<path d="M20.5198 13.142V14.2852H21.5996V13.142H20.5198Z" fill="#D77526"/>
<path d="M20.5198 11.9998V13.1426H21.5996V11.9998H20.5198Z" fill="#D77526"/>
<path d="M20.5198 10.8562V11.999H21.5996V10.8562H20.5198Z" fill="#D77526"/>
<path d="M20.5198 9.71427V10.8574H21.5996V9.71427H20.5198Z" fill="#A55421"/>
<path d="M20.5198 8.57107V9.71387H21.5996V8.57107H20.5198Z" fill="#8A441E"/>
<path d="M20.5198 7.42752V8.57031H21.5996V7.42752H20.5198Z" fill="#D77526"/>
<path d="M20.5198 6.28556V7.42871H21.5996V6.28556H20.5198Z" fill="#D77526"/>
<path d="M20.5198 5.14139V6.28418H21.5996V5.14139H20.5198Z" fill="#D77526"/>
<path d="M20.5198 3.99978V5.14258H21.5996V3.99978H20.5198Z" fill="#100F0D"/>
<path d="M21.6008 18.8572V20H22.681V18.8572H21.6008Z" fill="#100F0D"/>
<path d="M21.6008 17.7153V18.8584H22.681V17.7153H21.6008Z" fill="#D77526"/>
<path d="M21.6008 16.5707V17.7139H22.681V16.5707H21.6008Z" fill="#D77526"/>
<path d="M21.6008 15.4285V16.5713H22.681V15.4285H21.6008Z" fill="#A55421"/>
<path d="M21.6008 14.2849V15.4277H22.681V14.2849H21.6008Z" fill="#8A441E"/>
<path d="M21.6008 13.142V14.2852H22.681V13.142H21.6008Z" fill="#D77526"/>
<path d="M21.6008 11.9998V13.1426H22.681V11.9998H21.6008Z" fill="#D77526"/>
<path d="M21.6008 10.8562V11.999H22.681V10.8562H21.6008Z" fill="#D77526"/>
<path d="M21.6008 9.71427V10.8574H22.681V9.71427H21.6008Z" fill="#A55421"/>
<path d="M21.6008 8.57107V9.71387H22.681V8.57107H21.6008Z" fill="#8A441E"/>
<path d="M21.6008 7.42752V8.57031H22.681V7.42752H21.6008Z" fill="#D77526"/>
<path d="M21.6008 6.28556V7.42871H22.681V6.28556H21.6008Z" fill="#D77526"/>
<path d="M21.6008 5.14139V6.28418H22.681V5.14139H21.6008Z" fill="#D77526"/>
<path d="M21.6008 3.99978V5.14258H22.681V3.99978H21.6008Z" fill="#100F0D"/>
<path d="M22.6798 18.8572V20H23.7597V18.8572H22.6798Z" fill="#100F0D"/>
<path d="M22.6798 17.7153V18.8584H23.7597V17.7153H22.6798Z" fill="#D77526"/>
<path d="M22.6798 16.5707V17.7139H23.7597V16.5707H22.6798Z" fill="#D77526"/>
<path d="M22.6798 15.4285V16.5713H23.7597V15.4285H22.6798Z" fill="#A55421"/>
<path d="M22.6798 14.2849V15.4277H23.7597V14.2849H22.6798Z" fill="#8A441E"/>
<path d="M22.6798 13.142V14.2852H23.7597V13.142H22.6798Z" fill="#D77526"/>
<path d="M22.6798 11.9998V13.1426H23.7597V11.9998H22.6798Z" fill="#D77526"/>
<path d="M22.6798 10.8562V11.999H23.7597V10.8562H22.6798Z" fill="#D77526"/>
<path d="M22.6798 9.71427V10.8574H23.7597V9.71427H22.6798Z" fill="#A55421"/>
<path d="M22.6798 8.57107V9.71387H23.7597V8.57107H22.6798Z" fill="#8A441E"/>
<path d="M22.6798 7.42752V8.57031H23.7597V7.42752H22.6798Z" fill="#D77526"/>
<path d="M22.6798 6.28556V7.42871H23.7597V6.28556H22.6798Z" fill="#D77526"/>
<path d="M22.6798 5.14139V6.28418H23.7597V5.14139H22.6798Z" fill="#D77526"/>
<path d="M22.6798 3.99978V5.14258H23.7597V3.99978H22.6798Z" fill="#100F0D"/>
<path d="M23.7609 18.8572V20H24.8407V18.8572H23.7609Z" fill="#100F0D"/>
<path d="M23.7609 17.7153V18.8584H24.8407V17.7153H23.7609Z" fill="#D77526"/>
<path d="M23.7609 16.5707V17.7139H24.8407V16.5707H23.7609Z" fill="#D77526"/>
<path d="M23.7609 15.4285V16.5713H24.8407V15.4285H23.7609Z" fill="#A55421"/>
<path d="M23.7609 14.2849V15.4277H24.8407V14.2849H23.7609Z" fill="#8A441E"/>
<path d="M23.7609 13.142V14.2852H24.8407V13.142H23.7609Z" fill="#D77526"/>
<path d="M23.7609 11.9998V13.1426H24.8407V11.9998H23.7609Z" fill="#D77526"/>
<path d="M23.7609 10.8562V11.999H24.8407V10.8562H23.7609Z" fill="#D77526"/>
<path d="M23.7609 9.71427V10.8574H24.8407V9.71427H23.7609Z" fill="#A55421"/>
<path d="M23.7609 8.57107V9.71387H24.8407V8.57107H23.7609Z" fill="#8A441E"/>
<path d="M23.7609 7.42752V8.57031H24.8407V7.42752H23.7609Z" fill="#D77526"/>
<path d="M23.7609 6.28556V7.42871H24.8407V6.28556H23.7609Z" fill="#D77526"/>
<path d="M23.7609 5.14139V6.28418H24.8407V5.14139H23.7609Z" fill="#D77526"/>
<path d="M23.7609 3.99978V5.14258H24.8407V3.99978H23.7609Z" fill="#100F0D"/>
<path d="M24.8399 18.8572V20H25.9201V18.8572H24.8399Z" fill="#100F0D"/>
<path d="M24.8399 17.7153V18.8584H25.9201V17.7153H24.8399Z" fill="#FAB375"/>
<path d="M24.8399 16.5707V17.7139H25.9201V16.5707H24.8399Z" fill="#FAB375"/>
<path d="M24.8399 15.4285V16.5713H25.9201V15.4285H24.8399Z" fill="#BE5D20"/>
<path d="M24.8399 14.2849V15.4277H25.9201V14.2849H24.8399Z" fill="#A55421"/>
<path d="M24.8399 13.142V14.2852H25.9201V13.142H24.8399Z" fill="#FAB375"/>
<path d="M24.8399 11.9998V13.1426H25.9201V11.9998H24.8399Z" fill="#FAB375"/>
<path d="M24.8399 10.8562V11.999H25.9201V10.8562H24.8399Z" fill="#FAB375"/>
<path d="M24.8399 9.71427V10.8574H25.9201V9.71427H24.8399Z" fill="#BE5D20"/>
<path d="M24.8399 8.57107V9.71387H25.9201V8.57107H24.8399Z" fill="#A55421"/>
<path d="M24.8399 7.42752V8.57031H25.9201V7.42752H24.8399Z" fill="#FAB375"/>
<path d="M24.8399 6.28556V7.42871H25.9201V6.28556H24.8399Z" fill="#FAB375"/>
<path d="M24.8399 5.14139V6.28418H25.9201V5.14139H24.8399Z" fill="#FAB375"/>
<path d="M24.8399 3.99978V5.14258H25.9201V3.99978H24.8399Z" fill="#100F0D"/>
<path d="M25.921 17.7153V18.8584H27.0008V17.7153H25.921Z" fill="#100F0D"/>
<path d="M25.921 16.5707V17.7139H27.0008V16.5707H25.921Z" fill="#100F0D"/>
<path d="M25.921 15.4285V16.5713H27.0008V15.4285H25.921Z" fill="#100F0D"/>
<path d="M25.921 14.2849V15.4277H27.0008V14.2849H25.921Z" fill="#100F0D"/>
<path d="M25.921 13.142V14.2852H27.0008V13.142H25.921Z" fill="#100F0D"/>
<path d="M25.921 11.9998V13.1426H27.0008V11.9998H25.921Z" fill="#100F0D"/>
<path d="M25.921 10.8562V11.999H27.0008V10.8562H25.921Z" fill="#100F0D"/>
<path d="M25.921 9.71427V10.8574H27.0008V9.71427H25.921Z" fill="#100F0D"/>
<path d="M25.921 8.57107V9.71387H27.0008V8.57107H25.921Z" fill="#100F0D"/>
<path d="M25.921 7.42752V8.57031H27.0008V7.42752H25.921Z" fill="#100F0D"/>
<path d="M25.921 6.28556V7.42871H27.0008V6.28556H25.921Z" fill="#100F0D"/>
<path d="M25.921 5.14139V6.28418H27.0008V5.14139H25.921Z" fill="#100F0D"/>
</svg>
