<svg width="17" height="19" viewBox="0 0 17 19" fill="none" xmlns="http://www.w3.org/2000/svg">
<g id="Group 22697">
<path id="Vector" d="M0 11.4704V14.8446C0 17.3556 4.37243 18.5 8.43555 18.5C12.4987 18.5 16.8711 17.3556 16.8711 14.8446V11.4704C16.8711 11.1721 16.7526 10.886 16.5417 10.6751C16.3307 10.4641 16.0447 10.3456 15.7464 10.3456C15.4481 10.3456 15.162 10.4641 14.9511 10.6751C14.7401 10.886 14.6216 11.1721 14.6216 11.4704V14.7968C14.3657 15.2326 12.2456 16.2505 8.43555 16.2505C4.62549 16.2505 2.50536 15.2326 2.24948 14.7968V11.4704C2.24948 11.1721 2.13098 10.886 1.92005 10.6751C1.70912 10.4641 1.42304 10.3456 1.12474 10.3456C0.826441 10.3456 0.540359 10.4641 0.329429 10.6751C0.118499 10.886 0 11.1721 0 11.4704Z" fill="white"/>
<path id="Vector_2" d="M8.43729 12.3763C8.73559 12.3763 9.02168 12.2578 9.23261 12.0469C9.44353 11.8359 9.56203 11.5499 9.56203 11.2516V3.00441L12.1208 5.56319C12.3037 5.75042 12.5453 5.86929 12.8052 5.89999C13.0651 5.9307 13.3278 5.87137 13.5492 5.7319C13.6901 5.64068 13.8088 5.51911 13.8965 5.37608C13.9843 5.23305 14.0389 5.07219 14.0565 4.9053C14.074 4.73841 14.0539 4.56971 13.9978 4.41157C13.9417 4.25343 13.8508 4.10985 13.732 3.99137L10.7149 0.974249C10.3892 0.641088 9.99618 0.381294 9.56203 0.212237C8.99087 -0.00835034 8.36792 -0.0582832 7.76891 0.0685074C7.1699 0.195298 6.62062 0.493353 6.18781 0.926448L3.14258 3.99137C3.02592 4.10783 2.93629 4.24851 2.88003 4.40346C2.82377 4.5584 2.80226 4.72382 2.81701 4.888C2.83177 5.05218 2.88243 5.21111 2.96542 5.35354C3.0484 5.49597 3.16168 5.61842 3.29723 5.71222C3.52615 5.86098 3.79989 5.92499 4.07104 5.89315C4.34219 5.86131 4.59366 5.73563 4.78189 5.53788L7.31255 3.00722V11.2516C7.31255 11.5499 7.43105 11.8359 7.64198 12.0469C7.85291 12.2578 8.13899 12.3763 8.43729 12.3763Z" fill="white"/>
</g>
</svg>
