<svg width="17" height="19" viewBox="0 0 17 19" fill="none" xmlns="http://www.w3.org/2000/svg">
<g id="Group 22697">
<path id="Vector" d="M0 11.2082V14.4912C0 16.9344 4.25424 18.0478 8.20753 18.0478C12.1608 18.0478 16.4151 16.9344 16.4151 14.4912V11.2082C16.4151 10.918 16.2998 10.6396 16.0945 10.4344C15.8893 10.2292 15.611 10.1139 15.3207 10.1139C15.0305 10.1139 14.7521 10.2292 14.5469 10.4344C14.3417 10.6396 14.2264 10.918 14.2264 11.2082V14.4447C13.9774 14.8688 11.9146 15.8592 8.20753 15.8592C4.50046 15.8592 2.43764 14.8688 2.18868 14.4447V11.2082C2.18868 10.918 2.07338 10.6396 1.86815 10.4344C1.66292 10.2292 1.38457 10.1139 1.09434 10.1139C0.804101 10.1139 0.525752 10.2292 0.320524 10.4344C0.115296 10.6396 0 10.918 0 11.2082Z" fill="white"/>
<path id="Vector_2" d="M8.2092 12.0906C8.49944 12.0906 8.77779 11.9753 8.98301 11.7701C9.18824 11.5648 9.30354 11.2865 9.30354 10.9963V2.97202L11.7932 5.46164C11.9711 5.64381 12.2061 5.75947 12.4591 5.78934C12.712 5.81921 12.9675 5.76149 13.183 5.62579C13.32 5.53704 13.4355 5.41875 13.5209 5.27958C13.6062 5.14042 13.6594 4.98391 13.6765 4.82153C13.6935 4.65915 13.674 4.49501 13.6194 4.34115C13.5648 4.18728 13.4764 4.04759 13.3608 3.9323L10.4252 0.996743C10.1084 0.672587 9.72594 0.419816 9.30354 0.255329C8.74781 0.0407035 8.14171 -0.00787968 7.55889 0.115484C6.97607 0.238847 6.44163 0.528845 6.02053 0.950233L3.05761 3.9323C2.9441 4.04562 2.8569 4.1825 2.80216 4.33326C2.74742 4.48401 2.72649 4.64496 2.74084 4.8047C2.7552 4.96444 2.80449 5.11908 2.88523 5.25766C2.96597 5.39624 3.07619 5.51538 3.20808 5.60664C3.43081 5.75138 3.69715 5.81366 3.96097 5.78268C4.22479 5.7517 4.46946 5.62942 4.6526 5.43702L7.11486 2.97476V10.9963C7.11486 11.2865 7.23016 11.5648 7.43539 11.7701C7.64062 11.9753 7.91896 12.0906 8.2092 12.0906Z" fill="white"/>
</g>
</svg>
