<svg width="16" height="18" viewBox="0 0 16 18" fill="none" xmlns="http://www.w3.org/2000/svg">
<path d="M16 17.3918C16 17.5839 15.8443 17.7396 15.6522 17.7396H0.347826C0.155727 17.7396 0 17.5839 0 17.3918V6.67107C0 6.47897 0.155727 6.32324 0.347826 6.32324H3.69423C3.88633 6.32324 4.04206 6.47897 4.04206 6.67107V7.47305C4.04206 7.66515 3.88633 7.82088 3.69423 7.82088H1.84546C1.65336 7.82088 1.49764 7.97661 1.49764 8.1687V15.8941C1.49764 16.0862 1.65336 16.242 1.84546 16.242H14.1545C14.3466 16.242 14.5024 16.0862 14.5024 15.8941V8.1687C14.5024 7.97661 14.3466 7.82088 14.1545 7.82088H12.3058C12.1137 7.82088 11.9579 7.66515 11.9579 7.47305V6.67107C11.9579 6.47897 12.1137 6.32324 12.3058 6.32324H15.6522C15.8443 6.32324 16 6.47897 16 6.67107V17.3918Z" fill="white"/>
<path d="M11.5347 3.53344L8.00122 0L4.46777 3.53344L5.42707 4.58642L7.06523 2.87823V12.2214H8.93715V2.87823L10.5753 4.58642L11.5347 3.53344Z" fill="white"/>
</svg>
