<svg width="20" height="20" viewBox="0 0 20 20" fill="none" xmlns="http://www.w3.org/2000/svg">
<g id="Group 22850">
<g id="Group 22842">
<g id="Group">
<path id="Vector" d="M10.2378 19.5434C6.79791 19.5434 1 18.8153 1 16.0197C1 14.8549 1.99868 13.9521 3.96831 13.3115C4.46765 13.1659 4.99473 13.4571 5.13344 13.9813C5.27215 14.5054 4.99473 15.0587 4.49539 15.2043C3.38574 15.5538 2.99737 15.8741 2.8864 16.0197C3.30252 16.5439 5.71601 17.5631 10.2101 17.5631C14.7042 17.5631 17.1176 16.5148 17.5338 16.0197C17.3951 15.8741 16.9789 15.5247 15.7861 15.1461C15.2867 15.0005 15.0093 14.4472 15.148 13.923C15.2867 13.3988 15.8138 13.1076 16.3131 13.2532C18.4215 13.8939 19.4756 14.7966 19.4756 16.0197C19.4756 18.8153 13.6777 19.5434 10.2378 19.5434Z" fill="black" stroke="black" stroke-width="0.203702"/>
</g>
</g>
<g id="Group 22843">
<g id="Group 22776">
<path id="Vector_2" d="M5.6645 11.8875C6.18199 11.964 6.69949 12.0214 7.24423 12.0789L7.62554 14.8799C7.65278 15.2434 8.08857 15.5305 8.60607 15.5305H11.6021C12.1196 15.5305 12.5554 15.2434 12.5826 14.8799L12.9639 12.0789C13.5087 12.0214 14.0262 11.964 14.5437 11.8875C14.8978 11.8301 15.1429 11.5813 15.0884 11.3325L14.7616 10.1318C14.5437 8.90705 13.0729 7.98853 11.3297 7.98853H8.90567C7.16252 7.98853 5.69173 8.90705 5.47384 10.1318L5.11976 11.3325C5.06529 11.5813 5.31042 11.8301 5.6645 11.8875Z" fill="black"/>
<path id="Vector_3" d="M10.1916 6.89274C12.0378 6.89274 13.5345 5.39609 13.5345 3.54989C13.5345 1.70368 12.0378 0.207031 10.1916 0.207031C8.3454 0.207031 6.84875 1.70368 6.84875 3.54989C6.84875 5.39609 8.3454 6.89274 10.1916 6.89274Z" fill="black"/>
</g>
</g>
</g>
</svg>
