<svg width="14" height="17" viewBox="0 0 14 17" fill="none" xmlns="http://www.w3.org/2000/svg">
<path d="M1.68093 16.6655H11.6716C12.5951 16.6655 13.3928 15.91 13.3928 14.9443V7.85003C13.3928 6.92652 12.6373 6.12888 11.6716 6.12888H11.2098V3.82003C11.2098 1.72116 9.48867 0 7.3898 0H6.00453C3.90566 0 2.1845 1.72116 2.1845 3.82003V6.12888H1.72273C0.799226 6.12888 0.0015776 6.88432 0.0015776 7.85003V14.9443C-0.0402943 15.9097 0.757427 16.6655 1.68093 16.6655ZM7.80981 13.6431C7.85168 13.8109 7.72577 14.0208 7.51583 14.0208H5.83687C5.62692 14.0208 5.50101 13.853 5.54289 13.6431L6.08869 11.4602C5.62692 11.2502 5.29104 10.7885 5.29104 10.243C5.29104 9.48753 5.87871 8.89955 6.63447 8.89955C7.38992 8.89955 7.9779 9.48722 7.9779 10.243C7.9779 10.7888 7.64204 11.2505 7.18025 11.4602L7.80981 13.6431ZM4.45153 3.86231C4.45153 3.02284 5.12324 2.35112 5.96272 2.35112H7.34798C8.18746 2.35112 8.85918 3.02283 8.85918 3.86231V6.17115H4.45146L4.45153 3.86231Z" fill="#FF72D7"/>
</svg>
