<svg width="13" height="13" viewBox="0 0 13 13" fill="none" xmlns="http://www.w3.org/2000/svg">
<g id="Clip path group">
<mask id="mask0_4_86" style="mask-type:luminance" maskUnits="userSpaceOnUse" x="-1" y="-1" width="15" height="15">
<g id="a">
<path id="Vector" d="M13 13H0V0H13V13Z" fill="white" stroke="white" stroke-width="0.5"/>
</g>
</mask>
<g mask="url(#mask0_4_86)">
<g id="Group">
<path id="Vector_2" fill-rule="evenodd" clip-rule="evenodd" d="M6.9236 12.0289C6.71202 11.8173 6.71202 11.4744 6.9236 11.2628L10.0614 8.125H5.95245C4.29744 8.125 3.0217 7.85615 2.18402 7.01843C1.34628 6.18069 1.07745 4.90501 1.07745 3.25V1.625C1.07745 1.32584 1.31995 1.08333 1.61911 1.08333C1.91828 1.08333 2.16078 1.32584 2.16078 1.625V3.25C2.16078 4.84499 2.43356 5.73598 2.95004 6.2524C3.46647 6.76883 4.35745 7.04167 5.95245 7.04167H10.0614L6.9236 3.90385C6.71202 3.69232 6.71202 3.34934 6.9236 3.13782C7.13512 2.9263 7.4781 2.9263 7.68961 3.13782L11.7521 7.20032C11.9637 7.41184 11.9637 7.75481 11.7521 7.96635L7.68961 12.0289C7.4781 12.2404 7.13512 12.2404 6.9236 12.0289Z" fill="#777777" stroke="#777777" stroke-width="0.5"/>
</g>
</g>
</g>
</svg>
