<svg width="10" height="9" viewBox="0 0 10 9" fill="none" xmlns="http://www.w3.org/2000/svg">
<path id="Vector" d="M-1.96692e-07 4.49979C-2.07123e-07 4.73843 0.0957468 4.9673 0.266177 5.13604C0.436607 5.30478 0.667761 5.39958 0.908785 5.39958L7.57245 5.39958L5.50497 7.44659C5.35369 7.59291 5.25764 7.78615 5.23283 7.9941C5.20802 8.20204 5.25596 8.41213 5.36865 8.58932C5.44235 8.702 5.54059 8.79692 5.65615 8.86713C5.77172 8.93734 5.90169 8.98106 6.03654 8.99508C6.17139 9.0091 6.3077 8.99307 6.43547 8.94816C6.56325 8.90325 6.67926 8.8306 6.77499 8.73553L9.21281 6.32186C9.482 6.06132 9.69192 5.74689 9.82851 5.39958C10.0067 4.94265 10.0471 4.4443 9.94465 3.9651C9.8422 3.48589 9.60137 3.04647 9.25143 2.70023L6.77499 0.26406C6.68089 0.170736 6.56722 0.099033 6.44203 0.0540259C6.31683 0.00901885 6.18317 -0.00819206 6.05052 0.00361162C5.91786 0.0154153 5.78945 0.0559453 5.67436 0.122332C5.55928 0.188719 5.46034 0.279339 5.38455 0.38778C5.26435 0.570913 5.21263 0.789906 5.23836 1.00682C5.26409 1.22374 5.36563 1.42491 5.52541 1.5755L7.57018 3.60001L0.908785 3.60001C0.667761 3.60001 0.436607 3.69481 0.266177 3.86355C0.0957468 4.03229 -1.86261e-07 4.26116 -1.96692e-07 4.49979Z" fill="#4F4F4F"/>
</svg>
