<svg width="66" height="66" viewBox="0 0 66 66" fill="none" xmlns="http://www.w3.org/2000/svg">
<mask id="mask0_43_32" style="mask-type:alpha" maskUnits="userSpaceOnUse" x="0" y="0" width="66" height="66">
<rect width="66" height="66" fill="white"/>
</mask>
<g mask="url(#mask0_43_32)">
<g filter="url(#filter0_d_43_32)">
<circle cx="33" cy="33" r="26" fill="white"/>
<path d="M39.4257 37.0122L35.2057 32.2757L35.6872 33.4358L35.6173 26.0769C35.6173 23.9581 32.3167 23.9581 32.3341 26.0769L32.404 33.4049C32.404 34.5125 33.7479 35.5675 34.4264 36.3248L37.0925 39.3326C38.502 40.9174 40.8178 38.5842 39.4126 37.0125L39.4257 37.0122Z" fill="#BCBCBC"/>
<path d="M14.0268 34.5997C15.1957 35.8123 16.3952 36.9944 17.6078 38.1633C17.8646 38.4183 18.1987 38.5819 18.5577 38.6286C18.9168 38.6754 19.2814 38.6024 19.5951 38.4216C21.3677 37.3025 23.0337 36.023 24.5724 34.5997C26.1264 33.1508 23.7977 30.835 22.2523 32.2754C20.92 33.5087 19.4766 34.6165 17.9403 35.5848L19.9279 35.8432C18.7153 34.67 17.5159 33.4925 16.3469 32.2753C14.8761 30.7519 12.5559 33.0763 14.0268 34.5997V34.5997Z" fill="#BCBCBC"/>
<path d="M22.2701 44.9184C33.5339 56.3002 55.4744 42.5589 49.4114 27.4079C46.2857 19.5587 37.2502 16.4162 29.5721 18.7574C22.5636 20.8983 16.4697 26.8341 17.3937 34.6177C17.6389 36.6926 20.9222 36.7146 20.677 34.6177C19.9371 28.3579 24.4854 24.0199 30.0279 22.0625C36.3491 19.83 43.8745 22.2769 46.4877 28.8348C51.2376 40.738 33.2196 51.3053 24.5996 42.5938C23.1113 41.0878 20.7866 43.4125 22.2795 44.9182L22.2701 44.9184Z" fill="#BCBCBC"/>
</g>
</g>
<defs>
<filter id="filter0_d_43_32" x="0" y="1" width="66" height="66" filterUnits="userSpaceOnUse" color-interpolation-filters="sRGB">
<feFlood flood-opacity="0" result="BackgroundImageFix"/>
<feColorMatrix in="SourceAlpha" type="matrix" values="0 0 0 0 0 0 0 0 0 0 0 0 0 0 0 0 0 0 127 0" result="hardAlpha"/>
<feOffset dy="1"/>
<feGaussianBlur stdDeviation="3.5"/>
<feComposite in2="hardAlpha" operator="out"/>
<feColorMatrix type="matrix" values="0 0 0 0 0 0 0 0 0 0 0 0 0 0 0 0 0 0 0.15 0"/>
<feBlend mode="normal" in2="BackgroundImageFix" result="effect1_dropShadow_43_32"/>
<feBlend mode="normal" in="SourceGraphic" in2="effect1_dropShadow_43_32" result="shape"/>
</filter>
</defs>
</svg>
