<svg width="20" height="25" viewBox="0 0 20 25" fill="none" xmlns="http://www.w3.org/2000/svg">
<path d="M3.97977 16.2337L7.28931 14.5781C8.28243 14.0813 9.08762 13.2754 9.58418 12.2817L11.2395 8.96959C11.3482 8.75231 11.5703 8.61497 11.8132 8.61497C12.056 8.61497 12.2783 8.75231 12.3869 8.96959L14.0417 12.2811C14.5381 13.2748 15.3435 14.0805 16.3364 14.5774L19.6454 16.2337C19.8627 16.3422 20 16.5646 20 16.8077C20 17.0509 19.8627 17.2731 19.6454 17.3818L16.3359 19.0376C15.3429 19.5342 14.5375 20.3401 14.0412 21.3336L12.3864 24.6451C12.2777 24.8626 12.0555 24.9999 11.8127 24.9999C11.5697 24.9999 11.3476 24.8626 11.239 24.6451L9.58418 21.3336C9.08761 20.34 8.28243 19.5342 7.28931 19.0376L3.97977 17.3812C3.76282 17.2723 3.62575 17.0503 3.62575 16.8074C3.62575 16.5645 3.76282 16.3425 3.97977 16.2337ZM5.44677 9.454L6.86502 8.74338C6.95803 8.69675 7.01657 8.60172 7.01657 8.49769C7.01657 8.39365 6.95802 8.29862 6.86502 8.252L5.44677 7.54218C5.02108 7.3292 4.67607 6.98398 4.46323 6.55804L3.75383 5.13895C3.70723 5.04588 3.61226 4.9873 3.50828 4.9873C3.40431 4.9873 3.30934 5.04589 3.26274 5.13895L2.55334 6.55804C2.3405 6.98399 1.99548 7.32921 1.5698 7.54218L0.151554 8.252C0.058543 8.29863 0 8.39365 0 8.49769C0 8.60172 0.058548 8.69675 0.151554 8.74338L1.57 9.453C1.99569 9.66578 2.34071 10.0114 2.55335 10.4371L3.26275 11.8564C3.30935 11.9495 3.40432 12.0081 3.50829 12.0081C3.61226 12.0081 3.70723 11.9495 3.75383 11.8564L4.46303 10.4371C4.67588 10.0112 5.02109 9.66677 5.44677 9.454Z" fill="#7BF6FE"/>
<path d="M12.892 2.67657L11.8814 3.18296C11.578 3.33458 11.332 3.58001 11.1804 3.88354L10.675 4.89492C10.6418 4.96124 10.5741 5.00299 10.5 5.00299C10.4259 5.00299 10.3582 4.96124 10.325 4.89492L9.81951 3.88354C9.66799 3.58016 9.42213 3.33387 9.11878 3.18225L8.108 2.67657C8.04172 2.64335 8 2.57563 8 2.50149C8 2.42736 8.04172 2.35965 8.108 2.32642L9.11864 1.8206C9.42198 1.66884 9.66784 1.42283 9.81951 1.11931L10.325 0.108062C10.3582 0.0417465 10.4259 0 10.5 0C10.5741 0 10.6418 0.0417429 10.675 0.108062L11.1805 1.11931C11.3322 1.42283 11.578 1.66883 11.8814 1.8206L12.892 2.32642C12.9583 2.35964 13 2.42736 13 2.50149C13 2.57563 12.9583 2.64334 12.892 2.67657Z" fill="#7BF6FE"/>
</svg>
