<svg width="15" height="15" viewBox="0 0 15 15" fill="none" xmlns="http://www.w3.org/2000/svg">
<circle cx="7.5" cy="7.5" r="7.5" fill="white"/>
<path d="M12.8032 2.19676C9.87424 -0.732252 5.12591 -0.732252 2.1968 2.19676C-0.732318 5.12576 -0.732213 9.87409 2.1968 12.8032C5.1258 15.7323 9.87413 15.7322 12.8032 12.8032C15.7324 9.8742 15.7323 5.12587 12.8032 2.19676V2.19676ZM11.1752 6.13582L8.48342 8.82758C8.02427 9.2848 7.56705 9.74395 7.10979 10.2012C6.81708 10.4939 6.31966 10.4939 6.02696 10.2012C5.93705 10.1113 5.84713 10.0214 5.75913 9.93147C5.12587 9.29632 4.49264 8.66306 3.85938 8.02791C3.55711 7.72564 3.57815 7.25119 3.85938 6.94509C4.1387 6.6409 4.65906 6.66194 4.94221 6.94509C5.03212 7.035 5.12204 7.12492 5.21004 7.21483C5.66346 7.66825 6.11687 8.12358 6.56836 8.577L10.0922 5.05317C10.3945 4.7509 10.8689 4.77194 11.175 5.05317C11.4792 5.33441 11.4581 5.85285 11.175 6.136L11.1752 6.13582Z" fill="#39F3FF"/>
</svg>
