<svg width="56" height="56" viewBox="0 0 56 56" fill="none" xmlns="http://www.w3.org/2000/svg">
<path d="M0 28C0 12.536 12.536 0 28 0C43.464 0 56 12.536 56 28C56 43.464 43.464 56 28 56C12.536 56 0 43.464 0 28Z" fill="#3BF763"/>
<path d="M39.9394 20.3617C39.7986 19.0041 39.1951 17.7363 38.2303 16.771C37.2654 15.8057 35.9978 15.2018 34.6401 15.0604H34.5983C32.7505 14.8607 30.8938 14.757 29.0353 14.75C27.1767 14.7557 25.3198 14.8594 23.4722 15.0604L23.4303 15.0645C22.0732 15.2057 20.8063 15.8092 19.8414 16.7736C18.8766 17.738 18.2726 19.0049 18.1306 20.3618C18.0789 20.876 18.0309 21.4302 17.9909 22.0211C17.5671 22.0182 17.1433 22.0365 16.7213 22.0764C16.4798 22.1015 16.2545 22.2089 16.0829 22.3805C15.9112 22.5522 15.8038 22.7776 15.7785 23.0191V23.0284C15.7611 23.1792 15.7519 23.3309 15.7506 23.4826C15.7508 23.6646 15.76 23.8464 15.7785 24.0275V24.0353C15.8042 24.2763 15.9117 24.5011 16.0834 24.6725C16.2549 24.8436 16.4801 24.9506 16.7213 24.9753C17.0369 25.0084 17.3939 25.0271 17.8558 25.0302C17.8316 25.9584 17.8194 26.9468 17.8191 27.9955C17.8191 29.004 17.8305 29.9564 17.8532 30.8526C17.3922 30.8563 17.0363 30.8744 16.7212 30.9075C16.4797 30.9326 16.2541 31.0398 16.0824 31.2114C15.9108 31.3831 15.8032 31.6085 15.7781 31.8501V31.8573C15.7605 32.0079 15.7513 32.1594 15.75 32.3111C15.7498 32.494 15.7591 32.677 15.7775 32.859V32.8662C15.8032 33.1073 15.9111 33.3322 16.0828 33.5035C16.2546 33.6746 16.4801 33.7814 16.7212 33.8064C17.1411 33.8463 17.5625 33.8648 17.9842 33.8616C18.0256 34.4929 18.0742 35.0838 18.1311 35.6291C18.2721 36.9867 18.8756 38.2543 19.8406 39.2196C20.8054 40.1849 22.0728 40.7888 23.4304 40.9304L23.4718 40.9344C25.1227 41.1048 27.359 41.2408 29.0353 41.2408C30.7339 41.2408 32.9474 41.1048 34.5989 40.933L34.6403 40.9289C35.9977 40.7875 37.2651 40.1838 38.2299 39.2189C39.1948 38.254 39.7984 36.9866 39.9396 35.6291C40.1465 33.6402 40.25 31.0719 40.25 27.9955C40.25 24.9191 40.1469 22.3504 39.9394 20.3617ZM28.9604 19.5131C29.9183 19.5131 30.8371 19.8938 31.5145 20.571C32.1917 21.2484 32.5724 22.1671 32.5724 23.1251C32.5724 24.083 32.1917 25.0018 31.5145 25.6792C30.8371 26.3564 29.9183 26.737 28.9604 26.737C28.0025 26.737 27.0837 26.3564 26.4063 25.6792C25.7291 25.0018 25.3484 24.083 25.3484 23.1251C25.3482 22.1671 25.7289 21.2482 26.4063 20.571C27.0835 19.8936 28.0025 19.5129 28.9604 19.5131ZM34.9856 32.864V32.88C34.9245 33.412 34.7012 33.9122 34.3461 34.3132C33.9968 34.7218 33.5251 35.0071 33.0008 35.1265C32.2557 35.2957 30.3977 35.4617 29.2378 35.4535C28.0783 35.4825 25.7997 35.3024 25.0547 35.1255C24.5304 35.0056 24.0588 34.7203 23.7094 34.3116C23.3541 33.9109 23.1309 33.4105 23.0698 32.8784V32.8623C23.031 32.4785 23.0192 32.0928 23.0342 31.7076C23.0342 31.7076 23.0057 31.3676 23.0698 30.7509V30.7354C23.124 30.2287 23.3507 29.7562 23.7119 29.3968C24.0747 29.0337 24.5501 28.8046 25.0603 28.7475C25.8074 28.6684 28.0808 28.6253 29.2363 28.6253C30.3916 28.6253 32.2464 28.6682 32.9937 28.7475C33.5039 28.8046 33.9794 29.0339 34.3419 29.3973C34.7041 29.7567 34.9314 30.23 34.9855 30.7374V30.7529C35.0228 31.07 35.0415 31.3891 35.0413 31.7086C35.0431 32.0944 35.0246 32.4802 34.9856 32.864Z" fill="black"/>
</svg>
