<svg width="27" height="27" viewBox="0 0 27 27" fill="none" xmlns="http://www.w3.org/2000/svg">
<path d="M25.7059 24.2326L19.5798 18.1117C21.1144 16.2394 21.956 13.8964 21.956 11.4767C21.956 5.69863 17.2546 1 11.4793 1C10.0673 1 8.69638 1.27624 7.4047 1.82359C6.15647 2.35304 5.03616 3.1076 4.07445 4.06936C3.11275 5.03111 2.35561 6.15142 1.82617 7.3996C1.2788 8.69128 1 10.0623 1 11.4742C1 17.2523 5.70143 21.9509 11.4767 21.9509C13.899 21.9509 16.2394 21.1094 18.1117 19.5747L24.2326 25.6956C24.4296 25.8926 24.6905 26 24.9667 26C25.2455 26 25.5064 25.8926 25.7008 25.6956C26.11 25.294 26.11 24.6367 25.7059 24.2326L25.7059 24.2326ZM19.8819 11.4744C19.8819 16.1091 16.1118 19.8768 11.4795 19.8768C6.84475 19.8768 3.07706 16.1067 3.07706 11.4744C3.07706 6.84213 6.84723 3.07196 11.4795 3.07196C16.1118 3.07196 19.8819 6.84213 19.8819 11.4744V11.4744Z" fill="white" stroke="white" stroke-width="0.833315"/>
</svg>
