<svg width="30" height="29" viewBox="0 0 30 29" fill="none" xmlns="http://www.w3.org/2000/svg">
<path d="M28.6409 23.4359L28.5797 23.3537C27.3173 21.8917 25.7656 20.8207 24.2658 19.7838C23.5161 19.2659 22.7455 18.7338 22.0258 18.1603H22.0256C23.2051 16.2769 23.8289 14.0987 23.8248 11.8763C23.8248 5.32809 18.4931 0 11.9402 0C5.38738 0 0.0556641 5.32757 0.0556641 11.8763C0.0556641 18.425 5.38686 23.7531 11.9402 23.7531C14.1607 23.7573 16.3376 23.136 18.2211 21.9602C18.7957 22.6793 19.3283 23.45 19.8462 24.1998C20.8832 25.6992 21.9554 27.2497 23.4162 28.5115L23.499 28.5723V28.5721C23.9642 28.8566 24.4999 29.0047 25.0454 28.9999C25.8705 28.9977 26.6655 28.6892 27.2764 28.1347L28.1796 27.2331L28.2007 27.2111C29.1634 26.1587 29.3476 24.571 28.6409 23.4359L28.6409 23.4359ZM11.9401 18.1208C10.2496 18.1194 8.62851 17.4473 7.43264 16.2522C6.23677 15.0572 5.56366 13.4365 5.56123 11.7458C5.56123 8.23252 8.42288 5.37119 11.94 5.37119C15.4572 5.37119 18.3188 8.23123 18.3188 11.7458C18.3162 13.4365 17.6433 15.0572 16.4474 16.2522C15.2515 17.4473 13.6305 18.1194 11.9398 18.1208H11.9401Z" fill="black"/>
</svg>
