<svg width="35" height="26" viewBox="0 0 35 26" fill="none" xmlns="http://www.w3.org/2000/svg">
<rect x="27.9285" y="5" width="3.14286" height="11" rx="1.5" fill="black"/>
<rect x="35" y="8.92859" width="3.14286" height="11" rx="1.5" transform="rotate(90 35 8.92859)" fill="black"/>
<path d="M10.3375 0C7.5957 0 4.96635 1.04164 3.0279 2.89603C1.08907 4.75018 0 7.26526 0 9.8873C0 18.9132 9.00838 24.8596 9.39257 25.1701C9.67566 25.3971 10.0376 25.5144 10.4067 25.4986C10.7758 25.483 11.1252 25.3357 11.3863 25.0855C11.8145 24.7182 20.6757 17.4441 20.6757 9.8874C20.6757 7.26523 19.5866 4.75015 17.6478 2.89613C15.7092 1.04174 13.0792 0 10.3375 0ZM10.3375 13.419C9.3582 13.419 8.4192 13.0468 7.72697 12.3846C7.03449 11.7223 6.64556 10.8242 6.64556 9.88754C6.64556 8.95112 7.03446 8.05277 7.72697 7.39069C8.41926 6.72837 9.3582 6.35637 10.3375 6.35637C11.3168 6.35637 12.2558 6.72834 12.9481 7.39069C13.6406 8.05283 14.0295 8.95112 14.0295 9.88754C14.0295 10.8242 13.6406 11.7223 12.9481 12.3846C12.2558 13.0468 11.3168 13.419 10.3375 13.419Z" fill="black"/>
</svg>