<svg width="18" height="20" viewBox="0 0 18 20" fill="none" xmlns="http://www.w3.org/2000/svg">
<path d="M17 18.3918C17 18.5839 16.8443 18.7396 16.6522 18.7396H1.34783C1.15573 18.7396 1 18.5839 1 18.3918V7.67107C1 7.47897 1.15573 7.32324 1.34783 7.32324H4.69423C4.88633 7.32324 5.04206 7.47897 5.04206 7.67107V8.47305C5.04206 8.66515 4.88633 8.82088 4.69423 8.82088H2.84546C2.65336 8.82088 2.49764 8.97661 2.49764 9.1687V16.8941C2.49764 17.0862 2.65336 17.242 2.84546 17.242H15.1545C15.3466 17.242 15.5024 17.0862 15.5024 16.8941V9.1687C15.5024 8.97661 15.3466 8.82088 15.1545 8.82088H13.3058C13.1137 8.82088 12.9579 8.66515 12.9579 8.47305V7.67107C12.9579 7.47897 13.1137 7.32324 13.3058 7.32324H16.6522C16.8443 7.32324 17 7.47897 17 7.67107V18.3918Z" fill="black" stroke="black" stroke-width="0.75"/>
<path d="M12.5347 4.53344L9.00122 1L5.46777 4.53344L6.42707 5.58642L8.06523 3.87823V13.2214H9.93715V3.87823L11.5753 5.58642L12.5347 4.53344Z" fill="black" stroke="black" stroke-width="0.5"/>
</svg>
