<svg width="16" height="15" viewBox="0 0 16 15" fill="none" xmlns="http://www.w3.org/2000/svg">
<path d="M6.59998 1.9C6.59998 1.1268 7.22678 0.5 7.99998 0.5C8.77317 0.5 9.39998 1.1268 9.39998 1.9V13.1C9.39998 13.8732 8.77317 14.5 7.99998 14.5C7.22678 14.5 6.59998 13.8732 6.59998 13.1V1.9Z" fill="#4EE8F2" stroke="#4EE8F2" stroke-width="0.5"/>
<path d="M13.6 6.1001C14.3732 6.1001 15 6.7269 15 7.5001C15 8.2733 14.3732 8.9001 13.6 8.9001L2.4 8.9001C1.6268 8.9001 1 8.2733 1 7.5001C1 6.7269 1.6268 6.1001 2.4 6.1001L13.6 6.1001Z" fill="#4EE8F2" stroke="#4EE8F2" stroke-width="0.5"/>
</svg>
