<svg width="12" height="12" viewBox="0 0 12 12" fill="none" xmlns="http://www.w3.org/2000/svg">
<path d="M4.80029 1.2C4.80029 0.537259 5.33755 0 6.00029 0C6.66303 0 7.20029 0.537259 7.20029 1.2V10.8C7.20029 11.4627 6.66303 12 6.00029 12C5.33755 12 4.80029 11.4627 4.80029 10.8V1.2Z" fill="black"/>
<path d="M10.8 4.79968C11.4627 4.79968 12 5.33694 12 5.99968C12 6.66242 11.4627 7.19968 10.8 7.19968L1.2 7.19968C0.537259 7.19968 -8.68512e-08 6.66242 -5.59506e-08 5.99968C-2.50499e-08 5.33694 0.537258 4.79968 1.2 4.79968L10.8 4.79968Z" fill="black"/>
</svg>
