<svg width="23" height="23" viewBox="0 0 23 23" fill="none" xmlns="http://www.w3.org/2000/svg">
<path d="M21.8999 4.50785C21.4791 2.60749 19.6368 0.866529 17.7312 0.496526C16.5698 0.264561 13.331 -0.0221738 11.1891 0.00136346C9.04695 -0.0222074 5.93688 0.264546 4.6474 0.496526C2.74171 0.866481 0.899452 2.60729 0.478618 4.50785C0.239161 5.66222 0.00343668 7.23179 0 9.37436C0.00390247 11.5173 0.239145 13.0869 0.478618 14.2409C0.883867 16.07 2.60549 17.7506 4.43324 18.2039C4.77635 18.3276 4.99318 18.683 4.92932 19.0557C4.90622 19.1922 4.84628 19.3197 4.75668 19.4251C4.41357 19.8267 4.04301 20.204 3.64775 20.5545C3.21676 20.9338 3.17401 21.5916 3.55253 22.024C3.75046 22.25 4.0355 22.3785 4.33318 22.3785C4.35628 22.3785 4.38001 22.3775 4.40358 22.3763C7.33591 22.2548 10.1852 21.3635 12.6656 19.7914C13.7474 19.0545 14.9787 18.6467 16.2632 18.4605C16.8768 18.3927 17.3926 18.3202 17.7313 18.2524C19.637 17.8826 21.4793 16.1418 21.9001 14.2411C22.1395 13.0872 22.3753 11.5176 22.3787 9.37458C22.3753 7.23165 22.1396 5.66209 21.9001 4.50808L21.8999 4.50785ZM7.06699 10.4225C7.00892 10.7504 6.71124 11.0485 6.38345 11.1061C6.18458 11.1393 5.91358 11.1704 5.54378 11.1707C5.17398 11.1707 4.903 11.1392 4.70411 11.1061C4.3763 11.048 4.07816 10.7503 4.02057 10.4225C3.98732 10.2237 3.95626 9.95268 3.95595 9.58288C3.95595 9.21308 3.98748 8.9421 4.02057 8.74321C4.07864 8.4154 4.37632 8.11725 4.70411 8.05967C4.90298 8.02642 5.17398 7.99535 5.54378 7.99504C5.91358 7.99504 6.18456 8.02657 6.38345 8.05967C6.71126 8.11773 7.00941 8.41542 7.06699 8.74321C7.10024 8.94208 7.13131 9.21307 7.13162 9.58288C7.13162 9.95268 7.10009 10.2237 7.06699 10.4225ZM12.712 10.4225C12.6539 10.7504 12.3563 11.0485 12.0285 11.1061C11.8296 11.1393 11.5586 11.1704 11.1888 11.1707C10.819 11.1707 10.548 11.1392 10.3491 11.1061C10.0213 11.048 9.72318 10.7503 9.66559 10.4225C9.63234 10.2237 9.60128 9.95268 9.60097 9.58288C9.60097 9.21308 9.6325 8.9421 9.66559 8.74321C9.72366 8.4154 10.0213 8.11725 10.3491 8.05967C10.548 8.02642 10.819 7.99535 11.1888 7.99504C11.5586 7.99504 11.8296 8.02657 12.0285 8.05967C12.3563 8.11773 12.6544 8.41542 12.712 8.74321C12.7453 8.94208 12.7763 9.21307 12.7766 9.58288C12.7766 9.95268 12.7451 10.2237 12.712 10.4225ZM18.3502 10.4225C18.2922 10.7504 17.9945 11.0485 17.6667 11.1061C17.4678 11.1393 17.1968 11.1704 16.827 11.1707C16.4572 11.1707 16.1863 11.1392 15.9874 11.1061C15.6596 11.048 15.3614 10.7503 15.3038 10.4225C15.2706 10.2237 15.2395 9.95268 15.2392 9.58288C15.2392 9.21308 15.2707 8.9421 15.3038 8.74321C15.3619 8.4154 15.6596 8.11725 15.9874 8.05967C16.1862 8.02642 16.4572 7.99535 16.827 7.99504C17.1968 7.99504 17.4678 8.02657 17.6667 8.05967C17.9945 8.11773 18.2927 8.41542 18.3502 8.74321C18.3835 8.94208 18.4146 9.21307 18.4149 9.58288C18.4149 9.95268 18.3833 10.2237 18.3502 10.4225Z" fill="black"/>
</svg>
