<svg width="24" height="26" viewBox="0 0 24 26" fill="none" xmlns="http://www.w3.org/2000/svg">
<g id="Group">
<path id="Vector" fill-rule="evenodd" clip-rule="evenodd" d="M6.6571 11.3219C6.71097 11.9006 6.29525 12.3978 5.72622 12.4531C4.59094 12.5636 3.53023 13.4765 3.41007 14.1436C2.95844 16.8782 2.95982 18.4596 3.40869 21.1818C3.53023 21.8627 4.59093 22.7743 5.71794 22.8834C9.88618 23.2576 14.1124 23.2576 18.2738 22.8847C19.4077 22.7743 20.4684 21.8627 20.5885 21.1942C21.0402 18.461 21.0402 16.8796 20.5913 14.1574C20.4684 13.4765 19.4077 12.5636 18.2738 12.4531C17.7048 12.3992 17.2918 11.9144 17.3429 11.3219C17.3981 10.7529 17.905 10.3358 18.474 10.3924C20.4656 10.5872 22.3302 12.1119 22.6326 13.8066C23.1229 16.7663 23.1229 18.5742 22.6299 21.545C22.3302 23.2259 20.4656 24.752 18.4658 24.9468C14.176 25.3321 9.82403 25.3321 5.52596 24.9454C3.53437 24.752 1.66985 23.2259 1.36738 21.5326C1.12292 20.0534 1 18.8629 1 17.6724C1 16.4763 1.12292 15.2816 1.36876 13.7928C1.66985 12.1119 3.53437 10.5872 5.52596 10.3924C6.09498 10.3358 6.60048 10.7529 6.6571 11.3219Z" fill="white" stroke="white"/>
<path id="Vector_2" fill-rule="evenodd" clip-rule="evenodd" d="M11.7792 0.553186C11.8247 0.546282 11.8676 0.526947 11.9131 0.526947C11.9131 0.526947 11.9159 0.525566 11.9187 0.525566C12.0623 0.526947 12.199 0.558714 12.3233 0.612577C13.9931 1.33215 15.2223 2.31413 16.5634 3.99634C16.9183 4.44383 16.8479 5.09434 16.399 5.45343C15.9516 5.80976 15.2997 5.73518 14.9433 5.28908C14.2555 4.42587 13.623 3.80989 12.931 3.32097L12.8247 16.4182C12.8205 16.99 12.3537 17.4499 11.7805 17.4458C11.2115 17.443 10.753 16.979 10.753 16.4099L10.753 16.403L10.858 3.57924C10.2654 4.15103 9.73095 4.8195 9.37738 5.40371C9.08182 5.89263 8.44512 6.05008 7.95482 5.7559C7.63302 5.55978 7.45485 5.21864 7.45485 4.86645C7.45485 4.68414 7.50319 4.49907 7.60401 4.33195C8.3664 3.0696 9.84282 1.33629 11.4933 0.613958C11.4974 0.612577 11.5002 0.613958 11.5043 0.611196C11.5886 0.575287 11.6839 0.565617 11.7792 0.553186Z" fill="white" stroke="white"/>
</g>
</svg>
