<svg width="52" height="52" viewBox="0 0 52 52" fill="none" xmlns="http://www.w3.org/2000/svg">
<circle cx="24.5" cy="27" r="24.5" fill="#DEDEDE" fill-opacity="0.4"/>
<path d="M28.9281 29.8706H20.1274C16.3838 29.8706 13.3381 32.9163 13.3381 36.6599C13.3381 37.1847 13.7636 37.6101 14.2884 37.6101H34.7672C35.292 37.6101 35.7174 37.1847 35.7174 36.6599C35.717 32.9158 32.6721 29.8706 28.9281 29.8706Z" fill="#DEDEDE"/>
<path d="M24.5259 27.7864C27.6692 27.7864 30.2265 25.229 30.2265 22.0857C30.2265 18.9423 27.6692 16.3841 24.5259 16.3841C21.3825 16.3841 18.8252 18.9414 18.8252 22.0857C18.8252 25.2286 21.3825 27.7864 24.5259 27.7864Z" fill="#DEDEDE"/>
<rect x="39.8235" y="1" width="3.35294" height="19" rx="1.67647" fill="#7CF7FF" stroke="#7CF7FF" stroke-width="1.11765"/>
<rect x="51" y="8.82355" width="3.35294" height="19" rx="1.67647" transform="rotate(90 51 8.82355)" fill="#7CF7FF" stroke="#7CF7FF" stroke-width="1.11765"/>
</svg>
