<svg width="28" height="32" viewBox="0 0 28 32" fill="none" xmlns="http://www.w3.org/2000/svg">
<path d="M14.0422 3.83317L14.0041 1.04693C13.9975 0.55392 13.3982 0.315201 13.0543 0.668471L7.42565 6.45276C7.21272 6.67173 7.21738 7.02196 7.43634 7.23514L13.2206 12.8638C13.5739 13.2077 14.1663 12.9525 14.1598 12.4598L14.1176 9.3672C18.6443 9.43379 22.2936 13.1241 22.2936 17.6666C22.2936 22.2509 18.5775 25.9668 13.9934 25.9668C9.40916 25.9668 5.69328 22.2507 5.69328 17.6666H0.160004C0.160004 25.3066 6.35344 31.5 13.9934 31.5C21.6333 31.5 27.8267 25.3066 27.8267 17.6666C27.8267 10.0428 21.6596 3.85995 14.0418 3.83329L14.0422 3.83317Z" fill="white"/>
</svg>
