<svg width="15" height="4" viewBox="0 0 15 4" fill="none" xmlns="http://www.w3.org/2000/svg">
<path d="M2.47207 3.29639L0.823921 3.29639C0.370625 3.29639 -0.000153748 2.92559 -0.000153708 2.47231L-0.000153564 0.824165C-0.000153524 0.370869 0.370647 9.08201e-05 0.823921 9.08598e-05L2.47207 9.10039e-05C2.92536 9.10435e-05 3.29614 0.370891 3.29614 0.824165L3.29614 2.47231C3.29614 2.92531 2.92534 3.29639 2.47207 3.29639Z" fill="#6F6F6F"/>
<path d="M8.24062 3.29687L6.59248 3.29687C6.13918 3.29687 5.7684 2.92607 5.7684 2.4728L5.7684 0.824653C5.7684 0.371357 6.1392 0.000578863 6.59248 0.000578903L8.24063 0.000579047C8.69392 0.000579086 9.0647 0.371379 9.0647 0.824653L9.0647 2.4728C9.0647 2.9258 8.6939 3.29687 8.24062 3.29687Z" fill="#6F6F6F"/>
<path d="M14.0092 3.29687L12.361 3.29687C11.9077 3.29687 11.537 2.92607 11.537 2.4728L11.537 0.824653C11.537 0.371357 11.9078 0.000578863 12.361 0.000578903L14.0092 0.000579047C14.4625 0.000579086 14.8333 0.371379 14.8333 0.824653L14.8333 2.4728C14.8333 2.9258 14.4625 3.29687 14.0092 3.29687Z" fill="#6F6F6F"/>
</svg>
