<svg width="4" height="19" viewBox="0 0 4 19" fill="none" xmlns="http://www.w3.org/2000/svg">
<g id="Group 22757">
<g id="Group 22224">
<path id="Vector" d="M-0.000121953 2.68799L-0.000121718 0.896006C-0.000121653 0.403149 0.403039 1.19738e-05 0.895871 1.20384e-05L2.68786 1.22734e-05C3.18071 1.2338e-05 3.58385 0.403174 3.58385 0.896006L3.58385 2.68799C3.58385 3.18085 3.18069 3.58398 2.68786 3.58398L0.895871 3.58398C0.403335 3.58398 -0.000122017 3.18082 -0.000121953 2.68799Z" fill="#777777"/>
<path id="Vector_2" d="M-0.000121953 9.90436L-0.000121718 8.11238C-0.000121653 7.61952 0.403039 7.21638 0.895871 7.21638L2.68786 7.21638C3.18071 7.21638 3.58385 7.61954 3.58385 8.11238L3.58385 9.90436C3.58385 10.3972 3.18069 10.8004 2.68786 10.8004L0.895871 10.8004C0.403335 10.8004 -0.000122017 10.3972 -0.000121953 9.90436Z" fill="#777777"/>
<path id="Vector_3" d="M-0.000121953 17.1096L-0.000121718 15.3176C-0.000121653 14.8248 0.403039 14.4216 0.895871 14.4216L2.68786 14.4216C3.18071 14.4216 3.58385 14.8248 3.58385 15.3176L3.58385 17.1096C3.58385 17.6025 3.18069 18.0056 2.68786 18.0056L0.895871 18.0056C0.403335 18.0056 -0.000122017 17.6025 -0.000121953 17.1096Z" fill="#777777"/>
</g>
</g>
</svg>
