<svg width="22" height="25" viewBox="0 0 22 25" fill="none" xmlns="http://www.w3.org/2000/svg">
<path d="M18.7582 19.9847C18.7429 18.9847 17.9401 18.1817 16.9552 18.1817C15.9552 18.1817 15.1522 18.9848 15.1522 19.9847C15.1522 20.9694 15.9553 21.7877 16.9552 21.7877C17.9399 21.7878 18.7429 20.9698 18.7582 19.9847ZM16.9552 24.0607C14.6977 24.0607 12.8794 22.2273 12.8794 19.9849C12.8794 17.7273 14.6975 15.9091 16.9552 15.9091C19.1976 15.9091 21.0157 17.7271 21.031 19.9849C21.031 20.6971 20.8491 21.3637 20.5158 21.9393L21.6369 23.0605C22.0764 23.4999 22.0764 24.2271 21.6369 24.6666C21.1975 25.106 20.4702 25.106 20.0308 24.6666L18.9246 23.5604C18.3336 23.8789 17.6671 24.0607 16.9552 24.0607V24.0607Z" fill="black"/>
<path d="M10.1824 15.0606C9.81868 15.0606 9.51566 15.3181 9.47012 15.712L9.31879 17.2424V17.3181L9.42497 17.4243H10.7429C11.3641 17.4243 11.8793 17.9395 11.8793 18.5607C11.8793 19.1819 11.3641 19.6971 10.7429 19.6971H9.42497C8.10701 19.6971 7.04614 18.6213 7.04614 17.3183L7.06145 17.0306V16.985L7.21278 15.4547V15.4091C7.40964 13.9243 8.68248 12.7881 10.1826 12.7881H14.5159C15.1522 12.7881 15.6523 13.3033 15.6523 13.9245C15.6523 14.5457 15.1524 15.0609 14.5159 15.0609L10.1824 15.0606Z" fill="black"/>
<path d="M13.2731 8.65124C13.2731 8.06046 12.7883 7.57544 12.1973 7.57544C11.6065 7.57544 11.1215 8.06023 11.1215 8.65124C11.1215 9.24241 11.6062 9.72704 12.1973 9.72704C12.8034 9.72723 13.2731 9.24244 13.2731 8.65124ZM8.84888 8.65124C8.84888 6.80252 10.3488 5.30261 12.1975 5.30261C14.0462 5.30261 15.5461 6.80252 15.5461 8.65124C15.5461 10.5 14.0458 12.0001 12.1973 12.0001C10.3486 12.0001 8.84888 10.5 8.84888 8.65124V8.65124Z" fill="black"/>
<path d="M5.66679 2.27283C4.63653 2.27283 3.78786 3.12149 3.77293 4.16668V5.3031H4.16685C4.78804 5.3031 5.30326 5.81833 5.30326 6.43951C5.30326 7.06069 4.78804 7.57592 4.16685 7.57592H3.77293V11.3638H4.16685C4.78804 11.3638 5.30326 11.879 5.30326 12.5002C5.30326 13.1214 4.78804 13.6366 4.16685 13.6366H3.77293V17.4245H4.16685C4.78804 17.4245 5.30326 17.9397 5.30326 18.5609C5.30326 19.1821 4.78804 19.6973 4.16685 19.6973H3.77293V20.8333C3.77293 21.3485 3.9851 21.818 4.3335 22.1666C4.68208 22.5152 5.15156 22.7272 5.66679 22.7272H11.7124C12.3488 22.7272 12.8489 23.2424 12.8489 23.8636C12.8489 24.4848 12.349 25 11.7124 25H5.66679C3.37903 25 1.51543 23.1364 1.50011 20.8333V19.6969H1.13641C0.500101 19.6969 0 19.1817 0 18.5605C0 17.9393 0.499903 17.4241 1.13641 17.4241H1.50011V13.6364H1.13641C0.500101 13.6364 0 13.1212 0 12.5C0 11.8788 0.499903 11.3636 1.13641 11.3636H1.50011V7.57592H1.13641C0.500101 7.57592 0 7.06069 0 6.43951C0 5.81833 0.499903 5.3031 1.13641 5.3031H1.50011V4.16668C1.50011 1.84872 3.37903 0 5.66679 0H17.7879C18.9392 0 20.0001 0.469684 20.7423 1.21221C21.4998 1.96965 21.9546 3.01519 21.9546 4.16668V14.7575C21.9546 15.3787 21.4547 15.8939 20.8181 15.8939C20.197 15.8939 19.6817 15.3787 19.6817 14.7575V4.16668C19.6817 3.10621 18.8483 2.27283 17.7879 2.27283H5.66679Z" fill="black"/>
</svg>
