<svg width="32" height="31" viewBox="0 0 32 31" fill="none" xmlns="http://www.w3.org/2000/svg">
<path d="M0 7.46051V28.1265C0 29.1825 0.74747 29.6134 1.66055 29.0867L9.10799 24.7913C9.41761 24.6127 9.60838 24.2825 9.60837 23.925L9.60809 1.73318C9.60808 0.963702 8.77536 0.482548 8.1087 0.86682L1.66024 4.5838C0.747469 5.11292 7.26919e-06 6.40529 7.26919e-06 7.46106L0 7.46051Z" fill="#E3E3E3"/>
<path d="M29.7216 0.957892L22.2759 5.25056C21.9662 5.42911 21.7754 5.75941 21.7754 6.11689V28.3111C21.7754 29.0807 22.6084 29.5619 23.2751 29.1773L29.7216 25.4584C30.6344 24.9318 31.3822 23.6397 31.3822 22.5849L31.3819 1.91814C31.3819 0.863328 30.6344 0.431239 29.7216 0.957892Z" fill="#E3E3E3"/>
<path d="M10.8853 23.9229C10.8853 24.2803 11.076 24.6106 11.3856 24.7891L18.9936 29.1779C19.6603 29.5624 20.4933 29.0813 20.4933 28.3117V6.11741C20.4933 5.75993 20.3025 5.42964 19.9928 5.25109L12.3847 0.864551C11.7181 0.480175 10.8853 0.961333 10.8853 1.73087V23.9229Z" fill="#E3E3E3"/>
</svg>
