<svg width="32" height="25" viewBox="0 0 32 25" fill="none" xmlns="http://www.w3.org/2000/svg">
<path d="M25.0897 20.0942C23.9019 20.5946 22.527 20.0319 21.9959 18.844L19.9956 14.1253C19.4952 12.9375 20.0579 11.5626 21.2458 11.0626C21.9332 10.7505 22.7149 10.8128 23.3084 11.1565C23.1209 10.0938 22.7149 9.0623 22.0582 8.09391C20.5583 5.87495 18.1519 4.6876 15.6829 4.6876C15.2141 4.6876 14.7457 4.71917 14.3077 4.8127C13.0264 5.06249 11.8074 4.2192 11.5576 2.93751C11.3078 1.65624 12.1511 0.437184 13.4328 0.187437C14.183 0.0623394 14.9327 0 15.6829 0C19.6519 0 23.5582 1.9376 25.9336 5.46894C27.4027 7.59398 28.121 10.063 28.121 12.4694C28.121 12.907 28.0894 13.2819 28.0586 13.7196C29.2149 13.3135 30.5273 13.8758 30.9961 15.032C31.5273 16.2198 30.9646 17.5947 29.7776 18.0947L25.0897 20.0942Z" fill="white"/>
<path d="M6.08925 4.87409C7.3078 4.37372 8.68309 4.93644 9.18299 6.12425L11.1833 10.843C11.6837 12.0308 11.121 13.4057 9.93315 13.9057C9.24573 14.2178 8.49555 14.1555 7.90204 13.8117H7.87046C8.0579 14.8745 8.46396 15.8744 9.12063 16.8744C10.6521 19.0933 13.0584 20.3123 15.5276 20.3123C15.9964 20.3123 16.4648 20.25 16.9028 20.1872C18.184 19.9374 19.4031 20.7807 19.6528 22.0309C19.9026 23.3121 19.0593 24.5312 17.7776 24.781C17.0275 24.9061 16.2777 25 15.5276 25C11.5273 25 7.65223 23.0313 5.24613 19.531C3.80853 17.3745 3.08958 14.9058 3.08958 12.4991C3.08958 12.0614 3.12115 11.655 3.15193 11.2178C1.99569 11.6554 0.683217 11.0927 0.182804 9.93653C-0.317567 8.74877 0.245151 7.37389 1.43297 6.87389L6.08925 4.87409Z" fill="white"/>
</svg>
