<svg width="28" height="28" viewBox="0 0 28 28" fill="none" xmlns="http://www.w3.org/2000/svg">
<mask id="mask0_4_1913" style="mask-type:alpha" maskUnits="userSpaceOnUse" x="0" y="0" width="28" height="28">
<rect x="0.5" y="0.5" width="27" height="27" fill="#D9D9D9"/>
</mask>
<g mask="url(#mask0_4_1913)">
<path d="M13 2C13 1.44772 13.4477 1 14 1H15C15.5523 1 16 1.44772 16 2V26C16 26.5523 15.5523 27 15 27H14C13.4477 27 13 26.5523 13 26V2Z" fill="#39F3FF" stroke="#39F3FF"/>
<path d="M26 12C26.5523 12 27 12.4477 27 13L27 14C27 14.5523 26.5523 15 26 15L2 15C1.44772 15 1 14.5523 1 14L1 13C1 12.4477 1.44772 12 2 12L26 12Z" fill="#39F3FF" stroke="#39F3FF"/>
</g>
</svg>
