<svg width="16" height="15" viewBox="0 0 16 15" fill="none" xmlns="http://www.w3.org/2000/svg">
<g id="Group 22969">
<g id="Group 22962">
<g id="Group 22776">
<path id="Vector" d="M8.21922 11.2325C8.63873 11.2945 9.05824 11.3411 9.49984 11.3876L9.80895 13.6583C9.83103 13.953 10.1843 14.1857 10.6038 14.1857H13.0326C13.4521 14.1857 13.8054 13.953 13.8274 13.6583L14.1366 11.3876C14.5781 11.3411 14.9977 11.2945 15.4172 11.2325C15.7042 11.186 15.9029 10.9843 15.8588 10.7826L15.5938 9.8092C15.4172 8.81639 14.2249 8.07178 12.8118 8.07178H10.8467C9.4336 8.07178 8.2413 8.81639 8.06466 9.8092L7.77763 10.7826C7.73347 10.9843 7.93218 11.186 8.21922 11.2325Z" fill="white"/>
<path id="Vector_2" d="M11.8985 7.11678C13.2614 7.11678 14.3663 6.0119 14.3663 4.64897C14.3663 3.28603 13.2614 2.18115 11.8985 2.18115C10.5355 2.18115 9.43066 3.28603 9.43066 4.64897C9.43066 6.0119 10.5355 7.11678 11.8985 7.11678Z" fill="white"/>
</g>
</g>
<g id="Group 22961">
<g id="Group 22776_2">
<path id="Vector_3" d="M0.535546 11.3272C1.03733 11.4014 1.53912 11.4571 2.06732 11.5128L2.43706 14.2287C2.46347 14.5813 2.88603 14.8596 3.38781 14.8596H6.2929C6.79469 14.8596 7.21725 14.5813 7.24366 14.2287L7.6134 11.5128C8.14159 11.4571 8.64338 11.4014 9.14517 11.3272C9.4885 11.2716 9.72619 11.0303 9.67337 10.7891L9.35645 9.6248C9.14517 8.43727 7.71904 7.54663 6.0288 7.54663H3.67832C1.98809 7.54663 0.561955 8.43727 0.350676 9.6248L0.00734799 10.7891C-0.0454718 11.0303 0.192217 11.2716 0.535546 11.3272Z" fill="white"/>
<path id="Vector_4" d="M4.92496 6.48274C6.71512 6.48274 8.16633 5.03153 8.16633 3.24137C8.16633 1.45121 6.71512 0 4.92496 0C3.1348 0 1.68359 1.45121 1.68359 3.24137C1.68359 5.03153 3.1348 6.48274 4.92496 6.48274Z" fill="white"/>
</g>
</g>
</g>
</svg>
