<svg width="14" height="18" viewBox="0 0 14 18" fill="none" xmlns="http://www.w3.org/2000/svg">
<path id="Vector" d="M14 11.1388C14 8.87171 12.9405 6.6181 11.1661 5.11037L10.9352 4.92092C10.6632 4.69795 10.2516 4.783 10.1015 5.10407C10.0286 5.26022 9.97698 6.8413 9.97698 7.10771C9.97698 7.16148 9.96595 7.24968 9.96705 7.25913C9.96705 7.48391 9.76994 7.66233 9.54259 7.62408C9.3638 7.59416 9.24173 7.42136 9.24085 7.23663C9.22937 4.53279 8.41885 2.64706 6.93113 1.23901C6.02129 0.377929 4.94567 -0.382799 4.61634 0.210978C4.53246 0.362404 4.6713 0.702605 4.81124 1.13866C5.12225 2.10841 4.17289 3.65732 2.83108 5.2051C1.56983 6.65995 0 8.47076 0 11.1388C0 14.7294 3.33655 18 6.99978 18C10.6635 18 14 14.7294 14 11.1388Z" fill="url(#paint0_linear_724_81)"/>
<defs>
<linearGradient id="paint0_linear_724_81" x1="7" y1="0" x2="7" y2="18" gradientUnits="userSpaceOnUse">
<stop stop-color="#FFBC39"/>
<stop offset="1" stop-color="#FF5D39"/>
</linearGradient>
</defs>
</svg>
