<svg width="16" height="15" viewBox="0 0 16 15" fill="none" xmlns="http://www.w3.org/2000/svg">
<path d="M0.00311034 7.27672V12.0101C0.00362434 12.9628 0.497465 13.8473 1.30808 14.3477C2.1187 14.8481 3.1307 14.8931 3.98264 14.4666L5.8397 13.538L7.52471 14.5008C8.62545 15.1297 9.96776 15.1665 11.1012 14.5992L13.6142 13.3415C14.1035 13.0961 14.5146 12.719 14.8006 12.2522C15.0867 11.7855 15.2365 11.2481 15.2331 10.7009V2.99737C15.2326 2.04467 14.7387 1.16019 13.9281 0.659867C13.1175 0.159372 12.1055 0.114454 11.2535 0.540954L9.40144 1.46707L7.73098 0.499152C6.63024 -0.129692 5.28812 -0.166539 4.15448 0.400969L1.6391 1.66603C1.14993 1.90711 0.737642 2.27996 0.448749 2.7426C0.15969 3.20506 0.00549679 3.73916 0.00308423 4.28453V4.94522C-0.00102808 5.0189 -0.00102808 5.09275 0.00308423 5.16643V7.13143V7.27639L0.00311034 7.27672ZM10.8114 2.95587L12.1304 2.29518C12.3739 2.17198 12.6638 2.18432 12.8959 2.32774C13.1281 2.47115 13.269 2.72492 13.2678 2.99768V10.7012C13.2679 10.8837 13.2172 11.0626 13.1213 11.218C13.0253 11.3732 12.8881 11.4988 12.7249 11.5805L10.8113 12.5361L10.8114 2.95587ZM6.3898 2.05936C6.51814 2.09877 6.64168 2.15241 6.7582 2.21889L8.47765 3.20137L8.47782 3.20154C8.59605 3.26819 8.72113 3.32183 8.85118 3.36123V12.9413C8.72867 12.9007 8.61095 12.8472 8.49992 12.7816L6.78047 11.7991H6.7803C6.65642 11.7328 6.52551 11.6809 6.3898 11.6444V2.05936ZM1.96825 5.16674V4.29716C1.96945 4.11588 2.02085 3.93836 2.11663 3.78447C2.21242 3.63061 2.34898 3.50621 2.51107 3.42499L4.42467 2.46457V12.0446L3.10066 12.7053V12.7055C2.85803 12.8261 2.57033 12.8127 2.33987 12.6703C2.10924 12.5278 1.96873 12.2763 1.96822 12.0054L1.96825 5.16674Z" fill="white"/>
</svg>
