<svg width="17" height="18" viewBox="0 0 17 18" fill="none" xmlns="http://www.w3.org/2000/svg">
<path d="M1.04271 16.2629L1.04273 16.2622C1.15429 12.2846 1.06867 8.16993 0.802602 4.67514C0.779745 4.37795 0.917985 4.08999 1.16412 3.92387L1.16424 3.92379C2.50088 3.0231 3.74112 2.13717 5.31317 0.963341C5.56977 0.770436 5.91348 0.747138 6.19283 0.900152L6.19297 0.900225C7.67535 1.71366 9.24471 2.58311 10.7731 3.53543C12.0399 2.60641 13.4225 1.77858 14.8002 1.12487L14.886 1.30557M1.04271 16.2629L8.74916 15.7199C9.33006 16.1727 9.92974 16.6401 10.6506 16.9498L10.571 17.1333C10.5711 17.1333 10.5712 17.1334 10.5713 17.1334C10.6751 17.1784 10.7841 17.2 10.8925 17.2C11.007 17.2 11.125 17.1754 11.2331 17.1251C12.9222 16.3463 14.4959 15.3352 15.9106 14.1214L15.9109 14.1212C16.0972 13.9606 16.2032 13.7246 16.1999 13.4785L16.1999 13.478C16.1692 11.5322 16.1274 9.62338 16.0857 7.71685L16.0846 7.66466V7.66464C16.0423 5.74304 16.0003 3.8222 15.9693 1.86125L15.9693 1.86091C15.9644 1.58163 15.8215 1.32151 15.5846 1.17172C15.3484 1.02233 15.0519 1.00335 14.799 1.12547L14.886 1.30557M1.04271 16.2629C1.03618 16.5296 1.15645 16.7839 1.36761 16.9462L1.36898 16.9472L1.04271 16.2629ZM14.886 1.30557C15.0758 1.2139 15.2991 1.22778 15.4777 1.34075C15.6564 1.45374 15.7655 1.65094 15.7693 1.86441L10.7824 3.77708C12.0688 2.82269 13.4804 1.97247 14.886 1.30557ZM3.34007 16.3261L3.33955 16.3265L3.33404 16.331C3.01123 16.5922 2.61462 16.9131 2.11156 17.0747L3.34007 16.3261ZM3.34007 16.3261C3.50093 16.1951 3.64939 16.0745 3.80348 15.9798L3.80359 15.9797M3.34007 16.3261L3.80359 15.9797M3.80359 15.9797L6.47996 14.3324C6.67716 14.4336 6.86122 14.5746 7.09485 14.7546L7.0949 14.7546M3.80359 15.9797L7.0949 14.7546M7.0949 14.7546C7.10383 14.7615 7.1128 14.7684 7.1218 14.7754M7.0949 14.7546L7.1218 14.7754M10.7908 12.2931C10.4497 12.2617 10.1991 11.9566 10.2288 11.6112C10.4285 9.38579 10.4199 7.13527 10.2201 4.90987L10.0209 4.92775C10.0239 4.96063 10.0268 4.9935 10.0296 5.02638M10.7908 12.2931L10.0296 5.02638M10.7908 12.2931L10.7965 12.2935C10.814 12.2946 10.8299 12.2956 10.8478 12.2956C11.1654 12.2956 11.4358 12.0507 11.4644 11.7242L10.7908 12.2931ZM10.0296 5.02638C8.65474 4.16403 7.2355 3.36017 5.86856 2.60764C4.62029 3.53369 3.56602 4.28681 2.47273 5.03066C2.68293 8.00421 2.7665 11.3784 2.71628 14.7221C2.79192 14.6676 2.86915 14.6151 2.94804 14.5667L5.51285 12.9882C5.37969 10.7978 5.27438 8.59137 5.2085 6.42196L5.20849 6.42163C5.19542 5.96679 5.54909 5.58436 6.00336 5.56929L6.01324 5.56897L6.0231 5.56961C6.40096 5.59445 6.83502 5.89388 6.84883 6.37246M10.0296 5.02638C10.2199 7.20824 10.2252 9.41317 10.0296 11.5933L10.0296 11.594C9.99062 12.046 10.3189 12.4505 10.7725 12.4922L10.7725 12.4923L10.7781 12.4927C10.7799 12.4928 10.7818 12.4929 10.7837 12.493C10.8007 12.4942 10.8231 12.4956 10.8478 12.4956C11.2698 12.4956 11.6259 12.1709 11.6636 11.742C11.866 9.48491 11.8609 7.20008 11.6671 4.94228C12.5218 4.3091 13.426 3.72019 14.3502 3.21154C14.3732 4.52694 14.4017 5.8284 14.43 7.12774C14.4342 7.31939 14.4384 7.51099 14.4425 7.70258L14.4425 7.70259C14.4816 9.4947 14.5205 11.2863 14.5513 13.1101C13.4275 14.0351 12.201 14.823 10.8955 15.4578C10.4725 15.2268 10.0735 14.9163 9.63868 14.5779L9.62485 14.5671L9.62479 14.5671L9.62457 14.5669C9.28718 14.3041 8.94203 14.0353 8.57652 13.7975C8.41138 13.6899 8.26297 13.5754 8.11276 13.4595L8.09117 13.4429C8.09104 13.4428 8.09092 13.4427 8.09079 13.4426C7.81741 13.2307 7.52013 13.0018 7.14752 12.8234C7.01716 10.6692 6.91333 8.50172 6.84883 6.37246M6.84883 6.37246C6.84884 6.37251 6.84884 6.37257 6.84884 6.37262L6.64892 6.37835M6.84883 6.37246C6.84883 6.37241 6.84883 6.37235 6.84883 6.3723L6.64892 6.37835M6.64892 6.37835C6.71468 8.54957 6.82129 10.7601 6.95517 12.9555L2.71224 14.9741C2.82402 14.889 2.9369 14.8082 3.05267 14.7371L5.71978 13.0957C5.58327 10.8678 5.47542 8.62248 5.40841 6.41588C5.39845 6.06928 5.6676 5.78054 6.00998 5.76918C6.31512 5.78924 6.63895 6.03047 6.64892 6.37835ZM7.1218 14.7754C7.29391 14.908 7.47958 15.051 7.68897 15.1862M7.1218 14.7754L7.68897 15.1862M7.68897 15.1862L7.79746 15.0182L7.68897 15.1862Z" fill="white" stroke="white" stroke-width="0.4"/>
</svg>
