<svg width="17" height="17" viewBox="0 0 17 17" fill="none" xmlns="http://www.w3.org/2000/svg">
<mask id="path-1-outside-1_373_6" maskUnits="userSpaceOnUse" x="0" y="0" width="17" height="17" fill="black">
<rect fill="white" width="17" height="17"/>
<path fill-rule="evenodd" clip-rule="evenodd" d="M11.6489 1.89333C11.7675 1.9504 11.9147 1.9072 11.981 1.79125L12.3399 1.16345C12.4696 0.93659 12.6624 0.947367 12.7702 1.18652L14.0542 4.03732C14.1622 4.27692 14.0389 4.4918 13.7799 4.51717L10.6933 4.81948C10.4339 4.84489 10.3294 4.68036 10.4595 4.45281L10.8022 3.85333C10.8675 3.73913 10.8237 3.60243 10.7043 3.5496C10.7043 3.5496 10.7724 3.57828 10.6971 3.54652C10.0282 3.26436 9.29401 3.10852 8.52381 3.10852C5.40735 3.10852 2.88095 5.65999 2.88095 8.80739C2.88095 11.9548 5.40735 14.5063 8.52381 14.5063C11.6403 14.5063 14.1667 11.9548 14.1667 8.80739C14.1667 8.14151 14.0536 7.5023 13.8458 6.90829C13.8009 6.78791 13.8634 6.65036 13.9857 6.60095L15.2901 6.07401C15.4123 6.02465 15.5488 6.08228 15.5948 6.20507C15.5948 6.20507 15.572 6.14145 15.6005 6.2208C15.8898 7.02816 16.0476 7.89917 16.0476 8.80739C16.0476 13.0039 12.6791 16.4059 8.52381 16.4059C4.36852 16.4059 1 13.0039 1 8.80739C1 4.61086 4.36852 1.20889 8.52381 1.20889C9.63596 1.20889 10.6917 1.45259 11.6417 1.89C11.7163 1.92437 11.6489 1.89333 11.6489 1.89333Z"/>
</mask>
<path fill-rule="evenodd" clip-rule="evenodd" d="M11.6489 1.89333C11.7675 1.9504 11.9147 1.9072 11.981 1.79125L12.3399 1.16345C12.4696 0.93659 12.6624 0.947367 12.7702 1.18652L14.0542 4.03732C14.1622 4.27692 14.0389 4.4918 13.7799 4.51717L10.6933 4.81948C10.4339 4.84489 10.3294 4.68036 10.4595 4.45281L10.8022 3.85333C10.8675 3.73913 10.8237 3.60243 10.7043 3.5496C10.7043 3.5496 10.7724 3.57828 10.6971 3.54652C10.0282 3.26436 9.29401 3.10852 8.52381 3.10852C5.40735 3.10852 2.88095 5.65999 2.88095 8.80739C2.88095 11.9548 5.40735 14.5063 8.52381 14.5063C11.6403 14.5063 14.1667 11.9548 14.1667 8.80739C14.1667 8.14151 14.0536 7.5023 13.8458 6.90829C13.8009 6.78791 13.8634 6.65036 13.9857 6.60095L15.2901 6.07401C15.4123 6.02465 15.5488 6.08228 15.5948 6.20507C15.5948 6.20507 15.572 6.14145 15.6005 6.2208C15.8898 7.02816 16.0476 7.89917 16.0476 8.80739C16.0476 13.0039 12.6791 16.4059 8.52381 16.4059C4.36852 16.4059 1 13.0039 1 8.80739C1 4.61086 4.36852 1.20889 8.52381 1.20889C9.63596 1.20889 10.6917 1.45259 11.6417 1.89C11.7163 1.92437 11.6489 1.89333 11.6489 1.89333Z" fill="black"/>
<path d="M11.6489 1.89333L11.8161 1.52997L11.4754 2.25376L11.6489 1.89333ZM11.981 1.79125L12.3283 1.98977L12.3283 1.98976L11.981 1.79125ZM12.3399 1.16345L11.9927 0.964934L11.9927 0.964935L12.3399 1.16345ZM12.7702 1.18652L12.4055 1.35079L12.4055 1.35079L12.7702 1.18652ZM14.0542 4.03732L14.419 3.87305L14.419 3.87305L14.0542 4.03732ZM13.7799 4.51717L13.8189 4.91526L13.8189 4.91526L13.7799 4.51717ZM10.6933 4.81948L10.6543 4.42139L10.6543 4.42139L10.6933 4.81948ZM10.4595 4.45281L10.1122 4.25429L10.4595 4.45281ZM10.8022 3.85333L11.1495 4.05185L11.1495 4.05185L10.8022 3.85333ZM10.7043 3.5496L10.8597 3.18102L10.5424 3.91537L10.7043 3.5496ZM10.6971 3.54652L10.8525 3.17797L10.8525 3.17797L10.6971 3.54652ZM13.8458 6.90829L14.2234 6.77617L14.2205 6.76851L13.8458 6.90829ZM13.9857 6.60095L14.1355 6.97183L14.1355 6.97183L13.9857 6.60095ZM15.2901 6.07401L15.1403 5.70313L15.1403 5.70313L15.2901 6.07401ZM15.5948 6.20507L15.2202 6.34535L15.9714 6.07036L15.5948 6.20507ZM15.6005 6.2208L15.977 6.08583L15.977 6.08583L15.6005 6.2208ZM11.6417 1.89L11.4744 2.25333L11.4744 2.25333L11.6417 1.89ZM11.4754 2.25376C11.7784 2.39958 12.1552 2.29253 12.3283 1.98977L11.6338 1.59272C11.6743 1.52187 11.7565 1.50122 11.8223 1.5329L11.4754 2.25376ZM12.3283 1.98976L12.6872 1.36197L11.9927 0.964935L11.6338 1.59273L12.3283 1.98976ZM12.6872 1.36197C12.699 1.34127 12.6998 1.34848 12.6793 1.36316C12.6559 1.37984 12.6076 1.40323 12.5416 1.39964C12.4759 1.39607 12.4313 1.36789 12.4111 1.35009C12.3933 1.33436 12.3954 1.3284 12.4055 1.35079L13.1349 1.02224C13.0539 0.842507 12.8804 0.616861 12.585 0.600819C12.2875 0.584661 12.091 0.792839 11.9927 0.964934L12.6872 1.36197ZM12.4055 1.35079L13.6895 4.2016L14.419 3.87305L13.1349 1.02224L12.4055 1.35079ZM13.6895 4.2016C13.6957 4.21518 13.6933 4.21665 13.6933 4.20665C13.6934 4.19597 13.6965 4.17818 13.7075 4.15889C13.7186 4.13955 13.7328 4.12731 13.7431 4.12115C13.7529 4.11537 13.7543 4.11777 13.7409 4.11907L13.8189 4.91526C14.0532 4.89231 14.2766 4.77508 14.4018 4.55628C14.5267 4.33809 14.5152 4.08675 14.419 3.87305L13.6895 4.2016ZM13.7409 4.11907L10.6543 4.42139L10.7323 5.21758L13.8189 4.91526L13.7409 4.11907ZM10.6543 4.42139C10.6313 4.42364 10.6368 4.4189 10.6606 4.42716C10.6875 4.43654 10.7332 4.46196 10.7677 4.51615C10.802 4.57004 10.8054 4.62109 10.8029 4.64732C10.8007 4.67054 10.7948 4.67227 10.8067 4.65133L10.1122 4.25429C10.0135 4.42703 9.93529 4.69833 10.0929 4.94586C10.2519 5.19551 10.5329 5.2371 10.7323 5.21758L10.6543 4.42139ZM10.8067 4.65133L11.1495 4.05185L10.4549 3.65481L10.1122 4.25429L10.8067 4.65133ZM11.1495 4.05185C11.33 3.73608 11.2069 3.33463 10.8662 3.18383L10.5424 3.91537C10.4985 3.89591 10.4592 3.85518 10.4417 3.80092C10.4244 3.74703 10.4329 3.69342 10.4549 3.65481L11.1495 4.05185ZM10.7043 3.5496C10.5489 3.91818 10.5489 3.91818 10.5489 3.91818C10.5489 3.91818 10.5489 3.91818 10.5489 3.91818C10.5489 3.91818 10.5489 3.91819 10.549 3.91819C10.549 3.91819 10.549 3.9182 10.549 3.9182C10.549 3.91822 10.5491 3.91824 10.5491 3.91826C10.5493 3.91832 10.5494 3.9184 10.5497 3.9185C10.5502 3.9187 10.5509 3.91899 10.5517 3.91936C10.5534 3.92008 10.5558 3.92108 10.5584 3.92217C10.5636 3.92437 10.5698 3.92697 10.5736 3.92859C10.5752 3.92926 10.5771 3.93006 10.578 3.93041C10.5781 3.93045 10.5783 3.93057 10.5787 3.9307C10.5788 3.93077 10.5791 3.93091 10.5796 3.93108C10.5796 3.93111 10.581 3.93167 10.5827 3.93235C10.584 3.93287 10.5887 3.93473 10.5922 3.93605C10.6336 3.94905 11.1147 3.6795 10.9092 3.20261C10.9034 3.19983 10.8959 3.19636 10.8942 3.1956C10.8934 3.19524 10.8921 3.19468 10.8916 3.19447C10.8908 3.19411 10.8901 3.19383 10.8899 3.19375C10.8896 3.19363 10.8894 3.19353 10.8893 3.19348C10.8886 3.1932 10.888 3.19293 10.8879 3.1929C10.8874 3.19268 10.8866 3.19234 10.8855 3.19189C10.8813 3.19009 10.8713 3.1859 10.8525 3.17797L10.5416 3.91507C10.5604 3.92302 10.5702 3.92715 10.5744 3.9289C10.5754 3.92935 10.576 3.9296 10.5763 3.92971C10.5766 3.92985 10.5762 3.92968 10.5757 3.92945C10.5756 3.9294 10.5754 3.92931 10.5751 3.92919C10.5749 3.92912 10.5743 3.92884 10.5734 3.92848C10.573 3.92828 10.5717 3.92771 10.5709 3.92735C10.5691 3.92659 10.5616 3.92313 10.5558 3.92034C10.3503 3.44346 10.8315 3.17391 10.8729 3.1869C10.8763 3.18823 10.8811 3.19009 10.8824 3.19061C10.884 3.19129 10.8854 3.19184 10.8855 3.19187C10.8859 3.19204 10.8862 3.19217 10.8863 3.19223C10.8866 3.19236 10.8869 3.19246 10.8869 3.19249C10.8872 3.19258 10.8864 3.19227 10.8842 3.19135C10.8805 3.18976 10.8744 3.18719 10.8692 3.18499C10.8666 3.1839 10.8642 3.1829 10.8625 3.18218C10.8616 3.18182 10.8609 3.18153 10.8605 3.18133C10.8602 3.18123 10.86 3.18115 10.8599 3.1811C10.8599 3.18107 10.8598 3.18105 10.8598 3.18104C10.8598 3.18103 10.8597 3.18102 10.8597 3.18102C10.8597 3.18102 10.8597 3.18102 10.8597 3.18102C10.8597 3.18102 10.8597 3.18102 10.8597 3.18102C10.8597 3.18102 10.8597 3.18102 10.7043 3.5496ZM10.8525 3.17797C10.1354 2.87545 9.34844 2.70852 8.52381 2.70852V3.50852C9.23959 3.50852 9.92096 3.65326 10.5416 3.91507L10.8525 3.17797ZM8.52381 2.70852C5.18272 2.70852 2.48095 5.44281 2.48095 8.80739H3.28095C3.28095 5.87717 5.63198 3.50852 8.52381 3.50852V2.70852ZM2.48095 8.80739C2.48095 12.172 5.18272 14.9063 8.52381 14.9063V14.1063C5.63198 14.1063 3.28095 11.7376 3.28095 8.80739H2.48095ZM8.52381 14.9063C11.8649 14.9063 14.5667 12.172 14.5667 8.80739H13.7667C13.7667 11.7376 11.4156 14.1063 8.52381 14.1063V14.9063ZM14.5667 8.80739C14.5667 8.09596 14.4458 7.41212 14.2233 6.77619L13.4682 7.04038C13.6614 7.59249 13.7667 8.18707 13.7667 8.80739H14.5667ZM14.2205 6.76851C14.2545 6.85961 14.2057 6.94348 14.1355 6.97183L13.8359 6.23007C13.5211 6.35724 13.3472 6.71621 13.471 7.04807L14.2205 6.76851ZM14.1355 6.97183L15.4399 6.44489L15.1403 5.70313L13.8359 6.23007L14.1355 6.97183ZM15.4399 6.44489C15.3608 6.47687 15.2558 6.44039 15.2202 6.34535L15.9694 6.06479C15.8418 5.72417 15.4638 5.57242 15.1403 5.70313L15.4399 6.44489ZM15.5948 6.20507C15.9714 6.07036 15.9714 6.07036 15.9714 6.07036C15.9714 6.07036 15.9714 6.07036 15.9714 6.07036C15.9714 6.07035 15.9714 6.07035 15.9714 6.07035C15.9714 6.07034 15.9714 6.07033 15.9714 6.07031C15.9714 6.07028 15.9714 6.07024 15.9713 6.07018C15.9713 6.07007 15.9712 6.06989 15.9712 6.06967C15.971 6.06923 15.9708 6.06859 15.9705 6.0678C15.9699 6.06623 15.9692 6.06407 15.9683 6.06172C15.9666 6.05696 15.9647 6.05167 15.9637 6.04889C15.9636 6.04855 15.9635 6.04828 15.9634 6.04808C15.9634 6.04797 15.9634 6.04789 15.9634 6.04783C15.9633 6.04777 15.9633 6.04775 15.9633 6.04776C15.9633 6.04776 15.9633 6.04778 15.9634 6.04782C15.9634 6.04785 15.9634 6.0479 15.9634 6.04797C15.9634 6.04805 15.9636 6.04842 15.9637 6.04892C15.9638 6.04916 15.964 6.04968 15.9642 6.05035C15.9643 6.05051 15.965 6.05266 15.9659 6.05538C15.9662 6.0562 15.9669 6.05821 15.9672 6.05939C15.9678 6.06122 15.9694 6.06629 15.9703 6.06954C15.9723 6.07674 15.9805 6.11371 15.9844 6.14384C15.7519 6.545 15.2587 6.41062 15.2281 6.35918C15.2237 6.35024 15.218 6.33746 15.2165 6.33371C15.2156 6.33168 15.2143 6.32835 15.2138 6.32707C15.2129 6.32472 15.2122 6.32288 15.212 6.32226C15.2105 6.31842 15.2091 6.31448 15.2111 6.32012C15.2129 6.32515 15.2168 6.33591 15.2239 6.35576L15.977 6.08583C15.9699 6.06602 15.9659 6.05497 15.964 6.04961C15.9635 6.04828 15.9631 6.04718 15.9628 6.04635C15.9627 6.04595 15.9625 6.04546 15.9623 6.04498C15.9623 6.04475 15.9621 6.04433 15.9619 6.04384C15.9618 6.0436 15.9617 6.04318 15.9615 6.04267C15.9614 6.04234 15.9609 6.04115 15.9604 6.03964C15.9601 6.03902 15.9594 6.03717 15.9585 6.03482C15.958 6.03353 15.9567 6.0302 15.9558 6.02816C15.9543 6.02441 15.9486 6.01164 15.9442 6.00269C15.9136 5.95125 15.4204 5.81688 15.1879 6.21803C15.1918 6.24816 15.2 6.28514 15.202 6.29234C15.2029 6.29559 15.2045 6.30066 15.2051 6.30249C15.2054 6.30368 15.2061 6.30568 15.2064 6.30651C15.2073 6.30924 15.208 6.31141 15.2081 6.3116C15.2083 6.3123 15.2085 6.31286 15.2086 6.31314C15.209 6.3141 15.2093 6.31495 15.2093 6.31514C15.2096 6.31585 15.2099 6.3167 15.2102 6.31747C15.2113 6.32068 15.2133 6.32633 15.215 6.33102C15.2159 6.3334 15.2166 6.33559 15.2172 6.33718C15.2175 6.33798 15.2177 6.33863 15.2179 6.33908C15.218 6.3393 15.218 6.33948 15.2181 6.3396C15.2181 6.33966 15.2181 6.3397 15.2181 6.33973C15.2181 6.33975 15.2181 6.33976 15.2181 6.33977C15.2181 6.33977 15.2181 6.33978 15.2181 6.33978C15.2181 6.33978 15.2181 6.33978 15.2181 6.33978C15.2181 6.33978 15.2181 6.33978 15.5948 6.20507ZM15.2239 6.35576C15.498 7.12039 15.6476 7.94578 15.6476 8.80739H16.4476C16.4476 7.85256 16.2817 6.93593 15.977 6.08583L15.2239 6.35576ZM15.6476 8.80739C15.6476 12.7868 12.4545 16.0059 8.52381 16.0059V16.8059C12.9037 16.8059 16.4476 13.2211 16.4476 8.80739H15.6476ZM8.52381 16.0059C4.59315 16.0059 1.4 12.7868 1.4 8.80739H0.6C0.6 13.2211 4.14389 16.8059 8.52381 16.8059V16.0059ZM1.4 8.80739C1.4 4.82804 4.59315 1.60889 8.52381 1.60889V0.808894C4.14389 0.808894 0.6 4.39368 0.6 8.80739H1.4ZM8.52381 1.60889C9.57695 1.60889 10.5758 1.83956 11.4744 2.25333L11.809 1.52667C10.8077 1.06563 9.69497 0.808894 8.52381 0.808894V1.60889ZM11.4744 2.25333C11.493 2.26193 11.5028 2.26641 11.5069 2.26831C11.5079 2.26879 11.5086 2.26908 11.5089 2.26921C11.5092 2.26935 11.5089 2.26922 11.5085 2.26904C11.5084 2.269 11.5082 2.26893 11.508 2.26883C11.5079 2.26877 11.5074 2.26854 11.5068 2.26825C11.5064 2.26808 11.5055 2.26762 11.5048 2.26733C11.5035 2.26671 11.4978 2.26391 11.4935 2.26168C11.3016 1.76765 11.801 1.52596 11.8327 1.5378C11.8353 1.53893 11.8389 1.5405 11.8399 1.54093C11.8411 1.5415 11.8422 1.54196 11.8422 1.54198C11.8425 1.54212 11.8428 1.54223 11.8429 1.54228C11.8431 1.54239 11.8433 1.54247 11.8433 1.54249C11.8434 1.54253 11.8426 1.54213 11.8404 1.54116C11.8367 1.53945 11.8306 1.53665 11.8255 1.53428C11.8229 1.53309 11.8206 1.53202 11.8189 1.53124C11.818 1.53085 11.8173 1.53053 11.8169 1.53031C11.8166 1.5302 11.8164 1.53012 11.8163 1.53006C11.8163 1.53003 11.8162 1.53001 11.8162 1.52999C11.8162 1.52999 11.8161 1.52998 11.8161 1.52998C11.8161 1.52997 11.8161 1.52997 11.8161 1.52997C11.8161 1.52997 11.8161 1.52997 11.8161 1.52997C11.8161 1.52997 11.8161 1.52997 11.6489 1.89333C11.4816 2.25669 11.4816 2.25669 11.4816 2.25669C11.4816 2.25669 11.4816 2.25669 11.4816 2.25669C11.4816 2.25669 11.4816 2.25669 11.4816 2.25669C11.4817 2.2567 11.4817 2.2567 11.4817 2.25671C11.4817 2.25673 11.4818 2.25675 11.4818 2.25678C11.482 2.25683 11.4821 2.25692 11.4824 2.25703C11.4829 2.25725 11.4835 2.25757 11.4844 2.25796C11.4861 2.25874 11.4884 2.25982 11.491 2.26101C11.4962 2.26338 11.5023 2.2662 11.5061 2.26794C11.5077 2.2687 11.5095 2.2695 11.5102 2.26983C11.5103 2.26987 11.5105 2.26996 11.5107 2.27007C11.5109 2.27013 11.5111 2.27024 11.5114 2.27039C11.5115 2.27041 11.5125 2.27088 11.5138 2.27145C11.5147 2.27188 11.5183 2.27345 11.521 2.27457C11.5526 2.28642 12.0521 2.04473 11.8602 1.55069C11.8558 1.54847 11.8501 1.54567 11.8488 1.54505C11.8482 1.54476 11.8472 1.54429 11.8469 1.54412C11.8462 1.54383 11.8457 1.5436 11.8456 1.54353C11.8454 1.54343 11.8452 1.54335 11.8451 1.54331C11.8446 1.54307 11.8441 1.54283 11.844 1.54279C11.8435 1.54256 11.8427 1.54221 11.8417 1.54173C11.8375 1.53978 11.8276 1.53525 11.809 1.52667L11.4744 2.25333Z" fill="black" mask="url(#path-1-outside-1_373_6)"/>
</svg>
