<svg width="17" height="18" viewBox="0 0 17 18" fill="none" xmlns="http://www.w3.org/2000/svg">
<path fill-rule="evenodd" clip-rule="evenodd" d="M11.7676 0.987182C11.8987 1.05025 12.0614 1.00251 12.1347 0.874372L12.5313 0.180627C12.6746 -0.0700713 12.8877 -0.0581625 13.0067 0.20611L14.4257 3.35642C14.545 3.62119 14.4087 3.85865 14.1226 3.88667L10.7116 4.22075C10.425 4.24883 10.3095 4.06701 10.4533 3.81556L10.832 3.15309C10.9041 3.02689 10.8557 2.87584 10.7239 2.81746C10.7239 2.81746 10.799 2.84915 10.7158 2.81405C9.97666 2.50225 9.16537 2.33004 8.31425 2.33004C4.87037 2.33004 2.07856 5.14956 2.07856 8.62763C2.07856 12.1057 4.87037 14.9252 8.31425 14.9252C11.7581 14.9252 14.5499 12.1057 14.5499 8.62763C14.5499 7.89179 14.425 7.18543 14.1953 6.529C14.1457 6.39598 14.2148 6.24398 14.35 6.18937L15.7914 5.60707C15.9264 5.55253 16.0773 5.61622 16.1281 5.75191C16.1281 5.75191 16.1029 5.68161 16.1344 5.76929C16.4541 6.66147 16.6285 7.62398 16.6285 8.62763C16.6285 13.265 12.9061 17.0244 8.31425 17.0244C3.72242 17.0244 0 13.265 0 8.62763C0 3.99021 3.72242 0.23084 8.31425 0.23084C9.54324 0.23084 10.7099 0.500142 11.7597 0.983503C11.8422 1.02148 11.7676 0.987182 11.7676 0.987182Z" fill="black"/>
</svg>
