<svg width="23" height="23" viewBox="0 0 23 23" fill="none" xmlns="http://www.w3.org/2000/svg">
<g filter="url(#filter0_d_144_2)">
<path d="M5.68377 7.24698C5.27328 7.24698 4.95558 6.88756 5.00509 6.48002C5.17278 5.10176 5.7914 3.82693 6.78847 2.82983C7.96846 1.64983 9.53726 1 11.2057 1C13.1236 1 14.9099 1.87651 16.0837 3.3434V2.27208C16.0837 1.89967 16.3756 1.58512 16.7478 1.57484C17.1339 1.56438 17.4503 1.87404 17.4503 2.25787V4.76168C17.4503 5.26684 17.0409 5.67628 16.5357 5.67628H14.0585C13.6861 5.67628 13.3715 5.3844 13.3612 5.01224C13.3508 4.62614 13.6604 4.30969 14.0442 4.30969H15.1041C14.1895 3.09614 12.7522 2.36648 11.206 2.36648C8.71711 2.36648 6.65752 4.23919 6.36189 6.64987C6.31988 6.99151 6.02808 7.24707 5.68399 7.24707L5.68377 7.24698Z" fill="black" stroke="black" stroke-width="0.75"/>
<path d="M17.4216 7.94281C17.0775 7.94281 16.7853 8.19835 16.7437 8.54C16.4484 10.9503 14.3884 12.8234 11.8996 12.8234C10.3531 12.8234 8.91606 12.0937 8.0015 10.8802H9.04719C9.41959 10.8802 9.73414 10.5883 9.74443 10.2161C9.75488 9.83004 9.44523 9.5136 9.0614 9.5136L6.56963 9.51351C6.06447 9.51351 5.65503 9.92297 5.65503 10.4281V12.9179C5.65503 13.2903 5.94691 13.6048 6.31907 13.6151C6.69123 13.6254 7.02162 13.3159 7.02162 12.9321V11.8467C8.19568 13.3136 9.98171 14.1901 11.8996 14.1901C13.5683 14.1901 15.137 13.5402 16.3169 12.3603C17.314 11.3632 17.9327 10.0881 18.1003 8.71013C18.1498 8.30259 17.8321 7.94317 17.4216 7.94317L17.4216 7.94281Z" fill="black" stroke="black" stroke-width="0.75"/>
</g>
<defs>
<filter id="filter0_d_144_2" x="0.625" y="0.625" width="21.8555" height="21.9401" filterUnits="userSpaceOnUse" color-interpolation-filters="sRGB">
<feFlood flood-opacity="0" result="BackgroundImageFix"/>
<feColorMatrix in="SourceAlpha" type="matrix" values="0 0 0 0 0 0 0 0 0 0 0 0 0 0 0 0 0 0 127 0" result="hardAlpha"/>
<feOffset dy="4"/>
<feGaussianBlur stdDeviation="2"/>
<feComposite in2="hardAlpha" operator="out"/>
<feColorMatrix type="matrix" values="0 0 0 0 0 0 0 0 0 0 0 0 0 0 0 0 0 0 0.25 0"/>
<feBlend mode="normal" in2="BackgroundImageFix" result="effect1_dropShadow_144_2"/>
<feBlend mode="normal" in="SourceGraphic" in2="effect1_dropShadow_144_2" result="shape"/>
</filter>
</defs>
</svg>
