<svg width="15" height="15" viewBox="0 0 15 15" fill="none" xmlns="http://www.w3.org/2000/svg">
<path d="M1.68377 7.24698C1.27328 7.24698 0.955584 6.88756 1.00509 6.48002C1.17278 5.10176 1.7914 3.82693 2.78847 2.82983C3.96846 1.64983 5.53726 1 7.20573 1C9.12358 1 10.9099 1.87651 12.0837 3.3434V2.27208C12.0837 1.89967 12.3756 1.58512 12.7478 1.57484C13.1339 1.56438 13.4503 1.87404 13.4503 2.25787V4.76168C13.4503 5.26684 13.0409 5.67628 12.5357 5.67628H10.0585C9.68605 5.67628 9.3715 5.3844 9.36122 5.01224C9.35076 4.62614 9.66042 4.30969 10.0442 4.30969H11.1041C10.1895 3.09614 8.75218 2.36648 7.20598 2.36648C4.71711 2.36648 2.65752 4.23919 2.36189 6.64987C2.31988 6.99151 2.02808 7.24707 1.68399 7.24707L1.68377 7.24698Z" fill="black" stroke="black" stroke-width="0.75"/>
<path d="M13.4217 7.94287C13.0776 7.94287 12.7854 8.19841 12.7438 8.54007C12.4485 10.9504 10.3886 12.8235 7.8997 12.8235C6.35323 12.8235 4.91618 12.0938 4.00163 10.8802H5.04731C5.41971 10.8802 5.73426 10.5884 5.74455 10.2162C5.75501 9.8301 5.44535 9.51366 5.06152 9.51366L2.56975 9.51357C2.06459 9.51357 1.65515 9.92303 1.65515 10.4282V12.9179C1.65515 13.2903 1.94703 13.6049 2.31919 13.6152C2.69135 13.6255 3.02174 13.316 3.02174 12.9321V11.8467C4.1958 13.3136 5.98183 14.1901 7.89974 14.1901C9.56841 14.1901 11.1372 13.5403 12.317 12.3604C13.3141 11.3633 13.9328 10.0882 14.1004 8.71019C14.1499 8.30265 13.8322 7.94323 13.4217 7.94323L13.4217 7.94287Z" fill="black" stroke="black" stroke-width="0.75"/>
</svg>
