<svg width="75" height="75" viewBox="0 0 75 75" fill="none" xmlns="http://www.w3.org/2000/svg">
<circle cx="37.5" cy="37.5" r="37.5" fill="#262626"/>
<path fill-rule="evenodd" clip-rule="evenodd" d="M27.2338 26.9643C27.2338 24.7747 29.0085 23 31.1981 23H43.8019C45.9915 23 47.7662 24.7747 47.7662 26.9643C47.7662 27.3145 47.9062 27.6514 48.1534 27.8985C48.4018 28.147 48.7374 28.2857 49.0876 28.2857H52.0357C54.2253 28.2857 56 30.0604 56 32.25V48.1071C56 50.2967 54.2253 52.0714 52.0357 52.0714H22.9643C20.7747 52.0714 19 50.2967 19 48.1071V32.25C19 30.0604 20.7747 28.2857 22.9643 28.2857H25.9124C26.2626 28.2857 26.5982 28.147 26.8466 27.8985C27.0938 27.6514 27.2338 27.3145 27.2338 26.9643ZM37.5661 32.25C33.5542 32.25 30.2982 35.506 30.2982 39.5179C30.2982 43.5297 33.5542 46.7857 37.5661 46.7857C41.5779 46.7857 44.8339 43.5297 44.8339 39.5179C44.8339 35.506 41.5779 32.25 37.5661 32.25ZM37.5661 34.8929C40.1191 34.8929 42.1911 36.9649 42.1911 39.5179C42.1911 42.0709 40.1191 44.1429 37.5661 44.1429C35.0131 44.1429 32.9411 42.0709 32.9411 39.5179C32.9411 36.9649 35.0131 34.8929 37.5661 34.8929Z" fill="#F3F3F3"/>
</svg>
