<svg width="45" height="49" viewBox="0 0 45 49" fill="none" xmlns="http://www.w3.org/2000/svg">
<path d="M2.57944 13.3112H8.50358C9.56707 13.3112 10.4278 12.4505 10.4278 11.3871C10.4278 10.3236 9.56703 9.46289 8.50358 9.46289L2.57944 9.46324C1.51596 9.46324 0.655273 10.324 0.655273 11.3874C0.655273 12.4505 1.516 13.3112 2.57944 13.3112Z" fill="black"/>
<path d="M2.57944 26.4753H8.50358C9.56707 26.4753 10.4278 25.6146 10.4278 24.5511C10.4278 23.4877 9.56703 22.627 8.50358 22.627H2.57944C1.51596 22.627 0.655273 23.4877 0.655273 24.5511C0.655273 25.6146 1.516 26.4753 2.57944 26.4753Z" fill="black"/>
<path d="M10.4278 37.6654C10.4278 36.6019 9.56703 35.7412 8.50358 35.7412L2.57944 35.7416C1.51596 35.7416 0.655273 36.6023 0.655273 37.6657C0.655273 38.7292 1.516 39.5899 2.57944 39.5899H8.50358C9.56671 39.5896 10.4278 38.7288 10.4278 37.6654Z" fill="black"/>
<path d="M38.8838 0.5H8.55419C6.88328 0.5 5.56689 1.81639 5.56689 3.4873V7.28482H8.50365C10.7821 7.28482 12.6049 9.10763 12.6049 11.3861C12.6049 13.6645 10.7821 15.4873 8.50365 15.4873H5.56689V20.3988H8.50365C10.7821 20.3988 12.6049 22.2216 12.6049 24.5C12.6049 26.7784 10.7821 28.6012 8.50365 28.6012H5.56689V33.5127H8.50365C10.7821 33.5127 12.6049 35.3355 12.6049 37.6139C12.6049 39.8924 10.7821 41.7152 8.50365 41.7152H5.56689V45.5127C5.56689 47.1836 6.88328 48.5 8.55419 48.5H38.8838C41.9724 48.5 44.5041 45.9683 44.5041 42.8797V6.12052C44.5041 3.03186 41.9724 0.500181 38.8838 0.500181V0.5ZM27.5418 12.9559C30.681 12.9559 33.2635 15.4876 33.2635 18.6776C33.2635 21.8676 30.7318 24.3993 27.5418 24.3993C24.4026 24.3993 21.8201 21.8676 21.8201 18.6776C21.8205 15.4876 24.4026 12.9559 27.5418 12.9559ZM37.0609 34.6271C37.0609 35.4373 36.3521 36.1462 35.5418 36.1462L19.5416 36.1458C18.6809 36.1458 18.0225 35.4875 18.0225 34.6267V33.4623C18.0225 30.0698 19.8959 27.0825 22.6303 25.4621C23.9975 26.4747 25.7189 27.0317 27.5417 27.0317C29.3645 27.0317 31.0355 26.4747 32.4532 25.4621C35.1872 27.0826 37.0609 30.0699 37.0609 33.4623V34.6271Z" fill="black"/>
</svg>
