<svg width="16" height="16" viewBox="0 0 16 16" fill="none" xmlns="http://www.w3.org/2000/svg">
<path d="M6.05887 2.35364C6.05887 2.35364 4.12718 7.67963 0 8.36371C4.12718 9.04685 6.05887 14.3732 6.05887 14.3732C6.05887 14.3732 7.99056 9.04685 12.1168 8.36371C7.99056 7.67963 6.05887 2.35364 6.05887 2.35364Z" fill="#8A8A8A"/>
<path d="M12.7695 0C12.7695 0 11.7394 2.84086 9.53918 3.20479C11.7394 3.56902 12.7695 6.40863 12.7695 6.40863C12.7695 6.40863 13.7998 3.56902 16.0001 3.20479C13.7998 2.84086 12.7695 0 12.7695 0Z" fill="#8A8A8A"/>
<path d="M12 11.7282C12 11.7282 11.3614 13.4867 10 13.7113C11.3614 13.9373 12 15.6958 12 15.6958C12 15.6958 12.6372 13.9373 14 13.7113C12.6372 13.4867 12 11.7282 12 11.7282Z" fill="#8A8A8A"/>
</svg>
