<svg width="12" height="16" viewBox="0 0 12 16" fill="none" xmlns="http://www.w3.org/2000/svg">
<path d="M10.1378 1.85942C8.98956 0.693374 7.53433 -0.00236436 6.00011 6.03754e-06H5.95823C2.84474 0.0503935 0.0785424 2.95776 0.000815447 6.0594C-0.0111355 6.74329 0.108373 7.4232 0.352874 8.062L0.35675 8.07223C0.371501 8.17236 1.63346 10.9997 5.55784 15.2049V15.205C5.57141 15.2239 5.58615 15.2418 5.60188 15.259C5.70061 15.369 5.84058 15.4332 5.98831 15.4364C6.13613 15.4396 6.27868 15.3815 6.38215 15.2759C8.27838 13.3766 9.64034 11.4879 10.4107 10.2862C11.2585 8.96576 11.6244 8.11862 11.6395 8.0816C11.6422 8.07493 11.6449 8.06868 11.6474 8.06201V8.0619C11.8898 7.4284 12.0093 6.75449 11.9994 6.0762C11.9792 4.52902 11.294 3.04099 10.1379 1.8591L10.1378 1.85942ZM6.0172 8.45876C4.70615 8.45693 3.63862 7.39393 3.64529 6.09256C3.65185 4.79107 4.72175 3.70794 6.01687 3.70794C7.31198 3.70794 8.38004 4.79322 8.38878 6.09374C8.39761 7.39426 7.32676 8.45692 6.0172 8.45876V8.45876Z" fill="white"/>
</svg>
