<svg width="23" height="31" viewBox="0 0 23 31" fill="none" xmlns="http://www.w3.org/2000/svg">
<path d="M18.7335 8.89598C19.7934 8.89293 20.7471 9.36725 21.3848 10.075C22.0225 10.7782 22.3862 11.7043 22.3879 12.6853M18.7335 8.89598L22 12.686M18.7335 8.89598L14.1946 8.87215L14.1225 8.84056L14.1012 8.78782L14.9658 5.34294L14.9659 5.34253C15.0452 5.02515 15.0842 4.7042 15.084 4.38828V4.38793C15.0806 2.36784 13.5113 0.619455 11.4292 0.612069H11.4279H7.9027H7.90266C5.77665 0.612315 3.93396 2.09926 3.39982 4.20993M18.7335 8.89598L3.39982 4.20993M22.3879 12.6853L22 12.686M22.3879 12.6853C22.3879 12.6851 22.3879 12.6848 22.3879 12.6845L22 12.686M22.3879 12.6853C22.3906 13.471 22.1409 14.2935 21.6272 14.9812L21.6248 14.9844L21.6248 14.9844L21.6161 14.9957L21.3073 14.761M22 12.686C22.0026 13.3908 21.7781 14.131 21.3164 14.7491L21.3073 14.761M21.3073 14.761L21.6157 14.9963L21.3073 14.761ZM3.39982 4.20993L3.39976 4.20992L0.733454 14.6309M3.39982 4.20993L0.733454 14.6309M0.733454 14.6309L0.732835 14.6332L0.732155 14.6358L0.732139 14.6358L0.73125 14.6393C0.651017 14.9569 0.612069 15.2787 0.612068 15.5959L0.61207 15.5965C0.615422 17.6156 2.18377 19.3652 4.26749 19.3726H4.26887H7.85074L7.92296 19.4039L7.94453 19.4572L6.05642 26.9481C6.05641 26.9482 6.05639 26.9482 6.05637 26.9483C5.99842 27.1778 5.96674 27.4175 5.96712 27.6593M0.733454 14.6309L7.08211 29.3674L6.81723 29.6509C6.8171 29.6507 6.81697 29.6506 6.81684 29.6505C6.31845 29.1845 5.9635 28.4616 5.96712 27.6593M5.96712 27.6593C5.96712 27.6589 5.96712 27.6584 5.96712 27.6579L6.35505 27.6599L5.96712 27.6607C5.96712 27.6602 5.96712 27.6598 5.96712 27.6593ZM8.64229 29.9997L8.63503 30.3876C8.63592 30.3876 8.63681 30.3876 8.6377 30.3876C8.6386 30.3876 8.63951 30.3876 8.64041 30.3876L8.64229 29.9997ZM10.731 29.3145L10.7336 29.3111C10.7345 29.3098 10.7355 29.3085 10.7364 29.3073L10.4222 29.0797L10.731 29.3145Z" fill="white" stroke="white" stroke-width="0.775862"/>
</svg>
