<svg width="21" height="5" viewBox="0 0 21 5" fill="none" xmlns="http://www.w3.org/2000/svg">
<path d="M17.6905 0.000244141L19.7601 0.000244141C20.3293 0.000244141 20.7949 0.465855 20.7949 1.03503L20.7949 3.10459C20.7949 3.67379 20.3293 4.13937 19.7601 4.13937L17.6905 4.13937C17.1213 4.13937 16.6558 3.67376 16.6558 3.10459L16.6558 1.03503C16.6558 0.466197 17.1214 0.000244141 17.6905 0.000244141Z" fill="white"/>
<path d="M9.35582 0.000244141L11.4254 0.000244141C11.9946 0.000244141 12.4602 0.465855 12.4602 1.03503L12.4602 3.10459C12.4602 3.67379 11.9946 4.13937 11.4254 4.13937L9.35582 4.13937C8.78663 4.13937 8.32104 3.67376 8.32104 3.10459L8.32104 1.03503C8.32104 0.466197 8.78665 0.000244141 9.35582 0.000244141V0.000244141Z" fill="white"/>
<path d="M1.03478 0.000244141L3.10435 0.000244141C3.67355 0.000244141 4.13913 0.465855 4.13913 1.03503L4.13913 3.10459C4.13913 3.67379 3.67352 4.13937 3.10435 4.13937L1.03478 4.13937C0.465582 4.13937 0 3.67376 0 3.10459L0 1.03503C0 0.466197 0.465609 0.000244141 1.03478 0.000244141V0.000244141Z" fill="white"/>
</svg>
