<svg width="17" height="24" viewBox="0 0 17 24" fill="none" xmlns="http://www.w3.org/2000/svg">
<path d="M3.86236 15.2446C3.56947 15.5375 3.09459 15.5375 2.8017 15.2446L2.26973 14.7126C1.97683 14.4197 1.97683 13.9448 2.26973 13.6519L6.98782 8.93384C7.42762 8.49405 8.14067 8.49405 8.58046 8.93384C9.02025 9.37363 9.02025 10.0867 8.58046 10.5265L3.86236 15.2446Z" fill="black" stroke="black"/>
<path d="M11.9511 15.2475C12.244 15.5404 12.7189 15.5404 13.0118 15.2475L13.5437 14.7155C13.8366 14.4226 13.8366 13.9478 13.5437 13.6549L8.82273 8.93385C8.38293 8.49405 7.66989 8.49405 7.23009 8.93385C6.7903 9.37364 6.7903 10.0867 7.23009 10.5265L11.9511 15.2475Z" fill="black" stroke="black"/>
<path d="M6.88306 9.75226C6.88306 9.1303 7.38726 8.6261 8.00922 8.6261C8.63118 8.6261 9.13538 9.1303 9.13538 9.75226V21.6424C9.13538 22.0566 8.79959 22.3924 8.38538 22.3924H7.63306C7.21884 22.3924 6.88306 22.0566 6.88306 21.6424L6.88306 9.75226Z" fill="black" stroke="black"/>
<path d="M3.00146 6.5L1.50146 5" stroke="black" stroke-width="2.75" stroke-linecap="round"/>
<path d="M13.0015 6.5L14.5015 5" stroke="black" stroke-width="2.75" stroke-linecap="round"/>
<path d="M8.00146 5V2" stroke="black" stroke-width="2.75" stroke-linecap="round"/>
</svg>
