<svg width="32" height="32" viewBox="0 0 32 32" fill="none" xmlns="http://www.w3.org/2000/svg">
<circle cx="16" cy="16" r="16" fill="#39F3FF"/>
<path d="M15.9967 7.81137C16.876 7.81137 17.5889 8.52423 17.5889 9.40358L17.5889 23.2642C17.5889 24.1436 16.876 24.8564 15.9967 24.8564C15.1173 24.8564 14.4044 24.1436 14.4044 23.2642L14.4044 9.40358C14.4044 8.52423 15.1173 7.81137 15.9967 7.81137Z" fill="white"/>
<path d="M14.9238 7.92029C15.5813 7.27505 16.6373 7.28499 17.2826 7.94249L22.4344 13.1922C23.0503 13.8198 23.0408 14.8279 22.4132 15.4438L22.305 15.55C21.6774 16.1659 20.6693 16.1564 20.0534 15.5288L14.9016 10.2791C14.2563 9.62161 14.2663 8.56554 14.9238 7.92029Z" fill="white"/>
<path d="M17.0735 7.91837C16.4159 7.27305 15.3597 7.283 14.7143 7.94061L9.5614 13.1916C8.94549 13.8192 8.95499 14.8273 9.58262 15.4432L9.69117 15.5498C10.3188 16.1657 11.3269 16.1562 11.9428 15.5285L17.0957 10.2775C17.7411 9.61993 17.7311 8.5637 17.0735 7.91837Z" fill="white"/>
</svg>
