<svg width="56" height="56" viewBox="0 0 56 56" fill="none" xmlns="http://www.w3.org/2000/svg">
<path d="M0 28C0 12.536 12.536 0 28 0C43.464 0 56 12.536 56 28C56 43.464 43.464 56 28 56C12.536 56 0 43.464 0 28Z" fill="#FF72D7"/>
<path d="M43.0945 26.1473L33.4694 35.7724C33.302 35.9394 33.0754 36.0333 32.8388 36.0333C32.6025 36.0333 32.3758 35.9392 32.2086 35.772C32.0414 35.605 31.9473 35.3782 31.9473 35.1418V30.034C24.7682 29.4366 18.3218 32.5935 14.5885 38.5805C14.4471 38.8071 14.2114 38.9584 13.9464 38.9927C13.6814 39.0268 13.4149 38.9404 13.2204 38.7572C13.0261 38.5737 12.924 38.3129 12.9426 38.0463C13.185 34.5942 13.957 31.6255 15.2419 29.2223H15.2417C16.3671 27.0828 18.0215 25.2671 20.0474 23.9482C21.9476 22.7534 24.0548 21.925 26.26 21.5056C28.1338 21.1369 30.0376 20.9413 31.9474 20.9212V15.8915C31.9474 15.6549 32.0415 15.4283 32.2087 15.2611C32.3759 15.0939 32.6026 15 32.8389 15C33.0755 14.9998 33.3021 15.0937 33.4695 15.2609L43.0946 24.886C43.262 25.053 43.3559 25.2798 43.3559 25.5163C43.3559 25.7527 43.262 25.9795 43.0946 26.1467L43.0945 26.1473Z" fill="black"/>
</svg>
