<svg width="18" height="16" viewBox="0 0 18 16" fill="none" xmlns="http://www.w3.org/2000/svg">
<path d="M17 5.42939C17 8.8586 12.7818 12.4578 10.2727 14.298C9.90182 14.5686 9.45665 14.7143 9 14.7143C8.54335 14.7143 8.09818 14.5686 7.72727 14.298C5.21818 12.4578 1 8.8586 1 5.42939C1.00103 4.47722 1.30364 3.55068 1.86307 2.78684C2.42249 2.02301 3.20901 1.46244 4.10627 1.18807C5.00352 0.913711 5.96385 0.940125 6.84519 1.26341C7.72655 1.58669 8.48204 2.18967 9 2.98315C9.51796 2.18967 10.2735 1.58669 11.1548 1.26341C12.0361 0.940125 12.9965 0.913711 13.8937 1.18807C14.791 1.46244 15.5775 2.02301 16.1369 2.78684C16.6964 3.55068 16.999 4.47722 17 5.42939Z" stroke="#FF39A4" stroke-width="1.60714"/>
<path d="M17 5.52167C17 9.02232 12.7818 12.6965 10.2727 14.575C9.90182 14.8513 9.45665 15 9 15C8.54335 15 8.09818 14.8513 7.72727 14.575C5.21818 12.6965 1 9.02232 1 5.52167C1.00103 4.54967 1.30364 3.60382 1.86307 2.82407C2.42249 2.04432 3.20901 1.47207 4.10627 1.19199C5.00352 0.911913 5.96385 0.938877 6.84519 1.26889C7.72655 1.59891 8.48204 2.21445 9 3.02446C9.51796 2.21445 10.2735 1.59891 11.1548 1.26889C12.0361 0.938877 12.9965 0.911913 13.8937 1.19199C14.791 1.47207 15.5775 2.04432 16.1369 2.82407C16.6964 3.60382 16.999 4.54967 17 5.52167Z" fill="#FF39A4"/>
</svg>
