<svg width="27" height="24" viewBox="0 0 27 24" fill="none" xmlns="http://www.w3.org/2000/svg">
<path d="M13.0863 23.4372C13.3559 23.5102 13.6403 23.5102 13.9102 23.4372C18.1218 22.2585 21.7167 19.5192 23.9529 15.7843C25.294 13.6129 25.9997 11.1134 25.991 8.56611C25.991 4.72055 23.0663 1.41371 19.3297 1.04543C17.1918 0.832883 15.0655 1.54623 13.4961 3.0032C11.7749 1.38941 9.37974 0.691959 7.05346 1.12684C5.32584 1.46485 3.77303 2.39533 2.6664 3.75527C1.56005 5.11521 0.970654 6.81823 1.00112 8.56618C0.992409 11.1135 1.69812 13.6129 3.03923 15.7844C5.2762 19.5198 8.87283 22.2591 13.0861 23.4373L13.0863 23.4372ZM7.61985 4.18205H7.61958C7.88378 4.13391 8.15151 4.1093 8.42003 4.10822C9.1772 4.10552 9.9216 4.30265 10.5767 4.67934C11.232 5.05602 11.7746 5.59872 12.1491 6.25208C12.3327 6.56819 12.6225 6.80967 12.9675 6.9346C13.3129 7.05926 13.6912 7.05926 14.0366 6.9346C14.3817 6.80967 14.6715 6.56819 14.855 6.25208C15.2655 5.53275 15.8792 4.94814 16.6199 4.57065C17.3611 4.19316 18.1972 4.03929 19.0252 4.12772C21.1766 4.34486 22.8673 6.29483 22.8673 8.56654C22.8793 10.5376 22.3386 12.4732 21.3056 14.1565C19.5504 17.0929 16.7719 19.2887 13.4962 20.3281C10.2204 19.2886 7.44198 17.0929 5.68683 14.1565C4.65376 12.4732 4.1131 10.5376 4.12509 8.56654C4.12509 6.43432 5.62449 4.5347 7.61198 4.18206L7.61985 4.18205Z" fill="#39F3FF" stroke="black"/>
<path d="M16.4911 2.69629L13.4911 5.19629L11.4911 3.19629L7.49109 2.69629L4.49109 4.19629L2.49109 6.69629V10.1963L4.99109 16.1963L8.49109 19.6963L13.4911 22.1963L17.4911 20.1963L22.9911 14.6963L24.4911 9.19629L23.4911 5.19629L20.4911 2.69629H16.4911Z" fill="#39F3FF"/>
</svg>
