<svg width="37" height="33" viewBox="0 0 37 33" fill="none" xmlns="http://www.w3.org/2000/svg">
<circle cx="11.2206" cy="11.8938" r="10.1073" fill="white"/>
<circle cx="25.555" cy="11.8938" r="10.1073" fill="white"/>
<circle cx="18.3612" cy="19.9274" r="10.1073" fill="white"/>
<path d="M25.4135 2.67264C25.4916 2.67264 25.5702 2.67465 25.6483 2.67766C27.478 2.78816 29.4214 3.80546 30.9831 5.47115C32.6011 7.19664 33.591 9.40248 33.7008 11.5237C33.7316 12.3268 33.6606 13.096 33.4835 13.8742C33.3675 14.3453 32.9991 15.561 32.6222 16.2383C32.6074 16.2649 32.5933 16.291 32.5793 16.3184C31.2179 18.9735 28.899 21.2771 26.8084 23.1804C26.033 23.8843 25.3381 24.4898 24.6201 25.0852C23.2103 26.2567 21.7661 27.3431 19.7677 28.8471L19.7649 28.8491C19.3157 29.1881 18.8488 29.3596 18.3777 29.3596C17.9066 29.3596 17.4405 29.1881 16.9917 28.8498L16.9875 28.8463C14.0081 26.6076 12.2124 25.2407 9.95119 23.1824C7.87186 21.2882 5.56432 18.998 4.2002 16.3602C4.00182 15.9306 3.49979 14.7586 3.26777 13.845C3.0955 13.0758 3.02594 12.3156 3.05683 11.5226C3.16657 9.40057 4.15647 7.19544 5.77447 5.47002C7.33543 3.8051 9.27892 2.78749 11.1086 2.67704C11.1867 2.67352 11.2653 2.67202 11.3427 2.67202C12.0642 2.67202 12.7693 2.82395 13.4388 3.12354C13.8853 3.32318 14.3227 3.59037 14.7381 3.91807C15.7971 4.75207 17.0557 5.19276 18.3789 5.19276C19.7023 5.19276 20.9609 4.75179 22.0197 3.91807C23.0689 3.09184 24.2111 2.67264 25.4135 2.67264ZM25.4131 5.27262e-05C23.54 5.27262e-05 21.8271 0.668066 20.3665 1.81843C19.7724 2.28678 19.0755 2.97461 18.3786 2.97461C17.6817 2.97461 16.9849 2.28602 16.3907 1.81843C15.8091 1.35988 15.1864 0.977419 14.5294 0.684331C13.538 0.240598 12.4699 0.000245606 11.3421 0.000245606C11.2183 0.000245606 11.0945 0.0030079 10.9695 0.00878357C5.73658 0.310634 0.678938 5.60104 0.387715 11.4025C0.344019 12.4803 0.448236 13.4979 0.668973 14.4667C1.02256 15.8828 1.80031 17.5367 1.80031 17.5367C3.35504 20.5688 5.89113 23.0986 8.15174 25.158C10.5158 27.3097 12.3769 28.7237 15.3822 30.9821C16.3088 31.6817 17.3432 32.0313 18.3776 32.0313C19.412 32.0313 20.4469 31.6812 21.3745 30.9816C23.4046 29.4542 24.8832 28.3405 26.3282 27.1396C27.068 26.5259 27.8013 25.8873 28.6044 25.1583C30.865 23.0996 33.4013 20.5695 34.9558 17.537C35.6336 16.3185 36.0899 14.467 36.0871 14.467C36.3079 13.4981 36.4113 12.4806 36.3684 11.4028C36.0781 5.60027 31.0195 0.31055 25.7866 0.00904083C25.6608 0.00351607 25.5363 0 25.412 0L25.4131 5.27262e-05Z" fill="white"/>
</svg>
