<svg width="36" height="33" viewBox="0 0 36 33" fill="none" xmlns="http://www.w3.org/2000/svg">
<circle cx="10.8426" cy="11.8938" r="10.1073" fill="#28F2FF"/>
<circle cx="25.1771" cy="11.8938" r="10.1073" fill="#28F2FF"/>
<circle cx="17.9833" cy="19.9274" r="10.1073" fill="#28F2FF"/>
<path d="M25.0355 2.67264C25.1136 2.67264 25.1922 2.67465 25.2703 2.67766C27.1 2.78816 29.0434 3.80546 30.6052 5.47115C32.2232 7.19664 33.2131 9.40248 33.3228 11.5237C33.3537 12.3268 33.2826 13.096 33.1056 13.8742C32.9896 14.3453 32.6212 15.561 32.2443 16.2383C32.2295 16.2649 32.2154 16.291 32.2013 16.3184C30.84 18.9735 28.5211 21.2771 26.4305 23.1804C25.655 23.8843 24.9602 24.4898 24.2422 25.0852C22.8324 26.2567 21.3881 27.3431 19.3898 28.8471L19.387 28.8491C18.9377 29.1881 18.4709 29.3596 17.9998 29.3596C17.5287 29.3596 17.0626 29.1881 16.6138 28.8498L16.6095 28.8463C13.6302 26.6076 11.8344 25.2407 9.57326 23.1824C7.49393 21.2882 5.18639 18.998 3.82227 16.3602C3.62389 15.9306 3.12186 14.7586 2.88984 13.845C2.71757 13.0758 2.64801 12.3156 2.6789 11.5226C2.78864 9.40057 3.77854 7.19544 5.39654 5.47002C6.95751 3.8051 8.90099 2.78749 10.7307 2.67704C10.8088 2.67352 10.8874 2.67202 10.9647 2.67202C11.6862 2.67202 12.3913 2.82395 13.0608 3.12354C13.5073 3.32318 13.9448 3.59037 14.3601 3.91807C15.4192 4.75207 16.6778 5.19276 18.0009 5.19276C19.3244 5.19276 20.583 4.75179 21.6418 3.91807C22.6909 3.09184 23.8332 2.67264 25.0355 2.67264ZM25.0352 5.27262e-05C23.162 5.27262e-05 21.4492 0.668066 19.9886 1.81843C19.3944 2.28678 18.6976 2.97461 18.0007 2.97461C17.3038 2.97461 16.6069 2.28602 16.0128 1.81843C15.4312 1.35988 14.8084 0.977419 14.1515 0.684331C13.16 0.240598 12.092 0.000245606 10.9642 0.000245606C10.8404 0.000245606 10.7166 0.0030079 10.5915 0.00878357C5.35865 0.310634 0.301008 5.60104 0.00978493 11.4025C-0.0339108 12.4803 0.070306 13.4979 0.291044 14.4667C0.644626 15.8828 1.42238 17.5367 1.42238 17.5367C2.97711 20.5688 5.5132 23.0986 7.77381 25.158C10.1379 27.3097 11.999 28.7237 15.0043 30.9821C15.9309 31.6817 16.9653 32.0313 17.9997 32.0313C19.0341 32.0313 20.069 31.6812 20.9966 30.9816C23.0266 29.4542 24.5053 28.3405 25.9503 27.1396C26.6901 26.5259 27.4233 25.8873 28.2264 25.1583C30.487 23.0996 33.0234 20.5695 34.5779 17.537C35.2556 16.3185 35.712 14.467 35.7092 14.467C35.9299 13.4981 36.0334 12.4806 35.9905 11.4028C35.7002 5.60027 30.6415 0.31055 25.4087 0.00904083C25.2829 0.00351607 25.1583 0 25.034 0L25.0352 5.27262e-05Z" fill="#28F2FF"/>
</svg>
