<svg width="17" height="15" viewBox="0 0 17 15" fill="none" xmlns="http://www.w3.org/2000/svg">
<path d="M17 4.70623C17 8.34976 12.5182 12.1739 9.85227 14.1291C9.45818 14.4167 8.9852 14.5714 8.5 14.5714C8.0148 14.5714 7.54182 14.4167 7.14773 14.1291C4.48182 12.1739 0 8.34976 0 4.70623C0.00109727 3.69455 0.322621 2.7101 0.917011 1.89852C1.5114 1.08694 2.34707 0.491341 3.30041 0.19983C4.25374 -0.0916819 5.2741 -0.0636174 6.21052 0.279869C7.14695 0.623355 7.94966 1.26402 8.5 2.10709C9.05034 1.26402 9.85305 0.623355 10.7895 0.279869C11.7259 -0.0636174 12.7463 -0.0916819 13.6996 0.19983C14.6529 0.491341 15.4886 1.08694 16.083 1.89852C16.6774 2.7101 16.9989 3.69455 17 4.70623Z" fill="#39F3FF"/>
</svg>
