<svg width="16" height="15" viewBox="0 0 16 15" fill="none" xmlns="http://www.w3.org/2000/svg">
<path d="M0.251131 1.59543L2.45713 6.94025L2.9997 7.64131L3.004 7.6734L2.45713 8.34954L0.107419 12.9805C-0.0982421 13.401 0.0030154 13.9117 0.312216 14.2632C0.366942 14.305 0.389572 14.3511 0.444298 14.3929C0.772648 14.6436 1.18996 14.7023 1.57705 14.5357L15.169 8.55017C15.5883 8.37936 15.8765 7.96396 15.8805 7.50486C15.8845 7.04577 15.6309 6.62111 15.1964 6.43375L1.76996 0.0978883C1.33541 -0.089446 0.838717 -0.00651529 0.491522 0.334804C0.158209 0.657893 0.0620342 1.16234 0.251131 1.59543Z" fill="black"/>
</svg>
