<svg width="23" height="24" viewBox="0 0 23 24" fill="none" xmlns="http://www.w3.org/2000/svg">
<path d="M6.74713 5.43809L8.95313 10.7829L9.4957 11.484L9.5 11.5161L8.95313 12.1922L6.60342 16.8231C6.39776 17.2437 6.49901 17.7544 6.80821 18.1059C6.86294 18.1477 6.88557 18.1938 6.9403 18.2355C7.26865 18.4862 7.68596 18.545 8.07304 18.3784L21.665 12.3928C22.0843 12.222 22.3725 11.8066 22.3765 11.3475C22.3805 10.8884 22.1269 10.4638 21.6924 10.2764L8.26596 3.94055C7.83141 3.75321 7.33472 3.83614 6.98752 4.17746C6.65421 4.50055 6.55803 5.005 6.74713 5.43809Z" fill="black"/>
</svg>
