<svg width="29" height="29" viewBox="0 0 29 29" fill="none" xmlns="http://www.w3.org/2000/svg">
<path d="M7.70709 17.2803C7.31658 16.8898 7.31658 16.2567 7.70709 15.8661V15.8661C8.09761 15.4756 8.73076 15.4756 9.12128 15.8661L12.5837 19.3286C12.9742 19.7191 12.9742 20.3523 12.5837 20.7428V20.7428C12.1932 21.1333 11.56 21.1333 11.1695 20.7428L7.70709 17.2803Z" fill="#39FF88" stroke="#39FF88"/>
<path d="M19.8788 10.6212C20.2694 10.2306 20.9025 10.2306 21.293 10.6212V10.6212C21.6835 11.0117 21.6835 11.6448 21.293 12.0353L12.9377 20.3907C12.5471 20.7812 11.914 20.7812 11.5235 20.3907V20.3907C11.133 20.0002 11.133 19.367 11.5235 18.9765L19.8788 10.6212Z" fill="#39FF88" stroke="#39FF88"/>
<circle cx="14.5" cy="14.5" r="13.25" stroke="#39FF88" stroke-width="2.5"/>
</svg>
