<svg width="12" height="15" viewBox="0 0 12 15" fill="none" xmlns="http://www.w3.org/2000/svg">
<path fill-rule="evenodd" clip-rule="evenodd" d="M1.63638 5.77627C0.72007 5.85701 0 6.66934 0 7.65936V13.1101C0 14.1532 0.800767 15 1.78687 15H10.2131C11.1994 15 12 14.1531 12 13.1101V7.65936C12 6.66934 11.2799 5.857 10.3636 5.77627V4.64897C10.3636 2.08053 8.40872 0 5.99994 0C3.59115 0 1.63626 2.08037 1.63626 4.64897L1.63638 5.77627ZM9.27282 5.76931V4.64897C9.27282 2.71976 7.80884 1.15384 6.00006 1.15384C4.19129 1.15384 2.7273 2.71963 2.7273 4.64897V5.76931H9.27282Z" fill="black"/>
</svg>
