<svg width="37" height="37" viewBox="0 0 37 37" fill="none" xmlns="http://www.w3.org/2000/svg">
<circle cx="18.5" cy="18.5" r="18.5" fill="black" fill-opacity="0.5"/>
<path d="M13.7651 11.2771C15.0759 10.5916 16.5475 10.2184 18.0773 10.2184C23.2885 10.2184 27.5129 14.5146 27.5129 19.8141C27.5129 25.1137 23.2885 29.4104 18.0773 29.4104C15.3354 29.4104 12.7799 28.2117 11.0007 26.1618C10.4265 25.4997 10.4884 24.4889 11.1395 23.9043C11.7906 23.3203 12.7844 23.3828 13.3593 24.0455C14.5473 25.4143 16.247 26.2114 18.0775 26.2114C21.5516 26.2114 24.3681 23.347 24.3681 19.814C24.3681 16.281 21.5516 13.4172 18.0775 13.4172C16.9969 13.4172 15.962 13.695 15.0509 14.2043L16.834 14.7933C17.66 15.0666 18.1125 15.9686 17.8437 16.8086C17.5755 17.6486 16.6881 18.1082 15.8621 17.8355L10.5741 16.0879C9.74808 15.8152 9.29612 14.9132 9.56489 14.0727L11.2827 8.69558C11.5509 7.85555 12.4384 7.39536 13.2644 7.66869C14.0904 7.94145 14.5424 8.84396 14.2741 9.68395L13.7651 11.2771Z" fill="white"/>
</svg>
