<svg width="18" height="9" viewBox="0 0 18 9" fill="none" xmlns="http://www.w3.org/2000/svg">
<ellipse cx="9" cy="4.5" rx="9" ry="4.5" fill="white"/>
<path d="M10.4398 0.52537V1.16471C13.2259 1.45675 15.2972 2.52019 15.2972 3.78418C15.2972 5.2725 12.4259 6.48333 8.89649 6.48333C5.36703 6.48333 2.49577 5.2725 2.49577 3.78418C2.49577 2.53632 4.51434 1.48406 7.24617 1.17627V0.535081C3.62381 0.883966 0.895752 2.35706 0.895752 4.11667C0.895752 6.13475 4.48491 7.77689 8.89649 7.77689C13.3081 7.77689 16.8972 6.13488 16.8972 4.11667C16.8972 2.33999 14.1152 0.855338 10.4398 0.525337V0.52537Z" fill="#3B3B3B" stroke="#3B3B3B" stroke-width="0.268576"/>
<path d="M7.37384 0.385645C7.37384 0.385645 8.26337 0.310234 8.83495 0.310234C9.40653 0.310234 10.3174 0.385645 10.3174 0.385645V1.2988C10.3174 1.2988 9.42045 1.2236 8.84562 1.2236C8.27079 1.2236 7.37384 1.2988 7.37384 1.2988V0.385645Z" fill="#3B3B3B"/>
<path d="M8.89678 4.62328C7.36443 4.62328 6.11768 4.08957 6.11768 3.4336C6.11768 3.04183 6.56261 2.69375 7.2473 2.47688V1.85589C5.59883 2.13748 4.4303 2.82735 4.4303 3.63219C4.4303 4.6865 6.43388 5.54425 8.89668 5.54425C11.3595 5.54425 13.3631 4.68653 13.3631 3.63219C13.3631 2.8101 12.1445 2.10752 10.44 1.83803V2.4449C11.1847 2.65861 11.6758 3.02204 11.6758 3.43373C11.6758 4.0896 10.4291 4.62328 8.89678 4.62328Z" fill="#3B3B3B" stroke="#3B3B3B" stroke-width="0.268576"/>
<path d="M7.3739 1.6966C7.3739 1.6966 8.26343 1.60001 8.83501 1.60001C9.40659 1.60001 10.3175 1.68585 10.3175 1.68585V2.5453C10.3175 2.5453 9.42051 2.41638 8.84568 2.41638C8.27085 2.41638 7.3739 2.56678 7.3739 2.56678V1.6966Z" fill="#3B3B3B"/>
</svg>
