<svg width="87" height="29" viewBox="0 0 87 29" fill="none" xmlns="http://www.w3.org/2000/svg">
<path d="M11 1H76C81.5229 1 86 5.47715 86 11V18C86 23.5228 81.5229 28 76 28H11C5.47715 28 1 23.5228 1 18V11C1 5.47715 5.47715 1 11 1Z" fill="#39F3FF" fill-opacity="0.15" stroke="#39F3FF" stroke-width="2"/>
<g filter="url(#filter0_d_1220_6)">
<path d="M10.5624 15.8815C10.5624 16.0075 10.5624 16.1515 10.5624 16.3135C10.5714 16.4755 10.5894 16.651 10.6164 16.84C10.6434 17.02 10.6884 17.2 10.7514 17.38C10.8144 17.56 10.8999 17.731 11.0079 17.893C11.1879 18.154 11.3994 18.37 11.6424 18.541C11.8854 18.712 12.1419 18.847 12.4119 18.946C12.6909 19.045 12.9789 19.1125 13.2759 19.1485C13.5729 19.1935 13.8654 19.216 14.1534 19.216C14.3784 19.216 14.6259 19.198 14.8959 19.162C15.1659 19.135 15.4359 19.081 15.7059 19C15.9759 18.919 16.2414 18.802 16.5024 18.649C16.7634 18.496 17.0019 18.298 17.2179 18.055C17.3709 17.875 17.4924 17.6725 17.5824 17.4475C17.6724 17.2135 17.7399 16.984 17.7849 16.759C17.8299 16.534 17.8569 16.327 17.8659 16.138C17.8749 15.949 17.8794 15.805 17.8794 15.706V9.253H15.1389V15.8005C15.1389 15.9265 15.1344 16.075 15.1254 16.246C15.1164 16.417 15.0804 16.579 15.0174 16.732C14.9544 16.876 14.8554 17.002 14.7204 17.11C14.5854 17.209 14.3964 17.2585 14.1534 17.2585C13.9194 17.2585 13.7394 17.209 13.6134 17.11C13.4964 17.002 13.4109 16.876 13.3569 16.732C13.3029 16.579 13.2714 16.426 13.2624 16.273C13.2534 16.111 13.2489 15.9805 13.2489 15.8815H10.5624ZM19.2608 15.5845C19.2608 15.7915 19.2743 16.0075 19.3013 16.2325C19.3283 16.4575 19.3778 16.6825 19.4498 16.9075C19.5218 17.1325 19.6208 17.353 19.7468 17.569C19.8728 17.776 20.0348 17.974 20.2328 18.163C20.5658 18.478 20.9798 18.7255 21.4748 18.9055C21.9788 19.0765 22.6088 19.162 23.3648 19.162C24.0668 19.162 24.6338 19.072 25.0658 18.892C25.5068 18.703 25.8713 18.469 26.1593 18.19C26.5103 17.839 26.7623 17.4295 26.9153 16.9615C27.0683 16.4845 27.1448 15.9985 27.1448 15.5035C27.1448 14.9005 27.0413 14.3785 26.8343 13.9375C26.6363 13.4965 26.3618 13.132 26.0108 12.844C25.6598 12.556 25.2458 12.3445 24.7688 12.2095C24.2918 12.0655 23.7788 11.9935 23.2298 11.9935C22.5548 11.9935 21.9698 12.0835 21.4748 12.2635C20.9798 12.4435 20.5658 12.6955 20.2328 13.0195C19.9088 13.3345 19.6658 13.7125 19.5038 14.1535C19.3418 14.5855 19.2608 15.0625 19.2608 15.5845ZM21.8933 15.598C21.8933 15.346 21.9113 15.094 21.9473 14.842C21.9833 14.581 22.0463 14.347 22.1363 14.14C22.2353 13.933 22.3703 13.7665 22.5413 13.6405C22.7213 13.5055 22.9508 13.438 23.2298 13.438C23.4818 13.438 23.6888 13.4965 23.8508 13.6135C24.0218 13.7305 24.1568 13.888 24.2558 14.086C24.3548 14.275 24.4223 14.5 24.4583 14.761C24.5033 15.022 24.5258 15.301 24.5258 15.598C24.5258 15.832 24.5078 16.0795 24.4718 16.3405C24.4358 16.5925 24.3683 16.822 24.2693 17.029C24.1793 17.236 24.0488 17.407 23.8778 17.542C23.7068 17.677 23.4818 17.7445 23.2028 17.7445C23.1488 17.7445 23.0768 17.74 22.9868 17.731C22.9058 17.722 22.8203 17.6995 22.7303 17.6635C22.6403 17.6275 22.5503 17.5735 22.4603 17.5015C22.3703 17.4295 22.2893 17.3305 22.2173 17.2045C22.0733 16.9525 21.9833 16.678 21.9473 16.381C21.9113 16.084 21.8933 15.823 21.8933 15.598ZM28.6567 11.089H31.2487V9.28H28.6567V11.089ZM28.6837 19H31.2217V12.223H28.6837V19ZM33.1118 19H35.6363V15.112C35.6363 15.049 35.6408 14.941 35.6498 14.788C35.6678 14.626 35.7083 14.464 35.7713 14.302C35.8433 14.14 35.9558 13.996 36.1088 13.87C36.2618 13.744 36.4823 13.681 36.7703 13.681C37.0313 13.681 37.2293 13.735 37.3643 13.843C37.5083 13.942 37.6118 14.068 37.6748 14.221C37.7468 14.365 37.7873 14.5225 37.7963 14.6935C37.8053 14.8555 37.8098 14.995 37.8098 15.112V19H40.3478V14.896C40.3478 14.662 40.3343 14.383 40.3073 14.059C40.2803 13.735 40.1903 13.429 40.0373 13.141C39.8843 12.844 39.6368 12.592 39.2948 12.385C38.9618 12.178 38.4848 12.0745 37.8638 12.0745C37.5128 12.0745 37.2113 12.115 36.9593 12.196C36.7163 12.268 36.5048 12.3625 36.3248 12.4795C36.1538 12.5965 36.0098 12.727 35.8928 12.871C35.7848 13.006 35.6903 13.1365 35.6093 13.2625L35.5823 12.223H33.0443L33.1118 13.6675V19ZM46.5713 19H49.1093V15.139C49.1093 14.95 49.1228 14.77 49.1498 14.599C49.1858 14.419 49.2443 14.2615 49.3253 14.1265C49.4063 13.9825 49.5143 13.87 49.6493 13.789C49.7933 13.708 49.9733 13.6675 50.1893 13.6675C50.4413 13.6675 50.6348 13.717 50.7698 13.816C50.9138 13.906 51.0173 14.0275 51.0803 14.1805C51.1433 14.3245 51.1793 14.482 51.1883 14.653C51.1973 14.824 51.2018 14.986 51.2018 15.139V19H53.7263V15.193C53.7263 14.905 53.7398 14.6935 53.7668 14.5585C53.7938 14.4235 53.8298 14.3155 53.8748 14.2345C53.9918 14.0095 54.1358 13.861 54.3068 13.789C54.4778 13.708 54.6488 13.6675 54.8198 13.6675C55.0718 13.6675 55.2653 13.7125 55.4003 13.8025C55.5353 13.8925 55.6343 14.0095 55.6973 14.1535C55.7603 14.2975 55.7963 14.4595 55.8053 14.6395C55.8143 14.8195 55.8188 14.995 55.8188 15.166L55.8323 19H58.3703V15.2875C58.3703 14.8915 58.3523 14.5 58.3163 14.113C58.2893 13.726 58.1858 13.3885 58.0058 13.1005C57.9428 13.0015 57.8528 12.8935 57.7358 12.7765C57.6278 12.6505 57.4883 12.5335 57.3173 12.4255C57.1463 12.3175 56.9393 12.2275 56.6963 12.1555C56.4623 12.0835 56.1878 12.0475 55.8728 12.0475C55.6928 12.0475 55.4993 12.0655 55.2923 12.1015C55.0853 12.1285 54.8738 12.1915 54.6578 12.2905C54.4418 12.3805 54.2303 12.511 54.0233 12.682C53.8253 12.844 53.6453 13.0555 53.4833 13.3165C53.3753 13.0195 53.2178 12.79 53.0108 12.628C52.8128 12.457 52.6058 12.331 52.3898 12.25C52.1828 12.16 51.9803 12.106 51.7823 12.088C51.5933 12.07 51.4493 12.061 51.3503 12.061C50.8373 12.061 50.3873 12.1645 50.0003 12.3715C49.6133 12.5785 49.2983 12.9025 49.0553 13.3435L49.0283 12.223H46.5173C46.5173 12.277 46.5173 12.3805 46.5173 12.5335C46.5263 12.6775 46.5353 12.835 46.5443 13.006C46.5533 13.177 46.5578 13.339 46.5578 13.492C46.5668 13.636 46.5713 13.726 46.5713 13.762V19ZM66.8078 19C66.7808 18.829 66.7583 18.6895 66.7403 18.5815C66.7223 18.4735 66.7088 18.3745 66.6998 18.2845C66.6908 18.1945 66.6818 18.109 66.6728 18.028C66.6728 17.938 66.6728 17.83 66.6728 17.704V14.545C66.6728 14.176 66.6278 13.8385 66.5378 13.5325C66.4478 13.2265 66.2948 12.97 66.0788 12.763C65.8988 12.592 65.6873 12.457 65.4443 12.358C65.2103 12.25 64.9718 12.169 64.7288 12.115C64.4858 12.061 64.2518 12.025 64.0268 12.007C63.8018 11.989 63.6128 11.98 63.4598 11.98C62.8388 11.98 62.2808 12.0565 61.7858 12.2095C61.2908 12.3535 60.9128 12.5605 60.6518 12.8305C60.5258 12.9655 60.4268 13.1005 60.3548 13.2355C60.2828 13.3705 60.2288 13.501 60.1928 13.627C60.1658 13.744 60.1478 13.8565 60.1388 13.9645C60.1298 14.0725 60.1253 14.167 60.1253 14.248H62.5553C62.5463 13.861 62.6363 13.5955 62.8253 13.4515C63.0143 13.2985 63.2258 13.222 63.4598 13.222C63.6488 13.222 63.8018 13.2625 63.9188 13.3435C64.0358 13.4155 64.1213 13.519 64.1753 13.654C64.2383 13.78 64.2743 13.9285 64.2833 14.0995C64.3013 14.2705 64.3103 14.446 64.3103 14.626C63.5813 14.599 62.9288 14.6215 62.3528 14.6935C61.7858 14.7655 61.2998 14.9005 60.8948 15.0985C60.4988 15.2875 60.1973 15.544 59.9903 15.868C59.7833 16.183 59.6798 16.57 59.6798 17.029C59.6798 17.326 59.7248 17.605 59.8148 17.866C59.9138 18.118 60.0578 18.3385 60.2468 18.5275C60.4448 18.7165 60.6923 18.865 60.9893 18.973C61.2953 19.081 61.6553 19.135 62.0693 19.135C62.4203 19.135 62.7173 19.099 62.9603 19.027C63.2033 18.955 63.4103 18.865 63.5813 18.757C63.7613 18.649 63.9053 18.532 64.0133 18.406C64.1213 18.271 64.2158 18.145 64.2968 18.028C64.2968 18.244 64.3013 18.4285 64.3103 18.5815C64.3283 18.7345 64.3508 18.874 64.3778 19H66.8078ZM64.2968 15.8005C64.3058 15.9445 64.3013 16.138 64.2833 16.381C64.2653 16.624 64.2068 16.8535 64.1078 17.0695C63.9818 17.3395 63.8153 17.515 63.6083 17.596C63.4103 17.677 63.2438 17.7175 63.1088 17.7175C62.8028 17.7175 62.5688 17.6275 62.4068 17.4475C62.2538 17.2675 62.1773 17.0515 62.1773 16.7995C62.1773 16.5565 62.2358 16.3675 62.3528 16.2325C62.4788 16.0975 62.6363 15.9985 62.8253 15.9355C63.0233 15.8725 63.2483 15.8365 63.5003 15.8275C63.7613 15.8095 64.0268 15.8005 64.2968 15.8005ZM68.2567 12.223C68.2567 12.295 68.2567 12.358 68.2567 12.412C68.2657 12.466 68.2702 12.5335 68.2702 12.6145C68.2792 12.6865 68.2837 12.7765 68.2837 12.8845C68.2927 12.9925 68.3017 13.141 68.3107 13.33V21.565H70.8487V18.19C70.9207 18.271 71.0107 18.37 71.1187 18.487C71.2267 18.595 71.3617 18.6985 71.5237 18.7975C71.6857 18.8875 71.8792 18.964 72.1042 19.027C72.3292 19.099 72.5902 19.135 72.8872 19.135C73.2742 19.135 73.6477 19.0675 74.0077 18.9325C74.3677 18.7975 74.6872 18.586 74.9662 18.298C75.2542 18.001 75.4837 17.623 75.6547 17.164C75.8257 16.696 75.9112 16.1335 75.9112 15.4765C75.9112 14.7835 75.8122 14.2165 75.6142 13.7755C75.4162 13.3255 75.1687 12.9745 74.8717 12.7225C74.5837 12.4615 74.2687 12.286 73.9267 12.196C73.5847 12.097 73.2742 12.0475 72.9952 12.0475C72.6442 12.0475 72.3382 12.0925 72.0772 12.1825C71.8252 12.2635 71.6092 12.367 71.4292 12.493C71.2582 12.61 71.1187 12.736 71.0107 12.871C70.9117 12.997 70.8307 13.1005 70.7677 13.1815L70.7407 12.223H68.2567ZM70.7947 15.5845C70.7947 15.4855 70.7992 15.3235 70.8082 15.0985C70.8262 14.8645 70.8757 14.6305 70.9567 14.3965C71.0377 14.1625 71.1637 13.9555 71.3347 13.7755C71.5147 13.5955 71.7667 13.5055 72.0907 13.5055C72.3607 13.5055 72.5767 13.5775 72.7387 13.7215C72.9007 13.8655 73.0222 14.041 73.1032 14.248C73.1842 14.446 73.2382 14.6575 73.2652 14.8825C73.2922 15.0985 73.3057 15.2875 73.3057 15.4495C73.3057 15.7015 73.2877 15.958 73.2517 16.219C73.2247 16.471 73.1617 16.705 73.0627 16.921C72.9727 17.128 72.8422 17.299 72.6712 17.434C72.5092 17.56 72.2932 17.623 72.0232 17.623C71.7352 17.623 71.5057 17.542 71.3347 17.38C71.1727 17.218 71.0512 17.029 70.9702 16.813C70.8892 16.588 70.8397 16.363 70.8217 16.138C70.8037 15.904 70.7947 15.7195 70.7947 15.5845Z" fill="#39F3FF"/>
</g>
<defs>
<filter id="filter0_d_1220_6" x="7.5625" y="6.75293" width="71.3486" height="18.3125" filterUnits="userSpaceOnUse" color-interpolation-filters="sRGB">
<feFlood flood-opacity="0" result="BackgroundImageFix"/>
<feColorMatrix in="SourceAlpha" type="matrix" values="0 0 0 0 0 0 0 0 0 0 0 0 0 0 0 0 0 0 127 0" result="hardAlpha"/>
<feOffset dy="0.5"/>
<feGaussianBlur stdDeviation="1.5"/>
<feComposite in2="hardAlpha" operator="out"/>
<feColorMatrix type="matrix" values="0 0 0 0 0 0 0 0 0 0 0 0 0 0 0 0 0 0 0.2 0"/>
<feBlend mode="normal" in2="BackgroundImageFix" result="effect1_dropShadow_1220_6"/>
<feBlend mode="normal" in="SourceGraphic" in2="effect1_dropShadow_1220_6" result="shape"/>
</filter>
</defs>
</svg>
