<svg width="68" height="38" viewBox="0 0 68 38" fill="none" xmlns="http://www.w3.org/2000/svg">
<path d="M34.0231 15.9989C34.0231 8.34062 40.2314 2.13232 47.8897 2.13232C55.548 2.13232 61.7563 8.34062 61.7563 15.9989C61.7563 23.6573 55.548 29.8655 47.8897 29.8655C40.2314 29.8655 34.0231 23.6573 34.0231 15.9989Z" fill="white"/>
<path d="M0 19C0 8.50659 8.50659 0 19 0H49C59.4934 0 68 8.50659 68 19C68 29.4934 59.4934 38 49 38H19C8.50659 38 0 29.4934 0 19Z" fill="#FF72D7"/>
<path d="M33 19C33 10.1634 40.1634 3 49 3C57.8366 3 65 10.1634 65 19C65 27.8366 57.8366 35 49 35C40.1634 35 33 27.8366 33 19Z" fill="white"/>
<path d="M43.3827 28.4211H54.5723C55.6066 28.4211 56.5 27.575 56.5 26.4934V18.5477C56.5 17.5134 55.6539 16.62 54.5723 16.62H54.0551V14.0341C54.0551 11.6833 52.1274 9.75562 49.7766 9.75562H48.2251C45.8744 9.75562 43.9467 11.6833 43.9467 14.0341V16.62H43.4295C42.3951 16.62 41.5018 17.4661 41.5018 18.5477V26.4934C41.4549 27.5746 42.3482 28.4211 43.3825 28.4211H43.3827ZM50.2471 25.036C50.294 25.2239 50.1529 25.4591 49.9178 25.4591H48.0373C47.8022 25.4591 47.6612 25.2711 47.7081 25.036L48.3194 22.5911C47.8022 22.356 47.426 21.8388 47.426 21.2278C47.426 20.3817 48.0842 19.7232 48.9307 19.7232C49.7768 19.7232 50.4353 20.3814 50.4353 21.2278C50.4353 21.8391 50.0592 22.3563 49.5419 22.5911L50.2471 25.036ZM46.4858 14.0814C46.4858 13.1412 47.2381 12.3889 48.1783 12.3889H49.7298C50.67 12.3889 51.4224 13.1412 51.4224 14.0814V16.6674H46.4857L46.4858 14.0814Z" fill="#FF72D7"/>
</svg>
