<svg width="18" height="18" viewBox="0 0 18 18" fill="none" xmlns="http://www.w3.org/2000/svg">
<path d="M3.46551 17.5319L10.9533 17.522C11.1593 17.5212 11.3481 17.4932 11.5257 17.4495C11.9282 17.3488 12.1731 16.9406 12.0725 16.5378C11.9718 16.135 11.5637 15.8903 11.1609 15.9909L10.9524 16.0186L3.46461 16.0285C2.92478 16.0276 2.50681 15.587 2.50412 15.0794L2.51181 14.9113L2.729 12.7891C2.83445 11.9074 3.58146 11.2487 4.47815 11.2475H9.92037C10.2228 11.2474 10.5128 11.3258 10.7544 11.4572C11.1192 11.6551 11.5755 11.5199 11.7737 11.1551C11.9717 10.7904 11.8365 10.3341 11.4717 10.136C11.0117 9.8865 10.4798 9.74452 9.92037 9.74439H4.47782C2.82875 9.74323 1.43144 10.9683 1.23564 12.6122L1.23436 12.6245L1.01371 14.7794L1.01064 14.8218L1.00077 15.0425L1 15.0764C1.00051 16.4114 2.083 17.5294 3.46542 17.5318L3.46551 17.5319Z" fill="black" stroke="black" stroke-width="0.472222"/>
<path d="M7.21833 8.57142C9.30934 8.57104 11.0034 6.87686 11.004 4.78571C11.0035 2.69457 9.30921 1.00033 7.21833 1C5.12718 1.00051 3.43327 2.69457 3.43262 4.78571C3.433 6.87673 5.12718 8.57077 7.21833 8.57142ZM7.21833 2.50333C8.4784 2.50576 9.49835 3.52545 9.50052 4.78565C9.49834 6.04571 8.4784 7.06567 7.21833 7.06796C5.95826 7.06553 4.93831 6.04585 4.93601 4.78565C4.93832 3.52558 5.95813 2.50563 7.21833 2.50333Z" fill="black" stroke="black" stroke-width="0.472222"/>

<rect x="14.2224" y="10.5168" width="1.88889" height="5.66667" rx="0.944444" fill="black"/>
<rect x="18.0002" y="12.4058" width="1.88889" height="5.66667" rx="0.944444" transform="rotate(90 18.0002 12.4058)" fill="black"/>

</svg>
