<svg width="15" height="17" viewBox="0 0 15 17" fill="none" xmlns="http://www.w3.org/2000/svg">
<path d="M11.9683 2.04775C10.6127 0.763602 8.8947 -0.00260383 7.08346 6.64905e-06H7.03402C3.35837 0.0554976 0.0927236 3.25734 0.000962681 6.67312C-0.0131461 7.42627 0.127941 8.17506 0.416588 8.87855L0.421163 8.88982C0.438577 9.00009 1.92839 12.1138 6.56134 16.7449V16.7451C6.57735 16.7658 6.59477 16.7856 6.61333 16.8045C6.72988 16.9256 6.89512 16.9963 7.06953 16.9999C7.24405 17.0034 7.41233 16.9394 7.53448 16.8231C9.77309 14.7315 11.381 12.6515 12.2904 11.328C13.2913 9.87385 13.7233 8.94091 13.7411 8.90014C13.7443 8.89279 13.7475 8.88591 13.7504 8.87856V8.87844C14.0366 8.18078 14.1776 7.43861 14.166 6.69162C14.1421 4.98774 13.3332 3.34899 11.9683 2.0474L11.9683 2.04775ZM7.10364 9.3155C5.55587 9.31349 4.29559 8.14282 4.30346 6.70964C4.31122 5.27633 5.57429 4.08349 7.10325 4.08349C8.6322 4.08349 9.8931 5.2787 9.90342 6.71094C9.91384 8.14319 8.64965 9.31347 7.10364 9.3155V9.3155Z" fill="white"/>
</svg>
