<svg width="18" height="21" viewBox="0 0 18 21" fill="none" xmlns="http://www.w3.org/2000/svg">
<path d="M8.30289 20.7133L8.79481 21L9.28673 20.7133C9.62551 20.5213 17.5895 15.7916 17.5895 8.79481C17.5895 5.65262 15.9134 2.7495 13.1922 1.17841C10.4711 -0.392803 7.11838 -0.392803 4.39732 1.17841C1.6762 2.74939 0 5.65274 0 8.79481C0 15.7917 7.96424 20.5213 8.30278 20.7133H8.30289ZM8.79481 1.95436C10.6091 1.95436 12.3489 2.67511 13.6318 3.95792C14.9146 5.24074 15.6353 6.98058 15.6353 8.79487C15.6353 13.7591 10.4234 17.6159 8.79487 18.7135C7.14984 17.6191 1.95441 13.7721 1.95441 8.79487C1.95441 6.98058 2.67516 5.24074 3.95798 3.95792C5.2408 2.67511 6.98064 1.95436 8.79493 1.95436H8.79481Z" fill="white"/>
<path d="M8.79506 12.7044C9.83183 12.7044 10.8259 12.2927 11.5589 11.5594C12.2921 10.8264 12.7039 9.83238 12.7039 8.79555C12.7039 7.75872 12.2922 6.7647 11.5589 6.03168C10.8259 5.29848 9.83189 4.88672 8.79506 4.88672C7.75823 4.88672 6.76422 5.29843 6.03119 6.03168C5.298 6.7647 4.88623 7.75872 4.88623 8.79555C4.88623 9.83238 5.29794 10.8264 6.03119 11.5594C6.76422 12.2926 7.75823 12.7044 8.79506 12.7044ZM8.79506 6.84113C9.31334 6.84113 9.81048 7.04722 10.177 7.41372C10.5435 7.78022 10.7496 8.27738 10.7496 8.79565C10.7496 9.31392 10.5435 9.81108 10.177 10.1776C9.8105 10.5441 9.31333 10.7502 8.79506 10.7502C8.27679 10.7502 7.77964 10.5441 7.41313 10.1776C7.04663 9.81109 6.84054 9.31392 6.84054 8.79565C6.84054 8.27738 7.04663 7.78023 7.41313 7.41372C7.77963 7.04722 8.27679 6.84113 8.79506 6.84113Z" fill="white"/>
</svg>
