<svg width="13" height="16" viewBox="0 0 13 16" fill="none" xmlns="http://www.w3.org/2000/svg">
<path d="M10.8127 1.87317C9.58799 0.698503 8.03589 -0.00238185 6.39953 6.0822e-06H6.35486C3.03411 0.0507663 0.0837709 2.97964 0.000869731 6.10422C-0.0118768 6.79317 0.115588 7.47811 0.376365 8.12163L0.380499 8.13194C0.396231 8.23281 1.74219 11.081 5.92782 15.3174V15.3175C5.94229 15.3365 5.95802 15.3546 5.97479 15.3718C6.08009 15.4827 6.22938 15.5473 6.38694 15.5506C6.54461 15.5538 6.69664 15.4953 6.807 15.3889C8.82947 13.4756 10.2821 11.5729 11.1038 10.3623C12.008 9.03208 12.3983 8.17867 12.4144 8.14138C12.4172 8.13466 12.4201 8.12837 12.4227 8.12164V8.12154C12.6813 7.48335 12.8087 6.80445 12.7982 6.12114C12.7766 4.56252 12.0458 3.06348 10.8127 1.87285L10.8127 1.87317ZM6.41776 8.52133C5.01943 8.51949 3.88083 7.44863 3.88795 6.13762C3.89495 4.82651 5.03607 3.73537 6.4174 3.73537C7.79874 3.73537 8.93789 4.82868 8.94721 6.13882C8.95663 7.44896 7.81449 8.51947 6.41776 8.52133Z" fill="white"/>
</svg>
